<svg width="590" height="310" fill="none" xmlns="http://www.w3.org/2000/svg"><mask id="a" fill="#fff"><path fill-rule="evenodd" clip-rule="evenodd" d="M193 20c0-11.046 8.954-20 20-20h357c11.046 0 20 8.954 20 20v269c0 11.046-8.954 20-20 20h-71.631a.369.369 0 00-.369.369.369.369 0 01-.369.368H20c-11.046 0-20-8.954-20-20v-202c0-11.045 8.954-20 20-20h153c11.046 0 20-8.954 20-20V20z"/></mask><path d="M570 3H213v-6h357v6zm17 286V20h6v269h-6zm-88.631 17H570v6h-71.631v-6zM20 306.737h477.631v6H20v-6zm-17-219v202h-6v-202h6zm170-17H20v-6h153v6zM196 20v27.737h-6V20h6zm-23 44.737c9.389 0 17-7.61 17-17h6c0 12.703-10.297 23-23 23v-6zm-176 23c0-12.702 10.297-23 23-23v6c-9.389 0-17 7.612-17 17h-6zm23 225c-12.703 0-23-10.297-23-23h6c0 9.389 7.611 17 17 17v6zm481-3.368a3.368 3.368 0 01-3.369 3.368v-6a2.631 2.631 0 00-2.631 2.632h6zM498.369 312a2.631 2.631 0 002.631-2.631h-6a3.369 3.369 0 013.369-3.369v6zM593 289c0 12.703-10.297 23-23 23v-6c9.389 0 17-7.611 17-17h6zM213 3c-9.389 0-17 7.611-17 17h-6c0-12.703 10.297-23 23-23v6zm357-6c12.703 0 23 10.297 23 23h-6c0-9.389-7.611-17-17-17v-6z" fill="#FF8A00" mask="url(#a)"/></svg>