<svg width="590" height="311" fill="none" xmlns="http://www.w3.org/2000/svg"><mask id="a" fill="#fff"><path fill-rule="evenodd" clip-rule="evenodd" d="M397.079 20.939c0-11.046-8.954-20-20-20H20c-11.046 0-20 8.954-20 20v270c0 11.046 8.954 20 20 20h376.979a.1.1 0 00.1-.101c0-.056.046-.101.101-.101H570c11.046 0 20-8.954 20-20v-202c0-11.045-8.954-20-20-20H417.079c-11.045 0-20-8.954-20-20V20.94z"/></mask><path d="M20 3.939h357.079v-6H20v6zm-17 287v-270h-6v270h6zm393.979 17H20v6h376.979v-6zM570 307.737H397.18v6H570v-6zm17-219v202h6v-202h-6zm-169.921-17H570v-6H417.079v6zm-23-50.798v27.798h6V20.94h-6zm23 44.798c-9.388 0-17-7.61-17-17h-6c0 12.703 10.298 23 23 23v-6zm175.921 23c0-12.702-10.297-23-23-23v6c9.389 0 17 7.612 17 17h6zm-23 225c12.703 0 23-10.297 23-23h-6c0 9.389-7.611 17-17 17v6zm-169.921-2.899a2.9 2.9 0 01-2.899 2.899v-6a3.101 3.101 0 00-3.101 3.101h6zm-3.1 3.101a3.1 3.1 0 003.1-3.101h-6a2.9 2.9 0 012.9-2.899v6zM-3 290.939c0 12.702 10.297 23 23 23v-6c-9.389 0-17-7.611-17-17h-6zm380.079-287c9.389 0 17 7.611 17 17h6c0-12.703-10.297-23-23-23v6zM20-2.061c-12.703 0-23 10.297-23 23h6c0-9.389 7.611-17 17-17v-6z" fill="#FF8A00" mask="url(#a)"/></svg>