<svg width="66" height="67" fill="none" xmlns="http://www.w3.org/2000/svg"><circle cx="32.639" cy="33.438" r="32.5" fill="#FF8A00"/><path d="M43.296 11.59L33.85 9.057a.865.865 0 00-1.059.611l-.726 2.709 2.017.54a.865.865 0 01-.449 1.67l-2.015-.54L30.8 17.1l4.378 1.173a.865.865 0 01-.449 1.67l-4.377-1.173-.818 3.053 2.017.54a.865.865 0 01-.449 1.671l-2.015-.541-.818 3.053 4.378 1.173a.865.865 0 01-.449 1.67l-4.377-1.173-.818 3.053 2.017.54a.865.865 0 01-.449 1.671l-2.015-.541-.818 3.053 4.378 1.173a.865.865 0 01-.449 1.67l-4.377-1.173-.818 3.053 2.017.54a.865.865 0 01-.449 1.671l-2.015-.541-.818 3.053 4.378 1.173a.865.865 0 01-.449 1.671l-4.377-1.174-.818 3.053 2.017.54a.865.865 0 01-.449 1.671l-2.015-.54-.726 2.705a.866.866 0 00.612 1.059l9.446 2.53c.23.064.464.026.655-.084a.867.867 0 00.404-.525L43.908 12.65a.867.867 0 00-.612-1.06z" fill="#fff"/></svg>