<svg width="66" height="67" fill="none" xmlns="http://www.w3.org/2000/svg"><circle cx="32.639" cy="33.438" r="32.5" fill="#FF8A00"/><path d="M47.25 18H17.917a.906.906 0 00-.917.896v1.791c0 .495.41.896.917.896H47.25a.906.906 0 00.917-.895v-1.792A.906.906 0 0047.25 18zm0 26.875H17.917a.906.906 0 00-.917.896v1.791c0 .495.41.896.917.896H47.25a.906.906 0 00.917-.895V45.77a.906.906 0 00-.917-.896zm-17.692-6.897a.922.922 0 00-1.302 0 .873.873 0 000 1.272l3.667 3.584a.923.923 0 001.302 0l3.666-3.584a.873.873 0 000-1.272.922.922 0 00-1.301 0l-2.109 2.06V26.44l2.109 2.06a.888.888 0 00.641.268.906.906 0 00.642-.268.873.873 0 000-1.272l-3.667-3.583a.935.935 0 00-1.301 0l-3.667 3.583a.873.873 0 000 1.272.922.922 0 001.302 0l2.108-2.06v13.599l-2.108-2.06h.018z" fill="#fff"/></svg>