<svg width="66" height="66" fill="none" xmlns="http://www.w3.org/2000/svg"><circle cx="33.362" cy="33.344" r="32.5" fill="#FF8A00"/><path d="M19.029 41.483a11.844 11.844 0 019.204.434.664.664 0 00.55.014.653.653 0 00.38-.4 33.591 33.591 0 001.702-7.11 35.314 35.314 0 00-2.645-18.137.683.683 0 00-1.303.25 39.544 39.544 0 01-8.648 23.89.682.682 0 00.76 1.059zm33.223 1.75a.676.676 0 00-.543-.237l-35.055 1.382a.687.687 0 00-.653.655.674.674 0 00.07.329l2.123 4.246a.68.68 0 00.61.373h26.339a7.766 7.766 0 004.247-1.445 7.87 7.87 0 003.011-4.728.686.686 0 00-.15-.576v.001z" fill="#fff"/><path d="M32.262 23.04a31.968 31.968 0 01-.997 18.232.685.685 0 00.95.828 25.074 25.074 0 0110.65-2.714c2.363-.07 4.725.2 7.012.8a.685.685 0 00.848-.725C49.56 26.286 39.503 15.416 28.578 12.03a.682.682 0 00-.773 1.024 31.054 31.054 0 014.457 9.984z" fill="#fff"/></svg>