<svg width="106" height="106" fill="none" xmlns="http://www.w3.org/2000/svg"><circle cx="52.593" cy="53.086" r="52.5" fill="#FF8A00"/><path d="M49.166 30.94c0-3.17 2.594-5.75 5.782-5.75h2l-.603-1.668a2.313 2.313 0 00-2.967-1.383L33.16 29.457a2.296 2.296 0 00-1.38 2.952l1.068 2.9h16.318v-4.37z" fill="#fff"/><path d="M54.948 28.64a2.306 2.306 0 00-2.313 2.3v4.37H72.87v-4.37c0-1.27-1.035-2.3-2.312-2.3h-15.61zm24.05 39.843h-8.093c-4.782 0-8.673-3.868-8.673-8.624 0-4.755 3.89-8.624 8.673-8.624h8.094V43.36c0-2.54-2.071-4.6-4.625-4.6H29.625c-2.554 0-4.625 2.06-4.625 4.6v32.915c0 2.54 2.07 4.6 4.625 4.6h44.749c2.554 0 4.625-2.06 4.625-4.6v-7.79z" fill="#fff"/><path d="M82.468 54.684H70.904c-2.87 0-5.204 2.32-5.204 5.174 0 2.853 2.335 5.174 5.204 5.174h11.563a1.73 1.73 0 001.734-1.724v-6.9c0-.95-.778-1.724-1.734-1.724zm-11.563 6.899a1.73 1.73 0 01-1.735-1.725 1.73 1.73 0 011.735-1.725 1.73 1.73 0 011.734 1.725 1.73 1.73 0 01-1.734 1.725z" fill="#fff"/></svg>