<svg width="66" height="66" fill="none" xmlns="http://www.w3.org/2000/svg"><circle cx="33.362" cy="33.344" r="32.5" fill="#FF8A00"/><path d="M54.013 21.049v-3.682h-3.647a3.7 3.7 0 001.068 2.603 3.63 3.63 0 002.58 1.079zm-38.66-3.682h-3.646v3.682a3.618 3.618 0 002.579-1.079 3.684 3.684 0 001.068-2.603zm14.59 25.77c0-1.937.39-3.783 1.096-5.461-1.914-.638-3.285-2.231-3.285-4.11h2.918c0 .71.838 1.335 1.86 1.449a14.055 14.055 0 012.063-2.314c-.407-.362-1.043-.608-1.735-.608-2.815 0-5.106-1.981-5.106-4.418 0-1.997 1.54-3.687 3.647-4.231v-2.395h2.918v2.395c2.106.544 3.647 2.234 3.647 4.231h-2.918c0-.784-1.023-1.472-2.188-1.472-1.166 0-2.188.688-2.188 1.472 0 .785 1.022 1.473 2.188 1.473 1.692 0 3.191.72 4.12 1.82a13.679 13.679 0 016.821-1.82c4.048 0 7.678 1.763 10.212 4.555V23.258a5.808 5.808 0 01-4.126-1.726 5.918 5.918 0 01-1.71-4.165H17.543a5.92 5.92 0 01-1.709 4.165 5.808 5.808 0 01-4.126 1.726v14.726c1.547 0 3.032.62 4.126 1.725a5.919 5.919 0 011.71 4.165H29.98c-.013-.245-.037-.487-.037-.736zm-18.236-2.944v3.681h3.647a3.712 3.712 0 00-1.068-2.603 3.645 3.645 0 00-2.58-1.078z" fill="#fff"/><path d="M43.801 32.092c-6.042 0-10.941 4.945-10.941 11.044 0 6.1 4.899 11.045 10.941 11.045 6.043 0 10.941-4.945 10.941-11.045s-4.898-11.044-10.94-11.044zm5.408 14.421l-2.063 2.082-3.345-3.376-3.345 3.376-2.063-2.082 3.345-3.377-3.345-3.376 2.063-2.083 3.345 3.377 3.345-3.377 2.063 2.083-3.345 3.376 3.345 3.377z" fill="#fff"/></svg>