<svg width="450" height="303" fill="none" xmlns="http://www.w3.org/2000/svg"><mask id="a" fill="#fff"><path fill-rule="evenodd" clip-rule="evenodd" d="M306 15c0-8.285-6.716-15-15-15H15C6.716 0 0 6.715 0 15v273c0 8.284 6.716 15 15 15h420c8.284 0 15-6.716 15-15V99c0-8.285-6.716-15-15-15H321c-8.284 0-15-6.716-15-15V15z"/></mask><path d="M15 2h276v-4H15v4zM2 288V15h-4v273h4zm68 13H15v4h55v-4zm236 0H70v4h236v-4zm129 0H306v4h129v-4zm13-202v189h4V99h-4zM321 86h114v-4H321v4zm-17-71v54h4V15h-4zm17 67c-7.18 0-13-5.82-13-13h-4c0 9.388 7.611 17 17 17v-4zM-2 288c0 9.388 7.611 17 17 17v-4c-7.18 0-13-5.821-13-13h-4zM452 99c0-9.39-7.611-17-17-17v4c7.18 0 13 5.82 13 13h4zM291 2c7.18 0 13 5.82 13 13h4c0-9.39-7.611-17-17-17v4zm144 303c9.389 0 17-7.612 17-17h-4c0 7.179-5.82 13-13 13v4zM15-2C5.611-2-2 5.61-2 15h4C2 7.82 7.82 2 15 2v-4z" fill="#FF8A00" mask="url(#a)"/></svg>