<svg width="66" height="67" fill="none" xmlns="http://www.w3.org/2000/svg"><circle cx="32.639" cy="33.438" r="32.5" fill="#FF8A00"/><path d="M50.658 22.018l-.044.076c-1.569 2.69-5.455 2.69-7.025 0l-.033-.054c-1.565-2.682-5.479-2.674-7.033.013-1.555 2.688-5.47 2.695-7.034.013l-.028-.048c-1.569-2.69-5.456-2.69-7.026 0l-.045.076c-1.569 2.69-5.456 2.69-7.026 0l-.047-.08c-.78-1.338-2.147-2.007-3.513-2.007-.443 0-.886.071-1.309.213a.724.724 0 00-.495.686v6.446a5.649 5.649 0 011.572-.221 5.5 5.5 0 014.804 2.755l.048.082a2.624 2.624 0 002.293 1.311c.959 0 1.816-.49 2.294-1.312l.044-.076a5.499 5.499 0 014.804-2.757 5.5 5.5 0 014.804 2.757l.028.048a2.623 2.623 0 002.294 1.313h.005a2.623 2.623 0 002.293-1.321 5.498 5.498 0 014.804-2.774h.011a5.498 5.498 0 014.803 2.755l.032.055a2.624 2.624 0 002.294 1.312c.958 0 1.816-.49 2.293-1.312l.045-.077c.973-1.673 2.75-2.672 4.755-2.672.619 0 1.235.098 1.824.289v-6.465a.715.715 0 00-.46-.673c-1.793-.667-3.976-.15-5.026 1.65z" fill="#fff"/><path d="M52.075 31.353l-.044.077a5.5 5.5 0 01-4.804 2.756c-2.004 0-3.8-1.03-4.804-2.755l-.032-.055a2.623 2.623 0 00-2.293-1.313h-.006a2.623 2.623 0 00-2.293 1.32 5.498 5.498 0 01-4.804 2.775h-.01c-2.005 0-3.8-1.03-4.804-2.757l-.028-.048a2.624 2.624 0 00-2.294-1.312c-.959 0-1.816.49-2.294 1.312l-.044.077a5.5 5.5 0 01-4.804 2.756c-2.004 0-3.8-1.03-4.803-2.755l-.048-.082a2.623 2.623 0 00-2.294-1.312c-.582 0-1.127.182-1.572.509v6.437a5.655 5.655 0 011.572-.222 5.5 5.5 0 014.804 2.755l.048.083a2.624 2.624 0 002.293 1.311c.959 0 1.816-.49 2.294-1.312l.044-.077a5.499 5.499 0 014.804-2.756 5.5 5.5 0 014.804 2.757l.028.048a2.623 2.623 0 002.294 1.312h.005a2.623 2.623 0 002.293-1.32 5.498 5.498 0 014.804-2.775h.011a5.498 5.498 0 014.803 2.756l.032.055a2.624 2.624 0 002.294 1.312c.958 0 1.816-.49 2.293-1.312l.045-.077c.973-1.673 2.75-2.672 4.755-2.672.619 0 1.235.098 1.824.289v-6.396a2.98 2.98 0 00-1.825-.617c-.46 0-1.6.12-2.244 1.228z" fill="#fff"/><path d="M52.075 40.98l-.044.077a5.5 5.5 0 01-4.804 2.756 5.5 5.5 0 01-4.804-2.755l-.032-.056a2.623 2.623 0 00-2.293-1.312h-.006a2.623 2.623 0 00-2.293 1.32 5.497 5.497 0 01-4.804 2.775h-.01c-2.005 0-3.8-1.03-4.804-2.756l-.028-.049a2.624 2.624 0 00-2.294-1.312c-.959 0-1.816.49-2.294 1.312l-.044.077a5.5 5.5 0 01-4.803 2.756h-.001a5.5 5.5 0 01-4.803-2.755l-.048-.082a2.624 2.624 0 00-2.294-1.312c-.582 0-1.127.182-1.572.509v4.706a1.82 1.82 0 001.82 1.82h42.504a1.82 1.82 0 001.82-1.82v-4.51a2.98 2.98 0 00-1.825-.617c-.46 0-1.6.12-2.244 1.228z" fill="#fff"/></svg>