<svg width="630" height="355" fill="none" xmlns="http://www.w3.org/2000/svg"><mask id="a" fill="#fff"><path fill-rule="evenodd" clip-rule="evenodd" d="M424 20c0-11.046-8.954-20-20-20H20C8.954 0 0 8.954 0 20v315c0 11.046 8.954 20 20 20h590c11.046 0 20-8.954 20-20V97.563c0-11.046-8.954-20-20-20H444c-11.046 0-20-8.954-20-20V20z"/></mask><path d="M20 3h384v-6H20v6zM3 77.563V20h-6v57.563h6zM3 335V77.563h-6V335h6zm421 17H20v6h404v-6zm186 0H424v6h186v-6zm17-254.437V335h6V97.563h-6zm-183-17h166v-6H444v6zM421 20v37.563h6V20h-6zm23 54.563c-9.389 0-17-7.611-17-17h-6c0 12.703 10.297 23 23 23v-6zM-3 335c0 12.703 10.297 23 23 23v-6c-9.389 0-17-7.611-17-17h-6zM633 97.563c0-12.703-10.297-23-23-23v6c9.389 0 17 7.611 17 17h6zM404 3c9.389 0 17 7.611 17 17h6c0-12.703-10.297-23-23-23v6zm206 355c12.703 0 23-10.297 23-23h-6c0 9.389-7.611 17-17 17v6zM20-3C7.297-3-3 7.297-3 20h6c0-9.389 7.611-17 17-17v-6z" fill="#FF8A00" mask="url(#a)"/></svg>