<svg width="66" height="66" fill="none" xmlns="http://www.w3.org/2000/svg"><circle cx="33.362" cy="33.344" r="32.5" fill="#FF8A00"/><path d="M51.21 24.182h-1.544a1.544 1.544 0 00-1.544 1.544v4.633H43.49V27.27a3.088 3.088 0 00-3.089-3.088h-6.176v-3.088H40.4a1.544 1.544 0 001.544-1.545v-1.544a1.544 1.544 0 00-1.544-1.544H23.415a1.544 1.544 0 00-1.544 1.544v1.544a1.544 1.544 0 001.544 1.544h6.177v3.089h-6.177a3.088 3.088 0 00-3.088 3.088v6.177h-3.088v-4.633a1.544 1.544 0 00-1.545-1.544H14.15a1.544 1.544 0 00-1.544 1.544v13.898a1.544 1.544 0 001.544 1.544h1.544a1.545 1.545 0 001.545-1.544v-4.633h3.088v4.003a3.09 3.09 0 001.055 2.324l4.25 3.718a3.084 3.084 0 002.031.765h12.738A3.088 3.088 0 0043.49 45.8v-4.632h4.632V45.8a1.544 1.544 0 001.544 1.544h1.545a4.633 4.633 0 004.632-4.632V28.814a4.632 4.632 0 00-4.632-4.632zm-14.156 13.21l-3.089 4.633c-.474.71-1.285.687-1.285.687v-4.633h-3.088a1.544 1.544 0 01-1.285-2.4l3.089-4.632c.472-.712 1.285-.689 1.285-.689v4.633h3.088a1.544 1.544 0 011.285 2.401z" fill="#fff"/></svg>