<svg width="355" height="310" fill="none" xmlns="http://www.w3.org/2000/svg"><mask id="a" fill="#fff"><path fill-rule="evenodd" clip-rule="evenodd" d="M132 15c0-8.284 6.716-15 15-15h193c8.284 0 15 6.716 15 15v280c0 8.284-6.716 15-15 15H15c-8.284 0-15-6.716-15-15V109.304c0-8.284 6.716-15 15-15h102c8.284 0 15-6.716 15-15V15z"/></mask><path d="M340 2H147v-4h193v4zm13 293V15h4v280h-4zm-53 13h40v4h-40v-4zm-168 0h168v4H132v-4zm-117 0h117v4H15v-4zM2 109.304V295h-4V109.304h4zm115-13H15v-4h102v4zM134 15v64.304h-4V15h4zm-17 77.304c7.18 0 13-5.82 13-13h4c0 9.389-7.611 17-17 17v-4zM357 295c0 9.389-7.611 17-17 17v-4c7.18 0 13-5.82 13-13h4zM-2 109.304c0-9.389 7.611-17 17-17v4c-7.18 0-13 5.821-13 13h-4zM147 2c-7.18 0-13 5.82-13 13h-4c0-9.389 7.611-17 17-17v4zM15 312c-9.389 0-17-7.611-17-17h4c0 7.18 5.82 13 13 13v4zM340-2c9.389 0 17 7.611 17 17h-4c0-7.18-5.82-13-13-13v-4z" fill="#FF8A00" mask="url(#a)"/></svg>