<svg width="355" height="310" fill="none" xmlns="http://www.w3.org/2000/svg"><mask id="a" fill="#fff"><path fill-rule="evenodd" clip-rule="evenodd" d="M223 15c0-8.284-6.716-15-15-15H15C6.716 0 0 6.716 0 15v280c0 8.284 6.716 15 15 15h325c8.284 0 15-6.716 15-15V109.304c0-8.284-6.716-15-15-15H238c-8.284 0-15-6.716-15-15V15z"/></mask><path d="M15 2h193v-4H15v4zM2 295V15h-4v280h4zm53 13H15v4h40v-4zm168 0H55v4h168v-4zm117 0H223v4h117v-4zm13-198.696V295h4V109.304h-4zm-115-13h102v-4H238v4zM221 15v64.304h4V15h-4zm17 77.304c-7.18 0-13-5.82-13-13h-4c0 9.389 7.611 17 17 17v-4zM-2 295c0 9.389 7.611 17 17 17v-4c-7.18 0-13-5.82-13-13h-4zm359-185.696c0-9.389-7.611-17-17-17v4c7.18 0 13 5.821 13 13h4zM208 2c7.18 0 13 5.82 13 13h4c0-9.389-7.611-17-17-17v4zm132 310c9.389 0 17-7.611 17-17h-4c0 7.18-5.82 13-13 13v4zM15-2C5.611-2-2 5.611-2 15h4C2 7.82 7.82 2 15 2v-4z" fill="#FF8A00" mask="url(#a)"/></svg>