<svg width="630" height="356" fill="none" xmlns="http://www.w3.org/2000/svg"><mask id="a" fill="#fff"><path fill-rule="evenodd" clip-rule="evenodd" d="M206 20.266c0-11.046 8.954-20 20-20h384c11.046 0 20 8.954 20 20v315c0 11.045-8.954 20-20 20H20c-11.046 0-20-8.955-20-20V97.829c0-11.046 8.954-20 20-20h166c11.046 0 20-8.955 20-20V20.266z"/></mask><path d="M610 3.266H226v-6h384v6zm17 74.563V20.266h6v57.563h-6zm0 257.437V77.829h6v257.437h-6zm-421 17h404v6H206v-6zm-186 0h186v6H20v-6zM3 97.829v237.437h-6V97.829h6zm183-17H20v-6h166v6zm23-60.563v37.563h-6V20.266h6zm-23 54.563c9.389 0 17-7.611 17-17h6c0 12.702-10.297 23-23 23v-6zm447 260.437c0 12.702-10.297 23-23 23v-6c9.389 0 17-7.612 17-17h6zM-3 97.829c0-12.703 10.297-23 23-23v6c-9.389 0-17 7.61-17 17h-6zM226 3.266c-9.389 0-17 7.61-17 17h-6c0-12.703 10.297-23 23-23v6zm-206 355c-12.703 0-23-10.298-23-23h6c0 9.388 7.611 17 17 17v6zm590-361c12.703 0 23 10.297 23 23h-6c0-9.39-7.611-17-17-17v-6z" fill="#FF8A00" mask="url(#a)"/></svg>