<svg width="66" height="67" fill="none" xmlns="http://www.w3.org/2000/svg"><circle cx="32.639" cy="33.438" r="32.5" fill="#FF8A00"/><path d="M33.596 45.895v-2.837h.117a1.2 1.2 0 000-2.4h-2.634a1.2 1.2 0 100 2.4h.117v2.837h-5.285V21.747c0-3.615 2.886-6.614 6.5-6.649a6.573 6.573 0 016.63 6.565v2.6a1.2 1.2 0 001.2 1.2h2.699a1.2 1.2 0 001.2-1.2v-2.6C44.14 15.222 38.917 10 32.475 10c-6.441 0-11.663 5.222-11.663 11.663v24.232h-4.296v-2.837h.117a1.2 1.2 0 100-2.4H14a1.2 1.2 0 100 2.4h.117v2.837H12v5.056h40.952v-5.056H33.596z" fill="#fff"/><path d="M35.803 34.247a1.21 1.21 0 00-1.377.1 1.21 1.21 0 00-.368 1.332 1.21 1.21 0 001.129.796c.565 0 1.065-.412 1.176-.965a1.211 1.211 0 00-.56-1.263zm1.56-3.43a1.21 1.21 0 00-.56-1.264 1.212 1.212 0 00-1.376.102 1.208 1.208 0 00-.369 1.331c.17.47.627.796 1.13.796.565 0 1.064-.412 1.176-.965zm9.58 8.224a1.208 1.208 0 00-.367 1.332c.17.47.626.796 1.128.796.566 0 1.066-.412 1.177-.966a1.211 1.211 0 00-.56-1.263 1.21 1.21 0 00-1.377.101zm-1-4.693a1.209 1.209 0 00-.368 1.331c.17.471.626.796 1.129.796.565 0 1.065-.412 1.176-.965a1.21 1.21 0 00-.56-1.263 1.21 1.21 0 00-1.377.1zm-.24-2.566c.566 0 1.065-.412 1.177-.965a1.21 1.21 0 00-.56-1.264 1.211 1.211 0 00-1.377.102 1.208 1.208 0 00-.368 1.331c.17.47.626.796 1.128.796zm-4.133 7.343a1.212 1.212 0 00-1.377.1 1.21 1.21 0 00-.368 1.333c.17.471.627.795 1.13.795.564 0 1.064-.411 1.176-.965a1.209 1.209 0 00-.56-1.263zm0-4.799a1.212 1.212 0 00-1.377.101 1.21 1.21 0 00-.368 1.332c.17.471.627.795 1.13.795.564 0 1.065-.411 1.176-.965a1.209 1.209 0 00-.56-1.263zm-.616-2.57c.565 0 1.065-.412 1.177-.966a1.21 1.21 0 00-.56-1.263 1.213 1.213 0 00-1.378.101 1.21 1.21 0 00-.368 1.332c.17.471.627.796 1.13.796z" fill="#fff"/></svg>