<svg width="66" height="66" fill="none" xmlns="http://www.w3.org/2000/svg"><circle cx="33.362" cy="33.344" r="32.5" fill="#FF8A00"/><path d="M20.314 31.439H16.82a.815.815 0 00-.82.82v20.847a.818.818 0 00.82.82h3.494a3.29 3.29 0 003.28-3.28V34.718a3.285 3.285 0 00-3.28-3.28zm27.431 1.156h-8.602V21.77c0-1.173-.6-2.854-3.453-4.182a2.19 2.19 0 00-2.182.205 2.11 2.11 0 00-.86 1.976 18.303 18.303 0 01-1.428 9.087 10.242 10.242 0 01-5.995 5.733c.007.043.01.087.008.13v16c1.228 1.107 2.636 2.111 4.38 2.05h12.99a8.132 8.132 0 008.013-6.954l1.214-8.505a4.15 4.15 0 00-4.085-4.715zM35.787 13.342a.82.82 0 00.82-.82V8.82a.82.82 0 10-1.64 0v3.702a.82.82 0 00.82.82zm-5.815 1.927a.82.82 0 101.159-1.16l-2.617-2.615a.82.82 0 10-1.16 1.16l2.618 2.615zm11.048.24a.819.819 0 00.58-.24l2.617-2.617a.82.82 0 00-1.16-1.16l-2.616 2.618a.826.826 0 00.58 1.4z" fill="#fff"/></svg>