<svg width="66" height="67" fill="none" xmlns="http://www.w3.org/2000/svg"><circle cx="32.639" cy="33.438" r="32.5" fill="#FF8A00"/><path d="M34.39 14.413c-1.123-1.917-2.313-1.85-3.437 0C25.8 22.079 18 33.579 18 39.328c0 4.032 1.652 7.733 4.296 10.376A14.691 14.691 0 0032.672 54c4.031 0 7.732-1.652 10.376-4.296a14.691 14.691 0 004.296-10.376c0-5.815-7.799-17.249-12.954-24.915zm8.856 31.458a12.55 12.55 0 01-4.428 4.296c-.859.463-1.916.198-2.38-.66-.528-.926-.197-1.983.662-2.446 1.322-.727 2.379-1.785 3.172-3.04a8.616 8.616 0 001.322-4.23c.066-.991.859-1.718 1.85-1.652.992.066 1.719.859 1.653 1.85-.133 2.115-.794 4.098-1.85 5.882z" fill="#fff"/></svg>