<svg width="450" height="303" fill="none" xmlns="http://www.w3.org/2000/svg"><mask id="a" fill="#fff"><path fill-rule="evenodd" clip-rule="evenodd" d="M145 15c0-8.285 6.716-15 15-15h275c8.284 0 15 6.715 15 15v273c0 8.284-6.716 15-15 15H15c-8.284 0-15-6.716-15-15V98c0-8.285 6.716-15 15-15h115c8.284 0 15-6.716 15-15V15z"/></mask><path d="M435 2H160v-4h275v4zm13 286V15h4v273h-4zm-68 13h55v4h-55v-4zm-235 0h235v4H145v-4zm-130 0h130v4H15v-4zM2 98v190h-4V98h4zm128-13H15v-4h115v4zm17-70v53h-4V15h4zm-17 66c7.18 0 13-5.82 13-13h4c0 9.388-7.611 17-17 17v-4zm322 207c0 9.388-7.611 17-17 17v-4c7.18 0 13-5.821 13-13h4zM-2 98c0-9.39 7.611-17 17-17v4C7.82 85 2 90.82 2 98h-4zM160 2c-7.18 0-13 5.82-13 13h-4c0-9.39 7.611-17 17-17v4zM15 305c-9.389 0-17-7.612-17-17h4c0 7.179 5.82 13 13 13v4zM435-2c9.389 0 17 7.61 17 17h-4c0-7.18-5.82-13-13-13v-4z" fill="#FF8A00" mask="url(#a)"/></svg>