<svg width="100" height="105" fill="none" xmlns="http://www.w3.org/2000/svg"><ellipse cx="60.345" cy="30.994" rx="25.029" ry="24.995" fill="#FF8A00"/><path d="M77.25 71.704a1.619 1.619 0 00-.048-1.509 1.587 1.587 0 00-1.274-.793l-12.914-.633a1.11 1.11 0 00-1.156 1.041l-.212 3.852c-.005.386-.85.744-1.114.998-3.93 3.11-12.857 2.173-13.791-2.948-.03-.35.045-.701.214-1.01l12.924-24.827 6.069 3.5a6.155 6.155 0 001.567 3.463 6.118 6.118 0 003.299 1.871c1.27.26 2.593.11 3.78-.428a6.25 6.25 0 003.64-6.297 6.157 6.157 0 00-1.52-3.484 6.117 6.117 0 00-3.271-1.918 6.172 6.172 0 00-3.786.376l-6.346-3.66 2.281-4.382a1.913 1.913 0 011.492-.983c7.98-.91 10.815-11.654 4.346-16.348a9.079 9.079 0 00-3.461-1.56 9.138 9.138 0 00-3.804-.01 9.223 9.223 0 00-3.492 1.54 9.28 9.28 0 00-2.577 2.824 9.119 9.119 0 00-1.213 4.002 9.039 9.039 0 00.705 4.11 1.87 1.87 0 01-.123 1.721L54.8 34.39l-6.346-3.66a6.17 6.17 0 00-1.114-2.916 6.125 6.125 0 00-5.462-2.545 6.213 6.213 0 00-2.958 1.019 6.263 6.263 0 00-2.796 5.39 6.18 6.18 0 00.873 2.998 6.128 6.128 0 002.225 2.178 6.06 6.06 0 002.722.81c.96.05 1.919-.126 2.8-.517l6.07 3.5L35.74 64.253c-.186.3-.458.538-.78.682a4.592 4.592 0 01-2.216.242 4.554 4.554 0 01-2.061-.83c-3.785-2.166-6.172-7.128-4.84-11.348l3.226-2.097c.243-.16.414-.41.475-.695a1.1 1.1 0 00-.15-.825L22.37 38.5a1.584 1.584 0 00-1.323-.68 1.604 1.604 0 00-1.315.714l-7.345 11.05a1.138 1.138 0 00-.148.892 1.12 1.12 0 00.55.71l3.618 1.9c.164.095.17.2.16.363-.39 4.11.345 8.241 2.126 11.947.077.13 7.523 13.503 8.865 19.925a3.996 3.996 0 003.532 3.198c.566.056 1.14-.01 1.68-.192 6.24-2.05 21.57-2.289 21.806-2.289a22.811 22.811 0 0011.344-4.145c.116-.085.258-.155.387-.03l3.445 2.172a1.115 1.115 0 00.89.12 1.136 1.136 0 00.698-.573l5.91-11.878zM63.942 28.418a3.977 3.977 0 01-1.858-2.434 4.049 4.049 0 012.85-4.932 3.978 3.978 0 014.897 2.824 4.048 4.048 0 01-2.85 4.932c-1.027.28-2.12.14-3.039-.39z" fill="#333"/></svg>