<svg width="63" height="41" fill="none" xmlns="http://www.w3.org/2000/svg"><path d="M57.856 39.971a.75.75 0 001.032-.242l3.554-5.74a.75.75 0 10-1.275-.789l-3.159 5.101-5.101-3.159a.75.75 0 10-.79 1.276l5.739 3.553zm1.125-.809a71.898 71.898 0 00-.362-1.47l-1.453.373c.122.474.24.954.355 1.44l1.46-.343zm-1.17-4.344c-.296-.97-.61-1.915-.938-2.835l-1.413.505c.322.898.627 1.82.916 2.767l1.435-.438zm-2.017-5.624a54.8 54.8 0 00-1.228-2.737l-1.352.652c.415.86.814 1.747 1.196 2.662l1.384-.577zm-2.61-5.402c-.496-.89-1.01-1.75-1.54-2.579l-1.264.81a47.217 47.217 0 011.493 2.498l1.31-.73zm-3.24-5.055a44.651 44.651 0 00-1.863-2.363l-1.146.968a43.18 43.18 0 011.8 2.284l1.209-.89zm-3.886-4.595a42.603 42.603 0 00-2.173-2.085l-1 1.119a41.053 41.053 0 012.098 2.011l1.075-1.045zm-4.489-4.01a42.49 42.49 0 00-2.444-1.754l-.831 1.25c.797.53 1.584 1.093 2.358 1.692l.917-1.187zm-5.004-3.33A44.077 44.077 0 0033.9 5.403l-.651 1.351a43.65 43.65 0 012.574 1.35l.742-1.303zm-5.416-2.615a47.263 47.263 0 00-2.821-1.034l-.472 1.424a46.56 46.56 0 012.732 1.001l.56-1.39zm-5.697-1.889a51.134 51.134 0 00-2.927-.682l-.297 1.47a49.48 49.48 0 012.84.662l.384-1.45zM19.57 1.104a54.703 54.703 0 00-2.977-.347l-.133 1.495c.955.084 1.921.196 2.895.336l.215-1.484zM13.597.573a56.206 56.206 0 00-2.992-.025l.027 1.5c.951-.018 1.924-.01 2.913.024l.052-1.5zM7.603.685A52.687 52.687 0 004.62.987l.194 1.488a50.65 50.65 0 012.9-.294L7.602.685zm-5.944.782c-.506.099-.996.204-1.47.314l.339 1.461c.457-.106.93-.208 1.418-.303L1.66 1.467z" fill="#333"/></svg>