<svg width="104" height="62" fill="none" xmlns="http://www.w3.org/2000/svg"><path d="M.557 51.457a1 1 0 00-.454 1.34l3.986 8.069a1 1 0 001.793-.886L2.34 52.808l7.174-3.543a1 1 0 10-.886-1.793l-8.07 3.985zm.122 1.844c.826.28 1.647.55 2.462.81l.608-1.905c-.803-.257-1.613-.523-2.428-.8l-.642 1.895zm7.328 2.266c1.669.465 3.313.888 4.931 1.27l.46-1.946c-1.592-.376-3.21-.792-4.854-1.25l-.537 1.926zm9.944 2.338c1.713.324 3.396.602 5.05.834l.277-1.981a104.21 104.21 0 01-4.954-.818l-.373 1.965zm10.133 1.412c1.737.151 3.44.25 5.109.3l.06-1.999a87.725 87.725 0 01-4.996-.293l-.174 1.992zm10.231.296a76.89 76.89 0 005.117-.333l-.198-1.99c-1.62.16-3.282.27-4.983.324l.064 1.999zm10.201-1.019a68.074 68.074 0 005.023-1.056l-.486-1.94a66.06 66.06 0 01-4.875 1.025l.338 1.971zm9.95-2.497a63.184 63.184 0 004.806-1.836l-.789-1.837a61.171 61.171 0 01-4.655 1.777l.637 1.896zm9.45-4.061a62.2 62.2 0 004.44-2.6l-1.082-1.682a60.18 60.18 0 01-4.296 2.516l.939 1.766zm8.645-5.55a64.816 64.816 0 003.961-3.285l-1.336-1.488a62.78 62.78 0 01-3.84 3.184l1.215 1.59zm7.65-6.864a70 70 0 003.404-3.84l-1.543-1.271a67.92 67.92 0 01-3.308 3.73l1.447 1.381zm6.529-7.92a76.236 76.236 0 002.829-4.272l-1.704-1.048a74.205 74.205 0 01-2.755 4.161l1.63 1.16zm5.375-8.731a80.82 80.82 0 002.248-4.599l-1.824-.821a78.804 78.804 0 01-2.192 4.485l1.768.935zm4.208-9.347a78.92 78.92 0 001.648-4.854l-1.914-.58a76.586 76.586 0 01-1.606 4.73l1.872.704zm2.966-9.806c.195-.855.37-1.694.523-2.514l-1.965-.369a63.02 63.02 0 01-.508 2.438l1.95.445z" fill="#333"/></svg>