<svg width="46" height="13" fill="none" xmlns="http://www.w3.org/2000/svg"><path d="M1.73 10.231c-.582-.024-.932-.449-.783-.948L3.386 1.15c.15-.5.742-.884 1.324-.86.58.025.93.45.781.949l-2.167 7.23 8.42.355c.582.025.932.45.782.948-.15.5-.742.884-1.324.86l-9.473-.4zm2.515-3.186c.554-.282 1.19-.175 1.422.238.231.412-.03.975-.584 1.257l-.838-1.495zm6.3-.608c-.596.164-1.142-.086-1.22-.558-.078-.473.34-.988.936-1.151l.283 1.71zm5.901-2.827c.598-.056 1.039.3.985.797-.055.497-.583.945-1.18 1.001l.195-1.798zm5.475 1.69c-.58-.03-.923-.459-.768-.957.156-.5.752-.88 1.332-.85L21.921 5.3zm6.332-1.15c.553.098.813.574.58 1.064-.232.49-.87.809-1.423.712l.843-1.775zm4.392 2.993c-.524-.152-.71-.661-.415-1.137.294-.476.957-.739 1.48-.587l-1.065 1.724zm6.19.074c.489.204.6.738.251 1.195-.35.456-1.028.662-1.516.458l1.266-1.653zm3.224 3.9c-.434-.266-.448-.824-.033-1.247.416-.423 1.104-.55 1.537-.284l-1.504 1.531zM1.447 8.657a30.55 30.55 0 012.798-1.612l.838 1.495c-.857.435-1.701.92-2.53 1.458l-1.106-1.34zm8.814-3.93a36.013 36.013 0 016.185-1.117l-.196 1.798c-1.915.18-3.826.513-5.706 1.03l-.283-1.71zm12.224-1.234c1.98.102 3.913.333 5.768.658l-.843 1.775a45.381 45.381 0 00-5.489-.626l.564-1.807zM33.71 5.42c1.856.54 3.58 1.155 5.126 1.798L37.57 8.87a46.98 46.98 0 00-4.925-1.727l1.065-1.724zm9.853 4.167c.852.523 1.569 1.038 2.117 1.524l-1.718 1.373c-.466-.412-1.105-.875-1.903-1.366l1.504-1.531z" fill="#FF8A00"/></svg>