<svg width="45" height="47" fill="none" xmlns="http://www.w3.org/2000/svg"><path d="M35.537 46.201a1 1 0 001.404.17l7.081-5.555a1 1 0 10-1.234-1.574l-6.294 4.938-4.938-6.294a1 1 0 10-1.574 1.234l5.555 7.081zm2.028-2.876a1 1 0 10-1.993-.174l1.993.174zm-1.758-4.766a1 1 0 102 .026l-2-.026zm1.858-4.74a1 1 0 00-1.994.15l1.994-.15zm-2.562-4.395a1 1 0 001.97-.351l-1.97.351zm.855-5.013a1 1 0 00-1.914.582l1.914-.582zm-3.52-3.665a1 1 0 101.818-.834l-1.818.834zm-.505-5.059a1 1 0 00-1.676 1.092l1.676-1.092zm-4.423-2.496A1 1 0 1029 11.857l-1.49 1.334zm-1.996-4.676a1 1 0 00-1.271 1.544l1.27-1.544zm-4.97-1.075a1 1 0 001.038-1.71l-1.038 1.71zm-3.236-3.923a1 1 0 10-.8 1.833l.8-1.833zm-5.079.271a1 1 0 00.57-1.917l-.57 1.917zM8.131.778a1 1 0 00-.34 1.97l.34-1.97zM3.26 2.242A1 1 0 003.357.245l-.098 1.997zm34.058 43.462c.097-.806.18-1.599.248-2.379l-1.993-.174a70.007 70.007 0 01-.24 2.313l1.985.24zm.49-7.12a54.699 54.699 0 00-.142-4.765l-1.994.15c.109 1.464.156 2.993.136 4.59l2 .026zm-.735-9.511a40.401 40.401 0 00-1.114-4.662l-1.914.582c.425 1.395.78 2.87 1.06 4.431l1.968-.351zm-2.816-9.161a32.782 32.782 0 00-2.323-4.225l-1.676 1.092a30.774 30.774 0 012.181 3.967l1.818-.834zM29 11.857a31.846 31.846 0 00-3.486-3.342l-1.271 1.544a29.844 29.844 0 013.267 3.132L29 11.857zM21.582 5.73a36.223 36.223 0 00-4.274-2.213l-.8 1.833a34.211 34.211 0 014.037 2.09l1.037-1.71zm-8.783-3.86A40.824 40.824 0 008.131.778l-.34 1.97c1.442.25 2.932.592 4.438 1.04l.57-1.917zM3.357.245A34.41 34.41 0 00.953.209l.043 2a32.409 32.409 0 012.263.033L3.357.245z" fill="#FF8A00"/></svg>