<svg width="68" height="52" fill="none" xmlns="http://www.w3.org/2000/svg"><path d="M7.973.227a1 1 0 00-1.408.14L.86 7.327a1 1 0 001.547 1.268l5.071-6.187 6.188 5.071a1 1 0 001.267-1.547L7.973.227zm-1.349 3.38a1 1 0 001.985-.248l-1.985.248zm2.722 4.57a1 1 0 10-1.968.359l1.968-.359zm-.924 5.233a1 1 0 001.941-.481l-1.94.481zm3.277 4.196a1 1 0 00-1.902.619l1.902-.62zm-.158 5.331a1 1 0 101.845-.771l-1.845.771zm3.902 3.596a1 1 0 10-1.768.935l1.768-.935zm.81 5.274a1 1 0 001.665-1.109l-1.665 1.109zm4.546 2.75a1 1 0 00-1.534 1.284l1.534-1.284zm1.924 4.963a1 1 0 001.375-1.453l-1.375 1.453zm5.063 1.644a1 1 0 00-1.192 1.606l1.192-1.606zm3.037 4.37a1 1 0 10.993-1.736l-.993 1.736zm5.306.41a1 1 0 00-.788 1.839l.788-1.839zm3.95 3.566a1 1 0 10.583-1.913l-.583 1.913zm5.272-.746a1 1 0 10-.384 1.963l.384-1.963zm4.595 2.687a1 1 0 10.193-1.99l-.194 1.99zm5.028-1.746a1 1 0 00-.01 2l.01-2zm5.011 1.793a1 1 0 00-.173-1.992l.173 1.992zm4.625-2.644a1 1 0 10.368 1.965l-.368-1.965zM6.343 1.099c.085.85.178 1.685.281 2.508l1.985-.248c-.1-.806-.193-1.625-.275-2.457l-1.99.197zm1.035 7.437a79.538 79.538 0 001.044 4.874l1.941-.481a77.18 77.18 0 01-1.017-4.752l-1.968.359zm2.419 9.689a61.99 61.99 0 001.744 4.712l1.845-.771a59.956 59.956 0 01-1.687-4.56l-1.902.619zm3.878 9.243a49.967 49.967 0 002.578 4.339l1.665-1.109a47.962 47.962 0 01-2.475-4.165l-1.768.935zm5.59 8.373a43.494 43.494 0 003.458 3.679l1.375-1.453a41.475 41.475 0 01-3.3-3.51l-1.533 1.284zm7.33 6.929a42.508 42.508 0 004.228 2.764l.993-1.736a40.523 40.523 0 01-4.03-2.634l-1.192 1.606zm8.746 5.013a46.234 46.234 0 004.738 1.727l.583-1.913a44.231 44.231 0 01-4.533-1.653l-.788 1.839zm9.626 2.944c1.675.327 3.34.565 4.979.724l.193-1.99a50.24 50.24 0 01-4.788-.697l-.384 1.963zm9.998.978a54.91 54.91 0 005.02-.207l-.173-1.992a52.922 52.922 0 01-4.838.199l-.01 2zm10.013-.886a45.84 45.84 0 002.457-.528l-.476-1.943c-.749.184-1.533.353-2.349.506l.368 1.965z" fill="#FF8A00"/></svg>