<svg width="61" height="59" fill="none" xmlns="http://www.w3.org/2000/svg"><path d="M60.172 50.124a1 1 0 01.115 1.41l-5.82 6.864a1 1 0 01-1.526-1.294l5.174-6.101-6.101-5.175a1 1 0 111.294-1.525l6.864 5.821zm-3.083 1.934a1 1 0 01-.112-1.996l.112 1.997zm-4.985-1.855a1 1 0 11.002 2l-.002-2zm-4.982 1.85a1 1 0 01.125-1.996l-.125 1.996zm-4.716-2.468a1 1 0 11-.267 1.982l.267-1.983zm-5.216 1.114a1 1 0 11.427-1.954l-.427 1.954zm-4.239-3.192a1 1 0 11-.602 1.907l.602-1.907zm-5.333.152a1 1 0 11.79-1.837l-.79 1.837zm-3.523-3.978a1 1 0 01-.987 1.74l.986-1.74zm-5.228-1a1 1 0 111.181-1.613l-1.181 1.613zm-2.528-4.685a1 1 0 11-1.365 1.462l1.365-1.462zm-4.845-2.2a1 1 0 111.53-1.29l-1.53 1.29zm-1.358-5.147a1 1 0 01-1.667 1.106l1.667-1.106zm-4.218-3.244a1 1 0 011.777-.917l-1.777.917zm-.214-5.32a1 1 0 11-1.862.73l1.862-.73zm-3.47-4.037a1 1 0 011.923-.548l-1.923.549zm.814-5.26a1 1 0 01-1.966.368l1.966-.368zM.382 8.18a1 1 0 011.991-.188l-1.99.188zm1.77-5.025a1 1 0 01-2-.009l2 .009zm57.455 48.728c-.85.07-1.69.128-2.518.175l-.112-1.997c.81-.046 1.632-.103 2.466-.171l.164 1.993zm-7.502.32a79.248 79.248 0 01-4.983-.15l.125-1.997a76.31 76.31 0 004.857.146l.002 2zm-9.966-.637a61.945 61.945 0 01-4.949-.868l.427-1.954a59.98 59.98 0 004.79.84l-.268 1.982zm-9.79-2.153a49.953 49.953 0 01-4.731-1.755l.79-1.837c1.44.62 2.953 1.183 4.543 1.685l-.602 1.907zm-9.241-3.993a43.486 43.486 0 01-4.241-2.74l1.181-1.613c1.266.926 2.613 1.8 4.047 2.613l-.987 1.74zm-8.135-5.963a42.508 42.508 0 01-3.479-3.663l1.53-1.289a40.532 40.532 0 003.315 3.49l-1.365 1.462zM8.47 31.755a46.25 46.25 0 01-2.551-4.35l1.777-.917a44.234 44.234 0 002.44 4.161L8.47 31.755zm-4.627-8.94a52.22 52.22 0 01-1.608-4.767l1.923-.548a50.237 50.237 0 001.547 4.585l-1.862.73zm-2.76-9.659a54.934 54.934 0 01-.7-4.975l1.991-.188a52.67 52.67 0 00.675 4.795l-1.966.368zM.152 3.147C.155 2.282.182 1.443.23.636l1.997.118c-.046.77-.072 1.572-.075 2.402l-2-.009z" fill="#FF8A00"/></svg>