<svg width="56" height="68" fill="none" xmlns="http://www.w3.org/2000/svg"><path d="M46.577.425a1 1 0 011.394-.241l7.357 5.183a1 1 0 01-1.152 1.635l-6.54-4.607-4.608 6.54a1 1 0 11-1.634-1.152L46.577.425zM48.8 3.447a1 1 0 11-1.978.29l1.978-.29zm-1.372 5.38a1 1 0 011.992-.181l-1.992.18zm2.303 5.045a1 1 0 01-1.999.054l2-.054zm-2.038 5.168a1 1 0 011.998.088l-1.998-.088zm1.556 5.345a1 1 0 01-1.985-.25l1.985.25zm-2.842 4.753a1 1 0 011.953.429l-1.953-.429zm.563 5.54a1 1 0 01-1.9-.623l1.9.623zm-3.737 4.098a1 1 0 011.821.827l-1.82-.827zm-.644 5.518a1 1 0 11-1.713-1.033l1.713 1.033zm-4.582 3.143a1 1 0 011.578 1.23l-1.578-1.23zm-1.923 5.21a1 1 0 01-1.422-1.407l1.422 1.407zm-5.19 1.98a1 1 0 011.25 1.562l-1.25-1.561zm-3.057 4.638a1 1 0 11-1.073-1.688l1.073 1.688zm-5.498.812a1 1 0 11.895 1.789l-.895-1.79zM18.4 63.995a1 1 0 01-.718-1.867l.718 1.867zm-5.55-.26a1 1 0 11.543 1.924l-.543-1.925zm-4.593 3.123a1 1 0 01-.365-1.966l.365 1.966zM2.845 65.58a1 1 0 01.17 1.993l-.17-1.993zM48.38.83c.153.883.293 1.755.42 2.617l-1.98.29c-.124-.843-.26-1.699-.41-2.565L48.38.83zm1.04 7.816c.161 1.791.264 3.532.31 5.226l-1.999.054a81.083 81.083 0 00-.304-5.1l1.992-.18zm.27 10.482a65.083 65.083 0 01-.442 5.257l-1.985-.25a63.07 63.07 0 00.429-5.095l1.998.088zm-1.33 10.439a52.458 52.458 0 01-1.391 5.111l-1.9-.623a50.457 50.457 0 001.337-4.917l1.953.429zm-3.307 10.036a45.636 45.636 0 01-2.465 4.69l-1.713-1.032a43.631 43.631 0 002.357-4.485l1.821.827zm-5.47 9.063a44.602 44.602 0 01-3.5 3.981L34.66 51.24a42.626 42.626 0 003.345-3.803l1.578 1.23zm-7.44 7.523a48.515 48.515 0 01-4.307 3.076l-1.073-1.688a46.515 46.515 0 004.13-2.95l1.25 1.562zm-8.91 5.677a54.843 54.843 0 01-4.833 2.13l-.718-1.868a52.829 52.829 0 004.656-2.051l.895 1.789zm-9.84 3.793c-1.747.493-3.467.89-5.136 1.2l-.365-1.967a55.687 55.687 0 004.958-1.158l.543 1.925zM3.016 67.572c-.905.078-1.785.128-2.633.154l-.06-2a45.8 45.8 0 002.522-.147l.17 1.993z" fill="#FF8A00"/></svg>