<svg width="82" height="33" fill="none" xmlns="http://www.w3.org/2000/svg"><path d="M80.572 13.792a1 1 0 00.75-1.2l-2.03-8.768a1 1 0 10-1.95.45l1.805 7.795-7.794 1.804a1 1 0 00.451 1.948l8.768-2.03zm-1.962-3.197a1 1 0 00-1.014 1.723l1.014-1.723zm-5.5-.756a1 1 0 10.918-1.777l-.917 1.777zm-3.805-4.034a1 1 0 10-.804 1.831l.804-1.831zm-5.556-.059a1 1 0 10.671-1.884l-.67 1.884zm-4.365-3.455a1 1 0 00-.516 1.933l.516-1.933zm-5.474.842a1 1 0 10.34-1.971l-.34 1.97zM48.99.524a1 1 0 00-.138 1.995L48.99.524zm-5.203 1.918a1 1 0 10-.08-1.999l.08 1.999zM38.433.96a1 1 0 10.311 1.976L38.434.96zm-4.638 3.06a1 1 0 10-.544-1.925l.544 1.925zm-5.55-.181a1 1 0 10.768 1.846l-.768-1.846zm-3.79 4.06a1 1 0 00-.975-1.745l.975 1.746zm-5.447 1.086a1 1 0 101.16 1.63l-1.16-1.63zm-2.824 4.786a1 1 0 10-1.32-1.502l1.32 1.502zm-5.113 2.172a1 1 0 101.459 1.369l-1.459-1.369zm-1.85 5.24a1 1 0 10-1.578-1.229l1.579 1.228zM4.598 24.26a1 1 0 101.685 1.078L4.598 24.26zm-.854 5.494a1 1 0 00-1.781-.909l1.781.91zM80.876 11.97c-.76-.474-1.515-.932-2.266-1.374l-1.014 1.723a97.73 97.73 0 012.221 1.348l1.06-1.697zm-6.848-3.907a83.178 83.178 0 00-4.723-2.257l-.805 1.83a81.187 81.187 0 014.61 2.203l.917-1.777zm-9.608-4.2a65.051 65.051 0 00-5.036-1.57l-.516 1.932c1.594.425 3.221.931 4.881 1.522l.671-1.884zm-10.17-2.7a52.44 52.44 0 00-5.26-.638l-.138 1.995c1.644.115 3.33.317 5.058.614l.34-1.971zM43.707.443c-1.81.073-3.568.248-5.274.517l.311 1.976c1.63-.257 3.31-.425 5.043-.494l-.08-1.999zM33.251 2.095a44.629 44.629 0 00-5.006 1.744l.768 1.846a42.63 42.63 0 014.782-1.665l-.544-1.925zM23.48 6.154a48.528 48.528 0 00-4.472 2.83l1.16 1.63A46.528 46.528 0 0124.454 7.9l-.975-1.746zm-8.616 6.115a54.79 54.79 0 00-3.793 3.674l1.459 1.369a52.841 52.841 0 013.654-3.54l-1.32-1.503zm-7.22 7.685a57.659 57.659 0 00-3.047 4.307l1.685 1.078a55.677 55.677 0 012.94-4.157l-1.579-1.228zm-5.682 8.892a47.88 47.88 0 00-1.135 2.38l1.83.81a45.85 45.85 0 011.086-2.28l-1.781-.91z" fill="#FF8A00"/></svg>