<svg width="38" height="26" fill="none" xmlns="http://www.w3.org/2000/svg"><path d="M31.923 25.655a.75.75 0 001.05-.153l4.034-5.411a.75.75 0 10-1.203-.897l-3.586 4.81-4.81-3.586a.75.75 0 00-.897 1.203l5.412 4.034zm.807-2.97a.75.75 0 10-1.473.287l1.473-.286zm-2.552-4.01a.75.75 0 001.43-.45l-1.43.45zm-.248-4.752a.75.75 0 10-1.354.646l1.354-.646zm-3.556-3.134a.75.75 0 001.224-.866l-1.224.866zm-1.82-4.384a.75.75 0 10-1.03 1.091l1.03-1.091zm-4.487-1.54a.75.75 0 10.776-1.284l-.776 1.284zM16.63 1.597a.75.75 0 00-.498 1.414l.498-1.414zm-4.737.36a.75.75 0 00.228-1.483l-.228 1.483zM7.5.163a.75.75 0 10.024 1.5L7.5.163zM3.16 2.091A.75.75 0 102.888.615l.27 1.476zm29.954 22.855a48.422 48.422 0 00-.383-2.26l-1.473.286c.138.708.262 1.438.372 2.19l1.484-.216zm-1.505-6.72a32.946 32.946 0 00-1.678-4.303l-1.354.646a31.453 31.453 0 011.601 4.106l1.431-.45zm-4.01-8.303a23.389 23.389 0 00-3.044-3.518l-1.03 1.091a21.894 21.894 0 012.85 3.293l1.224-.866zM20.843 3.58a22.687 22.687 0 00-4.212-1.984l-.498 1.414a21.19 21.19 0 013.934 1.854l.776-1.284zM12.122.474a27.627 27.627 0 00-4.623-.31l.024 1.499a26.178 26.178 0 014.371.294l.228-1.483zM2.888.615C2.086.762 1.328.94.626 1.14l.41 1.443a22.983 22.983 0 012.123-.491L2.888.615z" fill="#FF8A00"/></svg>