<svg width="51" height="17" fill="none" xmlns="http://www.w3.org/2000/svg"><path d="M2.082.784a1 1 0 00-1.079.914l-.737 8.97a1 1 0 001.993.164l.656-7.973 7.973.655a1 1 0 10.164-1.993L2.082.784zm.723 3.42a1 1 0 101.474-1.35l-1.474 1.35zM7.5 6.075a1 1 0 10-1.348 1.478L7.5 6.074zm2.318 4.488A1 1 0 1011 8.95l-1.182 1.613zm4.977.817a1 1 0 10-.965 1.752l.965-1.752zm3.38 3.743a1 1 0 10.691-1.877l-.69 1.877zm5-.69a1 1 0 00-.364 1.966l.364-1.966zm4.425 2.416a1 1 0 00.008-2l-.008 2zm4.45-2.375a1 1 0 10.342 1.97l-.342-1.97zm4.987.762a1 1 0 00-.658-1.889l.658 1.89zm3.457-3.68a1 1 0 00.93 1.77l-.93-1.77zm4.995-.745a1 1 0 10-1.167-1.624l1.167 1.624zm2.292-4.492a1 1 0 001.383 1.445l-1.383-1.445zM1.237 2.427a61.047 61.047 0 001.568 1.778l1.474-1.352a59.051 59.051 0 01-1.516-1.72L1.237 2.427zm4.915 5.125a44.185 44.185 0 003.666 3.01L11 8.95a42.19 42.19 0 01-3.5-2.875L6.152 7.552zm7.678 5.579c1.46.803 2.91 1.463 4.346 1.99l.69-1.877a29.69 29.69 0 01-4.071-1.865l-.965 1.752zm8.981 3.267c1.63.302 3.23.444 4.789.45l.008-2a24.93 24.93 0 01-4.433-.416l-.364 1.966zm9.58.045a29.355 29.355 0 004.646-1.208l-.658-1.889c-1.383.482-2.83.867-4.328 1.127l.34 1.97zm9.034-3.119a34.539 34.539 0 004.064-2.514l-1.167-1.624a32.523 32.523 0 01-3.828 2.368l.93 1.77zm7.74-5.561a29.685 29.685 0 001.666-1.727l-1.496-1.328a27.694 27.694 0 01-1.554 1.61l1.383 1.445z" fill="#FF8A00"/></svg>