<svg width="58" height="29" fill="none" xmlns="http://www.w3.org/2000/svg"><path d="M53.139.072a1 1 0 011.301.553l3.367 8.347a1 1 0 01-1.855.748L52.96 2.3l-7.42 2.995a1 1 0 01-.748-1.855L53.138.072zm.322 3.504a1 1 0 01-1.813-.843l1.813.843zm-3.9 3.254a1 1 0 011.745.975L49.56 6.83zm-.753 5.035a1 1 0 01-1.655-1.123l1.655 1.123zm-4.413 2.532a1 1 0 111.531 1.287l-1.53-1.287zm-1.76 4.772a1 1 0 11-1.368-1.46l1.368 1.46zm-4.878 1.421a1 1 0 011.16 1.63l-1.16-1.63zm-2.96 4.133a1 1 0 11-.91-1.782l.91 1.782zm-5.08-.043a1 1 0 11.627 1.9l-.626-1.9zm-4.062 3.058a1 1 0 11-.332-1.972l.332 1.972zm-4.843-1.547a1 1 0 01.046 2l-.046-2zm-4.761 1.786a1 1 0 01.219-1.988l-.22 1.988zm-4.268-2.768a1 1 0 01-.462 1.946l.462-1.946zm-5.053.566a1 1 0 01.687-1.878l-.687 1.878zm-3.493-3.7a1 1 0 11-.911 1.78l.911-1.78zM54.433 1.392a72.097 72.097 0 01-.972 2.185l-1.813-.843c.32-.69.635-1.398.944-2.125l1.84.783zm-3.127 6.414a54.66 54.66 0 01-2.498 4.06l-1.655-1.123A52.662 52.662 0 0049.56 6.83l1.746.975zm-5.38 7.879a40.384 40.384 0 01-3.291 3.485l-1.368-1.46a38.405 38.405 0 003.128-3.312l1.531 1.287zm-7.01 6.536a32.77 32.77 0 01-4.12 2.503l-.908-1.782a30.763 30.763 0 003.869-2.35l1.16 1.628zm-8.572 4.36a31.833 31.833 0 01-4.689 1.158l-.332-1.972c1.46-.246 2.93-.603 4.395-1.086l.626 1.9zm-9.486 1.61a36.23 36.23 0 01-4.807-.213l.219-1.988c1.481.164 3 .238 4.542.202l.046 2zm-9.537-1.035a40.83 40.83 0 01-4.591-1.38l.687-1.878c1.376.503 2.838.95 4.366 1.312l-.462 1.946zm-8.995-3.3a34.427 34.427 0 01-2.101-1.167l1.034-1.712c.615.372 1.276.74 1.978 1.1l-.911 1.78z" fill="#FF8A00"/></svg>