<svg width="78" height="62" fill="none" xmlns="http://www.w3.org/2000/svg"><path d="M77.126 52.352a1 1 0 01.257 1.39l-5.099 7.417a1 1 0 01-1.648-1.133l4.533-6.592-6.593-4.533a1 1 0 011.134-1.648l7.416 5.1zm-.385 1.807c-.819.152-1.63.294-2.433.425l-.323-1.974c.789-.129 1.587-.268 2.392-.417l.364 1.966zm-7.254 1.105a97.75 97.75 0 01-4.852.455l-.136-1.995a96.827 96.827 0 004.754-.446l.234 1.986zm-9.729.657c-1.671.023-3.3-.004-4.887-.078l.094-1.998a78.6 78.6 0 004.766.076l.027 2zm-9.765-.469a66.593 66.593 0 01-4.84-.732l.372-1.965a64.36 64.36 0 004.695.71l-.227 1.987zm-9.61-1.833a56.735 56.735 0 01-4.684-1.502l.694-1.876a55.096 55.096 0 004.52 1.45l-.53 1.928zm-9.217-3.417a51.406 51.406 0 01-4.324-2.327l1.03-1.714a49.47 49.47 0 004.157 2.236l-.863 1.805zm-8.422-5.073a50.482 50.482 0 01-3.797-3.123l1.344-1.481a48.49 48.49 0 003.647 2.999l-1.194 1.605zm-7.283-6.606a53.419 53.419 0 01-3.136-3.785l1.596-1.205a51.469 51.469 0 003.02 3.644l-1.48 1.346zm-5.92-7.836a58.957 58.957 0 01-2.426-4.272l1.779-.915a56.966 56.966 0 002.343 4.127l-1.696 1.06zm-4.493-8.72a64.434 64.434 0 01-1.716-4.59l1.9-.629a62.42 62.42 0 001.66 4.448l-1.844.77zm-3.083-9.302a64.722 64.722 0 01-1.01-4.8l1.972-.337a62.73 62.73 0 00.979 4.652l-1.94.485zM.325 2.999A53.751 53.751 0 01.164.55L2.163.467c.032.762.083 1.549.154 2.357l-1.993.175z" fill="#333"/></svg>