<svg width="282" height="273" fill="none" xmlns="http://www.w3.org/2000/svg"><path fill-rule="evenodd" clip-rule="evenodd" d="M281.139 129.006c-.234-3.905-.466-7.747-.689-11.443-.062-.922-.126-1.836-.186-2.741-.125-.9-.247-1.79-.367-2.669l-.72-5.127c-.881-1.325-.729-6.342-2.451-7.483-.096-1.996-.114-2.701-.971-4.526 1.188.513-.463-2.14.418-1.977-.796-1.486-.47-3.578-1.299-4.09.405 2.18 1.271 3.417.598 4.292-.333-2.076-1.39-4.083-.982-5.672-.616-1.535-2.395-4.183-2.157-5.677-.845.129-.511-1.863-1.336-2.541-.339-.013-.244.667-.502.206-.845-1.158-.727-3.058-1.518-3.975.135.41.253.804-.079.804-.51-.957-.088-1.096-.603-2.052-.602.13.281 1.548.268 2.198.792.456 2.273 4.245 2.044 4.882-.714-1.02-1.257-1.229-1.162-2.58-.549-.047-.09.798-.425.937.412 1.096.971.905 1.37 2.106-.536-.039-.997-.695-1.505-.914.394 1.199 1.001.624 1.411 1.707-.2.438-.931-.77-.68.262a.92.92 0 01.326.392c-.109.03-.217.039-.326.092-.223.112-.444.23-.665.346a.41.41 0 01.277-.311c-.564-.899-.457-1.092-.56-2.027-.413.178-.079 1.647.14 2.415-.474.25-.948.501-1.435.722-.034.015-.126-.05-.221-.137a7.083 7.083 0 00-.31-.943c-.03-.376-.09-.723-.421-1-.411-.973-.733-1.903-.293-2.645-1.143-.562-2.434-4.96-2.295-6.135-.428.082-.93-.482-1.346-1.181 0-.249.008-.5.043-.755.049-.35-.228-.463-.607-.38-.249-.632-.36-1.168-.208-1.243a36.443 36.443 0 01-1.585-1.572c-.177-.428-.347-.855-.536-1.282.041.009.08.03.121.034a56.466 56.466 0 00-2.076-4.041.797.797 0 00-.047-.069 59.768 59.768 0 00-5.466-8.42 144.83 144.83 0 01-2.206-3.866c-.24.2-.534.065-.847-.225-.143-1.376-1.571-2.77-2.723-3.999-.27-.943-.729-1.85-1.319-2.716.048-.069.093-.14.168-.204-.41-.532-.588-.605-.71-.542a21.03 21.03 0 00-.542-.674c-.774-.943-1.621-1.865-2.419-2.79-.834-.893-1.621-1.794-2.245-2.737-1.936-3.032-3.857-6.137-6.038-9.085-2.262-2.852-4.82-5.523-8.195-7.226-.66-.538-.701.401-1.31-.023-1.966-1.842-4.592-3.52-7.234-5.298-2.749-1.617-5.498-3.369-8.113-4.878-3.641-2.262-6.823-5.163-10.923-6.68-2.405-.814-4.569-1.384-6.597-1.567-2.048-.145-3.93.03-5.714.59-3.553-1.499-8.594.141-11.799-2.314-.8.1-.873.922-2.185.491-.944-.199-.839-.628-1.278-.917-.219.995.33.881-.42 1.578 2.759.227 3.962.729 6.471.478.613.27.778.641 1.777.875 5.568.09 12.228.604 19.233 2.96 6.739 2.366 12.333 7.218 17.269 8.62.907.738-.058 1.276.484 1.973 2.704.738 3.795 3.199 6.484 4.82 1.846 1.211 4.13 1.398 6.135 2.967 1.968 1.662 3.327 3.29 4.73 4.988 1.355 1.753 2.735 3.6 4.779 5.733.013.12.041.242.066.364-.982-.812-1.683-1.593-3.237-2.791.216-.377.81.566 1.076.347-1.13-1.177-2.136-1.915-3.002-2.665-.855-.761-1.554-1.55-2.183-2.74-.469.729-1.738-.738-2.343-.388 1.336 1.267 3.036 2.847 3.025 4.19-1.305-.717-1.091-1.894-1.867-1.933.81 1.553 1.784 2.383 2.909 3.178 1.126.791 2.284 1.67 3.57 3.135-.167.184-.39.165-.615.14.658 1.183 1.985 1.963 2.989 2.686.214.34.469.662.707.995a1.577 1.577 0 00-.559-.23c.225.46.484.929.664 1.37-.186-.111-.362-.178-.478-.156.232.238.448.474.641.699.05.24.067.467-.002.664-1.704-.934-3.293-1.387-4.856-1.762a5.411 5.411 0 01-.53-.995l-.392.38c.229.188.388.358.508.512a74.238 74.238 0 00-.678-.156c-.1-.103-.203-.217-.31-.337.197-.197-.178-1.068-.44-.472.302.3.367.524.247.693-.003 0-.005 0-.009-.002-.536-.318-1.166-.521-1.587-.944-.465-.47-.632-1.22-1.035-1.769-.543-.737-2.144-.724-2.509.108a6.452 6.452 0 01-.399.763c-.484-.255-.98-.549-1.488-.883.198-.91.056-1.834-.336-2.747-.06-.14-.489-.146-.751-.159-.105-.004-.279.116-.315.219l-.056.146c-.748-.322-1.52-.755-1.711-1.658-.221.228-.313.48-.231.766.579.381 1.143.716 1.807 1.361-.006.067-.002.122.028.15.32.328.482.687.592 1.057-1.516-1.462-2.946-2.678-4.342-3.597a30.036 30.036 0 00-.95-.577c.043-.039.084-.08.127-.12-.086-.107-.172-.215-.26-.322-.077.075-.178.15-.229.227a24.919 24.919 0 00-2.918-1.417c-.343-.354-.661-.69-.927-.988a12.247 12.247 0 00-1.11-.701c-5.659-5.16-13.088-10.172-21.206-13.834-8.885-4.085-18.418-6.574-26.394-7.447-1.812-.853-3.534-1.497-5.416-1.878a28.888 28.888 0 00-6.306-.706c-2.47-2.212-7.305-2.519-12.02-2.27l-3.495.19c-1.138.09-2.241.191-3.276.23-2.074.064-3.881-.004-5.215-.457-2.255 2.816-9.837 2.12-12.511 1.182-.33 1.003-1.428 1.458-2.744 1.634-1.315.182-2.839.173-4.031.087-.09-.39 1.76-1.226-.161-.801-.918.1-.832.542-1.259.806-.952-.436-2.127-.618-2.699-1.36-1.743.23-1.853.935-3.591 1.169.321-.64.497-1.325 1.498-1.778 2.397-.973 2.942-.212 4.34-.167-.199-.656-1.07-.656.238-1.16.961 1.54 2.922-1.005 4.395.249-.855.206-1.515.478-1.753.898 1.756-.626 3.895-1.22 5.456-1.736-.497.083-1.211.049-.508-.202-8.514-.322-16.469 1.214-23.958 3.827-7.505 2.629-14.567 6.325-21.665 10.715-1.11-.125-2.731.617-4.288 1.252-3.75 3.17-6.614 5.13-5.978 8.237 4.597-3.317 8.017-6.385 16.2-10.51 1.998-.257 3.754.039 4.79 1.293-5.953 3.951-13.528 6.203-18.653 10.894-.72.675-.814 1.224-1.541 1.793-4.43 3.537-7.024 4.863-10.138 7.204-6.044 4.556-11.132 10.916-16.046 16.59-1.064 1.258-3.111 1.817-3.249 3.93 1.482-1.459 2.998-3.002 4.276-4.54 1.306-1.52 2.493-2.95 3.248-4.256 1.67-1.36 3.922-3.19 6.064-5.242 2.277-1.926 4.477-4.063 6.439-5.67a49.027 49.027 0 003.17-1.912 61.731 61.731 0 002.947-1.898l5.562-3.962c3.726-2.695 7.783-5.474 13.33-7.867 1.226.993 2.36.084 4.204-.66.599 1.505 2.202 1.456 4.254.714.937-.884-1.158-.693-.167-1.426 1.355-.084 2.64-.092 3.278.913-1.067.442-2.212 1.12-2.884 1.006.91 1.014 3.24-.219 3.853 1.248-1.865 1.012-3.593 2.159-5.266 3.295a287.825 287.825 0 00-4.768 3.645c-3.085 2.481-6.104 4.859-9.644 6.892-1.306.023-2.393-.543-3.823-.253-.03 1.43 2.817.165 3.801.943-.724 1.068-1.859 2.116-2.894 3.216-.31.341-.607.68-.892 1.019-.071.017-.135.038-.206.056-1.334.313-2.869.77-3.463 2.174-.103.242-.23.446-.35.66a33.505 33.505 0 00-2.757 2.316c-.051.017-.092.045-.146.06-.087.124-.184.223-.276.33-.161.156-.335.31-.489.465-1.078.839-2.447.873-3.836.856-.493-.007-.742.287-.888.735-.083.262-.208.538-.39.733-.437.468-.815 1.308-1.619.427-.752.167-1.138.746-1.393 1.379-.465 1.149-1.109 1.977-2.503 1.89-.253-.014-.602.089-.765.267-.956 1.035-2.382 1.674-2.826 3.135-.29.951-1.044.741-1.68.86-.108.237-.187.563-.352.612-2.112.635-3.706 2.001-5.202 3.536-.785.804-1.533 1.6-2.661 2.063-1.518.622-3.313 1.188-3.028 3.51.037.3-.46.697-.763.997-.506.508-1.035.99-1.584 1.45-.273.229-.53.797-.987.257-.306-.36-1.065-.582-.48-1.306.167-.208.3-.502.309-.761.006-.25-.168-.504-.264-.757-.12.079-.244.15-.358.236-.94.703-1.53 1.732-1.454 2.802.041.564.204.954-.242 1.385-.716.69-1.344 1.473-2.494 1.46-1.368-.015-.366.76-.476 1.218-.218.907-.729 2.073-1.47 2.457a4.56 4.56 0 00-1.718 1.544c.167-.823.367-1.64.69-2.43 1.75-4.856 6.006-10.057 7.745-14.867 2.125-.707.422-1.428 2.768-3.188-.283-.626-.626-1.799-1.319-1.46-.308-.088-.643.197-.977.476-1.034 2.71-2.674 4.26-3.334 6.812-5.078 5.186-7.983 11.37-10.082 18.04a1.712 1.712 0 01-.575.013.78.78 0 00.371.622l-.137.429c-.186.641-.36 1.29-.536 1.938-.358.23-.72.455-1.128.635-.735.324-1.224.971-1.243 1.981-.052 2.884-.108 2.884-2.713 4.402-.208.12-.446.184-.675.268-.07.504-.341.808-.845.877.06.682 1.134 1.327-.006 2.082-.581.384-1.096.954-1.465 1.548-.159.255-.309.493-.467.723a.744.744 0 00-.054-.275c-.05.172-.116.38-.18.585a3.014 3.014 0 01-.913.749c-.815.433-.05 1.218.29 1.803-1.335 1.619.03 3.988-1.547 5.54-.017 1.145.17 2.342-.107 3.418-.313 1.212-.933 2.32-.725 3.658.152.98-.381 1.578-1.336 1.865-.162.05-.377.575-.293.702.602.913.208 1.783-.026 2.665 1.085 1.359.83 2.991.776 4.513-.053 1.514.416 3.15-.757 4.529-.223.261.015.853.461 1.029.54.214 1.085.345 1.06 1.1-.02.57-.003 1.145.034 1.715.154 2.369-.333 4.809.862 7.069.15.283-.08.809-.217 1.19-.124.35-.6.588-.163 1.053.665.705.495 1.602.431 2.444-.137 1.795-.111 2.618.292 3.347.61 1.104 1.074 2.294 2.122 3.129.416.33.895.885.916 1.359.06 1.297.326 2.498.943 3.632-.265 2.236.826 4.07 1.774 5.941.12.238.35.667.43.646 1.65-.438 1.907 1.284 2.906 1.82 1.016.545 2.063 1.029 3.109 1.516.197.476.384.963.572 1.452-.066.152-.021.268.142.36.18.478.35.975.519 1.473-.61.62-1.014 1.196-.376 2.296.678 1.165.929 2.593 1.268 3.928.113.448.23.843.645.974.609.193.956.33.56 1.098-.311.602-.152 1.522-.562 1.985-1 1.136.326 1.767.422 2.642.05.45.78.411 1.081.173.783-.617 1.44-1.391 2.22-2.017.745-.603.33-1.038.085-1.724-.478-1.345-.195-2.794.006-4.194.015-.112.176-.204.268-.305.097.105.27.208.277.318.066 1.136 1.173 1.567 1.612 2.431.206.405-.844 1.074-.01 1.312 1.288.367 1.8 1.248 2.212 2.35.485 1.302.967 2.608 1.536 3.875.63 1.402 1.361 2.759 2.037 4.142.182.371.497.789.448 1.143-.198 1.458.488 2.524 1.52 3.319 1.087.836 1.104 1.898 1.066 3.06-.024.701-.136 1.458.471 2 1.188 1.059 1.585 2.601 2.43 3.853.375.556.445-.253.6-.529.118-.208.298-.384.45-.573.088.114.253.23.249.341-.04 1.662.433 3.317-.463 4.977-.618 1.145-.247 2.393.489 3.598 1.211 1.989 1.374 2.289 3.286 2.937 1.6.54 1.883.832 1.928 2.322.039 1.287-.1 2.595 1.132 3.495.219.161.489.452.487.682-.02 1.992 1.473 2.993 2.678 4.17.907.888 1.627 2.031 2.995 2.331.613 1.308 1.743 2.208 2.586 3.321.941 1.242 2.858 1.332 3.313 3.049.073.279.403.204.566-.169.11-.251.094-.56.212-.804.043-.088.097-.17.154-.253.672.527 1.413 1.063 2.134 1.595-.506-.523-1.11-1.441-1.728-2.228.025-.058.053-.116.064-.178.122-.692-.384-.909-.993-1.083-.373-.105-.845-.439-.965-.778-.081-.234-.216-.427-.33-.635.069.007.14.018.234.035a1.581 1.581 0 00-.403-.358c-.73-1.135-1.831-1.969-2.569-3.088-.536-.815-1.451-1.636-1.468-2.468-.02-1.023.724-2.058 1.134-3.092.152-.383.283-.776.446-1.155a.786.786 0 01.276-.316c.478-.317.131-.152.238.322.243 1.064.813 1.336 1.79 1.308.927-.026.663.42.427 1.036-.366.958.68.495 1.012.793.311.279.38.564-.027.592-1.375.09-.98.823-.66 1.569-.71.667-.724 1.493-.52 2.357.03.13.129.296.238.341.08.032.253-.084.343-.176.298-.303.744-.581.837-.944.413-1.625 1.391-2.262 3.044-2.26.628.331 1.24.489 1.733.346-.17.377-.266.759-.127 1.157-.1-.066-.17-.113-.2-.137.089.107.187.197.28.3a1.8 1.8 0 00.447.56c.234.202.161.613.003 1.001a9.224 9.224 0 00-.686-.474c.328-.703-1.115-2.219-1.195-1.342 1.463.18-.047.787.264 1.104.497.266.905.79 1.36 1.304a24.922 24.922 0 00-1.058 2.665c-.465 1.435-.44 2.805.959 3.789 1.323.931 1.67 2.211 1.417 3.741-.069.419.017.86-.039 1.283-.025.19-.006.364.007.54a4.782 4.782 0 01-.7-.176c.26.266.515.455.764.615.03.127.06.251.103.374-1.687-.839-3.441-2.239-5.19-3.727l-4.075-3.591c-1.269-1.203-2.429-2.359-3.557-3.169.42.392-1.314-.5-1.784-1.343-.008 1.488 2.468 4.113 2.843 6.152 1.034.952 1.647 1.735 1.776 2.513.448.351.842.574 1.158.637-.509 1.509 5.88 5.669 4.607 6.074 1.141.465 2.155.624 3.71 1.569.343-.304-.31-.649.19-.943.79.521 1.454.826 1.872.705-1.666-1.106-2.362-.473-3.835-1.286.566-.395-.08-1.166-.775-1.226-.765.242.847.744.506 1.033-.43-.289-.46.242-1-.27 1.097-.427-2.27-1.552-2.53-2.732.226-.251.518-.371.94-.212 1.788 1.612 1.22.431 2.252.735.875.524.43.914 1.027 1.409.63-.624 2.107.29 3.143 1.113 1.486.519 3.023.628 4.462.8l.225.201c.82.734 1.788 1.304 2.7 1.932.222.154.518.017.542-.345.054-.834.41-1.801-.186-2.474-.805-.907-1.441-2.162-3.015-2.048-.352.026-.866-.234-1.074-.528-.303-.428-.584-.87-.87-1.31a.97.97 0 01.297-.098 3.278 3.278 0 01-.58-.328c-.447-.697-.884-1.398-1.33-2.095.43-1.162.81-2.346 1.316-3.474.187-.413.298-.763.17-1.177-.035-.109-.232-.274-.236-.27-1.555 1.272-1.819-.555-2.56-1.113-.55-.414-.57-1.095-.539-1.745.931-.315 1.287 1.462 2.342 1.04.094.092.182.189.29.27.582.83 1.588 1.859 2.716 2.657 1.17.853 2.303 1.608 2.837 2.079-.086-.195.53-.454.746-.373.583.897 3.634 1.302 2.204 1.523.926.639 1.35.349 1.882.263-2.28-.885-4.054-2.358-5.71-2.545-.28-1.02-1.706-1.664-2.787-2.365-.41-.27-.782-.525-1.044-.772.174-.025.393-.124.566-.186.056-.019.107-.232.067-.307-.133-.248-.36-.459-.453-.718-.137-.388-.264-.849.21-1.104.37-.197.772-.277 1.175.03.313.236.671.411 1.012.611.05.42-.015.918.198 1.224.19.277.69.41 1.074.468.572.088 1.158.015 1.71.186-.27.105-.58.067.117.442.266-.007.555.049.853.133.111.06.216.094.32.103 1.614.561 3.514 2 4.731 2.208a397.35 397.35 0 01-2.197-1.424c.433.015.866.02 1.297-.004.103-.006.225-.15.285-.261.026-.05-.058-.206-.13-.256-.601-.403-1.212-.396-1.817-.008-.062.041-.094.128-.13.208-.401-.262-.796-.528-1.19-.789.379-.279.756-.607 1.217-.519.493.094 1.008.056 1.523.015.459.446.947.888 1.51 1.143.154-.466 1.011.426 1.071-.215.056-.158.011-.311-.064-.461.853.448 1.694.395 2.575.371.92-.025 1.51.127 1.842 1.233.167.551.58.989 1.128 1.224-.078.324.227.714.65 1.094-.92-.039-1.268.84-2.409.472.472.251.815.516.884.821-.362.283-1.158-.107-1.426.33 1.061.264 2.21.956 3.253 1.93.373-.89 1.878.182 2.305.469-.521.322-1.308.058-1.97-.514.16.986-1.146-.262-1.154.465.98.712 4.64.079 5.45 2.013-2.329-1.175-3.103-.57-4.68-.851-.805.802-.545 1.437.107 2.018l.197-.474c.592.189.662.444 1.007.667-.227.073-.45.15-.135.336-.235.391-.368-.383-1.016-.486.813.699 2.174 1.325 2.948 2.077 2.483.648 5.772 2.925 7.837 2.991-.815-.514-2.852-.892-2.817-1.955.872-.648 1.516 1.014 2.073.345-1.156-.662-1.812-.448-2.06-1.306.366.129.353-.212.669-.145 1.05.602 2.17 1.552 1.841 1.998.082-.575.674.725.895.12-.37-.294-.234-.701-.292-1.066-1.383-.435-2.185-1.005-2.215-1.745 1.801-.152 3.006.761 4.359.888.26.525.57.977.98 1.387.358.358.755.277 1.16.126.345-.126.529-.669 1.048-.349.71.437 1.572.705 2.14 1.276 1.317 1.318 2.841 2.23 4.556 2.89.011.004.018.026.028.032-.047.071-.109.131-.122.221-1.621-.249-2.798.142-4.423-.708.066.142.195.223.304.322a97.355 97.355 0 00-3.145-.6c-.723 1.113 1.216-.03 1.145.907-.693.163-2.929-.331-2.976-1.085.512.231 1.046.465 1.543.611-.156-.408-.829-.654-1.434-.924.004-.007.002-.013.006-.02-.03-.004-.057-.012-.087-.017-.373-.169-.708-.351-.864-.592-.209.101-1.65-.105-1.002.232.03.004.082.028.116.034-2.144-.478-4.127-1.203-6.055-1.751-2.43-.809-4.734-1.45-7.136-1.45-.47-.997-1.413-1.387-2.41-1.481-2.543-.755-4.526-2.297-5.845-3.596-.82.973-2.022-1.64-3.216-1.668.024-.288-.163-.453.266-.478-2.556-.176-2.719-2.968-5.405-3.858 1.033.776-1.473.266.557 1.396.566-.141-.309-.982.378-.624-.646.903 1.616 1.996 1.936 3.276 1.96-.021 2.937 1.707 4.991 2.927.047.416.037 1.643.97 1.473-1.165-.461.501-.469.677-.682 1.108.519 2.024 1.263 2.933 1.939-.637.133-1.188.33-1.488.519.262.111.491.19.744.295-.01.202.013.294-.35.539 1.197.819 1.5.338 2.183.422-.883.922 3.036 1.934 3.802 2.959.092-.395.435-.414 1.061-.161-.206.199-.463.157-.195.508 5.646 1.958 10.843 3.452 16.012 5.007 1.907-.137 7.102.572 6.508 2.333 6.276 2.004 13.01 2.397 20.067 3.008 2.378-.847 5.302-.412 7.47-.213-.319-.036.639-.452 1.235-.246 2.241.738-1.527 1.464-3.39 1.376 1.625-.023.041 1.201-.283 1.628-3.553.352-6.443.184-9.578.523-.825-.114-.932-.59-1.882-.641-1.4.648-2.779-.688-4.424-.72-.941-.033-1.706.653-2.643.546-1.045-.122-1.879-1.014-2.766-1.138-.53-.075-1.499.101-1.958.071.049.002.277-.324.373-.311-.947-.144-1.492.285-2.309.195-.146-.02-.146-.568-.219-.607-1.074-.568-2.635.043-3.891-.182-.796-.734 1.224-.556-.127-.965-.21.585-1.511.158-2.069.426-.656-1.198-3.542-.799-2.907-1.666-1.09-.128-2.62-.246-4.066-.585-1.445-.343-2.86-.733-3.803-1.089.343.154.244.39.14.628-2.289-.825-3.04-1.08-4.396-1.181.06-.174.317-.116.426-.234-1.728-.592-3.372-1.055-4.768-1.668-1.392-.62-2.612-1.214-3.605-1.803-.388.083-.703.274-1.172.251-.547-.781-.82-.68-1.549-.528-.454-.587.101-1.13-.874-1.218.785.942-1.413-.006-2.072-.188.153-.326-.698-.592-.267-.935.098-.418.932.225 1.117-.067-1.94-.877-2.175-.392-2.691.313.57.605 1.756 1.173 2.414 1.771.995-.666 3.894 1.4 4.447 2.104-.392-.18-.397.167-.74.053.04-.216.26-.446-.08-.636-2.186.212-3.792-1.248-6.071-2.496.373.977-.806.223-1.167.845 2.357 1.144 4.764 2.221 6.883 3.289-.8-.766 1.096-.082 1.488-.11.467.513 1.973 1.782 2.491 1.75-.343-.191-.22-.416-.098-.645.93 1.382 2.976 1.711 4.663 2.605-1.92-.807-1.17-.06-2.684-.403 1.282.733 1.979 1.237 3.188.973l-.18.515c1.574.248 3.407 1.057 5.356 1.895.976.414 1.975.855 2.989 1.194 1.03.29 2.063.521 3.068.624-.004.221-.182.489.191.611 3.544.198 8.27 2.65 10.12 2.239.013.724-1.661.634-2.386.041-.013 1.295 2.056.804 2.927.778-.052 0-.005.36-.058.358 1.351.013 2.065-.699 3.475-.573 1.802.159 2.19 1.175 4.567 1.21-.606-.948 2.449.285 3.362-.097-1.775-.285-.761-.364.678-.225 1.441.099 3.319.262 3.281.883-1.103-.113-1.283.339-2.035.438 1.837.026.96.238 1.286.978 1.499-.123 1.656.392 2.678.495-.137-.588-1.49-.59-1.977-1.004.461.03.736-.051 1.01-.132.766.259 1.255 1.196 2.001.456-.039.315.055.568.315.742-2.721.094-4.593.172-6.407.105-1.807-.197-3.563-.538-6.042-1.25-1.546.058-3.085-.324-4.64-.665-1.559-.343-3.139-.598-4.79-.534.03-.343-1.07-.383-.885-.769-4.231-.511-8.176-3.326-11.82-3.086.891.373 2.259.543 2.175 1.045-1.029-.236-5.714-1.304-4.314-2.172-.797-.161-1.54-.262-2.611-.727-.733.553 1.647.613 1.432 1.085-1.475-.427-4.84-1.263-5.583-2.582-2.946-.965-5.38-2.183-7.595-3.24-2.195-1.093-4.09-2.212-5.675-3.546-.603.744-.425-.66-1.044-.928-.85-.226-.133.949-.704.641-.294-.17-.416-.071-.67-.181-1.206-.516-.835-.999-1.497-1.505-.597.238-1.956-.759-3.088-1.402.459-1.319-2.067-1.818-3.199-2.562-2.367-1.435-4.769-3.596-7.153-5.508-2.335-1.979-4.663-3.721-6.3-5.153 2.282 2.625 3.556 2.841 5.322 5.238 1.831.897 3.611 2.299 5.412 3.78 1.842 1.416 3.791 2.796 5.719 3.873-.27.366.178.761.133 1.136-.479.03-1.246-.414-1.735-.401.946 1.025 4.61 1.896 6.014 3.969.436-.42 1.24.407 1.902.791 1.548-.613 6.113 1.643 7.777 2.689-.204.285-2.813-1.291-1.999-.532.92.438 1.887.864 1.64 1.37-.587-.158-1.732-1.055-1.935-.703.883.712 3.042 1.342 2.067 2.165 1.263.734-.16-.836 1.215-.237.015.16.183.315.558.454.088.961-.9.555-1.424.746 1.23 1.1 1.595.442 1.778.217.801.898-1.083.264-.401 1.014 1.23.924 2.731 1.475 3.443 1.737-.358-.172-.444-.378-.53-.581.547.317 1.54-.002 1.639.598-.395-.116-.922-.371-1.047-.189 1.664 1.143 4.801 1.795 5.644 2.991.88.054-.431-.731.546-.577 1.966.416 1.525 1.203 2.773 1.729.253-.193-.127-1.036.58-.761 1.133.518 3.318.6 2.883 1.385-.393.036-2.627-.521-1.793-.093 2 .163 3.236.894 4.252.35 1.312.56-.478.89.767 1.319.498.012.21-.667.845-.537.373.438 3.817 2.072 2.303.944 1.409.515 1.696.557 3.722 1.078.107-.253 0-.688.47-.634 2.798.932 5.527 1.207 8.143 1.556 2.625.294 5.155.639 7.7 1.118.156-.305-.483-.496.036-.543 1.921.394 3.514.731 4.855.064.004.251-.176.393-.367.53 1.434-.264 3.246.217 4.515.551-.967.688-2.751-.006-3.164 1.147 2.444 0 3.507-1.464 6.297-1.042.467-.401-.905-.71-.015-.727 1.059.249 1.355.208 2.073-.161-.004.62 1.04.631 1.769.828 2.725-.808 5.479.272 7.94-.995 1.389.024 2.937.032 4.539-.088 1.6-.188 3.259-.433 4.876-.72 3.233-.573 6.291-1.31 8.392-2.039.41.411 1.932-.266 1.908.484 1.771-1.132 3.133-.33 4.306-1.481-.421.088-.815.156-.772-.174.765-.36.86-.345 2.303-.798.113.266.133.618.829.343.744-1.413 3.761-1.031 5.434-1.307-.018-.369-.571-.217-.847-.329 1.278-.433 3.572-1.483 4.196-.681-.774.491-1.413-.316-1.705.426.478-.122.51.24.841.273 3.227-2.271 8.229-3.817 10.585-4.58.845-.328.974-1.081 1.342-1.24.993-.43 2.121-.075 3.682-1.17-.287.203.448-.2 1.252-.613.313-.157 3.39-2.11 4.541-1.859.358.332-2.315 1.449-1.295 1.26 1.096-.619 1.373-.999 2.503-1.26-.354-.348-.041-.719.452-.995.478-.305 1.128-.534 1.492-.521-.793.838-2.172 1.58-2.3 2.309 1.844-1.175 4.813-4.087 5.456-2.524-.092-.158.406-.514.603-.369-.989 1.133-.29 1.167-1.143 2.188 1.55-1.855 3.433-2.724 5.232-3.661 1.769-.967 3.561-1.854 4.502-4.043.271.229-.081.559.148.795.894-.639.47-1.059 1.767-1.769.144.322.562.082.725.367.695-.609 1.496-1.244 1.756-1.78-1.203 1.01-1.973 1.111-2.53.768 2.045-1.194 2.436-2.53 4.708-3.122-1.228.718-.497 1.068-1.732 1.784.54.126.81.83 1.812-.013-.123-.247-.524-.442-.178-.778.304.757 4.245-1.791 5.692-3.174-.171-.761-1.001.206-1.254-.336.448-.125 1.066-.684 1.696-1.289-.249.826-.116.626.472 1.044.956-.649-.043-.769.686-1.359.435.538 1.638-.988 2.2-.78.729-1.499 1.408-1.446 1.567-.957.65-1.286 1.162-1.524 1.447-2.592.689-.15.142.186.519.51.982-1.183.929-1.016 1.951-1.595.258-.515.249-.971.468-1.518.701-.217 1.072-.988.641.107 2.94-2.669 2.251-5.013 3.825-6.128-.87-1.038.6-1.902 1.829-2.618-.006-.624-1.132.253-.568-.459.939-.488 1.484-1.1 2.187-2.302.641.111.109.787.291 1.119.238-.811 1.19-1.507 1.139-1.806-.388.348-.746.519-1.074.519.506-.662.377-1.018 1.128-1.801l.439.324c.989-2.976 4.183-5.817 4.258-7.341.524-1.002.822-.335 1.28-.847-.201-.148-.433-.084-.662-.011.229-.871 3.493-3.727 1.537-2.352.931-1.379 1.799-1.441 1.956-2.52-.472.678-.847.453-.47-.274-.03.566.358.523.834-.33-.096-.444.223-1.145.431-1.782-.056 1.059 1.115-1.231 1.233-1.726-.174.217-.356.594-.517.517.294-.641.922-2.453 1.598-2.725.115.304-.659 1.181-.388 1.385.885-.875.574-1.469 1.093-2.599 1.276.036.823-3.493 2.215-3.221-.935 1.118-1.057 2.353-1.259 3.399-.231 1.029-.482 1.902-1.548 2.29.873.538-.27 1.276-.797 2.785.709-.073.1.695.27.963.967-1.342.343-.972.409-1.4.339-.193.714-1.102 1.021-.659-.189.376-.54.858-.384 1.012.622-1.34 1.197-1.88 1.748-1.904.283-.913.718-1.582 1.263-2.493.503-.933 1.14-2.099 1.876-3.95 0-.739-.721.204-.35-.949 2.732-3.884 3.159-8.298 4.651-11.555-.268-.869-1.207.257-.663-1.364.541-.737.806-.384 1.152.026.426-3.296 2.17-4.94 3.122-8.343-1.068-1.81 1.575-6.162.896-8.547-.142 1.643-.654 3.701-1.471 4.362-.305-1.445.482-5.466 1.557-4.707-.174-2.004 1.573-3.342.63-4.181 1.312-.152 1.902-4.146 1.85-6.473.005.345.281-.487.386-1.376.273-2.323.663-4.904.933-7.456.103-2 .09-3.981-.077-5.799.201-.009.414.012.654.102-.161-2.191-.309-4.35-.461-6.498.045.036.096.062.184.019-.304-1.066-.212-1.465-.362-2.462-.054-.724-.114-1.447-.172-2.167.363-.905.652-2.541.721-3.446.038.697.519.414.433 1.383-.264 1.535-.155 3.454.534 4.567-.123.736-.305.748-.556.36.457 4.121-.126 7.185.65 10.961-.628-.943-.635 3.459.041 2.489-.519 2.385-1.049 5.434-1.338 8.459a60.64 60.64 0 00-.288 4.43c-.017.705-.017 1.389.003 2.039-.022.641-.024 1.25.002 1.814.231-1.752 1.269-4.839.767-6.418.667.927.358-1.548.082-1.794l.54.068c1.338-7.641 1.452-15.744 1.54-23.557zm-51.284-99.143c.624-.298 1.019.637 1.25 1.132-.349.256-1.166-.915-1.25-1.132zM79.481 250.58c.066-.954 1.56.438 1.698.187.75.694-.928.302-1.698-.187zm10.393 6.098c.452-.939 1.01.309 2.25.596-.256.341-1.569-.472-2.25-.596zm2.603-2.746c.152-.472 1.565.092 1.884.465-.15.371-1.316-.375-1.884-.465zm22.464 9.217c.308-.099.765-.086 1.335.007-.06.255-.115.506.266.589-.304.38-2.065-.116-1.601-.596zm10.504 2.024c-.221-.508.675-.334.694-.695-2.611-.632-5.347-.248-6.17-1.73 2.255.635 3.177.131 4.938-.148.426.204.615.521 1.282.609-.511.399-.815.24-1.647.103.244.703 1.121 1.106 2.59 1.216.208.677-.555.776-1.687.645zm141.986-100.688c.399.036-.21 1.177-.233 1.677-.11-.181-.217-.365-.264-.614.126-.291.251-.583.371-.877.038-.013.081-.055.126-.186zm-2.929 23.484c-.737 1.231-.531 1.079-1.179 2.528-.53.41-1.093-.182-.39-1.303.553 1.381.564-1.441 1.569-1.225zm-87.952 67.356c-.096.45-1.679.74-2.406 1.014.294-.982 1.126-.609 2.406-1.014zm-17.001 7.601c-1.846.172-2.703-.096-4.758-.141.952-.957 2.893-.536 4.823-1.163-.013.438-.373.757-.065 1.304zm-10.064.122c-.247.622-1.115.026-1.33-.053-.154-.414.916-.268.912-.618 1.142-.12-.734.791.418.671zm3.968-.235c-.152.45-1.009.647-1.166 1.099-.523-.469-2.824.412-3.057-.276 1.507.317 2.493-.956 4.223-.823zm-2.448-2.597c-1.04.247-2.001.598-3.739.836-.753-.933.752-1.258 2.637-1.73 1.891-.433 4.194-.738 5.094-.989 1.411.262 1.808.948-.064 1.484.041-.154.292-.229.255-.407-2.028.315-3.143.544-4.183.806zm-3.158 2.982c-2.372.616-7.934.646-6.609-.308 1.696.671 3.864-.258 6.609.308zm8.906-4.228c-.191-.454.573-.568 1.162-.746.078.482-.557.978-1.162.746zm2.412-5.51c-2.208.332-4.438.54-6.155.776-.74.302.377.757 1.042.568-.223.555-1.315.159-1.844.294-.088-.317.313-.44.191-.766-.196-.381-1.516.163-2.166.153 1.953-1.192 3.997-1.621 6.355-1.909 1.182-.126 2.436-.259 3.785-.405 1.335-.221 2.755-.553 4.279-.982.043.253.086.506.442.446-.787.414-1.717.776-2.725 1.098-.504.161-1.027.311-1.559.452-.545.09-1.096.183-1.645.275zm-72.913-21.602a.695.695 0 01.399.055l.002.003c-.013.042-.009.083-.038.13-.406-.077-.6-.133-.706-.184.116-.004.22.019.343-.004zm-17.234-7.308c-.095.084-.19.168-.283.253l-.26-.13.14-.198c.047-.064.092-.13.139-.197l.264.272zM123.91 24.224c-.23.227-.592.363-1.167.41-.081.006-.165.002-.249.004-.242-.084-.63-.03-.997.013.762-.41 1.576-.497 2.413-.427zm149.478 71.81c.231.801.049 1.144-.163 1.453-.255-.956-.326-1.975-.629-2.927.011-.186.037-.358.082-.504.596 2.033-.204 1.86.71 1.977zm.437 1.695c.114.622.21 1.083.304 1.473-.045-.013-.072-.04-.122-.051a3.973 3.973 0 01-.33-.506c-.165-.545-.287-1.04.148-.916zm-1.169 45.398c.037-.476-.051-.755-.203-.933.06-.797.167-1.537.345-2.101.122.221.238.455.349.693.046-.326-.077-.798-.12-1.218.026-.047.045-.116.073-.159-.03-.09-.045-.201-.073-.296.03-.152.093-.278.219-.356.047.646.491.631.283 1.707-1.231 1.321-.431.585-.873 2.663zM159.985 26.067c-.211.035-.324-.014-.395-.1.139-.036.281-.068.42-.102.005.079-.006.197-.025.201zm87.392 34.629c-.549-.04-1.035-.182-1.072-.877v-.034a9.35 9.35 0 011.072.91zm24.939 71.946c-.043-.544-.086-1.093-.133-1.642.015-.047.036-.09.051-.137.127-.414.5-.757.845-1.098.004.568.011 1.132.015 1.685a27.23 27.23 0 00.311 3.587c-.288.03-.628-.053-.575.669.27.062.676-.111.714.35-.126 1.014-.354 1.829-.667 2.465-.375-1.648-.48-3.711-.561-5.879zm.671-4.809l.015.277a.42.42 0 01-.015-.277zm-17.803-58.67c-.401-.433-.332-1.03.191-1.432.036-.028.09-.034.141-.043.601.733 1.16 1.57 1.683 2.51-.754.14-1.185-.143-2.015-1.035zm-.6-2.504c-.624-.178-1.036-.586-1.253-1.203.429.364.847.77 1.253 1.203zm17.849 75.844c.065.414.039.856-.038 1.315 0-.442.013-.88.038-1.315zm4.055-31.536c.092-.266.223-.529.36-.793.013.583-.064 1.074-.293 1.254-.013-.143-.046-.309-.067-.461zm-.42-3.366c.006-.114-.009-.257.013-.352.122.14.24.391.347.682a3.292 3.292 0 01-.36-.33zm-1.094-3.694c-.444.984.193 2.165.526 2.032-.052.44-.165.598-.316.62-.15-.195-.295-.388-.437-.583-.032-.127-.056-.251-.09-.38a6.11 6.11 0 00-.555-.577 3.287 3.287 0 01-.253-.461c-.142-.362.274-.846.731-.804.116.011.231.043.345.078.017.025.03.051.049.075zm-2.545-9.795c-.013-.032-.021-.066-.036-.098a.61.61 0 01-.043-.378c.028.163.056.322.079.476zM125.987 24.657a1.308 1.308 0 01-.551-.156c.185.05.367.1.551.156zm43.547 231.061c.264.778-.962.175-1.818.675.318-.551.987-.596 1.818-.675zm70.259-33.68c.352.6-.934.997-1.687 2.163-.219-.247-.568.058-.776-.225.842-.721 1.698-1.518 2.463-1.938zm1.669-2.166c.18.187.362.367.649.088.412.332-.945 1.728-1.447 1.917-.24-.476.075-1.16.798-2.005zm26.54-57.051c.06.041.137.064.19.111-.21.494-.298.541-.401.464.071-.193.144-.382.211-.575zm3.949-13.615a8.798 8.798 0 00-.092-.772 1.36 1.36 0 01.326-.245c-.022.32-.114.663-.234 1.017zm.658-2.207c-.07-.426-.126-.982-.165-1.584.11-.489.238-.95.526-1.587-.088 1.512-.23 2.02-.174 3.135-.062.017-.122.041-.187.036zm4.338-29.745c.178-.828.225-1.681.077-2.71.999.398.583 2.815.062 3.664-.043-.317-.094-.637-.139-.954zm-.283-5.133c.322.388.519 1.14.669 2.026-.639.39-.866-1.456-.669-2.026zm-2.577-17.007l-.702.195c-.263-.573.14-1.555-.45-1.694-.128-1.173.446.279.616.186.09-.446-.148-.716-.446-1.042a2.68 2.68 0 00.336-.328c.457.723.776 1.593.646 2.683zm-1.385-5.833c-.238-.027-.356-.645-.5-1.13.019-.002.036.003.056 0 .169-.017.311-.15.424-.31.465.965-.056.892.02 1.44zm-2.951-3.374c.071-.047.236-.02.32.036.615.403 1.033.92 1.183 1.685.071.356.371.5.716.524.058.274.108.58.118.96-.173.052-.131.339-.255.448-.448-1.567-1.31-1.018-.266-.279.043.217.082.436.125.654a20.27 20.27 0 01-1.731-.094c-.163-.017-.439-.457-.396-.639.12-.508.606-1.027.525-1.462-.09-.487-.716-.862-.581-1.501a.598.598 0 01.242-.332zm-6.113-11.351c-.212-.105-.422-.2-.643-.082a7.414 7.414 0 00-.412-.823 7.86 7.86 0 01-.075-.667c.352.489.764 1.061 1.13 1.572zm-23.343-31.982l.405.478c-.028.051-.043.107-.081.154-.753-.15-1.106-1.143-1.559-2.08.401.487.804.972 1.235 1.448zm-12.436-3.975c.067.042.109.124.148.214-.148-.056-.298-.12-.446-.18.06-.08.176-.112.298-.035zm-108.86-13.607c.007.143.011.29.015.437.348-.002.556-.188.678-.45.577.002 1.164.021 1.769.037-.219.465-.645.767-1.059 1.042-.695.458-1.175.182-1.418-.547-.246.083-.503.141-.731.26-1.125.58-1.535.565-2.142-.21-.021-.029-.034-.063-.055-.091.975-.326 1.949-.45 2.943-.478zm-8.366 1.316c.997-.19 1.936-.27 2.779-.276-.215.184-.495.313-.946.302-.27-.006-.667.009-.797.176-.965 1.23-2.515.206-3.581.98-.746.542-1.171.266-1.54-.159 1.366-.459 2.777-.785 4.085-1.023zm-71.31 172.549c-.117-.025-.237-.433-.207-.641a.738.738 0 01.15-.315c.073-.101.158-.201.225-.304.111.208.285.407.317.628.052.336.013.742-.484.632zm3.937 10.781c-.047.187-.294.324-.448.482-.092-.1-.249-.192-.261-.304-.046-.382-.048-.768-.063-1.154-.021 0-.034-.006-.056-.006l-.008-.086c-.193-.088-.388-.169-.566-.281-.032-.019.015-.272.045-.276.467-.067.495.246.521.557.021.009.04.022.062.03 0 .022 0 .041.002.062.626.015.935.328.772.976zm2.588 2.363l-.656-.39c.234-.12.47-.341.699-.333.234.009.461.243.69.378l-.733.345zm1.728 1.846c-.021.315-.045.635-.527.555-.032-.004-.077-.261-.045-.283.182-.109.38-.188.572-.272l.009-.09c.021.002.036-.007.058-.004-.024-.513-.084-1.032.347-1.441.253-.238 1.094-.23 1.079.008-.013.215-.08.466-.213.624-.321.38-.606.858-1.213.806l.002.063c-.024.01-.045.023-.069.034zm3.405.793c-.605 1.377-1.863 2.427-2.002 4.051-.007.081-.51.216-.732.154-.212-.06-.54-.395-.506-.53a12.436 12.436 0 012.12-4.442c.087-.116.526 0 .79.064.004.002.009.009.013.011.073.064.133.128.208.193.026.032.05.066.077.094.013.135.082.296.032.405zm12.84 10.65c-.142.315-.363.444-.68.337.09-.285.265-.517.675-.583.735-.118 1.046.338.97.984-.01.077.016.131.014.203-.236-.242-.514-.542-.98-.941zm5.349 1.338c-.01.03-.017.062-.028.09l-.062-.06c.028-.013.06-.019.09-.03l.058-.189c.058.037.12.073.178.108-.078.028-.159.053-.236.081zm28.984 22.595c-2.65-1.222-5.257-2.436-8.405-3.015-1.035-.478-2.03-1.125-3.139-1.831-.116-.081-.24-.161-.358-.242.491.114.98.223 1.454.315 1.183.255 2.31.508 3.456.854a24 24 0 013.652 1.262c2.163-.969 5.229 2.882 7.29 2.586-.817-1.312 2.656-.246 4.657-.008-.32.572-.092 1.329.043 2.384-3.187-.289-5.942-1.302-8.65-2.305zm40.115 6.733c.639-.401 1.035.418 2.189.242-.022-.176-.392-.118-.633-.146.054-.264.92-.116.905-.416-.356-.392-1.947.039-2.789-.03 1.263-.911 4.408-.834 5.45-1.406.506.355.305.973.099 1.087.334.594.692-.022 1.271.285.839-.29-1.01-.311-.705-.866 2.363-.166 2.916.032 3.943-.629 1.003.148-.011.313 1.848-.085.328 1.217-1.919.593-2.659 1.05 1.139.778 3.89-1.228 4.066.019-.965.097-1.977.311-3.028.532l-3.259.481c-2.221.291-4.528.43-6.698-.118zm.701 7.42c-.3.564.748.286 1.334.292-1.073.294-2.826.38-4.788.452-1.962-.055-4.13-.167-6.06-.045 2.299-1.344 6.043-.064 9.514-.699zm-10.515 1.205c1.865.294 2.322.178 4.305.343-1.863-.921 4.13-.443 4.634-.012-1.557.512-3.418.401-5.157.302-1.739-.088-3.355-.163-4.472.247-.266-.592.542-.539.69-.88zm-1.04 1.593c.283-.626 1.173-.16 1.675.071-.097.42-1.478.041-1.675-.071zm22.625 1.015l-.075-.571-.45.11a67.57 67.57 0 01-2.269.326 84.525 84.525 0 01-4.895.48c-3.377.199-6.919.373-10.244-.266-.367.032-.23.354-.676.343-.787-.09-1.396-.272-2.022-.444.086-.559 1.677-.24 2.698-.261.025-.26.049-.513-.339-.558 3.263-.077 9.147-.058 13.956-1.366 1.098.125 2.138.286 2.764.719.956-.223-.27-.566-.11-.901.828-.178 1.615.543 2.007-.047.987.013.414.212.433.669 1.643-.523 2.828-.933 3.926-.973.236-.654-1.076-.116-1.715-.099.937-.789 3.291-.911 4.293-.684.381.639-1.332 1.428.572 1.194-1.357.871-5.375.245-5.967 1.13 2.607.058 6.988-1.306 8.525-.452-3.431 1.387-6.625.827-10.412 1.651zm15.32-4.359c-.037-.326-.491-.268-.502-.622 1.246-.504 1.111.276 2.359-.236-.247.377-1.328.551-1.857.858zm8.808-3.292c-3.967.622-7.384 1.656-11.424 2.458.127.313 1.117-.17 1.377.025.087.569-1.9.843-1.986.277-.843.519-.879.68-.377 1.355-1.495-.379-1.808-.849-1.28-1.269.527-.438 1.908-.74 3.791-1.15-.339-.19-1.094.009-1.688.056-.287-.519 1.434-.506 1.471-.937.446-.056.377.375.495.622 3.071-.984 3.279-1.128 6.621-2.123.631.547 1.619-.439 2.455.082.819-.397-1.095-.118-.227-.691 2.284-.463 2.221.039 4.513-1.093-.122-.502-1.959.95-1.734.053 1.526-.248 2.601-.816 3.647-1.533.249.359.199.671.015.963.838-.253.928-.613.669-1.025 1.497-.767 2.022-.401 2.744-.257-1.162 1.842-7.223 2.772-9.082 4.187zm29.799-8.023c-.043-.948 1.314-1.021 2.056-1.893.277.57-1.438 1.269-2.056 1.893zm9.464-2.009c-.557 1.336-.506-.253-1.396.45-.049-.261.659-.591 1.085-.896.12.227.243.457.609.26.06.203-.242.27-.298.186zm-1.08-2.757l1.162-.74.317.444c-.6.294-1.293.744-1.479.296zm1.348-1.075c-.238-.396.71-.971 1.439-1.515l.326.437c-.669.525-1.317 1.014-1.765 1.078zm-.491-.87c-1.799 1.241-3.636 2.399-4.565 3.199.116-.742 1.651-1.919 3.504-3.173a103.27 103.27 0 005.219-3.937c-.755 1.121-2.44 2.554-4.158 3.911zm12.754-2.719c-.633-.399-.719-.39-.554-1.185.661-.041 1.699.263.554 1.185zm1.031-1.501c-.298.002-.759.356-.913.022.321-.107.641-.219.555-.431.313-.223.416.109.765-.202-.043.236-.077.47.097.648-.337.229-.901.328-.504-.037zm4.916-2.495c-.087-.256.556-.717.925-1.1-.191-.112-.582.33-.912.591-.482-.017.363-1.157-.501-.527.06-.44 1.458-.545 1.934-.549-.882.903-.294.958-1.446 1.585zm6.21-10.65l.405.364-1.175 1.289c-.489-.275.491-1.089.77-1.653zm1.925 2.206c.221-.832-.349-.193-.984.54-.253-.808 1.54-1.531 2.279-2.242.273.302-.952 1.17-1.295 1.702zm1.053-4.698c-.24 1.548-.648 2.953-2.974 4.381.225-1.015 2.374-2.393 1.63-3.697 2.165-1.97 3.488-3.928 4.665-4.723-.03 1.428-1.964 3.503-3.321 4.039zm6.192-7.116c-1.194 1.346-1.859 1.681-2.356 3.04l-.718-.562c1.421-1.305 2.506-3.606 4.148-5.146.022 1.032-1.376 1.709-1.074 2.668zm14.272-22.374c-.611-.015-.219-.774-.83-.789.529-.333 1.001-2.159 1.565-1.57-.377-.724.931-2.054 1.494-3.158-1.095 2.056-1.222 4.084-2.229 5.517zm.235 6.065c-.265-.162-.548.009-.838.354-.326-.231.105-.952.573-1.702.019.707.448-.064.465.647.412-.544.858-1.974 1.218-1.38-.451.289-.935 1.262-1.418 2.081zm1.911-3.831c-.058-1.102.465-1.314 1.089-2.251.062 1.093-.463 1.318-1.089 2.251zm1.256-12.901c-.118-.361-.03-.944.292-1.739.519.113.195 1.398-.292 1.739zm-.293-4.885c-.024-.913.461-1.23.752-2.628.517.197-.354 2.242-.752 2.628zm1.809-7.29c.504.463-.491 1.278-.435 2.357-.748.051.311-1.585.435-2.357zm-.083 5.712c-.193-1.282.066-1.889.394-3.836.11.556-.201 2.357.581.539.592.681-.645 2.09-.975 3.297zm2.6-14.867c-.701 3.332-.39 4.595-.45 6.207-.146.776-.598.227-.787.847.957-.313.298 2.191-.161 3.868-.574-.298-.889-.294-.93-.643.322-.281.579-1.465.493-1.983-.658.819-.304-1.135-.722-1.259.293-.643.461-.615.619-.178.234-2.53 1.465-5.44 1.651-7.963.197.092.257.675.53.115-.755.376.165-1.14-.294-1.102-.247.369-.382.247-.463-.045.253-.769.51-1.537.725-2.337.666-.227-.324 1.448.154 1.437.27-1.48 1.572-3.731.928-4.295-.396 1.462-.358 2.086-1.055 2.764.011-.043.028-.084.039-.127.294-1.288.54-2.615.723-3.992.28.002.521-.133.741-.322l-.012.035c.516.737.396 1.679.193 2.646-.238.962-.629 1.936-.511 2.802-.441.778-.692.684-.95.853.464.671-.109 3.78-.345 4.445-.589.028.253-1.548-.116-1.773zm-.03 16.851c.571-1.141.185-1.729.83-2.318.884-.15-.231 2.965-.83 2.318zm.892-3.039c.753-.504 1.373-1.916 2.207-1.899-.646 1.243-1.304 2.465-2.207 1.899zm7.333-58.176c0-.009.002-.011.005-.02 0 .026 0 .045.002.071l-.007-.051zm.817-1.51c.157-.532.168 1.473.367 2.779-.802-.352-.624-1.938-.367-2.779z" fill="#FF8A00"/></svg>