<svg width="36" height="36" fill="none" xmlns="http://www.w3.org/2000/svg"><path fill-rule="evenodd" clip-rule="evenodd" d="M18 .707a6.917 6.917 0 00-6.918 6.917H6.016c-3.165 0-5.724 2.734-5.252 5.931l2.558 17.292c.382 2.594 2.657 4.444 5.251 4.444h18.85c2.594 0 4.872-1.85 5.257-4.444l2.556-17.292c.472-3.199-2.09-5.931-5.255-5.931h-5.065A6.917 6.917 0 0017.999.707zm3.458 6.917a3.458 3.458 0 00-6.917 0h6.917zm3.03 10.1a1.728 1.728 0 01-.163 2.442l-6.917 6.052a1.73 1.73 0 01-2.36-.08l-3.459-3.458a1.73 1.73 0 112.445-2.445l2.315 2.314 5.7-4.987a1.729 1.729 0 012.438.164l.002-.002z" fill="#fff"/></svg>