<svg width="42" height="41" fill="none" xmlns="http://www.w3.org/2000/svg"><path d="M34.375 24.625v-8.25H33A1.375 1.375 0 0131.625 15v-1.375h-22V15a1.375 1.375 0 01-1.375 1.375H6.875v8.25H8.25A1.375 1.375 0 019.625 26v1.375h22V26A1.375 1.375 0 0133 24.625h1.375zM20.625 26a5.5 5.5 0 110-10.999 5.5 5.5 0 010 10.999zm2.75-5.5a2.75 2.75 0 11-5.5 0 2.75 2.75 0 015.5 0zm16.5-13.75H28.421a1.34 1.34 0 00-.569-.331L5.547.498a1.375 1.375 0 00-1.682.976l-1.4 5.276h-1.09A1.375 1.375 0 000 8.125v24.75a1.375 1.375 0 001.375 1.375h11.454c.159.156.355.27.569.331l22.305 5.921a1.374 1.374 0 001.682-.976l1.4-5.276h1.09a1.375 1.375 0 001.375-1.375V8.125a1.375 1.375 0 00-1.375-1.375zM6.17 3.508L18.385 6.75H5.31l.86-3.242zm.705 25.242v-1.375H5.5A1.375 1.375 0 014.125 26V15A1.375 1.375 0 015.5 13.625h1.375V12.25a1.375 1.375 0 011.375-1.375H33a1.375 1.375 0 011.375 1.375v1.375h1.375A1.375 1.375 0 0137.125 15v11a1.375 1.375 0 01-1.375 1.375h-1.375v1.375A1.375 1.375 0 0133 30.125H8.25a1.375 1.375 0 01-1.375-1.375zm28.205 8.742L22.865 34.25H35.94l-.86 3.242z" fill="#FF8A00"/></svg>