<svg width="20" height="21" fill="none" xmlns="http://www.w3.org/2000/svg"><path fill-rule="evenodd" clip-rule="evenodd" d="M20 10.01c0 5.523-4.477 10-10 10s-10-4.477-10-10c0-5.522 4.477-10 10-10s10 4.478 10 10z" fill="#E92B2B"/><path d="M4.895 4.296l.481 1.48h1.557l-1.26.916.482 1.48-1.26-.915-1.26.916.482-1.481-1.26-.915h1.557l.481-1.481zm3.572-1.071l.16.493h.52l-.42.305.16.494-.42-.305-.42.305.16-.494-.42-.305h.52l.16-.493zm0 5l.16.493h.52l-.42.305.16.494-.42-.305-.42.305.16-.494-.42-.305h.52l.16-.493zm1.429-3.572l.16.494h.519l-.42.305.16.493-.42-.305-.42.305.161-.493-.42-.305h.52l.16-.494zm0 2.143l.16.494h.519l-.42.305.16.493-.42-.305-.42.305.161-.493-.42-.305h.52l.16-.494z" fill="#FFE70E"/></svg>