<svg width="144" height="76" fill="none" xmlns="http://www.w3.org/2000/svg"><path d="M66.879 32.707c0-.797.105-1.664.316-2.602.235-.937.551-1.875.95-2.812a18.37 18.37 0 011.44-2.777 12.18 12.18 0 011.9-2.391 8.454 8.454 0 012.284-1.652 5.611 5.611 0 012.602-.633c.75 0 1.453.105 2.11.316.656.188 1.218.48 1.687.88.469.398.832.901 1.09 1.51.281.587.422 1.29.422 2.11-.516 0-.938-.129-1.266-.386a10.847 10.847 0 01-.879-.915 5.195 5.195 0 00-.879-.878c-.304-.258-.703-.387-1.195-.387-.727 0-1.43.187-2.11.562a7.882 7.882 0 00-1.863 1.512 12.087 12.087 0 00-1.511 2.145 25.121 25.121 0 00-1.125 2.425 19.415 19.415 0 00-.739 2.356c-.164.773-.246 1.441-.246 2.004 0 1.218.176 2.367.527 3.445a8.75 8.75 0 001.583 2.777c.68.774 1.523 1.383 2.53 1.828 1.009.446 2.157.669 3.446.669.82 0 1.594-.118 2.32-.352.75-.258 1.465-.527 2.145-.809a48.396 48.396 0 012.074-.843 5.714 5.714 0 012.04-.387c.093 0 .222.012.386.035.188 0 .351.023.492.07a.959.959 0 01.422.246c.117.094.176.246.176.457 0 .844-.328 1.56-.985 2.145-.632.586-1.394 1.066-2.285 1.441-.89.352-1.816.61-2.777.774-.961.164-1.746.246-2.355.246-1.782 0-3.446-.281-4.993-.844-1.547-.586-2.894-1.406-4.043-2.46a11.345 11.345 0 01-2.707-3.798c-.656-1.5-.984-3.175-.984-5.027zm23.45-7.84c0-.68-.048-1.336-.141-1.969-.094-.656-.118-1.23-.07-1.722.046-.516.222-.926.526-1.23.329-.305.915-.458 1.758-.458.258.54.504 1.36.739 2.461a58.06 58.06 0 01.738 3.797c.234 1.43.457 2.988.668 4.676.21 1.664.398 3.34.562 5.027.188 1.688.34 3.352.457 4.992.141 1.618.246 3.094.317 4.43-.774.516-1.395.55-1.864.106-.468-.446-.855-1.196-1.16-2.25-.304-1.079-.539-2.38-.703-3.903-.164-1.547-.328-3.14-.492-4.781-.14-1.664-.316-3.293-.527-4.887-.211-1.617-.48-3.047-.809-4.289zm8.859 6.715v-.668c.023-.328.035-.668.035-1.02.023-.351.035-.69.035-1.019.023-.328.035-.563.035-.703.258-.375.586-.68.984-.914a7.476 7.476 0 011.266-.563 23.99 23.99 0 00.598 4.043c.328 1.43.679 2.871 1.054 4.325.375 1.43.703 2.847.985 4.253.304 1.407.457 2.72.457 3.938 0 1.055-.539 1.582-1.617 1.582-.657 0-1.208-.27-1.653-.809-.445-.539-.808-1.218-1.09-2.039a21.289 21.289 0 01-.633-2.777 35.235 35.235 0 01-.351-3.023c-.047-.985-.082-1.887-.106-2.708v-1.898zm.492-13.184c.445.188.82.493 1.125.915.304.421.433.808.386 1.16-.023.328-.281.562-.773.703-.492.117-1.313-.024-2.461-.422 0-.633.117-1.184.352-1.652.257-.47.714-.704 1.37-.704zm5.625 15.786c0-.985.211-2.016.633-3.094a11.129 11.129 0 011.757-2.918 10.174 10.174 0 012.496-2.215c.961-.586 1.969-.879 3.024-.879.539 0 1.078.094 1.617.281.539.188 1.02.457 1.441.809.446.352.797.773 1.055 1.266.281.492.422 1.043.422 1.652a4.49 4.49 0 01-1.16-.14 16.17 16.17 0 01-.985-.317 8.266 8.266 0 00-.984-.352 3.458 3.458 0 00-1.019-.14c-.961 0-1.747.246-2.356.738a5.093 5.093 0 00-1.406 1.793 8.6 8.6 0 00-.738 2.355c-.118.82-.176 1.594-.176 2.32v.669c.023.328.035.68.035 1.054.023.352.035.692.035 1.02.024.328.047.55.07.668.258.562.504.996.739 1.3.257.305.527.54.808.704.282.14.586.234.914.281.328.023.715.035 1.161.035.609 0 1.136-.093 1.582-.281a7.55 7.55 0 001.3-.668c.399-.258.774-.54 1.125-.844a9.47 9.47 0 011.09-.879c.399-.28.82-.504 1.266-.668a4.229 4.229 0 011.582-.28c0 1.148-.211 2.167-.633 3.058a6.34 6.34 0 01-1.723 2.285c-.726.633-1.593 1.125-2.601 1.476-.985.329-2.063.493-3.235.493-1.101 0-2.097-.375-2.988-1.125-.867-.75-1.617-1.664-2.25-2.743a15.484 15.484 0 01-1.406-3.48c-.328-1.219-.492-2.297-.492-3.234zm24.117 9.879c-.375.328-.774.175-1.195-.458-.399-.632-.809-1.582-1.231-2.847-.422-1.29-.844-2.824-1.266-4.606a171.365 171.365 0 01-1.16-5.66 406.53 406.53 0 01-1.09-6.047 362.444 362.444 0 01-.878-5.8c0-.329-.012-.657-.036-.985 0-.351.036-.668.106-.95a2.14 2.14 0 01.457-.808c.234-.234.586-.41 1.055-.527.046-.023.14 0 .281.07.164.047.328.117.492.211.164.07.305.153.422.246.141.094.234.176.281.246a34.173 34.173 0 001.512 12.797c.07-.07.258-.304.562-.703.305-.422.692-.902 1.161-1.441a45.34 45.34 0 011.582-1.793 22.174 22.174 0 011.898-1.758c.656-.54 1.313-.984 1.969-1.336.656-.375 1.289-.562 1.898-.562.352 0 .692.082 1.02.246.351.164.527.48.527.949a.986.986 0 01-.035.21.56.56 0 00-.035.177l-1.723 1.511c-.75.68-1.547 1.442-2.391 2.285a43.149 43.149 0 00-2.425 2.637c-.774.914-1.36 1.781-1.758 2.602a.596.596 0 00-.07.386c.023.094.046.211.07.352.258.094.668.234 1.23.422.563.187 1.184.41 1.864.668.679.234 1.406.492 2.179.773.774.258 1.5.516 2.18.774.68.258 1.289.492 1.828.703l1.266.422c.328.14.597.234.808.281.211.047.375.117.493.21a.568.568 0 01.246.317c.046.141.07.352.07.633 0 .68-.164 1.125-.492 1.336-.328.211-.797.316-1.406.316a19.008 19.008 0 01-5.309-1.124 51.552 51.552 0 01-5.274-2.356c-.07.445-.046.961.071 1.547.14.586.304 1.172.492 1.758.187.586.363 1.16.527 1.722.188.563.293 1.067.317 1.512.047.445 0 .797-.141 1.055-.141.258-.457.386-.949.386zM1.711 52.317a1 1 0 00-.894 1.096l.908 8.954a1 1 0 001.99-.202l-.807-7.96 7.959-.806a1 1 0 10-.202-1.99l-8.954.908zm1.347 3.251a1 1 0 101.212-1.59l-1.212 1.59zm4.967 1.063a1 1 0 00-1.09 1.676l1.09-1.676zm3.011 4.105a1 1 0 10.941-1.765l-.94 1.765zm5.084.185a1 1 0 10-.755 1.852l.755-1.852zm3.78 3.403a1 1 0 10.531-1.929l-.53 1.929zm4.979-1.014a1 1 0 10-.268 1.982l.268-1.982zm4.545 2.278a1 1 0 00-.026-2l.026 2zm4.474-2.403a1 1 0 10.33 1.972l-.33-1.972zm5.02.813a1 1 0 00-.626-1.9l.625 1.9zm3.565-3.624a1 1 0 00.89 1.79l-.89-1.79zm5.045-.637a1 1 0 10-1.12-1.657l1.12 1.657zm2.487-4.437a1 1 0 101.315 1.507L50.015 55.3zm4.735-1.853a1 1 0 00-1.483-1.342l1.483 1.342zm1.368-4.9a1 1 0 001.636 1.15l-1.636-1.15zM1.18 54.087a72.99 72.99 0 001.878 1.481l1.212-1.59a72.992 72.992 0 01-1.826-1.441l-1.264 1.55zm5.754 4.22a54.667 54.667 0 004.102 2.429l.941-1.765a52.667 52.667 0 01-3.952-2.34l-1.09 1.676zm8.43 4.466a40.404 40.404 0 004.536 1.55l.531-1.928a38.388 38.388 0 01-4.31-1.474l-.756 1.852zm9.247 2.519a32.85 32.85 0 004.813.296l-.026-2a30.772 30.772 0 01-4.519-.278l-.268 1.982zm9.618-.135a31.843 31.843 0 004.688-1.159l-.625-1.9a29.84 29.84 0 01-4.394 1.087l.33 1.972zm9.144-2.992a36.216 36.216 0 004.155-2.428l-1.12-1.657a34.203 34.203 0 01-3.925 2.294l.89 1.79zm7.957-5.358a40.809 40.809 0 003.42-3.36l-1.483-1.342a38.849 38.849 0 01-3.252 3.195l1.315 1.507zm6.424-7.11c.48-.682.918-1.355 1.315-2.012l-1.713-1.033c-.371.615-.785 1.25-1.238 1.895l1.636 1.15z" fill="#FF8A00"/></svg>