<svg width="88" height="84" fill="none" xmlns="http://www.w3.org/2000/svg"><ellipse cx="22.801" cy="23.399" rx="22.801" ry="23.399" fill="#fff"/><path d="M79.914 16.744l-55.302-4.997c-2-.179-3.986.424-5.525 1.676a7.311 7.311 0 00-2.681 5.004L11.97 67.504a7.311 7.311 0 001.74 5.404 7.674 7.674 0 005.136 2.64l55.302 4.997c2 .178 3.986-.425 5.525-1.677a7.311 7.311 0 002.681-5.004l4.435-49.077a7.31 7.31 0 00-1.741-5.403 7.674 7.674 0 00-5.135-2.64zM74.296 50.87l5.027.454-.443 4.908-5.028-.454.444-4.908zm.443-4.908l.444-4.907 5.027.454-.443 4.907-5.028-.454zm.887-9.815l.444-4.908 5.027.454-.443 4.908-5.028-.454zM61.132 51.549L40.37 60.046a5.18 5.18 0 01-4.924-.594 5.016 5.016 0 01-1.625-1.942 4.866 4.866 0 01-.45-2.465l1.884-20.85a4.865 4.865 0 01.891-2.355 5.014 5.014 0 011.962-1.62 5.176 5.176 0 014.97.337l18.878 12.354a5.025 5.025 0 011.734 1.994c.386.803.545 1.692.46 2.574a4.871 4.871 0 01-.94 2.44 5.022 5.022 0 01-2.078 1.63zM24.465 41.42l-5.027-.454.443-4.908 5.027.455-.443 4.907zm-.443 4.908l-.444 4.908-5.027-.454.443-4.908 5.028.454zm1.33-14.723l-5.027-.454.443-4.908 5.027.454-.443 4.908zm-7.245 24.084l5.028.455-.444 4.907-5.027-.454.443-4.908zm55.302 4.998l5.027.454-.443 4.908-5.028-.455.444-4.907zm6.061-39.035c.667.06 1.283.376 1.713.879.43.503.638 1.15.58 1.802l-.223 2.454-5.027-.455.444-4.908 2.513.228zm-55.3-4.998l2.513.228-.443 4.907-5.027-.454.221-2.454c.06-.65.38-1.25.893-1.668a2.555 2.555 0 011.843-.559zM19.29 70.64a2.556 2.556 0 01-1.713-.88 2.435 2.435 0 01-.58-1.801l.222-2.454 5.028.454-.444 4.908-2.513-.227zm55.301 4.997l-2.514-.227.444-4.908 5.027.454-.221 2.454a2.435 2.435 0 01-.894 1.669 2.556 2.556 0 01-1.842.558z" fill="#333"/></svg>