<svg width="65" height="77" fill="none" xmlns="http://www.w3.org/2000/svg"><ellipse cx="18.935" cy="19.912" rx="18.935" ry="19.912" fill="#FF8A00"/><path d="M47.13 30.704c.63.345 1.31 1.02 1.156 1.718L43.27 55.147c-.314 1.42.575 1.99 1.27.716.908-1.664 2.184-4.541 3.945-9.532.788-2.233 4.391-1.568 4.271.802l-.521 10.328 5.11-36.594a2.021 2.021 0 00-1.702-2.275L23.88 13.874a1.98 1.98 0 00-2.255 1.687l-5.853 41.92a2.021 2.021 0 001.702 2.275l31.763 4.718a1.979 1.979 0 002.255-1.687l.88-6.295 2.423-28.488c.089-1.046-.437-1.316-1.14-.544-1.35 1.483-3.428 3.865-4.656 5.222-.578.639-1.066 1.615-1.164 2.474l-2.172 18.927c-.098.848-.715 1.584-1.564 1.662-.566.051-1.126.013-1.6-.245l5.324 2.918c-.182-.096 2.92-6.887-2.885-6.08-1.94.269-1.6 2.812.342 3.1l1.503.224c-.548-.082-.995-.64-.917-1.2l3.345-23.955c.078-.561.653-.917 1.201-.836l-7.865-1.168c.484.068.954.223 1.387.456l3.197 1.745z" fill="#333"/><path d="M62.195 27.58a1.883 1.883 0 00-1.585-2.119 1.843 1.843 0 00-2.1 1.572L53.048 66.15c-.078.562-.6.876-1.148.794l-37.619-5.587c-.548-.081-1-.54-.922-1.102l6.703-48.01c.079-.561.645-.917 1.193-.835l37.62 5.587c.55.068.942.58.877 1.143l-1.51 10.811a1.883 1.883 0 001.585 2.119 1.843 1.843 0 002.1-1.572l1.483-10.621c.364-2.648-1.423-5.105-4.004-5.506L21.733 7.775c-2.593-.368-4.99 1.465-5.382 4.115L9.018 64.408c-.348 2.657 1.452 5.112 4.04 5.512l39.145 5.814a3.186 3.186 0 002.463-.67 3.237 3.237 0 001.209-2.2c.001-.011 0-.022.002-.032l6.318-45.252zM34.14 69.642l-3.558-.528a1.025 1.025 0 01-.85-1.164c.079-.562.586-.95 1.134-.87l3.558.53c.548.08.928.601.85 1.163-.078.562-.586.95-1.134.869z" fill="#333"/><path d="M34.14 69.642l-3.558-.528a1.025 1.025 0 01-.85-1.164c.079-.562.586-.95 1.134-.87l3.558.53c.548.08.928.601.85 1.163-.078.562-.586.95-1.134.869z" fill="#333"/><path d="M39.274 59.151l-12.97-1.777-1.033-2.296 18.147 1.34-4.144 2.733zm4.155-5.039l-8.806.117 2.049-15.984 6.757 15.867zM35.685 42.35l-9.763 11.19 8.248.626" fill="#fff"/><rect x="24.796" y="18.812" width="28.953" height="1.7" rx=".85" transform="rotate(8.422 24.796 18.812)" fill="#fff"/><rect x="27.143" y="23.446" width="22" height="1.7" rx=".85" transform="rotate(8.422 27.143 23.446)" fill="#fff"/><rect x="30.514" y="27.989" width="14.587" height="1.7" rx=".85" transform="rotate(8.422 30.514 27.99)" fill="#fff"/><rect x="26.96" y="31.507" width="21" height="1.7" rx=".85" transform="rotate(8.422 26.96 31.507)" fill="#fff"/></svg>