<svg width="72" height="64" fill="none" xmlns="http://www.w3.org/2000/svg"><ellipse cx="16.5" cy="16.932" rx="16.5" ry="16.932" fill="#FF8A00"/><rect x="8" y="31" width="45" height="33" rx="5" fill="#333"/><path d="M59.509 20H17.483a1.986 1.986 0 00-1.983 2v3.5a2 2 0 002 2H54a2 2 0 012 2V51a2 2 0 002 2h1.5a2 2 0 002-2V22c0-1.105-.886-2-1.991-2z" fill="#333"/><path d="M69.509 10H27.483a1.986 1.986 0 00-1.983 2v3.5a2 2 0 002 2H64a2 2 0 012 2V41a2 2 0 002 2h1.5a2 2 0 002-2V12c0-1.105-.886-2-1.991-2z" fill="#333"/><path d="M36.191 46.124c1.193.685 1.198 2.404.01 3.095l-8.49 4.932c-1.188.691-2.68-.164-2.683-1.54L25 42.795c-.004-1.375 1.482-2.239 2.675-1.554l8.516 4.884z" fill="#fff"/></svg>