<svg width="20" height="20" fill="none" xmlns="http://www.w3.org/2000/svg"><path fill-rule="evenodd" clip-rule="evenodd" d="M9.837 20h.344c5.353-.09 9.729-4.466 9.819-9.837v-.326C19.91 4.467 15.534.09 10.163 0h-.326C4.467.09.09 4.485 0 9.855v.29C.09 15.515 4.467 19.91 9.837 20z" fill="#C3263D"/><path fill-rule="evenodd" clip-rule="evenodd" d="M7.704.271v7.866h12.115c.109.561.163 1.122.181 1.7v.326a10.213 10.213 0 01-.18 1.681H7.702v7.885a10.128 10.128 0 01-3.707-1.736v-6.148H.181a10.422 10.422 0 01-.181-1.7v-.29c.018-.578.072-1.157.18-1.718h3.816V2.025A9.88 9.88 0 017.704.271z" fill="#F4F4F4"/></svg>