<svg width="91" height="81" fill="none" xmlns="http://www.w3.org/2000/svg"><circle cx="26.5" cy="34.5" r="25.5" fill="#FF8A00"/><path d="M88.469 49.31c-1.24 0-1.768-.474-2.848-1.546-1.202-1.194-2.847-2.829-5.962-2.829-3.114 0-4.76 1.635-5.962 2.829-1.08 1.072-1.608 1.546-2.847 1.546-1.24 0-1.768-.474-2.848-1.546-1.202-1.194-2.994-2.829-6.109-2.829-3.114 0-4.76 1.635-5.961 2.829-1.08 1.072-1.61 1.546-2.848 1.546-1.239 0-1.768-.474-2.848-1.546-1.202-1.194-2.847-2.829-5.962-2.829-3.114 0-4.906 1.635-6.108 2.829-1.08 1.072-1.61 1.546-2.848 1.546-1.239 0-1.768-.474-2.848-1.546-1.202-1.194-2.847-2.829-5.961-2.829-3.115 0-4.76 1.635-5.962 2.829-1.08 1.072-1.61 1.546-2.848 1.546a2.194 2.194 0 00-2.202 2.188v8.372c2.928.874 3.845.028 5.05-1.168 1.202-1.195 2.847-2.829 5.962-2.829 3.114 0 4.76 1.634 5.961 2.829 1.08 1.072 1.61 1.546 2.848 1.546 1.239 0 1.768-.474 2.848-1.546 1.202-1.195 2.994-2.829 6.108-2.829 3.115 0 4.76 1.634 5.962 2.829 1.08 1.072 1.61 1.546 2.848 1.546 1.239 0 1.768-.474 2.848-1.546 1.202-1.195 2.847-2.829 5.961-2.829 3.115 0 4.907 1.634 6.11 2.829 1.079 1.072 1.608 1.546 2.847 1.546 1.239 0 1.768-.474 2.847-1.546 1.203-1.195 2.848-2.829 5.962-2.829 3.115 0 4.76 1.634 5.962 2.829 1.208 1.197 2.122 2.043 5.05 1.168v-8.372c0-1.21-.985-2.188-2.202-2.188z" fill="#333"/><path d="M82.507 61.795c-1.08-1.073-1.609-1.547-2.848-1.547-1.239 0-1.768.474-2.847 1.547-1.203 1.194-2.848 2.828-5.962 2.828-3.115 0-4.907-1.634-6.109-2.828-1.08-1.073-1.609-1.547-2.848-1.547-1.239 0-1.767.474-2.847 1.547-1.203 1.194-2.848 2.828-5.962 2.828s-4.76-1.634-5.962-2.828c-1.08-1.073-1.609-1.547-2.848-1.547-1.239 0-1.914.474-2.994 1.547-1.202 1.194-2.848 2.828-5.962 2.828s-4.76-1.634-5.962-2.828c-1.08-1.073-1.609-1.547-2.848-1.547-1.236 0-1.767.474-2.847 1.547-1.882 1.87-3.992 3.413-8.164 2.561v4.642c0 1.21.985 2.188 2.202 2.188h70.77a2.194 2.194 0 002.202-2.188v-4.643c-4.172.85-6.283-.692-8.164-2.56zM19.256 31.17l.645-.641v7.844c0 1.21.985 2.188 2.203 2.188a2.194 2.194 0 002.202-2.188v-7.844l.645.64c.86.855 2.255.855 3.115 0 .86-.854.86-2.238 0-3.093l-4.405-4.375a2.212 2.212 0 00-3.114 0l-4.405 4.375a2.176 2.176 0 000 3.094c.86.854 2.254.854 3.114 0zm67.656 1.282l-.646.64v-7.844c0-1.21-.985-2.188-2.202-2.188a2.194 2.194 0 00-2.202 2.188v7.844l-.646-.64a2.212 2.212 0 00-3.114 0 2.177 2.177 0 000 3.093l4.405 4.375c.43.427.993.64 1.557.64.563 0 1.127-.213 1.557-.64l4.405-4.375c.86-.855.86-2.24 0-3.094a2.212 2.212 0 00-3.114 0z" fill="#333"/></svg>