<svg width="91" height="92" fill="none" xmlns="http://www.w3.org/2000/svg"><circle cx="32.5" cy="37.5" r="25.5" fill="#FF8A00"/><path d="M52.57 7.727L29.275 75.849" stroke="#333" stroke-width=".244"/><path d="M79.063 73.648l-58.286 2.198.942 5.088v8.234h1.764c.784.208 1.676-.392 2.024-.719l2.155-4.049c1.516-1.853 2.156.001 2.286 1.16h2.51c1.757.555 1.888 1.696 1.734 2.197v3.701h13.762c1.426-1.118 4.672-3.631 6.245-4.741 1.573-1.11 3.662-1.234 4.51-1.157 2.082-.385 7.032-1.341 10.177-2.082 3.146-.74 4.164-2.004 4.28-2.544l5.897-7.286z" fill="#333"/><path d="M56.039.762h-3.452v75.422h3.452V.762z" fill="#333"/><path d="M21.434 75.936L54.988 1.363" stroke="#333" stroke-width=".244"/><path d="M77.564 74.037L55.889 1.215m4.596 73.989L55.276 46.13" stroke="#333"/><path d="M29.1 84.694h.74l.362.43h-.913v.775l-.516.224v-.81h-.5v-.447l.414-.172v-.706h.31l.103.706z" fill="#333"/></svg>