<svg width="90" height="80" fill="none" xmlns="http://www.w3.org/2000/svg"><circle cx="28.497" cy="29.497" r="27.497" fill="#FF8A00"/><path d="M28.243 44.14c-4.842 0-8.78-3.963-8.78-8.834 0-4.87 3.938-8.833 8.78-8.833 4.842 0 8.78 3.962 8.78 8.833 0 4.87-3.938 8.833-8.78 8.833zm30.732-5.89c-4.841 0-8.78-3.962-8.78-8.833 0-4.87 3.939-8.833 8.78-8.833 4.842 0 8.78 3.963 8.78 8.833s-3.938 8.834-8.78 8.834zm28.83-2.944h-8.78a2.202 2.202 0 00-2.196 2.208c0 1.22.983 2.209 2.195 2.209h3.481L60 62.363l-5.765-5.8a2.186 2.186 0 00-3.105 0l-16.918 17.02H17.267a2.202 2.202 0 00-2.195 2.209c0 1.22.983 2.208 2.195 2.208h17.854c.582 0 1.14-.232 1.552-.647l16.01-16.105 5.764 5.8a2.186 2.186 0 003.105 0L85.61 42.846v3.502c0 1.22.983 2.208 2.195 2.208A2.202 2.202 0 0090 46.348v-8.834c0-1.22-.983-2.208-2.195-2.208z" fill="#333"/><path d="M66.252 40.451a13.039 13.039 0 01-7.277 2.212c-2.688 0-5.19-.815-7.276-2.212a13.257 13.257 0 00-5.895 11.045v4.175l2.222-2.235a6.522 6.522 0 014.656-1.94c1.76 0 3.413.69 4.657 1.94l2.66 2.677 10.665-10.728a13.285 13.285 0 00-4.412-4.934zM20.966 46.34a13.258 13.258 0 00-5.894 11.045v11.777h17.321l9.021-9.074v-2.703c0-4.611-2.342-8.672-5.894-11.045a13.038 13.038 0 01-7.277 2.212c-2.688 0-5.19-.815-7.277-2.212z" fill="#333"/></svg>