<svg width="91" height="81" fill="none" xmlns="http://www.w3.org/2000/svg"><circle cx="33.5" cy="26.5" r="25.5" fill="#FF8A00"/><path d="M31.93 33.441l3.602.132c.34 1.088.8 2.14 1.37 3.132l-2.389 2.44c-.23.227-.352.537-.34.86 0 .323.134.622.376.837l5.167 4.878c.461.43 1.177.443 1.638.024l2.656-2.307a18.259 18.259 0 003.42 1.339l.133 3.323c.037.646.57 1.148 1.213 1.148h7.326a1.2 1.2 0 001.213-1.148l.133-3.323a18.259 18.259 0 003.42-1.34l2.657 2.308a1.212 1.212 0 001.637-.024l5.18-4.878a1.2 1.2 0 00.375-.837 1.26 1.26 0 00-.34-.86l-2.4-2.44c.57-.992 1.03-2.044 1.382-3.132l3.59-.132a1.208 1.208 0 001.176-1.195v-6.887c0-.646-.521-1.172-1.176-1.196l-3.59-.131a16.892 16.892 0 00-1.383-3.144l2.402-2.44c.218-.227.34-.538.34-.86a1.222 1.222 0 00-.377-.837l-5.179-4.866a1.222 1.222 0 00-1.637-.036l-2.656 2.307a18.259 18.259 0 00-3.42-1.339l-.134-3.324a1.182 1.182 0 00-.37-.816 1.216 1.216 0 00-.843-.331h-7.326c-.643 0-1.176.502-1.213 1.147l-.133 3.324a18.259 18.259 0 00-3.42 1.34l-2.656-2.308a1.224 1.224 0 00-1.638.036L34.55 16.75a1.126 1.126 0 00-.376.837c-.012.322.11.633.34.86l2.39 2.44a16.076 16.076 0 00-1.371 3.144l-3.602.131a1.198 1.198 0 00-1.165 1.196v6.887c0 .645.51 1.171 1.165 1.195zm10.988-4.639c0-5.153 4.27-9.337 9.521-9.337 5.252 0 9.521 4.184 9.521 9.337 0 5.154-4.27 9.326-9.52 9.326-5.252 0-9.522-4.184-9.522-9.326zm34.143 27.404c-5.47-2.595-15.125 2.81-22.875 7.15-3.093 1.733-6.016 3.371-7.302 3.634-1.128.215-2.025.084-2.777-.43-.922-.61-1.431-1.662-1.698-2.416a7.893 7.893 0 012.05-.322c7.568-.275 12.31-2.99 12.37-7.078.037-1.901-.727-2.965-1.37-3.515-1.492-1.28-3.53-1.005-3.735-.969-.073 0-6.586.909-10.54.407l-.352-.036c-3.893-.502-7.568-.957-11.17 4.029-2.802 3.862-7.448 3.288-7.642 3.264a1.232 1.232 0 00-.97.275 1.19 1.19 0 00-.412.909v15.519c0 .61.46 1.123 1.08 1.195l19.769 2.152a18.779 18.779 0 0012.08-2.821l23.821-15.197a3.352 3.352 0 001.54-3.012 3.24 3.24 0 00-1.867-2.738z" fill="#333"/></svg>