<svg width="91" height="81" fill="none" xmlns="http://www.w3.org/2000/svg"><circle cx="32.5" cy="29.5" r="25.5" fill="#FF8A00"/><path d="M50.42 31.854c-6.556 0-11.866 5.328-11.866 11.906 0 6.577 5.31 11.905 11.866 11.905 6.555 0 11.865-5.328 11.865-11.905 0-6.578-5.31-11.906-11.865-11.906zm26.519 8.93C75.574 28.371 65.756 18.52 53.386 17.15v-6.13h-5.933v6.13C35.083 18.52 25.265 28.373 23.9 40.784h-6.11v5.953h6.11C25.265 59.148 35.084 69 47.454 70.37v6.13h5.933v-6.131c12.37-1.37 22.188-11.221 23.553-23.633h6.11v-5.953h-6.11zm-26.52 23.81c-11.464 0-20.764-9.33-20.764-20.834s9.3-20.835 20.765-20.835 20.764 9.331 20.764 20.835c0 11.504-9.3 20.834-20.764 20.834z" fill="#333"/></svg>