<svg width="91" height="81" fill="none" xmlns="http://www.w3.org/2000/svg"><circle cx="32.5" cy="29.5" r="25.5" fill="#FF8A00"/><path d="M54.915 17.445c-6 0-11.777 1.888-16.789 5.472a5.092 5.092 0 00-2.62-.723c-2.837 0-5.146 2.321-5.146 5.175 0 .961.263 1.861.72 2.634-3.565 5.039-5.442 10.847-5.442 16.88 0 7.821 3.057 15.202 8.608 20.784 5.55 5.582 12.891 8.655 20.67 8.655 7.777 0 15.118-3.073 20.669-8.655 5.55-5.582 8.608-12.963 8.608-20.783 0-16.185-13.181-29.439-29.278-29.439zM73.708 45.16a18.849 18.849 0 00-4.291-10.417l4.938-4.966a25.955 25.955 0 016.349 15.383h-6.996zm-5.069 3.45h1.621a15.48 15.48 0 01-1.694 5.53 5.13 5.13 0 00-5.16 1.283A5.156 5.156 0 0061.9 59.08c0 .526.078 1.041.228 1.53a15.276 15.276 0 01-5.496 1.702v-1.63a1.72 1.72 0 00-1.716-1.725 1.72 1.72 0 00-1.715 1.725v1.629c-7.146-.798-12.835-6.519-13.628-13.703h1.62a1.72 1.72 0 001.715-1.725 1.72 1.72 0 00-1.716-1.725h-1.62c.794-7.185 6.483-12.905 13.629-13.703v6.977c-3.91.801-6.862 4.286-6.862 8.45 0 4.756 3.848 8.625 8.577 8.625 4.73 0 8.578-3.869 8.578-8.624a8.597 8.597 0 00-1.42-4.757l4.906-4.933a15.414 15.414 0 013.28 7.965h-1.62a1.72 1.72 0 00-1.715 1.725 1.72 1.72 0 001.715 1.725zm-39.51-3.45c.313-4.604 1.881-9.022 4.593-12.937a5.098 5.098 0 001.785.322c2.837 0 5.146-2.322 5.146-5.175a5.16 5.16 0 00-.32-1.795c3.894-2.726 8.288-4.303 12.867-4.619v7.034c-9.04.823-16.258 8.081-17.076 17.17h-6.996zm30.933 1.725c0 2.853-2.309 5.175-5.147 5.175-2.837 0-5.146-2.322-5.146-5.175a5.181 5.181 0 013.43-4.878v4.878a1.733 1.733 0 00.503 1.22 1.715 1.715 0 001.213.505 1.71 1.71 0 001.213-.506l3.433-3.451c.328.688.5 1.447.5 2.232zM29.127 48.61h6.997c.818 9.088 8.037 16.347 17.076 17.17v7.035c-12.888-.854-23.224-11.247-24.073-24.205zm27.504 24.205v-7.037a18.683 18.683 0 007.578-2.378c.857.57 1.847.854 2.837.854 2.833 0 5.146-2.3 5.146-5.172 0-1.03-.297-2.014-.851-2.853a18.933 18.933 0 002.364-7.62h6.999c-.85 12.96-11.185 23.352-24.073 24.206z" fill="#333"/></svg>