<svg width="91" height="81" fill="none" xmlns="http://www.w3.org/2000/svg"><circle cx="26.5" cy="25.5" r="25.5" fill="#FF8A00"/><path d="M63.04 62.24c-10.31-.03-18.687-8.35-18.687-18.574 0-10.224 8.378-18.544 18.687-18.573.61.03 2.287.26 2.871-1.405.154-.44.16-.916.018-1.359a2.15 2.15 0 00-.808-1.098c-4.671-3.299-10.193-5.043-15.967-5.043-15.287 0-27.724 12.327-27.724 27.478 0 15.152 12.437 27.478 27.724 27.478 5.774 0 11.296-1.744 15.967-5.043a2.144 2.144 0 00.79-2.458c-.609-1.735-2.429-1.426-2.872-1.404zM18.952 20.487a2.16 2.16 0 002.169-2.15v-7.06h7.123a2.16 2.16 0 002.17-2.15 2.16 2.16 0 00-2.17-2.15h-9.292a2.16 2.16 0 00-2.17 2.15v9.21a2.16 2.16 0 002.17 2.15zm9.292 55.567h-7.123v-7.06a2.16 2.16 0 00-2.17-2.15 2.16 2.16 0 00-2.168 2.15v9.21a2.16 2.16 0 002.169 2.15h9.292a2.16 2.16 0 002.17-2.15 2.16 2.16 0 00-2.17-2.15zM88.647 6.979h-9.292a2.16 2.16 0 00-2.17 2.15 2.16 2.16 0 002.17 2.149h7.123v7.06a2.16 2.16 0 002.17 2.15 2.16 2.16 0 002.168-2.15v-9.21a2.16 2.16 0 00-2.169-2.15zm0 59.865a2.16 2.16 0 00-2.169 2.15v7.06h-7.123a2.16 2.16 0 00-2.17 2.15 2.16 2.16 0 002.17 2.15h9.292a2.16 2.16 0 002.17-2.15v-9.21a2.16 2.16 0 00-2.17-2.15zM77.186 39.061a2.16 2.16 0 002.169 2.15 2.16 2.16 0 002.169-2.15v-2.455H84a2.16 2.16 0 002.169-2.15A2.16 2.16 0 0084 32.306h-2.477v-2.455a2.16 2.16 0 00-2.17-2.15 2.16 2.16 0 00-2.168 2.15v2.456h-2.478a2.16 2.16 0 00-2.168 2.15 2.16 2.16 0 002.168 2.149h2.478v2.455z" fill="#333"/><path d="M70.062 46.12h-2.477v-2.455a2.16 2.16 0 00-2.17-2.15 2.16 2.16 0 00-2.168 2.15v2.456H60.77a2.16 2.16 0 00-2.17 2.15 2.16 2.16 0 002.17 2.15h2.477v2.455a2.16 2.16 0 002.169 2.15 2.16 2.16 0 002.169-2.15V50.42h2.477a2.16 2.16 0 002.17-2.15 2.16 2.16 0 00-2.17-2.15z" fill="#333"/></svg>