<svg width="91" height="108" fill="none" xmlns="http://www.w3.org/2000/svg"><circle cx="32.5" cy="45.5" r="25.5" fill="#FF8A00"/><path d="M47.672 27.918h-1.653v22.243l1.653.329V27.918z" fill="#333"/><path d="M50.777 32.122h-3.406v1.452h3.406v.969h6.575v-3.125h-6.575v.704zm-3.911 42.413h-12.94l-.545 33.341h13.485v-33.34z" fill="#333"/><path d="M48.87 47.832h-3.786v1.544h-1.006v.625h-4.216v1.012h.87v23.584h1.63V51.013h1.716v.523h1.006v1.394h3.787v-5.098z" fill="#333"/><path d="M43.042 55.504v.78h3.285v.468h-3.285v.547h-2.915v-1.795h2.915zm-.053 9.055h-2.862v1.834h2.862v-.39h7.419l-.53-1.054h-6.89v-.39z" fill="#333"/><path fill-rule="evenodd" clip-rule="evenodd" d="M47.972.793H29.935l5.26 27.12h12.777V.793zM31.63 1.821l4.59 24.873.983-.181-4.59-24.873-.983.181z" fill="#333"/></svg>