<svg width="91" height="81" fill="none" xmlns="http://www.w3.org/2000/svg"><circle cx="32.5" cy="33.5" r="25.5" fill="#FF8A00"/><path d="M61.949 25.706c-1.448-2.468-2.98-2.383-4.427 0-6.64 9.875-16.684 24.686-16.684 32.092a18.92 18.92 0 005.533 13.364 18.923 18.923 0 0013.364 5.533c5.193 0 9.96-2.128 13.365-5.533a18.923 18.923 0 005.533-13.364c0-7.491-10.045-22.217-16.684-32.092zm11.406 40.52a16.163 16.163 0 01-5.703 5.532c-1.107.596-2.469.255-3.065-.851-.68-1.192-.255-2.554.852-3.15 1.702-.936 3.064-2.298 4.086-3.915a11.098 11.098 0 001.702-5.448c.085-1.277 1.107-2.213 2.383-2.128 1.277.085 2.214 1.106 2.129 2.383-.17 2.724-1.022 5.278-2.384 7.576zm-37.468-49.71c-.786-1.341-1.618-1.295-2.405 0-3.607 5.365-9.064 13.412-9.064 17.436a10.28 10.28 0 003.006 7.26 10.28 10.28 0 007.26 3.007c2.822 0 5.412-1.157 7.262-3.006a10.28 10.28 0 003.006-7.261c0-4.07-5.457-12.071-9.065-17.436zm6.198 22.014a8.781 8.781 0 01-3.099 3.006c-.601.324-1.341.14-1.665-.462-.37-.648-.139-1.388.462-1.711.925-.51 1.665-1.249 2.22-2.128a6.029 6.029 0 00.925-2.96c.047-.693.602-1.202 1.295-1.156.694.046 1.203.601 1.157 1.295-.093 1.48-.555 2.867-1.295 4.116z" fill="#333"/></svg>