<svg width="91" height="81" fill="none" xmlns="http://www.w3.org/2000/svg"><circle cx="26.5" cy="33.5" r="25.5" fill="#FF8A00"/><path d="M81.04 30.138c-2.37 2.863-6.218 2.863-8.608 0-2.558-3.068-5.976-4.742-9.692-4.742-3.697 0-7.133 1.674-9.692 4.742-2.371 2.863-6.237 2.863-8.608 0-2.559-3.068-5.976-4.742-9.692-4.742-3.698 0-7.134 1.674-9.692 4.742-1.196 1.413-2.783 2.12-4.314 2.12v7.084c3.697 0 7.133-1.71 9.692-4.779 2.372-2.863 6.237-2.863 8.609 0 2.558 3.068 5.975 4.78 9.691 4.78 3.698 0 7.134-1.712 9.692-4.78 2.372-2.863 6.238-2.863 8.61 0 2.558 3.068 5.994 4.78 9.691 4.78 3.698 0 7.134-1.712 9.692-4.78 1.195-1.431 2.764-2.157 4.314-2.157v-7.01c-3.716 0-7.134 1.674-9.692 4.742zm0 34.845c-2.37 2.864-6.218 2.864-8.608 0-2.558-3.068-5.976-4.741-9.692-4.741-3.697 0-7.133 1.673-9.692 4.741-2.371 2.864-6.237 2.864-8.608 0-2.559-3.068-5.976-4.741-9.692-4.741-3.698 0-7.134 1.673-9.692 4.741-1.196 1.414-2.783 2.12-4.314 2.12v7.085c3.697 0 7.133-1.711 9.692-4.78 2.372-2.863 6.237-2.863 8.609 0 2.558 3.069 5.975 4.78 9.691 4.78 3.698 0 7.134-1.711 9.692-4.78 2.372-2.863 6.238-2.863 8.61 0 2.558 3.069 5.994 4.78 9.691 4.78 3.698 0 7.134-1.711 9.692-4.78 1.195-1.43 2.764-2.156 4.314-2.156v-7.01c-3.716 0-7.134 1.673-9.692 4.741zm9.002-22.182c-3.698 0-7.134 1.673-9.692 4.741-2.372 2.864-6.219 2.864-8.609 0-2.558-3.068-5.976-4.741-9.692-4.741-3.697 0-7.133 1.673-9.692 4.741-2.371 2.864-6.237 2.864-8.608 0-2.559-3.068-5.995-4.741-9.692-4.741-3.698 0-7.134 1.673-9.692 4.741-.84 1.023-2.895 2.176-3.642 2.064v7.122c.243 0 .467 0 .672-.038 3.213-.371 6.126-2.026 8.367-4.704 2.371-2.863 6.237-2.863 8.608 0 2.559 3.068 5.995 4.779 9.692 4.779 3.698 0 7.134-1.71 9.692-4.779 2.372-2.863 6.237-2.863 8.609 0 2.558 3.068 5.994 4.779 9.692 4.779 3.697 0 7.133-1.71 9.692-4.779 1.195-1.432 2.763-2.157 4.314-2.157.242 0 .466 0 .672.075v-7.048c-.224-.018-.43-.018-.691-.055z" fill="#333"/></svg>