<svg width="20" height="20" fill="none" xmlns="http://www.w3.org/2000/svg"><path fill-rule="evenodd" clip-rule="evenodd" d="M9.846 20h.308c5.393-.09 9.774-4.485 9.846-9.855v-.29C19.928 4.485 15.547.09 10.172 0h-.344C4.452.09.072 4.467 0 9.837v.326C.072 15.533 4.47 19.91 9.846 20z" fill="#2D3477"/><path fill-rule="evenodd" clip-rule="evenodd" d="M2.209 3.743l5.285 2.984V.326C8.254.126 9.032.018 9.829 0h.343c.905.018 1.774.163 2.607.398v6.329l5.104-2.875a10.237 10.237 0 011.629 3.074l-.525.307h.633c.235.832.38 1.718.38 2.622v.29a10.454 10.454 0 01-.506 3.02h-.507l.416.235a9.939 9.939 0 01-1.738 3.001l-4.886-2.73v5.931c-.833.235-1.72.38-2.625.398h-.308a10.11 10.11 0 01-2.353-.326v-6.003l-5.067 2.857a10.593 10.593 0 01-1.774-2.984l.652-.38H.507A10.331 10.331 0 010 10.163v-.326a10.28 10.28 0 01.38-2.604h.924l-.779-.452c.38-1.103.96-2.134 1.684-3.038z" fill="#F4F4F4"/><path fill-rule="evenodd" clip-rule="evenodd" d="M17.63 13.165l1.52.85a6.908 6.908 0 01-.525 1.03l-3.367-1.88h2.371zM10.171 0c.525.018 1.05.054 1.557.145v8.282h8.145c.09.47.126.94.126 1.428v.29c0 .633-.072 1.247-.199 1.844h-8.07v7.848c-.507.09-1.032.145-1.575.163h-.307a14.75 14.75 0 01-1.285-.108v-7.903H.2a8.816 8.816 0 01-.2-1.826v-.326c0-.488.055-.958.127-1.41h8.435V.108C8.978.036 9.394.018 9.829 0h.343zm8.163 4.485c.217.325.416.65.58.994L15.8 7.233h-2.37l4.904-2.748zM2.064 16.058a11.143 11.143 0 01-.652-.958l3.44-1.935h2.37l-5.158 2.893zM.834 6.004c.162-.362.343-.705.524-1.031l4.036 2.26h-2.37l-2.19-1.23z" fill="#C2283A"/></svg>