<svg width="20" height="20" fill="none" xmlns="http://www.w3.org/2000/svg"><path fill-rule="evenodd" clip-rule="evenodd" d="M.561 6.673h18.878C18.063 2.839 14.425.073 10.154 0h-.308C5.575.072 1.936 2.839.561 6.673z" fill="#333"/><path fill-rule="evenodd" clip-rule="evenodd" d="M.561 13.328H19.44c.344-.995.543-2.062.561-3.183v-.29a10.309 10.309 0 00-.561-3.182H.561A10.2 10.2 0 000 9.837v.326c.018 1.103.217 2.17.561 3.165z" fill="#C12837"/><path fill-rule="evenodd" clip-rule="evenodd" d="M19.44 13.327H.561c1.375 3.834 5.013 6.6 9.285 6.673h.307c4.272-.072 7.91-2.84 9.285-6.673z" fill="#F2DB1B"/></svg>