<svg width="20" height="20" fill="none" xmlns="http://www.w3.org/2000/svg"><path d="M10 20c5.523 0 10-4.477 10-10S15.523 0 10 0 0 4.477 0 10s4.477 10 10 10z" fill="#F4F4F4"/><path d="M10 7.391h9.655a9.942 9.942 0 00-1.123-2.608H10V7.39zM3.775 17.826h12.45a10.05 10.05 0 002.307-2.609H1.468c.611.998 1.392 1.88 2.307 2.609zM3.478 2.419a10.05 10.05 0 00-2.01 2.364h2.01V2.419z" fill="#338AF3"/><path d="M10 10V7.391H6.087V10H3.478V7.391H.344A10.011 10.011 0 000 10c0 .903.12 1.777.344 2.609h19.312A10.01 10.01 0 0020 10H10zm0-10a9.969 9.969 0 00-3.913.795v3.988H10v-2.61h6.225A9.957 9.957 0 0010 0z" fill="#338AF3"/></svg>