<svg width="90" height="88" fill="none" xmlns="http://www.w3.org/2000/svg"><path d="M73.997 56.554l-1.466-17.878a6.02 6.02 0 00-6.878-5.184 6.078 6.078 0 00-2.843 1.203 6.02 6.02 0 00-6.72-4.387 6.187 6.187 0 00-2.844 1.199 6.022 6.022 0 00-6.719-4.382 6.146 6.146 0 00-2.793 1.159L42.7 20.31a6.02 6.02 0 00-6.878-5.185c-3.343.488-5.71 3.614-5.276 6.966l3.971 30.634-11.48-6.122c-3.073-1.693-7.012-.829-9.166 2.016-1.616 2.132-1.223 5.16.874 6.75l23.917 18.11c3.726 2.822 8.346 4 13.011 3.316l7.062-1.036c4.659-.68 8.802-3.142 11.668-6.925a17.91 17.91 0 003.594-12.281zM58.323 72.579l-7.062 1.035c-3.817.56-7.597-.404-10.646-2.713L16.7 52.791a1.606 1.606 0 01-.292-2.25c1.188-1.569 3.36-2.045 5.075-1.1l14.26 7.6a1.6 1.6 0 001.672-.11c.494-.347.76-.945.682-1.544l-4.375-33.76c-.207-1.598.922-3.088 2.54-3.328a2.864 2.864 0 013.265 2.477l2.918 22.512a1.573 1.573 0 001.793 1.358 1.64 1.64 0 001.38-1.828l-1.19-9.193c-.208-1.597.92-3.085 2.54-3.323a2.87 2.87 0 013.264 2.472l1.192 9.197a1.573 1.573 0 001.794 1.359 1.64 1.64 0 001.38-1.828l-.608-4.694c-.207-1.597.92-3.085 2.54-3.322a2.87 2.87 0 013.265 2.472l.611 4.715c.003.007 0 .005 0 .005l.002.004v.009l.003.002c.003.002 0 .004 0 .004a1.57 1.57 0 001.788 1.313 1.638 1.638 0 001.381-1.823l-.025-.194c-.1-.773.106-1.547.58-2.173a2.96 2.96 0 011.958-1.151c1.595-.23 3.054.88 3.258 2.397l1.458 17.804a14.662 14.662 0 01-2.942 10.044c-2.343 3.094-5.731 5.106-9.543 5.665z" fill="#fff"/><path d="M50.621 24.317c1.3-5.553-.743-11.33-5.207-14.71C39.121 4.842 30.056 6.17 25.21 12.57c-3.438 4.538-3.935 10.687-1.273 15.661.111.206.261.377.437.51.482.364 1.158.43 1.73.117a1.634 1.634 0 00.66-2.187c-2.074-3.871-1.69-8.653.983-12.18 3.77-4.978 10.819-6.011 15.714-2.304 3.47 2.628 5.056 7.12 4.045 11.443a1.574 1.574 0 001.189 1.915 1.629 1.629 0 001.926-1.227z" fill="#fff"/></svg>