<svg width="71" height="67" fill="none" xmlns="http://www.w3.org/2000/svg"><path d="M57.95 43.484L56.62 29.67c-.373-2.588-2.787-4.42-5.404-4.074a4.618 4.618 0 00-2.198.898 4.83 4.83 0 00-5.272-3.456c-.8.106-1.556.414-2.199.894a4.833 4.833 0 00-5.271-3.453 4.665 4.665 0 00-2.16.865l-.889-6.164c-.373-2.588-2.787-4.42-5.404-4.074a4.683 4.683 0 00-4.028 5.32l3.413 23.682-8.993-4.846c-2.407-1.34-5.46-.714-7.106 1.458-1.233 1.629-.896 3.97.752 5.218L30.652 56.17a13.741 13.741 0 0010.154 2.697l5.48-.723c3.616-.476 6.812-2.332 9-5.221a13.46 13.46 0 002.664-9.44zm-12.018 12.2l-5.481.724a11.243 11.243 0 01-8.307-2.207L13.353 39.97a1.243 1.243 0 01-.251-1.74c.907-1.197 2.592-1.542 3.935-.794l11.17 6.017c.414.224.914.197 1.299-.067.38-.263.581-.722.514-1.184L26.258 16.1a2.241 2.241 0 011.94-2.54c.595-.079 1.2.082 1.68.447.465.352.796.879.886 1.498l2.508 17.404c.098.679.73 1.157 1.41 1.067a1.226 1.226 0 001.054-1.396l-1.025-7.107a2.236 2.236 0 011.94-2.537 2.3 2.3 0 012.565 1.942l1.025 7.11c.098.68.73 1.158 1.41 1.068a1.225 1.225 0 001.054-1.396l-.524-3.628a2.236 2.236 0 011.94-2.538 2.3 2.3 0 012.566 1.943l.525 3.646c.002.005 0 .003 0 .003v.003l.001.004v.003l.003.002c.002.001 0 .003 0 .003a1.259 1.259 0 001.404 1.032 1.226 1.226 0 001.055-1.392l-.022-.15a2.228 2.228 0 011.939-2.539c1.237-.16 2.384.712 2.558 1.886l1.324 13.754a11.02 11.02 0 01-2.18 7.72 10.96 10.96 0 01-7.362 4.271z" fill="#fff"/><path d="M39.43 18.355c.952-4.271-.699-8.75-4.206-11.407-4.944-3.744-11.98-2.816-15.68 2.07-2.625 3.467-2.947 8.206-.823 12.073a1.257 1.257 0 001.692.507c.6-.325.82-1.078.489-1.68-1.654-3.01-1.405-6.696.635-9.39 2.879-3.801 8.35-4.523 12.196-1.61A8.772 8.772 0 0137 17.79c-.15.667.273 1.338.944 1.49a1.23 1.23 0 001.486-.926z" fill="#fff"/></svg>