<svg width="45" height="43" fill="none" xmlns="http://www.w3.org/2000/svg"><path d="M36.663 27.652l-.806-8.842a3.049 3.049 0 00-3.439-2.593 2.97 2.97 0 00-1.407.583 3.05 3.05 0 00-4.764-1.618 3.052 3.052 0 00-4.738-1.635l-.549-3.945a3.049 3.049 0 00-3.438-2.592 3.032 3.032 0 00-2.59 3.42l2.106 15.157-5.729-3.075a3.56 3.56 0 00-4.543.956 2.387 2.387 0 00.464 3.34l11.958 9.056a8.7 8.7 0 006.477 1.695l3.503-.48a8.655 8.655 0 005.764-3.373 8.702 8.702 0 001.731-6.054zm-7.714 7.852l-3.503.48a7.118 7.118 0 01-5.3-1.387L8.19 25.541a.795.795 0 01-.155-1.113 1.966 1.966 0 012.516-.521l7.116 3.819a.794.794 0 001.162-.807l-2.322-16.706a1.451 1.451 0 011.247-1.633 1.45 1.45 0 011.633 1.238l1.548 11.14a.797.797 0 001.421.37.791.791 0 00.153-.589l-.632-4.549a1.454 1.454 0 012.88-.395l.632 4.551a.797.797 0 001.421.371.792.792 0 00.153-.59l-.322-2.321a1.453 1.453 0 012.88-.395l.323 2.333c.002.003 0 .002 0 .002v.002l.001.002v.003h.002v.003a.795.795 0 001.572-.239l-.014-.095a1.44 1.44 0 011.246-1.632c.791-.107 1.52.448 1.629 1.199l.802 8.805a7.124 7.124 0 01-1.417 4.952 7.082 7.082 0 01-4.715 2.758z" fill="#333"/><path d="M24.912 11.615a7.172 7.172 0 00-2.65-7.293C19.115 1.94 14.619 2.556 12.24 5.697a7.162 7.162 0 00-.564 7.735.8.8 0 001.08.32.796.796 0 00.317-1.079 5.569 5.569 0 01.435-6.015c1.85-2.444 5.347-2.924 7.795-1.07a5.58 5.58 0 012.06 5.674.793.793 0 00.598.951.793.793 0 00.951-.598z" fill="#333"/></svg>