<svg width="20" height="20" fill="none" xmlns="http://www.w3.org/2000/svg"><path d="M20 10c0-1.224-.22-2.395-.622-3.479L10 6.086l-9.378.435A9.98 9.98 0 000 10c0 1.223.22 2.395.622 3.478l9.378.435 9.378-.435A9.978 9.978 0 0020 10z" fill="#F4F4F4"/><path d="M10 20c4.3 0 7.965-2.714 9.378-6.522H.622A10.004 10.004 0 0010 20z" fill="#0052B4"/><path d="M.622 6.522h18.756a10.004 10.004 0 00-18.756 0z" fill="#D80027"/><path d="M12.608 6.956H10.87l.29-2.174 1.16-.87 1.159.87v1.74l-.87.434zm-5.217 0h1.74l-.29-2.174-1.16-.87-1.16.87v1.74l.87.434z" fill="#338AF3"/><path d="M11.16 6.956H8.84V4.782l1.16-.87 1.16.87v2.174z" fill="#0052B4"/><path d="M6.521 6.522v4.783c0 1.139.55 2.152 1.399 2.787l.609-.153.768.773a3.48 3.48 0 001.402 0l.877-.73.503.108a3.474 3.474 0 001.399-2.785V6.522H6.521z" fill="#F4F4F4"/><path d="M6.521 6.522h1.392v1.391H6.52V6.522zm2.783 0h1.391v1.391h-1.39V6.522zm2.783 0h1.391v1.391h-1.391V6.522zM7.913 7.913h1.391v1.392H7.913V7.913zm2.782 0h1.392v1.392h-1.392V7.913zM6.521 9.304h1.392v1.391H6.52v-1.39zm1.392 1.391h1.391v1.392H7.913v-1.392zm1.391-1.39h1.391v1.39h-1.39v-1.39zm2.783-.001h1.391v1.391h-1.391v-1.39zm-1.392 1.392h1.392v1.39h-1.392v-1.39zm-1.39 1.39h1.39v1.392h-1.39v-1.391zm-1.392.001H6.61c.12.517.354.99.676 1.391h.626v-1.391zm4.174 1.391h.625c.328-.407.559-.882.676-1.391h-1.301v1.391zm-4.174 0v.607a3.46 3.46 0 001.391.628v-1.235H7.913zm2.782 0v1.235a3.463 3.463 0 001.392-.628v-.607h-1.392z" fill="#D80027"/></svg>