<svg width="22" height="22" fill="none" xmlns="http://www.w3.org/2000/svg"><path d="M1.405 1.692C-.283 3.452.063 5.32.063 10.997c0 4.715-.82 9.44 3.47 10.553 1.34.346 13.208.346 14.545-.001 1.786-.463 3.24-1.917 3.438-4.452.028-.354.028-11.84 0-12.2-.212-2.701-1.868-4.257-4.05-4.572-.5-.073-.601-.095-3.167-.1C5.196.23 3.2-.175 1.405 1.693z" fill="url(#paint0_linear_1254_4423)"/><path d="M10.798 3.045c-3.249 0-6.334-.29-7.512 2.745-.487 1.254-.416 2.882-.416 5.213 0 2.045-.066 3.968.416 5.212 1.175 3.037 4.286 2.746 7.51 2.746 3.112 0 6.32.325 7.512-2.746.488-1.267.416-2.87.416-5.212 0-3.11.171-5.116-1.331-6.623-1.521-1.526-3.578-1.335-6.598-1.335h.003zm-.71 1.434c6.777-.01 7.64-.767 7.164 9.737-.17 3.715-2.988 3.307-6.453 3.307-6.317 0-6.499-.181-6.499-6.524 0-6.416.501-6.517 5.788-6.522v.002zm4.943 1.32a.95.95 0 00-.952.955.956.956 0 00.952.955.95.95 0 00.95-.955.956.956 0 00-.95-.954zm-4.233 1.117A4.06 4.06 0 007.92 8.113a4.094 4.094 0 000 5.78 4.065 4.065 0 005.76-.002 4.094 4.094 0 00-.001-5.778 4.064 4.064 0 00-2.88-1.197zm0 1.434c3.494 0 3.499 5.305 0 5.305-3.493 0-3.498-5.305 0-5.305z" fill="#fff"/><defs><linearGradient id="paint0_linear_1254_4423" x1="1.446" y1="20.401" x2="21.466" y2="3.136" gradientUnits="userSpaceOnUse"><stop stop-color="#FD5"/><stop offset=".5" stop-color="#FF543E"/><stop offset="1" stop-color="#C837AB"/></linearGradient></defs></svg>