<svg width="20" height="21" fill="none" xmlns="http://www.w3.org/2000/svg"><path d="M10 20.01c5.523 0 10-4.477 10-10 0-5.522-4.477-10-10-10s-10 4.478-10 10c0 5.523 4.477 10 10 10z" fill="#F4F4F4"/><path d="M4.223 14.19l.5-.334.886 1.332-.498.333-.888-1.332zm-.4-2.292l.5-.334 2.07 3.107-.5.333-2.07-3.106zm-.767.482l.5-.333.886 1.331-.499.333-.887-1.33zm-.784.518l.5-.334 2.07 3.107-.5.333-2.07-3.107zm12.102-8l.5-.333 2.07 3.106-.5.333-2.07-3.107zm-.767.482l.499-.333.887 1.332-.499.333-.887-1.332zm1.128 1.753l.5-.332.887 1.331-.499.333-.888-1.332zm.422-2.752l.5-.334.887 1.332-.499.333-.888-1.331zm1.186 1.716l.5-.333.887 1.332-.499.333-.888-1.332zm-1.976 9.058l.888-1.332.499.334-.887 1.33-.5-.332zm1.198-1.769l.887-1.331.5.332-.888 1.332-.5-.333zm-.394 2.27l.886-1.332.5.333-.888 1.331-.498-.332zm1.16-1.713l.886-1.33.5.332-.888 1.331-.498-.332zm-2.766.711l.887-1.331.5.333-.888 1.33-.5-.332zm1.196-1.768l.888-1.332.5.333-.888 1.331-.5-.332zM3.057 7.636l2.07-3.107.5.334-2.071 3.106-.5-.333zm.803.502l2.071-3.107.5.334L4.359 8.47l-.499-.333zM2.29 7.081l2.071-3.107.5.333L2.79 7.413l-.5-.332z" fill="#333"/><path d="M10 13.742a3.733 3.733 0 100-7.466 3.733 3.733 0 000 7.466z" fill="#ED1C24"/><path d="M12.684 9.721a1.811 1.811 0 00-2.6 0 1.811 1.811 0 01-2.6 0 1.841 1.841 0 01-.134-2.466c-1.4 1.533-1.266 3.866.267 5.266 1.467 1.334 3.733 1.267 5.133-.133.667-.8.667-1.933-.066-2.667z" fill="#0071BC"/></svg>