<svg width="100" height="105" fill="none" xmlns="http://www.w3.org/2000/svg"><ellipse cx="37.282" cy="27.605" rx="28.333" ry="27.605" fill="#FF8A00"/><path d="M25.836 80.369l5.07 1.525-.133.417c-1.55 4.902 1.278 10.12 6.303 11.633 5.026 1.512 10.375-1.247 11.925-6.15l.132-.416 5.069 1.525 3.418-10.811-28.366-8.534-3.418 10.811zM45.15 59.788l-5.418-6.275 2.308-7.302 4.974 1.496-1.472 4.655 3.425 3.965 5.12-1.395 1.471-4.654 4.974 1.496-2.309 7.302-8.1 2.208-2.667 8.437 12.056 3.627a9.064 9.064 0 013.66-3.106c6.595-3.074 11.613-8.743 13.766-15.553 4.263-13.485-3.514-27.838-17.337-31.997l-.18-.054c-6.61-1.938-13.632-1.265-19.776 1.895s-10.68 8.434-12.773 14.849a25.104 25.104 0 002.283 20.569 8.995 8.995 0 011.26 4.644l12.068 3.63 2.667-8.437zm15.45-49.43l4.973 1.495-2.072 6.556-4.974-1.497 2.073-6.555zm-20.028.567l5.074-1.13 1.57 6.705-5.075 1.13-1.569-6.705zM23.524 21.203l3.815-3.454 4.795 5.042-3.815 3.453-4.795-5.041zM15.56 33.567l6.737 2.027-1.534 4.851-6.737-2.026 1.534-4.852zm67.09 20.184l6.737 2.026-1.534 4.852-6.736-2.027 1.533-4.851zm-.737-15.986l6.873-1.53 1.158 4.949-6.873 1.53-1.158-4.949zm-8.83-13.481l5.168-4.678 3.54 3.721-5.167 4.678-3.54-3.721z" fill="#333"/></svg>