<svg width="101" height="96" fill="none" xmlns="http://www.w3.org/2000/svg"><circle cx="47.671" cy="48.125" r="46" fill="#333" stroke="#FF8A00" stroke-width="3" stroke-dasharray="10 10"/><mask id="a" style="mask-type:alpha" maskUnits="userSpaceOnUse" x="0" y="0" width="96" height="96"><circle cx="47.671" cy="48.125" r="46" fill="#333" stroke="#FF8A00" stroke-width="3" stroke-dasharray="6 6"/></mask><g mask="url(#a)" fill="#fff"><path d="M56.081 42.235c6.927 0 12.543-5.621 12.543-12.555 0-6.934-5.615-12.555-12.543-12.555-6.927 0-12.543 5.621-12.543 12.555 0 6.934 5.616 12.555 12.543 12.555z"/><path d="M95.68 13.343a5.577 5.577 0 00-6.494 4.478l-.18.698-.377 1.395c-.14.516-.32 1.046-.488 1.576a38.582 38.582 0 01-1.143 3.139 40.367 40.367 0 01-3.01 5.9 32.17 32.17 0 01-8.362 9.32A29.252 29.252 0 0164.379 44.8a37.434 37.434 0 01-6.397.851l-3.61.084a56.597 56.597 0 00-4.32.251 39.624 39.624 0 00-17.449 5.468 28.19 28.19 0 00-7.442 6.627 25.885 25.885 0 00-4.558 9.179 23.244 23.244 0 00-.766 5.217v1.395c.02.528.065 1.053.14 1.576.121.944.317 1.877.585 2.79a33.91 33.91 0 003.902 8.37 73.608 73.608 0 004.808 6.808c1.687 2.162 3.4 4.115 5.38 6.193a5.581 5.581 0 002.381 1.458 5.586 5.586 0 002.79.119l-2.384 50.219a5.578 5.578 0 005.1 5.845h.475a5.576 5.576 0 005.575-4.924l6.006-50.875h1.924l6.006 50.875a5.576 5.576 0 005.575 4.924h.46a5.578 5.578 0 005.115-5.845l-2.788-58.45V57.313a41.774 41.774 0 005.17-2.05 38.457 38.457 0 007.778-4.813 42.664 42.664 0 0011.26-13.852 49.314 49.314 0 003.262-8.05c.432-1.394.78-2.79 1.1-4.184.14-.754.28-1.423.391-2.149l.167-1.102.14-1.269a5.581 5.581 0 00-4.474-6.5zM40.227 88.491a69.516 69.516 0 01-5.072-8.007 25.126 25.126 0 01-2.244-5.58 5.382 5.382 0 01-.154-.99 2.148 2.148 0 010-.321v-.516c.092-.787.26-1.562.502-2.316a13.947 13.947 0 016.48-7.7l.488-.265V88.49z"/></g><g clip-path="url(#clip0_1704_15725)"><path d="M95.68 13.343a5.577 5.577 0 00-6.494 4.478l-.18.698-.377 1.395c-.14.516-.32 1.046-.488 1.576a38.545 38.545 0 01-1.143 3.139 40.356 40.356 0 01-3.01 5.9 32.171 32.171 0 01-8.362 9.32A29.252 29.252 0 0164.379 44.8a37.434 37.434 0 01-6.397.851l-3.61.084a56.597 56.597 0 00-4.32.251 39.624 39.624 0 00-17.449 5.468 28.19 28.19 0 00-7.442 6.627 25.885 25.885 0 00-4.558 9.179 23.244 23.244 0 00-.766 5.217v1.395c.02.528.065 1.053.14 1.576.121.944.317 1.877.585 2.79a33.91 33.91 0 003.902 8.37 73.608 73.608 0 004.808 6.808c1.687 2.162 3.4 4.115 5.38 6.193a5.581 5.581 0 002.381 1.458 5.586 5.586 0 002.79.119l-2.384 50.219a5.578 5.578 0 005.1 5.845h.475a5.576 5.576 0 005.575-4.924l6.006-50.875h1.924l6.006 50.875a5.576 5.576 0 005.575 4.924h.46a5.578 5.578 0 005.115-5.845l-2.788-58.45V57.313a41.774 41.774 0 005.17-2.05 38.457 38.457 0 007.778-4.813 42.664 42.664 0 0011.26-13.852 49.314 49.314 0 003.262-8.05c.432-1.394.78-2.79 1.1-4.184.14-.754.28-1.423.391-2.149l.167-1.102.14-1.269a5.581 5.581 0 00-4.474-6.5zM40.227 88.491a69.516 69.516 0 01-5.072-8.007 25.126 25.126 0 01-2.244-5.58 5.382 5.382 0 01-.154-.99 2.148 2.148 0 010-.321v-.516c.092-.787.26-1.562.502-2.316a13.947 13.947 0 016.48-7.7l.488-.265V88.49z" fill="#fff"/></g><defs><clipPath id="clip0_1704_15725"><path fill="#fff" transform="translate(19.837 13.25)" d="M0 0h80.334v69H0z"/></clipPath></defs></svg>