<svg width="20" height="20" fill="none" xmlns="http://www.w3.org/2000/svg"><path d="M10 20c5.523 0 10-4.477 10-10S15.523 0 10 0 0 4.477 0 10s4.477 10 10 10z" fill="#F4F4F4"/><path d="M.345 12.609a10.008 10.008 0 003.568 5.325v-5.325H.345zm8.786 7.353c.289.025.579.038.87.038 4.62 0 8.507-3.133 9.655-7.391H9.13v7.353zm10.525-12.57C18.508 3.134 14.62 0 10 0c-.293 0-.583.014-.87.038v7.354h10.526zM3.913 2.066A10.009 10.009 0 00.345 7.392h3.568V2.066z" fill="#D80027"/><path d="M19.915 8.697H7.826V.239a9.932 9.932 0 00-2.609.978v7.48H.085a10.086 10.086 0 000 2.608h5.132v7.48c.82.447 1.698.776 2.61.978v-8.458h12.088a10.114 10.114 0 000-2.608z" fill="#0052B4"/></svg>