<svg width="134" height="113" fill="none" xmlns="http://www.w3.org/2000/svg"><circle cx="25.684" cy="65" r="25" fill="#FF8A00"/><path opacity=".88" d="M17.065 100.413S45.832 7.533 46.289 6.98c-4.263 29.591-5.224 34.324-.67 90.182-8.004-2.886-21.672-1.946-28.554 3.251z" fill="#fff"/><path d="M45.983 6.98h.153l-.453 96.571h-.154l.453-96.571z" fill="#333"/><path opacity=".88" d="M48.659 96.74s21.694.138 28.669.138c-13.6-42.48-27.57-82.094-29.314-87.128l.645 86.99z" fill="#fff"/><path d="M86.865 104.933l.143-.057L47.414 6.789l-.142.058 39.593 98.086z" fill="#333"/><path d="M84.581 104.901l.134-.057-37.37-98.086-.135.057L84.581 104.9zm-37.41-19.62h.002l2.614.094v.165l-2.619-.094a.083.083 0 01.003-.165zm.177 6.375h.003l2.436.084v.165l-2.442-.084a.083.083 0 01-.082-.085.084.084 0 01.085-.08zM47.2 77.035h.003l2.584.1v.165l-2.59-.1c-.041-.002-.074-.04-.073-.086.002-.043.036-.079.076-.079zm-.359-16.488h.003l2.943.14v.165l-2.948-.14c-.034-.002-.06-.04-.06-.086.002-.044.029-.08.062-.08zm.143-16.27h.002l2.8.097v.164l-2.798-.096c-.025 0-.045-.038-.045-.084 0-.044.018-.08.041-.08zm-.416-16.39l3.219.097v.164l-3.207-.097c-.014 0-.028-.038-.031-.083-.004-.045.005-.08.019-.081zm.492 40.988l2.727.109v.165l-2.734-.11a.083.083 0 01-.08-.085c.002-.045.034-.083.087-.079zm.04-16.277h.001l2.686.05v.165l-2.69-.051a.083.083 0 01-.08-.084.083.083 0 01.083-.08zm.071-16.332h2.616v.164H47.17a.082.082 0 110-.164zm.003-16.575l2.613.091v.165l-2.618-.091a.082.082 0 01-.08-.085c.001-.046.038-.078.085-.08z" fill="#333"/><path d="M48.384 85.472c-.024 0-.044-.029-.044-.063 0-.035.02-.064.044-.064l17.534-.126c.025 0 .045.028.045.063 0 .034-.02.063-.044.063l-17.534.127zm0-12.255c-.024 0-.044-.028-.044-.063s.02-.063.044-.063l14.728-.107c.025 0 .045.029.045.063 0 .035-.02.064-.044.064l-14.728.106zM60.24 60.829l-11.95-.079c-.024 0-.044-.028-.044-.063s.02-.063.044-.063l11.949.077c.024 0 .044.029.044.064s-.02.063-.044.063zm-12.019-12.19c-.024 0-.044-.028-.044-.063s.02-.064.044-.064l9.165-.063c.024 0 .044.028.044.063s-.02.063-.044.063l-9.164.064zm-.056-12.233c-.024 0-.044-.028-.044-.063s.02-.063.044-.064l6.286-.08c.024 0 .044.028.044.063s-.02.063-.043.063l-6.286.08zm-.063-12.212c-.024 0-.044-.027-.044-.061-.001-.035.018-.064.043-.065l3.396-.127c.024 0 .045.027.046.062 0 .035-.019.064-.043.065l-3.397.126h-.001z" fill="#333"/><path d="M48.074 6.826l.589 97.178-.153.001-.589-97.178h.153zm17.637 78.456a.192.192 0 11.384 0 .192.192 0 01-.384 0zm-2.785-12.235a.192.192 0 11.384 0 .192.192 0 01-.384 0zM60.049 60.77a.192.192 0 11.384 0 .192.192 0 01-.384 0zm-2.811-12.254a.192.192 0 11.384 0 .192.192 0 01-.384 0zm-2.935-12.234a.192.192 0 11.384 0 .192.192 0 01-.384 0zm-3.002-12.274a.192.192 0 11.384 0 .192.192 0 01-.384 0z" fill="#333"/><path d="M32.165 104.954l51.496.904-2.498-2.36-10.955-.215-1.045-2.302.976-.435s-9.865-.399-13.513.022c-1.618.386-5.275 2.972-5.275 2.972l-15.616.094-3.57 1.32z" fill="#333"/><path d="M53.183 102.89c.904-.528 2.224-1.272 3.333-1.792h1.592l.654 1.792h-5.579zm6.035 0l-.58-1.792h3.654l-.578 1.792h-2.496zm2.967 0l.67-1.792h1.203l.837 1.792h-2.71zm6.004 0l-.893-1.792h1.487l.018.014.885 1.778H68.19z" fill="#fff"/><path d="M62.684 101.559l1.538 1.334h-.568l-1.11-.962.14-.372zm-3.574-.461h.405l2.066 1.792h-.407l-2.065-1.792zm-.413.182l-.058-.182h.058l2.065 1.792h-.209l-1.856-1.61zm4.067.063l.04-.109 1.91 1.657h-.166l-1.784-1.548zm-6.248-.245h.225l2 1.736.021.056h-.365l-2-1.736.119-.056zm3.818 0h.624l1.043.903-.137.424-1.53-1.327zm-5.749.992l.251-.137 1.076.934h-.41l-.917-.797zm9.451-.992h.022l.015.032-.037-.032zm3.303 0h.165l2.066 1.792h-.166l-2.065-1.792zm.251.585l-.078-.156 1.566 1.359h-.102l-1.387-1.203zm.24-.585h.41l.975.846.311.625-1.695-1.471zm-11.749.216a6.44 6.44 0 01.106-.052l1.884 1.634h-.166l-1.824-1.582zm-.841.429c.212-.113.424-.223.634-.329l1.705 1.479h-1.014l-1.325-1.15z" fill="#fff"/><path d="M66.327 105.229l2.515-.001-2.719-5.798-2.515.001 2.719 5.798zM46.29 6.54h1.3v99.081h-1.3V6.539z" fill="#333"/><path d="M51.472 67.605l.161.43-7.102 2.67-.161-.43 7.102-2.67zm-.704-31.321l.162.43-6.399 2.407-.162-.43 6.4-2.407zM45.689 6.367h2.574v.729h-2.574v-.729z" fill="#333"/><path d="M46.71.656h.23v6.727h-.23V.656z" fill="#333"/><path d="M46.845 6.295c0 .17.134.306.298.306h.553a.303.303 0 00.298-.306.302.302 0 00-.298-.307h-.553a.303.303 0 00-.298.307zM44.63 67.854a.6.6 0 00.6.6h1.11a.6.6 0 000-1.2h-1.11a.6.6 0 00-.6.6zm2.31 29.356c0 .254.192.46.43.46h30.345c.238 0 .43-.206.43-.46s-.192-.46-.43-.46H47.37c-.238 0-.43.206-.43.46zm40.518 7.655l.18.031.507-2.947-.18-.031-.507 2.947zm-6.066-2.951h.183v2.99h-.183v-2.99zm-6.064 0h.182v2.99h-.182v-2.99zm-6.065 0h.182v2.99h-.182v-2.99zm-6.064 0h.182v2.99H63.2v-2.99zm-6.064 0h.181v2.99h-.181v-2.99zm-6.065 0h.182v2.99h-.182v-2.99zm-6.064 0h.181v2.99h-.181v-2.99zm-6.066 0h.183v2.99h-.182v-2.99zm-6.064 0h.183v2.99h-.183v-2.99zm-18.205-.533l1.213 3.166-.17.065-1.213-3.166.17-.065zm5.435 0l1.212 3.166-.17.065-1.212-3.166.17-.065zm5.738.001l1.215 3.165-.17.065-1.215-3.165.17-.065z" fill="#333"/><path d="M25.93 101.782c.04-.002.19 0 .23 0h61.906c.328 0 .594.06.594.134 0 .075-.266.134-.594.134H26.161a3.12 3.12 0 01-.098-.002c-.052-.094-.11-.181-.133-.266zm-12.473-.402c0 .075.053.134.119.134h12.436c.066 0 .12-.059.12-.134 0-.074-.054-.134-.12-.134H13.576c-.066 0-.12.06-.12.134zm.679 1.566c0 .037.314.067.7.067h72.966c.386 0 .7-.03.7-.067 0-.037-.314-.067-.7-.067H14.836c-.386 0-.7.03-.7.067zM44.718 38.8l2.069-31.41-.153-.011-2.07 31.411.154.01z" fill="#333"/><path d="M44.508 39.07h.153v68.061h-.153v-68.06zm-28.72 65.575L46.362 6.827l-.146-.046L15.642 104.6l.146.045z" fill="#333"/><path d="M46.425 69.871l.151.023-5.269 34.15-.151-.024 5.269-34.149zm5.741 33.871l.152-.022-4.842-34.267-.151.022 4.84 34.267zm-35.929-1.296c-.017.064.044.136.136.16.092.024.18-.008.197-.072l.185-.697c.017-.065-.044-.137-.136-.161-.091-.024-.18.008-.197.072l-.185.698zm10.967.445c-.017.064.044.136.136.16.092.025.18-.007.198-.072l.185-.698c.016-.064-.045-.135-.136-.16-.092-.024-.181.008-.198.072l-.185.698zm58.027-1.584c.032.083.154.114.273.069.12-.045.191-.149.16-.232l-.34-.905c-.032-.084-.154-.115-.273-.07-.12.045-.192.149-.16.232l.34.906zm-2.212-.028c.03.084.153.115.272.07.12-.045.191-.149.16-.233l-.34-.905c-.032-.083-.154-.114-.273-.069-.12.045-.191.149-.16.232l.34.905z" fill="#333"/><path d="M41.422 101.242c-.013.092.083.179.213.197.13.017.246-.043.258-.133l.132-.986c.012-.091-.084-.179-.214-.196-.13-.017-.245.042-.258.133l-.131.985zm10.106-.913c.015.09.132.146.261.125.13-.02.223-.111.209-.201l-.16-.983c-.013-.09-.13-.146-.26-.125-.13.02-.223.11-.208.201l.158.983zm21.702-2.944l1.489 6.326-.15.035-1.487-6.326.149-.035zm-1.003 6.408l.698-6.461.152.016-.698 6.461-.152-.016zM46.425 38.108l.149.01-1.969 32.589-.148-.01 1.968-32.589zm5.037 29.799l1.9 36.644-.149.008-1.9-36.644.149-.008z" fill="#333"/><path d="M43.336 104l1.328-33.634-.15-.007-1.327 33.635.15.006zm3.233-.043c-.044-.074-.006-.175.084-.227l11.64-6.813c.09-.052.197-.035.24.038.042.073.004.175-.085.227l-11.64 6.812c-.09.052-.197.036-.24-.037z" fill="#333"/><path d="M46.954 103.834c.07-.027 7.102-2.761 10.858-6.404l-.053-.055c-3.745 3.632-10.763 6.361-10.833 6.388l.028.071z" fill="#333"/><path d="M65.66 98.283c4.928 0 8.497-.834 8.55-.847l-.017-.075c-.08.02-8.096 1.893-16.718 0l-.012-.002-.011.004c-2.15.85-9.337.986-10.02-.05l-.064.042c.693 1.05 7.921.936 10.101.083 2.89.634 5.713.845 8.191.845zm8.149 2.624a.197.197 0 10.393 0 .197.197 0 00-.393 0zM42.63 98.285l5.135 5.884-.115.101-5.136-5.884.115-.1zm3.028-1.215l6.593 6.293-.105.111-6.594-6.292.106-.111z" fill="#333"/><path d="M44.974 101.384a.245.245 0 10.489 0 .244.244 0 00-.489 0z" fill="#333"/><path d="M44.73 101.022a.244.244 0 10.488 0 .244.244 0 00-.488 0z" fill="#333"/><path d="M50.77 104.791l.063-.043-5.033-7.494-.023.003c-.14.017-14.121 1.745-28.715 3.119l.007.076c14.314-1.347 28.038-3.035 28.694-3.116l5.007 7.455z" fill="#333"/><path opacity=".95" d="M27.72 101.628S47.14 30.63 46.567 33.723c-2.763 14.924-4.546 38.883-3.885 64.737-1.868-.587-9.198-1.763-14.962 3.168z" fill="#fff"/><path d="M26.963 104.635l19.822-71.418-.148-.041-19.822 71.418.148.041zm21.055-3.613a.244.244 0 10.489 0 .244.244 0 00-.489 0z" fill="#333"/><path d="M47.774 100.662a.244.244 0 10.489-.001.244.244 0 00-.49.001zm24.446 1.968c0 .109.089.196.197.196a.196.196 0 10-.196-.196z" fill="#333"/><path d="M72.259 102.33a.196.196 0 10.393 0 .196.196 0 00-.393 0zm1.612-1.122c0 .109.089.196.197.196a.196.196 0 100-.392.196.196 0 00-.197.196zM47.965 9.975l.078-.185-.626-2.524-.148.039.696 2.67zm-20.223 91.666c3.761-1.784 14.724-3.145 14.835-3.159l-.01-.076c-.11.014-11.086 1.377-14.858 3.166l.033.069zm-11.095 2.667c0 .172.14.312.311.312h2.845a.312.312 0 000-.624h-2.845a.312.312 0 00-.311.312zm13.508 0c0 .172.14.312.312.312h.904a.312.312 0 000-.624h-.904a.312.312 0 00-.312.312zm57.005.03a.33.33 0 01-.323.338h-.523a.33.33 0 01-.323-.338c0-.186.145-.338.323-.338h.523a.33.33 0 01.323.338zm-30.474.603H38.051v-1.39h18.635v1.39zm20.974-.453h-6.738v-.948h6.738v.948z" fill="#333"/><path d="M22.141 112.498h65.915s2.1-1.67 3.322-2.784c-1.212-3.487-3.322-5.444-3.322-5.444H14.323s3.148 5.893 7.818 8.228z" fill="#333"/><path d="M90.846 108.395c.189.412.368.853.532 1.323-1.222 1.114-3.322 2.783-3.322 2.783H22.14c-1.954-.976-3.641-2.576-4.943-4.106 12.213.497 24.901.766 38.032.748 12.27-.016 28.229.321 35.616-.748zm-56.283-1.557a1.22 1.22 0 102.44 0 1.22 1.22 0 00-2.44 0z" fill="#333"/><path d="M35.019 107.324a.91.91 0 101.528-.985.91.91 0 00-1.528.985z" fill="#fff"/><path d="M35.599 105.952a.913.913 0 01.492.035l.597.928a.91.91 0 01-.171.462l-.918-1.425zm-.706.716l.678 1.053a.902.902 0 01-.344-.163l-.328-.51a.906.906 0 01-.006-.38zm.437-.618a.907.907 0 01.174-.077l.95 1.476a.938.938 0 01-.142.125l-.981-1.524z" fill="#fff"/><path d="M47.765 108.058a1.22 1.22 0 110-2.44 1.22 1.22 0 010 2.44z" fill="#333"/><path d="M47 107.324a.91.91 0 101.53-.985.91.91 0 00-1.53.985z" fill="#fff"/><path d="M47.58 105.952a.913.913 0 01.492.035l.598.928a.91.91 0 01-.172.462l-.917-1.425zm-.403.193a.694.694 0 01.074-.059l.982 1.525a.73.73 0 01-.084.043l-.972-1.509zm.136-.095a.906.906 0 01.172-.077l.951 1.476a.934.934 0 01-.142.125l-.981-1.524z" fill="#fff"/><path d="M59.747 108.058a1.22 1.22 0 110-2.44 1.22 1.22 0 010 2.44z" fill="#333"/><path d="M58.983 107.324a.91.91 0 101.528-.985.91.91 0 00-1.529.985z" fill="#fff"/><path d="M59.16 106.145a.703.703 0 01.073-.059l.982 1.525a.738.738 0 01-.084.043l-.972-1.509zm-.304.523l.679 1.053a.902.902 0 01-.344-.163l-.328-.51a.907.907 0 01-.007-.38zm.439-.618a.906.906 0 01.173-.077l.95 1.476a.935.935 0 01-.142.125l-.981-1.524z" fill="#fff"/><path d="M70.508 106.838a1.22 1.22 0 102.44 0 1.22 1.22 0 00-2.44 0z" fill="#333"/><path d="M70.964 107.324a.91.91 0 101.53-.985.91.91 0 00-1.53.985z" fill="#fff"/><path d="M71.544 105.952a.913.913 0 01.492.035l.598.928a.91.91 0 01-.171.462l-.918-1.425zm-.404.193a.715.715 0 01.075-.059l.982 1.525a.737.737 0 01-.084.043l-.972-1.509zm-.302.523l.678 1.053a.902.902 0 01-.343-.163l-.328-.51a.906.906 0 01-.007-.38z" fill="#fff"/><path d="M94.814 80.692c1.11 2.686-5.848 5.159-15.693 5.159-9.845 0-16.804-2.473-15.694-5.159.973-2.352 7.953-4.055 15.694-4.055 7.74 0 14.72 1.703 15.693 4.055z" fill="#333"/><path d="M94.519 80.45c1.067 2.496-5.763 4.788-15.398 4.788s-16.466-2.292-15.398-4.788c.937-2.192 7.787-3.782 15.398-3.782 7.61 0 14.46 1.59 15.398 3.782z" fill="#333"/><path d="M91.546 80.474c.686 2.091-4.845 3.965-12.425 3.965-7.58 0-13.11-1.873-12.425-3.965.618-1.884 6.157-3.279 12.425-3.279 6.268 0 11.807 1.395 12.425 3.279z" fill="#333"/><path d="M91.218 80.54c.65 2.038-4.737 3.857-12.097 3.857-7.36 0-12.747-1.819-12.098-3.856.587-1.84 5.98-3.205 12.098-3.205 6.117 0 11.511 1.365 12.097 3.205z" fill="#F8C992"/><path d="M63.32 81.25c0 2.544 7.076 4.607 15.805 4.607 8.73 0 15.805-2.063 15.805-4.607v5.04c0 2.544-7.076 4.607-15.805 4.607S63.32 88.834 63.32 86.29v-5.04z" fill="#F8C992"/><path d="M79.275 90.9v-5.04h-.309v5.04h.31zm-.961-5.046c-.104-.001-.206-.004-.31-.006v5.04c.104.002.206.005.31.006v-5.04zm15.256-2.729a7.101 7.101 0 01-.31.19v5.04c.108-.062.21-.126.31-.19v-5.04zm-.963.531a9.81 9.81 0 01-.308.14v5.04c.105-.046.209-.092.308-.14v-5.04zm-15.255 2.18a44.114 44.114 0 01-.31-.012v5.04l.31.011v-5.04zm-.962-.046c-.103-.006-.207-.01-.309-.017v5.04l.309.016v-5.04zm-.962-.058c-.103-.007-.206-.013-.308-.021v5.04l.308.022v-5.04zm-.961-.073l-.31-.03v5.04l.31.03v-5.04zm-1.924-.219l-.309-.042v5.04c.102.015.206.028.309.042v-5.04zm-8.656 2.076c.093.098.196.195.31.29v-5.04a3.569 3.569 0 01-.31-.29v5.04zm9.618-1.953a34.982 34.982 0 01-.31-.036v5.04l.31.036v-5.04zm-1.923-.257l-.31-.052v5.04l.31.052v-5.04zm-1.924-.364l-.309-.07v5.039c.103.023.204.048.309.07v-5.04zm-1.924-.5c-.103-.031-.208-.062-.309-.094v5.04l.31.094v-5.04zm27.08-9.777c1.11 2.686-5.848 5.158-15.693 5.158-9.845 0-16.804-2.472-15.694-5.158.973-2.352 7.953-4.056 15.694-4.056 7.74 0 14.72 1.704 15.693 4.056z" fill="#333"/><path d="M94.519 74.427c1.067 2.496-5.763 4.788-15.398 4.788s-16.466-2.292-15.398-4.788c.937-2.192 7.787-3.783 15.398-3.783 7.61 0 14.46 1.591 15.398 3.783z" fill="#333"/><path d="M91.546 74.447c.686 2.091-4.845 3.964-12.425 3.964-7.58 0-13.11-1.873-12.425-3.965.618-1.883 6.157-3.278 12.425-3.278 6.268 0 11.807 1.395 12.425 3.278z" fill="#333"/><path d="M91.218 74.513c.65 2.037-4.737 3.857-12.097 3.857-7.36 0-12.747-1.82-12.098-3.857.587-1.839 5.98-3.204 12.098-3.204 6.117 0 11.511 1.365 12.097 3.204z" fill="#F8C992"/><path d="M63.32 75.219c0 2.544 7.076 4.607 15.805 4.607 8.73 0 15.805-2.063 15.805-4.607v5.04c0 2.544-7.076 4.606-15.805 4.606S63.32 82.803 63.32 80.26v-5.04z" fill="#F8C992"/><path d="M79.275 84.868v-5.04l-.15.001h-.158v5.039l.158.001.15-.001zm-.961-5.045c-.104-.001-.206-.004-.31-.007v5.04c.104.002.206.006.31.007v-5.04zm15.256-2.729a7.101 7.101 0 01-.31.19v5.04c.108-.062.211-.126.31-.19v-5.04zm-.962.531c-.1.047-.204.094-.31.14v5.04c.106-.046.21-.093.31-.14v-5.04zm-15.256 2.18a44.114 44.114 0 01-.31-.012v5.04l.31.011v-5.04zm-.962-.047l-.309-.016v5.04l.309.016v-5.04zm-.962-.057l-.308-.021v5.04l.308.021v-5.04zm-.961-.073l-.31-.03v5.04l.31.03v-5.04zm-1.924-.219c-.103-.014-.207-.027-.309-.042v5.04l.309.041v-5.04zm-8.656 2.076c.093.098.196.195.31.29v-5.04a3.57 3.57 0 01-.31-.29v5.04zm9.618-1.953l-.309-.036v5.04l.309.035v-5.04zm-1.923-.258c-.105-.016-.206-.034-.31-.051v5.04c.104.017.205.035.31.051v-5.04zm-1.924-.364c-.105-.022-.206-.047-.309-.07v5.04l.309.07v-5.04zm-1.924-.5c-.103-.03-.208-.061-.309-.094v5.04c.1.032.206.063.31.095v-5.04zm27.08-9.768c1.11 2.685-5.848 5.158-15.693 5.158-9.845 0-16.804-2.473-15.694-5.158.973-2.353 7.953-4.056 15.694-4.056 7.74 0 14.72 1.703 15.693 4.056z" fill="#333"/><path d="M94.519 68.403c1.067 2.496-5.763 4.789-15.398 4.789s-16.466-2.293-15.398-4.789c.937-2.192 7.787-3.782 15.398-3.782 7.61 0 14.46 1.59 15.398 3.782z" fill="#333"/><path d="M91.546 68.423c.686 2.092-4.845 3.965-12.425 3.965-7.58 0-13.11-1.873-12.425-3.965.618-1.883 6.157-3.279 12.425-3.279 6.268 0 11.807 1.395 12.425 3.279z" fill="#333"/><path d="M91.218 68.49c.65 2.037-4.737 3.857-12.097 3.857-7.36 0-12.747-1.82-12.098-3.857.587-1.84 5.98-3.205 12.098-3.205 6.117 0 11.511 1.365 12.097 3.205z" fill="#F8C992"/><path d="M63.32 69.195c0 2.545 7.076 4.607 15.805 4.607 8.73 0 15.805-2.063 15.805-4.607v5.04c0 2.545-7.076 4.607-15.805 4.607S63.32 76.78 63.32 74.235v-5.04z" fill="#F8C992"/><path d="M79.275 78.837v-5.04h-.309v5.04h.31zm-.961-5.045l-.31-.007v5.04l.31.007v-5.04zm15.256-2.729a7.101 7.101 0 01-.31.19v5.04c.108-.063.21-.126.31-.19v-5.04zm-.963.531c-.1.047-.203.094-.308.14v5.04c.105-.046.209-.093.308-.14v-5.04zm-15.255 2.179a44.114 44.114 0 01-.31-.011v5.04l.31.011v-5.04zm-.962-.046l-.309-.016v5.04l.309.016v-5.04zm-.962-.057l-.308-.022v5.04l.308.022v-5.04zm-.961-.074l-.31-.03v5.04l.31.03v-5.04zm-1.924-.219l-.309-.041v5.04l.309.041v-5.04zm-8.656 2.077a3.8 3.8 0 00.31.29v-5.04a3.569 3.569 0 01-.31-.29v5.04zm9.618-1.954a34.982 34.982 0 01-.31-.035v5.04l.31.035V73.5zm-1.923-.257c-.105-.016-.206-.034-.31-.052v5.04l.31.052v-5.04zm-1.924-.363c-.105-.023-.206-.048-.309-.071v5.04l.309.07v-5.04zm-1.924-.5l-.309-.095v5.04c.1.032.206.063.31.094v-5.04zm27.08-9.762c1.11 2.686-5.848 5.158-15.693 5.158-9.845 0-16.804-2.472-15.694-5.158.973-2.352 7.953-4.056 15.694-4.056 7.74 0 14.72 1.704 15.693 4.056z" fill="#333"/><path d="M94.519 62.38c1.067 2.496-5.763 4.788-15.398 4.788s-16.466-2.292-15.398-4.788c.937-2.192 7.787-3.782 15.398-3.782 7.61 0 14.46 1.59 15.398 3.782z" fill="#333"/><path d="M91.546 62.4c.686 2.091-4.845 3.965-12.425 3.965-7.58 0-13.11-1.873-12.425-3.965.618-1.884 6.157-3.279 12.425-3.279 6.268 0 11.807 1.395 12.425 3.279z" fill="#333"/><path d="M91.218 62.467c.65 2.037-4.737 3.856-12.097 3.856-7.36 0-12.747-1.819-12.098-3.856.587-1.84 5.98-3.205 12.098-3.205 6.117 0 11.511 1.365 12.097 3.205z" fill="#F8C992"/><path d="M63.32 63.164c0 2.545 7.076 4.607 15.805 4.607 8.73 0 15.805-2.063 15.805-4.607v5.04c0 2.544-7.076 4.607-15.805 4.607S63.32 70.748 63.32 68.204v-5.04z" fill="#F8C992"/><path d="M79.275 72.813v-5.04l-.15.002-.159-.002v5.04l.16.001h.15zm-.961-5.045c-.104-.001-.206-.004-.31-.006v5.04c.104.002.206.005.31.006v-5.04zM93.57 65.04a6.82 6.82 0 01-.31.19v5.04c.108-.063.21-.127.31-.191v-5.04zm-.963.53a9.81 9.81 0 01-.308.14v5.04c.105-.046.209-.092.308-.14v-5.04zm-15.255 2.18a44.114 44.114 0 01-.31-.012v5.04l.31.012v-5.04zm-.962-.046l-.309-.016v5.04l.309.016v-5.04zm-.962-.057l-.308-.022v5.04l.308.021v-5.04zm-.961-.074l-.31-.03v5.04l.31.03v-5.04zm-1.924-.219l-.309-.041v5.04l.309.04v-5.04zm-8.656 2.076c.093.098.196.195.31.29v-5.04a3.57 3.57 0 01-.31-.29v5.04zm9.618-1.953a39.213 39.213 0 01-.31-.036v5.04l.31.036v-5.04zm-1.923-.257l-.31-.052v5.04l.31.052v-5.04zm-1.924-.364l-.309-.07v5.039c.103.023.204.048.309.07v-5.04zm-1.924-.5c-.103-.031-.208-.062-.309-.094v5.04c.1.032.206.063.31.094v-5.04zm27.08-9.773c1.11 2.686-5.848 5.159-15.693 5.159-9.845 0-16.804-2.473-15.694-5.159.973-2.352 7.953-4.056 15.694-4.056 7.74 0 14.72 1.703 15.693 4.056z" fill="#333"/><path d="M94.519 56.345c1.067 2.496-5.763 4.788-15.398 4.788s-16.466-2.292-15.398-4.788c.937-2.192 7.787-3.782 15.398-3.782 7.61 0 14.46 1.59 15.398 3.782z" fill="#333"/><path d="M91.546 56.364c.686 2.092-4.845 3.965-12.425 3.965-7.58 0-13.11-1.873-12.425-3.965.618-1.883 6.157-3.278 12.425-3.278 6.268 0 11.807 1.395 12.425 3.278z" fill="#333"/><path d="M91.218 56.431c.65 2.038-4.737 3.857-12.097 3.857-7.36 0-12.747-1.82-12.098-3.856.587-1.84 5.98-3.205 12.098-3.205 6.117 0 11.511 1.365 12.097 3.205z" fill="#F8C992"/><path d="M63.32 57.133c0 2.544 7.076 4.607 15.805 4.607 8.73 0 15.805-2.063 15.805-4.607v5.04c0 2.544-7.076 4.607-15.805 4.607S63.32 64.717 63.32 62.173v-5.04z" fill="#F8C992"/><path d="M79.275 66.778v-5.04l-.15.001h-.159v5.04h.31zm-.961-5.045c-.104-.001-.206-.004-.31-.006v5.04c.104.002.206.005.31.006v-5.04zm15.256-2.729a7.101 7.101 0 01-.31.19v5.04c.108-.062.21-.126.31-.19v-5.04zm-.963.531a9.81 9.81 0 01-.308.14v5.04c.105-.046.209-.093.308-.14v-5.04zm-15.255 2.179l-.31-.01v5.039l.31.011v-5.04zm-.962-.045c-.103-.006-.207-.01-.309-.017v5.04l.309.016v-5.04zm-.962-.057l-.308-.022v5.04l.308.021v-5.04zm-.961-.074l-.31-.03v5.04l.31.03v-5.04zm-1.924-.219c-.103-.014-.207-.027-.309-.042v5.04c.102.015.206.028.309.041v-5.04zm-8.656 2.076c.093.098.196.195.31.29v-5.04a3.569 3.569 0 01-.31-.29v5.04zm9.618-1.953a34.982 34.982 0 01-.31-.036v5.04l.31.036v-5.04zm-1.923-.257l-.31-.052v5.04c.104.017.205.035.31.051v-5.04zm-1.924-.365c-.105-.022-.206-.046-.309-.07v5.04c.103.023.204.048.309.07v-5.04zm-1.924-.499c-.103-.031-.208-.062-.309-.094v5.04l.31.094v-5.04zm27.08-9.765c1.11 2.685-5.848 5.158-15.693 5.158-9.845 0-16.804-2.473-15.694-5.158.973-2.353 7.953-4.056 15.694-4.056 7.74 0 14.72 1.703 15.693 4.056z" fill="#333"/><path d="M94.519 50.317c1.067 2.496-5.763 4.789-15.398 4.789s-16.466-2.293-15.398-4.789c.937-2.192 7.787-3.782 15.398-3.782 7.61 0 14.46 1.59 15.398 3.782z" fill="#FF8A00"/><path d="M91.703 50.478c.686 2.091-4.845 3.965-12.425 3.965-7.58 0-13.11-1.874-12.425-3.965.618-1.884 6.157-3.279 12.425-3.279 6.268 0 11.807 1.395 12.425 3.279z" fill="#F9E4CE"/><path d="M91.546 50.337c.686 2.092-4.845 3.965-12.425 3.965-7.58 0-13.11-1.873-12.425-3.965.618-1.884 6.157-3.278 12.425-3.278 6.268 0 11.807 1.395 12.425 3.278z" fill="#333"/><path d="M91.218 50.404c.65 2.037-4.737 3.857-12.097 3.857-7.36 0-12.747-1.82-12.098-3.857.587-1.84 5.98-3.205 12.098-3.205 6.117 0 11.511 1.366 12.097 3.206z" fill="#F8C992"/><path d="M91.218 50.403c-.081-.256-.26-.503-.517-.739.168.185.289.376.352.573.65 2.038-4.738 3.857-12.098 3.857-5.599 0-10.052-1.053-11.579-2.453 1.346 1.482 5.927 2.619 11.745 2.619 7.36 0 12.747-1.82 12.097-3.857z" fill="#F9E4CE"/><path d="M63.32 51.105c0 2.545 7.076 4.607 15.805 4.607 8.73 0 15.805-2.062 15.805-4.607v5.04c0 2.545-7.076 4.607-15.805 4.607S63.32 58.69 63.32 56.145v-5.04z" fill="#F8C992"/><path d="M79.275 60.758v-5.04l-.15.002-.159-.001v5.04h.31zm-.961-5.044l-.31-.007v5.04l.31.007v-5.04zm15.256-2.73a7.2 7.2 0 01-.31.191v5.04c.108-.063.21-.126.31-.19v-5.04zm-.963.532c-.1.047-.203.094-.308.14v5.04c.105-.047.209-.093.308-.14v-5.04zm-15.255 2.179l-.31-.011v5.04c.104.003.206.008.31.01v-5.04zm-.962-.046l-.309-.016v5.04l.309.016v-5.04zm-.962-.057l-.308-.022v5.04l.308.022v-5.04zm-.961-.074c-.104-.009-.206-.02-.31-.03v5.04l.31.03v-5.04zm-1.924-.218l-.309-.042v5.04l.309.041V55.3zm-8.656 2.076a3.8 3.8 0 00.31.29v-5.04a3.57 3.57 0 01-.31-.29v5.04zm9.618-1.954a39.213 39.213 0 01-.31-.035v5.04l.31.035v-5.04zm-1.923-.257l-.31-.052v5.04l.31.052v-5.04zm-1.924-.364l-.309-.07v5.04l.309.07v-5.04zm-1.924-.5c-.103-.03-.208-.062-.309-.094v5.04c.1.032.206.063.31.094v-5.04zM120.4 86.403c1.11 2.686-5.848 5.159-15.694 5.159-9.845 0-16.803-2.473-15.693-5.159.973-2.352 7.952-4.055 15.693-4.055 7.742 0 14.721 1.703 15.694 4.055z" fill="#333"/><path d="M120.104 86.165c1.068 2.496-5.762 4.788-15.398 4.788-9.635 0-16.465-2.292-15.398-4.788.938-2.192 7.788-3.782 15.398-3.782 7.611 0 14.461 1.59 15.398 3.782z" fill="#333"/><path d="M117.131 86.185c.686 2.091-4.844 3.965-12.425 3.965-7.58 0-13.11-1.873-12.424-3.965.617-1.884 6.156-3.279 12.424-3.279 6.269 0 11.807 1.395 12.425 3.279z" fill="#333"/><path d="M116.804 86.252c.649 2.037-4.738 3.856-12.098 3.856s-12.747-1.819-12.097-3.856c.586-1.84 5.98-3.205 12.097-3.205 6.118 0 11.512 1.365 12.098 3.205z" fill="#F8C992"/><path d="M88.906 86.95c0 2.544 7.076 4.606 15.805 4.606s15.805-2.063 15.805-4.607v5.04c0 2.545-7.076 4.607-15.805 4.607-8.73 0-15.805-2.063-15.805-4.607v-5.04z" fill="#F8C992"/><path d="M104.861 96.598v-5.04l-.15.002-.16-.001v5.04h.31zm-.962-5.044l-.309-.007v5.04l.309.006v-5.04zm15.256-2.73a6.732 6.732 0 01-.309.191v5.04a7.2 7.2 0 00.309-.191v-5.04zm-.962.532c-.1.047-.203.094-.309.14v5.04c.106-.047.209-.093.309-.14v-5.04zm-15.256 2.179a45.565 45.565 0 01-.309-.012v5.04l.309.011v-5.039zm-.961-.046l-.309-.016v5.04l.309.016v-5.04zm-.962-.057l-.309-.022v5.04l.309.022v-5.04zm-.962-.074l-.309-.03v5.04l.309.03v-5.04zm-1.923-.218l-.31-.042v5.04l.31.041v-5.04zm-8.656 2.076c.092.098.195.194.309.29v-5.04a3.613 3.613 0 01-.309-.29v5.04zm9.617-1.954a39.225 39.225 0 01-.308-.035v5.04l.308.035v-5.04zm-1.923-.257l-.309-.052v5.04l.309.052v-5.04zm-1.923-.364l-.31-.07v5.04l.31.07v-5.04zm-1.924-.496c-.104-.031-.209-.062-.309-.094v5.04c.1.032.205.063.309.094v-5.04zm24.966-9.777c1.111 2.686-5.848 5.158-15.693 5.158-9.845 0-16.804-2.472-15.694-5.158.973-2.352 7.953-4.055 15.694-4.055 7.741 0 14.721 1.703 15.693 4.055z" fill="#333"/><path d="M117.991 80.13c1.068 2.496-5.763 4.788-15.398 4.788s-16.466-2.292-15.398-4.788c.938-2.192 7.788-3.782 15.398-3.782 7.611 0 14.46 1.59 15.398 3.782z" fill="#333"/><path d="M115.018 80.15c.686 2.091-4.845 3.965-12.425 3.965-7.58 0-13.11-1.873-12.425-3.965.618-1.884 6.157-3.279 12.425-3.279 6.268 0 11.807 1.395 12.425 3.279z" fill="#333"/><path d="M114.691 80.217c.649 2.037-4.738 3.856-12.098 3.856s-12.747-1.82-12.097-3.856c.586-1.84 5.98-3.205 12.097-3.205 6.117 0 11.512 1.365 12.098 3.205z" fill="#F8C992"/><path d="M86.793 80.918c0 2.544 7.076 4.607 15.805 4.607s15.805-2.063 15.805-4.607v5.04c0 2.544-7.076 4.607-15.805 4.607-8.73 0-15.805-2.063-15.805-4.607v-5.04z" fill="#F8C992"/><path d="M102.748 90.563v-5.04l-.15.002-.16-.002v5.04l.16.001h.15zm-.962-5.045c-.104-.001-.206-.004-.309-.006v5.04l.309.007v-5.04zm15.255-2.728a7.379 7.379 0 01-.308.19v5.04a6.52 6.52 0 00.308-.191v-5.04zm-.961.53c-.1.048-.204.094-.309.14v5.04c.106-.046.209-.092.309-.14v-5.04zm-15.256 2.18l-.309-.012v5.04l.309.012V85.5zm-.962-.046l-.309-.016v5.04l.31.016v-5.04zm-.962-.057l-.308-.022v5.04l.309.021v-5.04zm-.961-.074l-.31-.03v5.04l.31.03v-5.04zm-1.924-.219l-.309-.041v5.04l.31.04v-5.039zM87.36 87.18c.092.098.195.195.309.29v-5.04a3.614 3.614 0 01-.31-.29v5.04zm9.617-1.953a61.543 61.543 0 01-.309-.036v5.04l.309.036v-5.04zm-1.923-.257l-.31-.052v5.04l.31.052v-5.04zm-1.924-.364l-.309-.07v5.039c.103.023.204.048.31.07v-5.04zm-1.923-.496c-.104-.031-.209-.062-.31-.094v5.04c.101.032.206.063.31.094v-5.04zm30.249-9.418c1.111 2.686-5.848 5.159-15.693 5.159-9.845 0-16.803-2.473-15.693-5.159.972-2.352 7.952-4.055 15.693-4.055s14.721 1.703 15.693 4.055z" fill="#333"/><path d="M121.161 74.454c1.067 2.496-5.763 4.788-15.398 4.788s-16.466-2.292-15.398-4.788c.938-2.192 7.788-3.782 15.398-3.782 7.611 0 14.46 1.59 15.398 3.782z" fill="#FF8A00"/><path d="M118.345 74.614c.686 2.092-4.844 3.965-12.425 3.965-7.58 0-13.11-1.873-12.424-3.965.617-1.883 6.156-3.278 12.424-3.278 6.269 0 11.808 1.395 12.425 3.278z" fill="#F9E4CE"/><path d="M118.188 74.474c.686 2.091-4.845 3.965-12.425 3.965-7.58 0-13.11-1.873-12.424-3.965.617-1.884 6.156-3.279 12.424-3.279s11.807 1.395 12.425 3.279z" fill="#333"/><path d="M117.861 74.54c.649 2.038-4.738 3.857-12.098 3.857s-12.747-1.82-12.097-3.856c.586-1.84 5.98-3.205 12.097-3.205 6.118 0 11.512 1.365 12.098 3.205z" fill="#F8C992"/><path d="M117.861 74.54c-.082-.257-.26-.504-.518-.74a1.6 1.6 0 01.352.574c.65 2.037-4.737 3.857-12.097 3.857-5.599 0-10.052-1.053-11.58-2.454 1.346 1.482 5.928 2.62 11.745 2.62 7.36-.001 12.747-1.82 12.098-3.857z" fill="#F9E4CE"/><path d="M89.963 75.242c0 2.545 7.076 4.607 15.805 4.607s15.805-2.063 15.805-4.607v5.04c0 2.544-7.076 4.607-15.805 4.607-8.73 0-15.805-2.063-15.805-4.607v-5.04z" fill="#F8C992"/><path d="M105.918 84.891v-5.04l-.15.002-.16-.001v5.04h.31zm-.962-5.044l-.309-.007v5.04c.103.002.205.005.309.006v-5.04zm15.256-2.73a8.28 8.28 0 01-.309.191v5.04a7.12 7.12 0 00.309-.191v-5.04zm-.962.531c-.1.048-.204.095-.309.141v5.04c.105-.046.209-.093.309-.14v-5.04zm-15.256 2.18a45.563 45.563 0 01-.309-.012v5.04l.309.012v-5.04zm-.962-.046l-.309-.016v5.04l.309.016v-5.04zm-.961-.057l-.309-.022v5.04c.102.008.206.014.309.021v-5.04zm-.962-.074l-.309-.03v5.04l.309.03v-5.04zm-1.924-.219l-.309-.041v5.04l.31.04v-5.039zm-8.655 2.076c.092.098.195.195.309.29v-5.04a3.63 3.63 0 01-.31-.29v5.04zm9.617-1.953l-.309-.036v5.04l.309.036v-5.04zm-1.923-.257l-.31-.052v5.04l.31.052v-5.04zm-1.924-.364l-.309-.07v5.04l.31.07v-5.04zm-1.924-.496c-.103-.031-.208-.062-.308-.094v5.04c.1.032.205.063.308.094v-5.04z" fill="#333"/></svg>