<svg width="134" height="100" fill="none" xmlns="http://www.w3.org/2000/svg"><circle cx="25.684" cy="25" r="25" fill="#FF8A00"/><path fill-rule="evenodd" clip-rule="evenodd" d="M48.546 15.818c-.007-1.127-.266-1.78-1.658-1.8-2.31-.032-10.742-.014-14.408-.004-1.06.002-1.728.58-1.739 1.56-.053 4.828-.11 17.589.053 21.869.033.864.04 1.931 1.528 1.992 2.237.09 10.283.14 14.146.017 2.109-.068 2.07-.946 2.101-1.947.118-3.83.008-16.651-.023-21.687z" fill="#fff"/><path fill-rule="evenodd" clip-rule="evenodd" d="M52.39 28.148c-.214.507-.508 1.62-.6 5.123-.044 1.7.605 4.637 1.09 5.415.65 1.044 1.841.656 1.866.853.167 1.326-.236 3.602-.181 3.668.165.199 2.13.531 3.953.412 1.699-.11 3.383-.45 3.352-.569-.021-.08-.311-5.435.053-6.945.012-.048.814-.146 1.285-.392.989-.516 1.695-1.947 1.332-3.015-.233-.686-.555-1.173-1.577-1.268-.581-.053-1.16.23-1.15.132.002-.023-.016-1-.086-1.305-.33-1.433-.999-1.66-2.249-1.754-2.154-.16-4.606 1.018-7.087-.355z" fill="#FFBA9F"/><path fill-rule="evenodd" clip-rule="evenodd" d="M28.824 32.826c-1.05-.249-1.032.293-1.233 1.2-.123.553-1.305 6.1-1.626 7.891-.095.533-.22 1.18.136 1.666.362.495 1.389.655 1.939.773.418.09 1.404.353 2.186.483 1.214.202 1.325-.536 1.446-1.106.415-1.95 1.09-4.958 1.492-6.91.137-.663.183-.9.333-1.62.235-1.121-.643-1.286-1.233-1.468-.901-.277-2.313-.642-3.44-.909z" fill="#333"/><path fill-rule="evenodd" clip-rule="evenodd" d="M32.343 34.177c.168.056.235.187.256.346.026.194-.013.427-.054.645-.199 1.042-1.354 6.879-1.818 8.586-.062.226-.164.403-.292.51a.391.391 0 01-.373.092.119.119 0 10-.068.229c.396.118.803-.183.962-.768.466-1.711 1.623-7.56 1.822-8.605.047-.243.085-.503.057-.72-.033-.253-.15-.453-.417-.54a.119.119 0 10-.075.225zm-3.623-.673a.48.48 0 00.017.961.48.48 0 00-.018-.961z" fill="#585858"/><path fill-rule="evenodd" clip-rule="evenodd" d="M43.907 76.304c-.734 1.715-1.141 22.561-.852 22.758 1.176.796 11.737 1.112 12.962.47.123-.064.498-8.062.604-8.047.213.029 1.157 7.826 1.328 8.023.126.145 4.343.579 8.117.386 2.571-.133 4.954-.723 5.628-1.244.18-.139-2.72-22.442-2.82-22.542-.114-.115-19.547 1.447-24.967.196z" fill="#F8C992"/><path fill-rule="evenodd" clip-rule="evenodd" d="M76.02 87.484c-.058-.708 5.436-1.88 5.547-1.136.532 3.572.692 7.405.032 10.677-.16.795-.984 3.148-2.113 2.908-.308-.066-.487-.299-.495-.416-.006-.082-.53.252-.893-.229-.208-.274.055-.683.037-.752-.014-.054-.401-.109-.505-.412-.333-.968 1.048-1.943 1.628-3.446.322-.836.118-2.088-.402-2.08-.434.007-.582 1.178-.755 2.102-.23 1.223-.536 2.283-1.379 1.915a.44.44 0 01-.262-.377c-.041-.613.039-1.498-.033-2.259-.083-.883-.489-1.735-.543-2.668-.112-1.925.302-1.807.136-3.827zM33.092 36.81c.239.004.643-.049.795.23.186.339-.12.603-.556.778-1.295.52-3.525 1.517-3.474 1.57.016.017 3.42-.579 4.688-.51.344.018.944.074.952.533.009.55-.792.672-.795.694-.008.048.504.05.54.588.03.464-.496.636-.967.909-.046.027.238.195.224.495-.017.372-.334.526-.538.676-.36.262-2.16.964-2.154 1.036.02.222.108.843-.05 1.304-.293.85-.775 1.044-.764 1.089.049.199.518 2.234.518 2.234l-5.452 1.28s-.316-2.687-.423-5.291c-.069-1.664.039-4.42.826-5.23 1.145-1.18 5.235-2.411 6.63-2.385z" fill="#FFBA9F"/><path fill-rule="evenodd" clip-rule="evenodd" d="M46.43 91.305c-.02 1.189-.25 6.956-.25 8.145a.119.119 0 00.238 0c0-1.188.23-6.953.25-8.142a.119.119 0 10-.238-.003zm20.597.255c.052.307 1.151 6.608 1.326 7.875a.12.12 0 00.236-.032c-.175-1.27-1.276-7.575-1.327-7.882a.119.119 0 00-.235.04z" fill="#333"/><path fill-rule="evenodd" clip-rule="evenodd" d="M54.2 43.12c.205.054 1.789.326 2.379.355 4.502.228 5.443-.869 5.46-.633.215 2.986.715 34.392.487 34.434-2.734.502-11.394.35-11.851-.116-.412-.418 2.096-25.804 3.525-34.04z" fill="#fff"/><path fill-rule="evenodd" clip-rule="evenodd" d="M61.782 41.234c.048 1.245.316 9.141.394 12.254.207 8.289-.215 37.707-.18 37.895.042.226 8.103.448 8.932-.34.136-.128.323-6.93.32-12.468-.002-5.266-.052-11.85.067-11.866.12-.017 3.372 20.998 3.498 21.596.099.467 6.935-.565 6.947-.737.04-.612-.564-7.937-.885-11.777-.943-11.266-1.917-25.933-10.42-31.322-1.315-.834-5.527-2.726-8.673-3.235zm-7.024.016c-.09 1.579-1.4 11.555-1.88 15.427-1.514 12.189-2.52 34.53-2.563 34.62-.195.415-7.803-.38-9.048-.594-.706-.122-.676-27.448-.9-27.768-.05-.07-2.373 2.058-3.133 2.621-1.924 1.424-6.514 5.203-8.84 2.658-1.602-1.751-3.6-18.63-3.377-18.753.657-.363 6.212-2.258 6.22-2.217 1.061 5.595 1.932 9.462 2.158 9.521.1.026 4.066-5.046 5.152-6.213 4.105-4.408 9.446-8.254 16.212-9.302zm6.845-7.592c.645-.09 1.197-.176 1.574-.384a.119.119 0 10-.114-.209c-.358.197-.882.272-1.493.357a.119.119 0 10.033.236z" fill="#333"/><path fill-rule="evenodd" clip-rule="evenodd" d="M62.285 33.452c.004.365.015.627-.283.873a.119.119 0 00.15.183c.366-.3.375-.612.371-1.058a.119.119 0 00-.238.002zm-36.121 6.296c-.002.571.238.84.45 1.077.116.13.226.244.253.418.026.166-.012.337-.038.507-.03.203-.044.405.036.598.077.184.22.298.357.416.105.09.208.184.24.349.05.257.006.546.026.805.025.306.128.575.49.74a.12.12 0 00.099-.217c-.264-.12-.334-.32-.352-.541-.02-.269.023-.568-.03-.833-.044-.225-.174-.36-.318-.483-.11-.095-.231-.18-.292-.327-.064-.152-.044-.311-.02-.472.029-.194.067-.39.037-.58-.035-.22-.163-.374-.31-.539-.182-.202-.392-.43-.39-.918a.119.119 0 00-.238 0zm36.018 5.532c.923-.834 1.479-2.206 1.725-3.094a.119.119 0 00-.229-.064c-.237.855-.767 2.178-1.655 2.982a.119.119 0 10.16.176zm-5.804 32.553c-.003.331-.058 3.428-.09 4.401-.103 3.022-.015 5.978.185 8.988a.119.119 0 00.238-.016c-.2-3.002-.287-5.95-.186-8.964.033-.974.088-4.075.091-4.407a.12.12 0 00-.238-.002z" fill="#333"/><path fill-rule="evenodd" clip-rule="evenodd" d="M56.577 88.113c.953-.405 1.785-1.689 2.07-2.624.55-1.811.449-5.694.449-7.745a.119.119 0 00-.238 0c0 2.033.106 5.88-.44 7.675-.266.88-1.038 2.094-1.934 2.475a.119.119 0 00.093.219zm23.43 6.657c.014.29.021.582.02.873-.004 1.111-.4 2.602-.99 3.573a.119.119 0 10.203.124c.61-1.005 1.02-2.547 1.025-3.696 0-.295-.006-.591-.02-.886a.12.12 0 00-.238.011z" fill="#333"/><path fill-rule="evenodd" clip-rule="evenodd" d="M78.38 98.505c.86-.803 1.533-1.891 1.863-2.851a.119.119 0 10-.225-.078c-.319.928-.97 1.979-1.8 2.755a.119.119 0 10.162.174z" fill="#333"/><path fill-rule="evenodd" clip-rule="evenodd" d="M55.472 34.599a2.137 2.137 0 01-.544.202.536.536 0 01-.31-.016c-.136-.057-.196-.197-.227-.357-.055-.29-.005-.648.023-.86a.119.119 0 10-.236-.031c-.03.23-.08.62-.02.936.046.244.16.444.369.532.262.11.587.004.835-.093a1.73 1.73 0 00.228-.107.12.12 0 00-.118-.206zm1.174.334a2.619 2.619 0 01-.244.608c-.345.579-.99.821-1.617.95a.12.12 0 00.048.233c.69-.142 1.394-.424 1.773-1.061.124-.208.2-.432.268-.663a.119.119 0 10-.228-.067zm1.398 3.779c-.412.279-1.163.602-3.01.67a.12.12 0 00.009.239c1.925-.072 2.704-.421 3.135-.712a.119.119 0 10-.133-.197z" fill="#292929"/><path fill-rule="evenodd" clip-rule="evenodd" d="M56.386 30.444c.316.037.618.124.922.241.308.119.664.312.824.611.101.191.106.431-.142.5-.247.067-.552-.06-.789-.113-.475-.11-1.006-.107-1.462-.28a.854.854 0 01-.234-.126c-.19-.153-.216-.309-.181-.476.067-.322.534-.42 1.062-.357zm-3.5.121a3.2 3.2 0 00-.804.334c-.265.15-.564.377-.675.691-.071.2-.05.44.181.482.23.042.49-.114.698-.192.417-.157.895-.208 1.287-.427a.758.758 0 00.197-.15.465.465 0 00.111-.491c-.095-.314-.526-.363-.995-.247zm3.256 1.564c-.238.003-.43.253-.425.558.004.305.2.55.44.548.238-.003.429-.253.425-.559-.004-.305-.2-.55-.44-.547zm-3.186.285c-.238.003-.43.253-.425.558.004.306.2.55.44.548.238-.003.429-.253.425-.558-.004-.306-.2-.55-.44-.548zm-23.753 8.885c.132-.029 1.385-.298 1.769-.369 1.201-.221 2.412-.428 3.606-.699a.12.12 0 00-.053-.232c-1.19.27-2.398.476-3.596.697-.385.071-1.644.342-1.776.37a.119.119 0 00.05.233zm.34 1.711a50.345 50.345 0 001.535-.313c.993-.23 2.175-.642 3.107-.97a.119.119 0 00-.08-.224c-.924.325-2.096.734-3.081.962a50.56 50.56 0 01-1.524.31.119.119 0 00.043.234zm.295 1.433c.145-.031.478-.113.622-.15.415-.104.816-.252 1.2-.382a.12.12 0 00-.076-.225c-.379.127-.773.274-1.182.377-.143.036-.47.116-.614.147a.119.119 0 00.05.233zm.197 2.285c.478-.08.65-.18.875-.33a.119.119 0 00-.133-.198c-.2.134-.355.222-.78.294a.12.12 0 00.038.234zm-3.005 4.244c.47 2.619 1.24 9.001 1.933 11.576.148.55.312 1.264.612 1.86.208.414.482.772.855.99.503.295 1.07.33 1.641.22.826-.16 1.658-.626 2.289-1.004 2.773-1.665 5.318-3.916 7.42-6.369a.119.119 0 00-.18-.155c-2.086 2.434-4.61 4.668-7.363 6.32-.61.366-1.412.82-2.21.974-.514.099-1.024.074-1.477-.191-.334-.196-.576-.52-.763-.892-.292-.581-.45-1.278-.594-1.814-.692-2.571-1.46-8.943-1.928-11.557a.119.119 0 10-.235.042z" fill="#333"/><path fill-rule="evenodd" clip-rule="evenodd" d="M29.433 50.065c.168.962 1.395 6.795 2.004 8.14.213.473.491.718.797.818.304.1.64.056.98-.07.632-.234 1.278-.751 1.727-1.02 1.961-1.174 6.786-5.353 7.409-5.768a.12.12 0 00-.132-.198c-.622.415-5.44 4.59-7.399 5.762-.44.263-1.07.772-1.688 1.001-.285.106-.567.151-.823.067-.254-.083-.477-.296-.654-.69-.605-1.335-1.82-7.128-1.987-8.083a.12.12 0 00-.234.041z" fill="#333"/><path fill-rule="evenodd" clip-rule="evenodd" d="M37.96 51.663c.094.215.182.433.273.65.272.645.544 1.29.81 1.938a71.482 71.482 0 012.125 5.974.119.119 0 00.228-.07 71.776 71.776 0 00-2.133-5.994c-.267-.649-.538-1.295-.81-1.941-.092-.218-.18-.436-.275-.652a.119.119 0 00-.218.095zm-2.753 2.765a397.538 397.538 0 012.618 10.17.12.12 0 00.231-.055 396.664 396.664 0 00-2.62-10.178.119.119 0 10-.23.063zm-1.933 2.618c.009.825.015 1.65.005 2.475-.038 2.927-.171 4.793-.275 8.492a.12.12 0 00.238.007c.103-3.7.237-5.567.275-8.496.01-.827.004-1.654-.005-2.48a.119.119 0 00-.238.002zm-5.776 7.514a62.31 62.31 0 011.137-2.173c1.276-2.31 2.638-4.556 4.287-6.604a.12.12 0 00-.186-.149c-1.656 2.059-3.026 4.316-4.31 6.638a62.61 62.61 0 00-1.14 2.182.119.119 0 10.212.106zm-1.319-7.508c.43-.37.885-.715 1.337-1.058 1.487-1.13 3.058-2.055 4.602-3.085a.119.119 0 00-.132-.198c-1.548 1.032-3.123 1.96-4.614 3.093-.456.347-.914.694-1.348 1.067a.119.119 0 10.155.18zm5.268-7.557a.119.119 0 00.111-.1.112.112 0 00-.035-.105c-.006-.006-.047-.044-.121-.029-.091.02-.554.16-.591.173-.495.17-.984.347-1.473.525-1.449.528-2.64 1-4.026 1.597a.119.119 0 00.094.219 70.898 70.898 0 014.013-1.592c.488-.178.976-.355 1.469-.524.034-.011.515-.151.56-.164zm-.124-.132a.11.11 0 00.027.09.119.119 0 01-.027-.09z" fill="#333"/><path fill-rule="evenodd" clip-rule="evenodd" d="M33.253 57.003a67.22 67.22 0 01-.15.879c-.117.662-.232 1.323-.368 1.982a.12.12 0 00.233.048c.136-.661.251-1.324.37-1.989.036-.208.117-.674.15-.883a.119.119 0 00-.235-.037zm17.119-14.465c-.312 3.412-.822 9.271-1.025 12.18-.78 11.192-1.744 22.982-1.483 34.204a.12.12 0 00.238-.005c-.26-11.216.703-22.998 1.483-34.182.202-2.908.712-8.765 1.024-12.175a.119.119 0 00-.237-.022zm15.363.084a2141.03 2141.03 0 01-.157 12.072c-.2 11.37-.371 23.227-.915 34.614a.12.12 0 00.238.012c.544-11.39.714-23.25.915-34.621.052-2.956.12-8.606.157-12.075a.12.12 0 00-.238-.002zm5.189 8.053c.707 3.395 1.484 7.892 2.066 10.79 1.591 7.927 3.033 16.57 4.553 24.7a.119.119 0 00.234-.043c-1.52-8.132-2.962-16.776-4.553-24.703-.582-2.9-1.36-7.397-2.067-10.793a.119.119 0 10-.233.049zm3.278-2.229c.664 3.405 1.619 8.913 2.164 11.818 1.49 7.947 3.124 17.18 4.54 25.33a.119.119 0 10.235-.04C79.724 77.401 78.09 68.167 76.6 60.22c-.545-2.905-1.5-8.414-2.164-11.82a.119.119 0 00-.234.046zm-28.54-3.577c-.04.385-.142 1.31-.183 1.694-.109 1.012-.225 2.024-.319 3.037-.298 3.23-.534 6.464-.706 9.703-.253 4.76-.449 9.519-.724 14.277-.286 4.942-.349 9.813-.335 14.994a.119.119 0 10.238 0c-.014-5.177.049-10.043.334-14.98.276-4.759.472-9.518.724-14.278.173-3.236.408-6.467.706-9.694.094-1.012.21-2.022.318-3.033.042-.385.144-1.311.184-1.696a.12.12 0 00-.237-.024zm23.826-.703c.001.399.007 1.359.009 1.758.004 1.047.013 2.095.01 3.144-.014 3.344-.063 6.69-.148 10.039-.126 4.924-.284 9.848-.397 14.772-.117 5.11-.375 10.068-.677 15.416a.119.119 0 10.238.013c.302-5.35.56-10.31.677-15.423.113-4.925.27-9.848.397-14.772.085-3.351.134-6.698.147-10.044.004-1.05-.005-2.098-.01-3.147l-.008-1.756a.119.119 0 10-.238 0z" fill="#333"/><path fill-rule="evenodd" clip-rule="evenodd" d="M40.978 84.721c.873.108 2.134.28 3.01.365 1.987.195 4.299.381 6.297.276a.119.119 0 00-.012-.237c-1.988.104-4.286-.082-6.262-.276-.874-.086-2.133-.256-3.004-.364a.119.119 0 10-.03.236zm21.43.689c.872.03 2.133.076 3.008.1 1.983.053 3.812.158 5.434.164a.119.119 0 10.001-.238c-1.62-.006-3.448-.111-5.429-.164-.874-.024-2.134-.07-3.006-.1a.12.12 0 00-.008.238zm11.514-3.619c.867-.103 2.12-.249 2.988-.359 1.969-.25 2.396-.267 4-.508a.119.119 0 00-.035-.235c-1.602.24-2.029.258-3.995.507-.867.11-2.12.256-2.986.36a.119.119 0 10.028.236zm-.559-4.539c.902-.106 2.207-.254 3.111-.366 2.05-.255 2.495-.27 4.165-.52a.119.119 0 00-.035-.236c-1.668.25-2.113.265-4.16.52-.903.112-2.207.26-3.11.365a.119.119 0 00.028.237zm-.679-4.713c.94-.107 2.299-.257 3.24-.372 2.134-.261 2.598-.272 4.337-.532a.12.12 0 00-.035-.235c-1.736.26-2.2.27-4.331.53-.94.116-2.299.265-3.238.372a.12.12 0 00.027.237zm-.73-4.266c.973-.117 2.378-.283 3.352-.407 2.207-.282 2.687-.304 4.486-.575a.119.119 0 00-.035-.235c-1.797.27-2.276.292-4.481.574-.974.124-2.378.29-3.35.407a.119.119 0 00.029.236zM71 63.482c1-.119 2.45-.284 3.453-.41 2.274-.285 2.77-.303 4.623-.582a.119.119 0 10-.035-.235c-1.852.278-2.346.296-4.618.58-1.003.127-2.45.292-3.452.41a.12.12 0 00.028.237zm-.443-4.424c.972-.117 2.378-.283 3.352-.407 2.207-.282 2.687-.304 4.486-.575a.12.12 0 00-.035-.235c-1.798.27-2.277.292-4.482.574-.973.124-2.377.29-3.35.407a.119.119 0 10.03.236zm-.282-4.421c.834-.097 2.04-.231 2.875-.334 1.894-.234 2.306-.245 3.85-.477a.119.119 0 10-.036-.235c-1.54.23-1.952.242-3.843.475-.835.103-2.04.238-2.873.334a.119.119 0 10.027.236zm.874-4.45c.495-.066 1.209-.159 1.704-.227 1.124-.154 1.367-.174 2.283-.313a.119.119 0 10-.035-.236c-.916.14-1.158.16-2.28.313-.495.068-1.21.162-1.703.227a.119.119 0 00.031.236zm-8.604 30.707c.873.03 2.134.076 3.008.1 1.983.053 3.813.158 5.435.164a.119.119 0 000-.238c-1.62-.006-3.447-.11-5.428-.164-.874-.023-2.135-.07-3.007-.1a.119.119 0 00-.008.238zm-.034-4.332c.873.03 2.133.076 3.008.1 1.983.053 3.813.158 5.435.164a.119.119 0 000-.238c-1.62-.006-3.447-.11-5.428-.164-.875-.024-2.135-.07-3.007-.1a.12.12 0 00-.008.238zm-.104-4.183c.873.029 2.133.076 3.008.1 1.983.053 3.813.158 5.435.164a.119.119 0 000-.238c-1.62-.006-3.447-.111-5.428-.165-.875-.023-2.135-.07-3.007-.1a.12.12 0 00-.008.239zm.113-4.192c.872.03 2.133.076 3.008.1 1.982.053 3.812.158 5.434.164a.119.119 0 100-.238c-1.62-.006-3.447-.11-5.428-.164-.875-.024-2.135-.07-3.007-.1a.119.119 0 00-.008.238zm-.05-4.344c.872.03 2.133.077 3.008.1 1.983.053 3.812.159 5.434.165a.119.119 0 00.001-.238c-1.62-.006-3.448-.111-5.43-.165-.873-.023-2.133-.07-3.006-.1a.12.12 0 00-.008.238zm-.174-4.105c.835.03 2.042.076 2.88.1 1.899.053 3.65.158 5.204.164a.119.119 0 000-.238c-1.55-.006-3.3-.11-5.197-.164-.838-.024-2.044-.07-2.879-.1a.119.119 0 00-.008.238zm-.136-4.426c.835.03 2.043.076 2.88.1 1.9.053 3.651.158 5.204.164a.12.12 0 00.001-.238c-1.551-.006-3.301-.11-5.198-.164-.837-.023-2.044-.07-2.879-.1a.119.119 0 10-.008.238zm-.067-4.914c.92.03 2.248.076 3.17.1 2.09.053 4.02.159 5.729.165a.119.119 0 100-.238c-1.708-.006-3.634-.111-5.723-.165-.921-.023-2.25-.07-3.169-.1a.119.119 0 00-.007.238zm-.006-4.324c1.016.03 2.485.076 3.504.1 2.31.053 4.442.159 6.331.165a.119.119 0 10.001-.238c-1.888-.006-4.018-.111-6.326-.165-1.019-.023-2.487-.07-3.503-.1a.12.12 0 00-.007.238zm-21.133 34.07c.904.085 2.21.22 3.116.288 2.057.155 4.449.302 6.516.219a.119.119 0 00-.01-.238c-2.058.083-4.44-.064-6.488-.218-.905-.068-2.209-.203-3.111-.288a.119.119 0 00-.023.237zm.035-4.719c.936.068 2.288.175 3.226.229 2.129.122 4.604.239 6.744.173a.12.12 0 00-.008-.238c-2.133.066-4.6-.051-6.722-.173-.938-.054-2.288-.16-3.223-.228a.119.119 0 10-.017.237zm-.129-4.985c.99.055 2.418.14 3.41.182 2.247.097 4.861.189 7.121.137a.119.119 0 10-.005-.238c-2.256.052-4.864-.04-7.107-.137-.99-.043-2.418-.127-3.406-.18a.12.12 0 00-.012.237zm-.154-4.273c1.042.054 2.55.139 3.595.181 2.371.097 5.128.19 7.512.137a.12.12 0 00-.005-.237c-2.38.052-5.13-.04-7.497-.137-1.045-.043-2.551-.128-3.593-.181a.119.119 0 10-.012.237zm.444-4.57c1.042.054 2.55.139 3.595.181 2.37.097 5.128.19 7.512.137a.12.12 0 00-.006-.238c-2.379.052-5.13-.04-7.497-.137-1.045-.042-2.55-.127-3.592-.18a.12.12 0 00-.012.237zm.814-4.586c1.017.045 2.487.115 3.507.15 2.312.08 5.001.158 7.326.114a.12.12 0 00-.004-.237c-2.321.043-5.005-.034-7.314-.114-1.02-.036-2.488-.106-3.505-.15a.119.119 0 10-.01.237zm.525-4.543c.992.037 2.426.096 3.42.125 2.256.067 4.879.131 7.147.095a.12.12 0 00-.004-.238c-2.264.036-4.883-.028-7.135-.095-.995-.029-2.428-.087-3.42-.124a.119.119 0 10-.008.237zm-.205-4.461c1.087.037 2.657.096 3.747.125 2.47.067 5.344.131 7.828.095a.119.119 0 00-.003-.238c-2.481.036-5.35-.028-7.818-.094-1.09-.03-2.66-.089-3.746-.125a.119.119 0 10-.008.237zm5.479-4.289c.476.01 1.163.025 1.64.033 1.08.017 2.337.034 3.424.024a.119.119 0 00-.002-.237 149.63 149.63 0 01-3.419-.025c-.476-.008-1.163-.023-1.638-.032a.119.119 0 10-.005.237z" fill="#333"/><path fill-rule="evenodd" clip-rule="evenodd" d="M52.19 41.972c.364 1.265 1.082 3.123 1.712 4.174a.119.119 0 00.204-.122c-.622-1.037-1.328-2.87-1.687-4.118a.12.12 0 00-.229.066zM41.131 88.559c2.209.526 7.08.694 9.026.694a.119.119 0 000-.238c-1.934 0-6.776-.165-8.97-.688a.119.119 0 10-.056.232zm.779-40.989c.237 1.633.33 2.84.325 3.834-.015 3.71-.442 7.485-1.806 10.957a.119.119 0 10.221.087c1.375-3.5 1.807-7.303 1.823-11.043.004-1.003-.089-2.221-.327-3.87a.119.119 0 00-.236.035zm20.282 41.735c2.293.221 6.833.235 8.717-.01a.12.12 0 00-.03-.235c-1.873.242-6.385.228-8.664.008a.12.12 0 00-.023.237zm2.598-12.422c-.144-.337-.443-1.097-.546-1.46a1.39 1.39 0 01-.024-.102 7.57 7.57 0 01.332-.166c1.007-.473 3.74-1.688 6.525-3.658a.119.119 0 00-.137-.194c-2.77 1.958-5.487 3.166-6.49 3.637a3.74 3.74 0 00-.4.204.172.172 0 00-.064.075.197.197 0 00-.01.086c.003.04.017.103.04.184.115.407.474 1.308.595 1.58a.116.116 0 00.081.07.146.146 0 00.06.002 1.01 1.01 0 00.162-.05c.602-.221 2.852-1.239 4.492-2.232.713-.432 1.311-.861 1.617-1.218a.119.119 0 10-.18-.155c-.883 1.03-4.277 2.654-5.616 3.223a7.86 7.86 0 01-.437.174zm7.404-30.214c-.459 1.148-1.182 3.22-1.47 4.424-1.247 5.186-.052 10.208.443 15.404a.119.119 0 00.236-.023c-.492-5.169-1.688-10.166-.449-15.326.287-1.194 1.006-3.25 1.461-4.391a.119.119 0 00-.22-.088zm2.622 39.657h-.001a.12.12 0 00-.143.16c.006.013.034.07.117.077.105.01.651-.018.69-.021.5-.035.997-.085 1.494-.138 1.474-.156 3.065-.436 4.503-.743a.119.119 0 10-.05-.233c-1.43.305-3.012.584-4.478.74-.494.052-.99.102-1.486.137l-.647.02zm.083.14l-.002.006.002-.006zm0-.051zM52.4 28.2c-.148-.093-.405-.706-.515-1.025-.511-1.484-.329-2.826 1.21-3.533.77-.354 1.63-.486 2.462-.589 2.153-.264 6.629-.7 8.316 1.063.64.669.938 1.32.974 2.491.01.34-.18.681-.163.728.558 1.626.191 3.802-.277 5.03-.005.012-.11-.493-.967-.834-.607-.24-1.599.165-1.634.08a8.137 8.137 0 01-.233-.844c-.148-.653-.433-1.528-1.052-1.818-2.388-1.12-5.258 1.052-8.122-.75z" fill="#333"/><path fill-rule="evenodd" clip-rule="evenodd" d="M62.274 28.478c.646-.174 1.664-.536 2.262-.835a.119.119 0 00-.107-.213c-.585.293-1.584.648-2.217.819a.119.119 0 00.062.23z" fill="#585858"/><path fill="#464646" d="M32 16h14v1H32zm0 2h11v1H32zm0 2h13v1H32zm0 2h13v1H32zm0 2h15v1H32zm0 2h15v1H32zm0 2h15v1H32zm0 2h14v1H32zm0 2h15v1H32z"/></svg>