<svg width="134" height="109" fill="none" xmlns="http://www.w3.org/2000/svg"><circle cx="25.684" cy="27" r="25" fill="#FF8A00"/><path opacity=".88" d="M107.508 96.754S79.872 7.527 79.433 6.996c4.095 28.427 5.019 32.973.644 86.635 7.688-2.773 20.819-1.87 27.431 3.123z" fill="#fff"/><path d="M79.728 6.995l-.148.001.435 92.773h.148l-.435-92.774z" fill="#333"/><path opacity=".88" d="M77.156 93.23s-20.84.131-27.541.131c13.064-40.809 26.486-78.865 28.16-83.7l-.619 83.568z" fill="#fff"/><path d="M40.452 101.101l-.137-.055 38.037-94.23.136.056L40.452 101.1z" fill="#333"/><path d="M42.647 101.069l-.129-.055L78.42 6.785l.129.055-35.901 94.229zm35.938-18.846h-.002l-2.51.09v.158l2.515-.09a.08.08 0 00-.003-.158zm-.17 6.121h-.003l-2.34.08v.158l2.346-.08a.08.08 0 00.08-.082.08.08 0 00-.083-.076zm.143-14.047h-.003l-2.482.096v.159l2.487-.097c.04-.001.072-.038.07-.082-.001-.042-.033-.076-.072-.076zm.345-15.837H78.9l-2.827.136v.158l2.831-.135c.033-.001.059-.038.057-.082 0-.042-.026-.076-.058-.076zm-.138-15.632h-.001l-2.691.093v.158l2.689-.093c.023 0 .043-.036.043-.08 0-.042-.017-.077-.04-.078zm.4-15.742l-3.092.094v.157l3.08-.094c.014 0 .028-.036.03-.08.004-.042-.005-.076-.018-.077zm-.472 39.375l-2.62.104v.159l2.626-.105a.08.08 0 00.077-.082c-.002-.043-.032-.08-.083-.076zm-.039-15.637h-.001l-2.58.049v.158l2.583-.049a.08.08 0 00.078-.081.08.08 0 00-.08-.077zm-.069-15.691h-2.512v.158h2.512a.079.079 0 100-.158zm-.002-15.923l-2.51.088v.158l2.515-.087a.079.079 0 00.077-.081.08.08 0 00-.082-.077z" fill="#333"/><path d="M77.42 82.407c.023 0 .042-.027.043-.06 0-.034-.02-.061-.043-.061l-16.844-.122c-.024 0-.043.027-.043.06 0 .034.019.061.042.061l16.845.122zm0-11.777c.023 0 .042-.027.042-.06 0-.034-.018-.062-.042-.062l-14.149-.102c-.024 0-.043.027-.043.06 0 .034.02.062.043.062l14.148.102zm-11.389-11.9l11.478-.073c.024 0 .043-.028.043-.061 0-.034-.02-.06-.043-.06l-11.478.073c-.024 0-.043.028-.043.061 0 .034.02.06.043.06zm11.545-11.708c.024 0 .043-.027.043-.06 0-.034-.019-.061-.042-.062l-8.804-.06c-.024 0-.043.027-.043.06 0 .034.019.061.042.061l8.804.06zm.054-11.753c.024 0 .043-.027.043-.06 0-.034-.019-.062-.042-.062l-6.039-.077c-.023 0-.042.027-.043.06 0 .034.019.061.042.062l6.04.077zm.061-11.733c.023 0 .042-.027.043-.06 0-.033-.018-.06-.041-.062l-3.264-.121c-.022 0-.043.026-.043.06 0 .033.018.06.041.061l3.263.122h.001z" fill="#333"/><path d="M77.718 6.847l-.566 93.356.148.001.565-93.356h-.147zM60.774 82.216a.184.184 0 10-.369 0 .184.184 0 00.37 0zm2.676-11.754a.184.184 0 10-.369 0 .184.184 0 00.37 0zm2.764-11.793a.184.184 0 10-.369 0 .184.184 0 00.369 0zm2.7-11.774a.184.184 0 10-.368 0 .184.184 0 00.368 0zm2.82-11.754a.185.185 0 10-.37 0 .185.185 0 00.37 0zm2.884-11.789a.184.184 0 10-.369 0 .184.184 0 00.369 0z" fill="#333"/><path d="M93.001 101.114l-49.47.868 2.399-2.267 10.525-.206 1.004-2.213-.939-.417s9.478-.383 12.983.021c1.554.371 5.067 2.856 5.067 2.856l15.002.09 3.43 1.268z" fill="#333"/><path d="M72.81 99.136c-.868-.507-2.136-1.222-3.202-1.722h-1.53l-.628 1.722h5.36zm-5.797 0l.556-1.722h-3.51l.556 1.722h2.398zm-2.851 0l-.643-1.722h-1.157l-.804 1.722h2.604zm-5.768 0l.858-1.722h-1.428l-.017.014-.851 1.708h1.438z" fill="#fff"/><path d="M63.683 97.856l-1.478 1.281h.545l1.066-.924-.133-.357zm3.434-.442h-.39l-1.984 1.722h.39l1.984-1.722zm.396.175l.056-.175h-.056l-1.984 1.722h.2l1.784-1.547zm-3.907.062l-.039-.104-1.834 1.592h.159l1.714-1.488zm6.002-.237h-.216l-1.922 1.668-.02.054h.351l1.921-1.668-.114-.054zm-3.668 0h-.6l-1 .868.13.407 1.47-1.275zm5.523.952l-.241-.132-1.033.897h.392l.882-.765zm-9.079-.952h-.021l-.014.03.035-.03zm-3.173 0h-.16l-1.983 1.722h.159l1.984-1.722zm-.241.563l.075-.149-1.505 1.305h.098l1.332-1.156zm-.232-.563h-.392l-.938.813-.299.6 1.63-1.413zm11.288.206l-.102-.05-1.81 1.57h.16l1.752-1.52zm.809.41a33.675 33.675 0 00-.61-.315l-1.638 1.42h.974l1.273-1.104z" fill="#fff"/><path d="M60.183 101.38l-2.416-.001 2.612-5.57 2.416.001-2.612 5.57zm19.25-94.806h-1.25v95.185h1.25V6.574z" fill="#333"/><path d="M74.454 65.235l-.155.413 6.823 2.566.155-.413-6.823-2.566zm.676-30.086l-.156.413 6.148 2.312.155-.414-6.147-2.311zM80.01 6.41h-2.473v.7h2.473v-.7z" fill="#333"/><path d="M79.028.922h-.221v6.462h.22V.922z" fill="#333"/><path d="M78.9 6.337a.291.291 0 01-.288.295h-.53a.29.29 0 01-.287-.295.29.29 0 01.286-.294h.531a.29.29 0 01.287.294zm2.127 59.138a.576.576 0 01-.576.576h-1.067a.576.576 0 110-1.153h1.067c.318 0 .576.258.576.577zm-2.219 28.201c0 .245-.185.442-.413.442H49.243c-.229 0-.414-.197-.414-.442 0-.243.185-.442.414-.442h29.152c.228 0 .413.199.413.442zm-38.925 7.362l-.172.03-.488-2.831.173-.03.487 2.831zm5.827-2.835h-.175v2.872h.175v-2.872zm5.826 0h-.175v2.872h.175v-2.872zm5.826 0h-.175v2.872h.175v-2.872zm5.826 0h-.175v2.872h.175v-2.872zm5.826 0h-.175v2.872h.175v-2.872zm5.826 0h-.175v2.872h.175v-2.872zm5.826 0h-.175v2.872h.175v-2.872zm5.826 0h-.175v2.872h.175v-2.872zm5.827 0h-.176v2.872h.175v-2.872zm17.488-.513l-1.165 3.04.163.063 1.165-3.041-.163-.063zm-5.221-.001l-1.164 3.041.164.063 1.164-3.042-.164-.062zm-5.512.001l-1.167 3.04.163.063 1.167-3.04-.163-.063z" fill="#333"/><path d="M98.991 98.075c-.038-.002-.181 0-.222 0H39.3c-.315 0-.57.058-.57.129 0 .071.255.129.57.129h59.47c.032 0 .064-.001.095-.003.05-.09.105-.173.127-.255zm11.983-.388c0 .072-.051.13-.114.13H98.913c-.064 0-.115-.058-.115-.13 0-.071.05-.128.115-.128h11.947c.063 0 .114.057.114.128zm-.653 1.506c0 .036-.301.065-.672.065H39.553c-.372 0-.672-.029-.672-.065 0-.035.3-.064.672-.064h70.096c.371 0 .672.03.672.064zM80.943 37.565L78.955 7.389l.146-.01 1.988 30.176-.146.01z" fill="#333"/><path d="M81.144 37.824h-.147v65.384h.147V37.824zm27.59 62.996L79.363 6.85l.14-.045 29.372 93.971-.141.044z" fill="#333"/><path d="M79.303 67.415l-.146.022 5.062 32.807.146-.023-5.062-32.806zm-5.516 32.537l-.146-.021 4.651-32.92.146.022-4.65 32.919zm34.516-1.244c.016.062-.042.13-.13.154-.089.024-.174-.007-.19-.069l-.177-.67c-.017-.062.042-.13.13-.154.088-.024.174.007.19.069l.177.67zm-10.536.429c.016.062-.042.131-.13.155-.089.023-.174-.007-.19-.07l-.178-.67c-.016-.061.043-.13.13-.154.089-.023.174.008.19.07l.178.67zm-55.745-1.524c-.03.08-.147.11-.262.067-.115-.044-.183-.144-.154-.224l.328-.87c.03-.08.147-.11.262-.066.115.043.184.143.153.223l-.327.87zm2.126-.028c-.03.08-.148.11-.262.067-.115-.043-.184-.143-.154-.224l.327-.87c.03-.079.148-.109.263-.066.115.044.183.143.153.224l-.327.87z" fill="#333"/><path d="M84.109 97.55c.012.088-.08.171-.205.188-.126.017-.236-.04-.248-.127l-.127-.948c-.011-.087.08-.171.206-.187.125-.017.236.04.247.127l.127.947zm-9.709-.874c-.014.087-.126.141-.251.121-.125-.02-.214-.107-.2-.193l.152-.944c.014-.087.126-.14.251-.12.124.02.214.106.2.193l-.152.943zm-20.85-2.831l-1.429 6.077.143.034 1.43-6.077-.143-.034zm.965 6.155l-.67-6.207-.146.015.67 6.208.146-.016zm24.787-63.099l-.143.01 1.892 31.307.142-.009-1.891-31.308zm-4.839 28.627l-1.825 35.202.143.008 1.825-35.202-.142-.008z" fill="#333"/><path d="M82.27 100.196l-1.276-32.311.143-.006 1.276 32.312-.143.005zm-3.105-.037c.04-.07.004-.168-.082-.218l-11.182-6.545c-.086-.05-.19-.034-.23.037-.041.07-.005.168.08.218l11.184 6.544c.085.05.189.034.23-.036z" fill="#333"/><path d="M78.794 100.041c-.067-.026-6.823-2.653-10.431-6.152l.051-.053c3.597 3.49 10.34 6.11 10.407 6.136l-.026.069z" fill="#333"/><path d="M60.823 94.71c-4.733 0-8.162-.802-8.214-.814l.018-.072c.077.018 7.777 1.818 16.06 0l.011-.002.011.003c2.066.817 8.97.948 9.626-.048l.061.04c-.665 1.01-7.61.9-9.704.081-2.776.609-5.487.812-7.868.812zm-7.828 2.517a.189.189 0 11-.377 0 .189.189 0 01.377 0zm29.954-2.517l-4.934 5.653.111.098 4.934-5.654-.111-.096zm-2.909-1.165l-6.335 6.045.102.106 6.334-6.045-.102-.106z" fill="#333"/><path d="M80.696 97.687a.235.235 0 11-.47 0 .235.235 0 01.47 0z" fill="#333"/><path d="M80.93 97.34a.235.235 0 11-.469 0 .235.235 0 01.47 0z" fill="#333"/><path d="M75.129 100.959l-.062-.041 4.835-7.2.023.004c.134.016 13.566 1.676 27.586 2.996l-.007.073a1074.751 1074.751 0 01-27.565-2.993l-4.81 7.161z" fill="#333"/><path opacity=".95" d="M97.272 97.923S78.616 29.716 79.166 32.688c2.655 14.337 4.367 37.354 3.732 62.191 1.794-.564 8.836-1.693 14.374 3.044z" fill="#fff"/><path d="M98 100.813l-19.043-68.61.142-.039 19.042 68.609-.142.04zM77.772 97.34a.235.235 0 11-.47 0 .235.235 0 01.47 0z" fill="#333"/><path d="M78.007 96.997a.235.235 0 11-.47-.002.235.235 0 01.47.002zM54.52 98.884a.189.189 0 11-.377 0 .189.189 0 01.378 0z" fill="#333"/><path d="M54.484 98.596a.189.189 0 11-.377-.001.189.189 0 01.377 0zm-1.549-1.076a.189.189 0 11-.377 0 .189.189 0 01.377 0zM77.823 9.876l-.075-.178.601-2.425.142.038-.668 2.565zm19.428 88.06c-3.614-1.714-14.145-3.022-14.252-3.035l.01-.073c.106.013 10.65 1.322 14.274 3.042l-.032.066zm10.659 2.563a.3.3 0 01-.3.299h-2.733a.3.3 0 010-.599h2.733a.3.3 0 01.3.3zm-12.978 0a.3.3 0 01-.299.299h-.868a.3.3 0 010-.599h.868a.3.3 0 01.3.3zm-54.762.029c0 .179.138.324.31.324h.502c.171 0 .31-.145.31-.324a.318.318 0 00-.31-.325h-.503a.318.318 0 00-.31.325zm29.275.581h17.902v-1.335H69.445v1.335zm-20.149-.437h6.473v-.91h-6.473v.91z" fill="#333"/><path d="M102.631 108.369H39.309s-2.018-1.603-3.192-2.674c1.165-3.35 3.192-5.23 3.192-5.23h70.832s-3.024 5.662-7.51 7.904z" fill="#333"/><path d="M36.628 104.422c-.181.397-.354.82-.51 1.271 1.173 1.07 3.19 2.674 3.19 2.674h63.323c1.877-.938 3.498-2.475 4.749-3.945a868.83 868.83 0 01-36.536.719c-11.788-.015-27.119.309-34.216-.719zm54.07-1.499a1.172 1.172 0 11-2.344 0 1.172 1.172 0 012.344 0z" fill="#333"/><path d="M90.26 103.39a.874.874 0 11-1.469-.948.874.874 0 011.47.948z" fill="#fff"/><path d="M89.703 102.069a.872.872 0 00-.473.033l-.574.892a.88.88 0 00.165.444l.882-1.369zm.678.689l-.651 1.011a.867.867 0 00.33-.156l.315-.49a.87.87 0 00.006-.365zm-.421-.594a.901.901 0 00-.166-.074l-.913 1.418c.04.044.086.084.136.12l.943-1.464z" fill="#fff"/><path d="M78.015 104.095a1.172 1.172 0 100-2.345 1.172 1.172 0 000 2.345z" fill="#333"/><path d="M78.75 103.39a.874.874 0 11-1.47-.948.874.874 0 011.47.948z" fill="#fff"/><path d="M78.192 102.069a.872.872 0 00-.472.033l-.574.892c.013.159.07.313.164.444l.882-1.369zm.388.191a.652.652 0 00-.07-.057l-.945 1.466a.86.86 0 00.08.04l.935-1.449zm-.13-.096a.901.901 0 00-.166-.074l-.914 1.418a.88.88 0 00.137.12l.942-1.464z" fill="#fff"/><path d="M66.504 104.095a1.172 1.172 0 100-2.345 1.172 1.172 0 000 2.345z" fill="#333"/><path d="M67.239 103.39a.874.874 0 11-1.47-.948.874.874 0 011.47.948z" fill="#fff"/><path d="M67.069 102.26a.661.661 0 00-.07-.057l-.944 1.466a.873.873 0 00.08.04l.934-1.449zm.291.498l-.652 1.011a.866.866 0 00.33-.156l.316-.49a.87.87 0 00.006-.365zm-.422-.594a.901.901 0 00-.165-.074l-.914 1.418a.88.88 0 00.137.12l.942-1.464z" fill="#fff"/><path d="M56.166 102.923a1.172 1.172 0 11-2.345 0 1.172 1.172 0 012.345 0z" fill="#333"/><path d="M55.728 103.39a.874.874 0 11-1.469-.948.874.874 0 011.469.948z" fill="#fff"/><path d="M55.17 102.069a.872.872 0 00-.472.033l-.574.892a.88.88 0 00.165.444l.881-1.369zm.388.191a.662.662 0 00-.07-.057l-.944 1.466a.86.86 0 00.08.04l.934-1.449zm.291.498l-.652 1.011a.865.865 0 00.33-.156l.316-.49a.87.87 0 00.006-.365z" fill="#fff"/><path fill-rule="evenodd" clip-rule="evenodd" d="M60.412 98.246c.015-.053 1.108 7.873 1.034 7.999-.17.29-4.51 1.255-8.749 1.726-3.9.432-8.676.415-9.11.376-.25-.023-.36-2.579-.444-2.557-.207.052-.663 2.299-.838 2.33-.88.156-5.636.439-10.158-.134-4.609-.585-8.833-1.985-8.88-2.177-.258-1.021.142-7.486.363-7.453.355.054 4.602 1.044 9.16 1.177 5.012.145 10.427-.575 12.074-.707 2.026-.163 4.099.254 7.228.22 4.083-.045 5.944-.335 8.32-.8z" fill="#F8C992"/><path fill-rule="evenodd" clip-rule="evenodd" d="M43.282 99.448c.04 2.293.026 4.974.026 6.283a.119.119 0 11-.238 0c0-1.309.015-3.987-.025-6.278a.119.119 0 01.237-.005z" fill="#38344B"/><path fill-rule="evenodd" clip-rule="evenodd" d="M46.335 99.122c-.113 3.695-1.56 5.485-3.039 5.913a.119.119 0 01-.066-.228c1.419-.41 2.76-2.15 2.868-5.692a.119.119 0 01.237.007z" fill="#38344B"/><path fill-rule="evenodd" clip-rule="evenodd" d="M50.733 29.992c.154 1.958-.085 8.462-.526 10.684-.264 1.334-1.123 2.712-2.455 3.225-.712.275-1.551.32-1.613.339-.066.02-.122 2.113-.157 2.19-.207.468-2.467 1.872-6.878.732-1.758-.454-3.163-1.488-3.209-1.626-.036-.11.637-.613.744-1.763.15-1.61.165-3.991-.005-4.739-.052-.23-3.2.083-3.685-2.923-.293-1.817.501-3.828 2.79-4.203 1.288-.211 1.575.578 2.307.265 1.082-.463 1.8-1.682 2.832-2.273 2.043-1.171 6.608-1.057 9.855.092z" fill="#FFBA9F"/><path fill-rule="evenodd" clip-rule="evenodd" d="M46.005 46.242c3.579.306 9.134 1.802 11.493 3.428 5.63 3.88 6.253 18.088 6.23 18.562-.02.442-3.407.399-3.433.456-.668 1.503-.518 8.464-.317 11.977.143 2.507 2.442 17.155 2.209 17.454-.48.615-7.005 1.124-9.264 1.18-2.706.067-5.709-.61-10.338-.166-11.134 1.067-18.115-.05-19.334-.618-.357-.166 2.046-16.835 1.526-17.755-.77-1.36-2.493-6.815-2.977-7.929l-1.977.237c-.052-1.548-.036-4.666-.012-6.173.092-5.651.99-10.502 4.312-15.417 3.83-5.665 9.407-5.73 11.623-6.09.271-.045 5.044 4.082 10.259.854z" fill="#333"/><path fill-rule="evenodd" clip-rule="evenodd" d="M63.24 63.082a46.164 46.164 0 01.212 1.647c-1.657.304-3.056.338-3.056.237 0-.07-.367-1.68-.367-1.68.785-.047 2.631-.17 3.21-.204zm-31.086 5.617c.002.07-2.81.515-5.828.986a125 125 0 01-6.537.816c-.002-.211.004-1.926.004-1.926.02 0 3.04-.162 6.107-.586 2.64-.365 5.338-.726 6.133-.864 0 0 .118 1.49.121 1.574z" fill="#fff"/><path fill-rule="evenodd" clip-rule="evenodd" d="M53.515 74.049c-.415-2.947-2.103-22.389-2.256-22.537-.676-.653-1.175-1.372-1.334-2.35-.113-.694-.064-1.832-.055-2.058.012-.269-.108-.234-.172-.746-.044-.342.065-.702.023-.793-.045-.096-.58.36-.823-.061-.169-.292-.164-.717-.185-1.03-.06-.882-.257-1.998-.24-2.37.017-.375.53-.52 1.178-1.156.69-.679 1.287-1.117 1.93-1.128.565-.01 1.13.518 1.54.813.758.546 1.407 1.191 2.138 1.761.541.422 1.272.742 1.661 1.292.387.546-.032 3.108-.196 4.173-.367 2.374.383 4.424.49 4.867.447 1.861 4.12 13.392 4.63 15.853.013.063 1.094-.168 1.112-.048.257 1.742.706 4.617.87 6.44.333 3.734-.121 7.253-3.27 7.757-5.545.887-6.498-4.827-7.04-8.68z" fill="#FFBA9F"/><path fill-rule="evenodd" clip-rule="evenodd" d="M47.744 36.178c.028.175.047.351.06.528.02.249.064.546.052.826a1.293 1.293 0 01-.137.562c-.131.242-.394.292-.699.231-.375-.075-.815-.316-1.033-.39a.119.119 0 01.077-.224c.211.072.638.309 1.003.382.189.037.362.038.444-.112.092-.171.113-.38.11-.591-.004-.23-.037-.464-.053-.666a6.341 6.341 0 00-.058-.508.119.119 0 01.234-.038zm-2.82 2.755c.062.211.13.417.244.608.344.579.99.821 1.616.95a.12.12 0 01-.048.233c-.69-.142-1.393-.424-1.773-1.061a2.845 2.845 0 01-.268-.663.119.119 0 11.229-.067zm-7.795-3.343c-.866-.311-1.735-1.108-1.97-1.465a.119.119 0 01.199-.13c.22.334 1.039 1.08 1.851 1.371a.119.119 0 01-.08.223z" fill="#333"/><path fill-rule="evenodd" clip-rule="evenodd" d="M36.105 34.905c-.23.47-.447.868-.458 1.386a.119.119 0 01-.237-.004c.01-.555.235-.983.482-1.486a.119.119 0 01.213.104zm9.826 9.41c-1.589-.24-2.884-.644-3.603-1.05a.119.119 0 11.117-.207c.702.398 1.969.788 3.521 1.023a.119.119 0 11-.035.234z" fill="#333"/><path fill-rule="evenodd" clip-rule="evenodd" d="M32.226 71.153a145.917 145.917 0 01-.572-10.813.119.119 0 01.238-.005c.086 4.75.329 8.125.576 10.86.005.05-.024.127-.133.172-.166.069-.626.129-.98.172a.119.119 0 01-.029-.236c.266-.032.595-.073.8-.12a1.1 1.1 0 00.1-.03z" fill="#38344B"/><path fill-rule="evenodd" clip-rule="evenodd" d="M45.03 34.704a.6.6 0 00-.52.672.603.603 0 00.666.529.6.6 0 00.518-.673.6.6 0 00-.665-.528zm4.213.401a.534.534 0 00-.468.594c.036.291.303.5.596.463a.534.534 0 00.468-.593.534.534 0 00-.596-.464zm1.577-4.378c.857-.038 2.027-.782 2.662-1.317.864-.73-.046-1.247.089-2.026.076-.44.379-.67.384-1.168.008-.89-.985-.943-1.53-1.337-.487-.35-.307-.835-.985-1.37-.516-.409-1.017-.098-1.325-.489-.444-.562-.142-1.173-.85-1.657-.831-.567-1.59.053-2.447-.128-.53-.112-.798-.66-1.362-.723-.933-.104-1.154.523-1.807.45-.613-.07-1.253-.503-1.873-.433-1.071.121-1.358.93-2.132 1.152-.614.176-1.094-.389-2.061.19-.821.49-.548 1.57-1.069 2.235-.446.568-1.612-.198-2.023.918-.439 1.194.12 7.124.22 7.204.014.011 1.72-.683 2.574.161.4.397 1.268 1.71 2.022 1.465.94-.305.532-2.662 1.414-3.24.773-.508 1.46.245 2.23.042.626-.165.678-.953 1.283-1.104.634-.159 1.06.764 1.676.812.818.064.979-.785 1.78-.744.61.031.753.618 1.101.854.577.39.875-.19 2.028.253z" fill="#333"/><path fill-rule="evenodd" clip-rule="evenodd" d="M44.647 32.215a5.087 5.087 0 00-1.16.352c-.385.164-.85.427-1 .786-.09.216-.113.49.235.64.224.097.706-.133.995-.246 1.139-.446 1.286-.08 2-.171.228-.03.745-.373.375-1.03-.195-.346-.773-.443-1.445-.331zm4.745.223c.342-.013.509.014.855.103.353.09.822.248 1.145.532.249.219.41.641-.134.874-.26.11-.708.017-.97-.006-.528-.046-.858-.047-1.378-.178a.874.874 0 01-.275-.113.61.61 0 01-.293-.563c.002-.416.477-.627 1.05-.65zm6.398 10.917c-.379-.055-1.25-.187-1.622-.275-.54-.127-1.299-.373-2.014-.435-.454-.039-.89-.004-1.234.199-.185.11-.354.386-.509.736-.382.867-.642 2.187-.621 2.832.008.255.08.433.19.55a.59.59 0 00.531.164.462.462 0 00.27-.131.119.119 0 11.179.156.702.702 0 01-.409.21.828.828 0 01-.744-.236c-.141-.15-.244-.377-.254-.706-.021-.668.245-2.036.641-2.935.18-.406.39-.717.606-.845.382-.226.868-.273 1.375-.23.727.062 1.499.311 2.048.44.367.087 1.227.217 1.601.271a.119.119 0 01-.034.235z" fill="#333"/><path fill-rule="evenodd" clip-rule="evenodd" d="M50.028 47.107c-.026.757.007 2.147.22 2.72a.119.119 0 11-.223.082c-.22-.592-.261-2.028-.234-2.81a.119.119 0 11.237.008zm4.944-1.931c-.607-.14-1.878-.271-2.754-.208-.35.026-.634.077-.771.183-.117.09-.198.307-.26.582-.16.706-.154 1.792.038 2.454.133.46.56.555.89.551a.119.119 0 11.003.238c-.421.004-.951-.137-1.121-.724-.2-.693-.209-1.831-.041-2.57.077-.345.2-.605.345-.718.16-.125.49-.202.9-.232.898-.066 2.202.07 2.824.212a.119.119 0 01-.053.232z" fill="#333"/><path fill-rule="evenodd" clip-rule="evenodd" d="M54.711 46.794c-.404.073-.988.065-1.477.13-.296.04-.557.102-.703.242-.114.11-.165.268-.19.433-.029.184-.025.376-.023.532.002.232-.023.584.02.898.027.187.075.36.18.474.185.202.56.274.917.276.223 0 .44-.028.606-.079a.569.569 0 00.22-.107.281.281 0 00.095-.168c.007-.063-.016-.13-.066-.201-.13-.188-.425-.387-.928-.592a.119.119 0 11.09-.22c.564.23.887.466 1.033.676.089.127.119.25.107.363a.511.511 0 01-.167.313.8.8 0 01-.315.163 2.37 2.37 0 01-.676.089c-.427-.002-.869-.11-1.09-.352-.135-.146-.207-.364-.24-.602-.045-.324-.021-.689-.023-.93-.002-.201-.007-.46.05-.692a.89.89 0 01.236-.445c.175-.168.48-.258.835-.305.486-.065 1.065-.057 1.467-.13a.119.119 0 01.042.234z" fill="#333"/><path fill-rule="evenodd" clip-rule="evenodd" d="M53.817 48.603c.056-.071.443-.621.495-.694a.119.119 0 01.193.138c-.054.074-.445.63-.501.703a.119.119 0 01-.187-.147zm-2.512-6.166c.09-.27.138-.558.19-.837a.119.119 0 01.234.045c-.055.288-.106.586-.2.867a.119.119 0 01-.224-.075zm-1.191-1.695c-.501.547-1.093.84-1.4 1.25-.123.166-.158.372-.161.582-.003.232.035.47.059.676a.119.119 0 01-.236.027c-.025-.216-.063-.464-.06-.706.003-.262.055-.515.209-.721.31-.415.907-.715 1.415-1.269a.119.119 0 01.175.16zM62.07 68.763c.17.54.29 1.178.429 1.725.362 1.425.666 2.327 1.188 4.02a.119.119 0 01-.227.07c-.523-1.698-.827-2.603-1.19-4.032-.139-.543-.258-1.176-.427-1.712a.119.119 0 01.227-.071z" fill="#333"/><path d="M44.889 98.934a.123.123 0 01-.122-.116c-.005-.09-.487-9.05-.747-17.573-.208-6.81-1.38-33.156-1.393-33.422a.123.123 0 01.245-.01c.012.265 1.185 26.613 1.393 33.425.26 8.519.742 17.478.746 17.567a.123.123 0 01-.115.13h-.007z" fill="#38344B"/><path fill-rule="evenodd" clip-rule="evenodd" d="M56.704 81.9c-.174-.389-.969-.81-2.023-3.72-.64-1.768-1.06-4.396-1.116-4.414-.267-.085-1.546 1.612-1.74 1.65-.887.176-5.566.016-6.923-.06-2.345-.128-4.698-.372-7.043-.498-1.976-.106-4.444-.552-6.403-.74-.22-.021-.274-1.666-.373-2.52-.003-.023-10.165 1.338-10.165 1.338-.02.8.242 6.582 1.844 7.957 1.53 1.314 4.274 2.043 7.331 2.369 4.02.429 9.332.434 11.939.269 4.925-.314 8.958-.333 14.672-1.632z" fill="#FFBA9F"/><path fill-rule="evenodd" clip-rule="evenodd" d="M31.338 74.337c-.593.516-1.848 1.526-2.35 2.156a.119.119 0 01-.185-.147c.508-.64 1.779-1.665 2.38-2.188a.119.119 0 11.155.179zm22.412-.344c.091.904.372 2.937 1.019 4.754.425 1.195 1.006 2.298 1.803 2.911a.119.119 0 01-.144.188c-.828-.636-1.44-1.778-1.883-3.02-.654-1.838-.939-3.895-1.032-4.809a.119.119 0 11.236-.024z" fill="#333"/><path d="M37.925 51.743h-.013a.409.409 0 01-.312-.133c-.705-.798-2.065-5.73-2.123-5.94a.123.123 0 01.237-.064c.004.012.355 1.29.787 2.646.716 2.251 1.093 2.98 1.283 3.195.019.02.052.049.133.05h.01c.882 0 3.709-2.734 4.727-3.792a.123.123 0 01.17-.005c.953.874 3.57 3.13 4.302 3.135.158-.237-.33-2.175-1.099-4.355a.123.123 0 11.232-.082c.003.01.356 1.014.664 2.063.639 2.172.465 2.424.4 2.519a.221.221 0 01-.192.1c-.905 0-3.76-2.551-4.384-3.119a44.521 44.521 0 01-1.917 1.844c-1.448 1.304-2.4 1.938-2.905 1.938z" fill="#38344B"/><path d="M132.606 56.444l-5.244-1.29a17.197 17.197 0 00-1.21-2.88c.788-1.31 2.442-4.069 2.442-4.069a1.335 1.335 0 00-.201-1.636l-3.788-3.788a1.337 1.337 0 00-1.636-.202l-4.076 2.442a17.287 17.287 0 00-2.863-1.2l-1.29-5.243a1.34 1.34 0 00-1.299-1.016h-5.358a1.34 1.34 0 00-1.299 1.016s-.893 3.66-1.288 5.242a17.174 17.174 0 00-3.04 1.295L98.23 42.58a1.343 1.343 0 00-1.636.202l-3.789 3.788a1.34 1.34 0 00-.201 1.636l2.614 4.365c-.421.83-.774 1.693-1.056 2.58l-5.244 1.294a1.338 1.338 0 00-1.015 1.299v5.358c0 .614.418 1.15 1.015 1.299l5.245 1.29a17.277 17.277 0 001.232 2.928l-2.338 3.898a1.34 1.34 0 00.201 1.636l3.788 3.788a1.345 1.345 0 001.636.202l3.908-2.342a17.24 17.24 0 002.906 1.223l1.288 5.243a1.338 1.338 0 001.299 1.015h5.358a1.337 1.337 0 001.299-1.015l1.288-5.243A16.985 16.985 0 00119 75.761l3.968 2.38a1.34 1.34 0 001.637-.2l3.788-3.789a1.337 1.337 0 00.201-1.636l-2.408-4.012c.475-.901.869-1.843 1.176-2.815l5.244-1.29a1.334 1.334 0 001.015-1.298v-5.358a1.338 1.338 0 00-1.015-1.299zm-21.844 13.354c-5.169 0-9.376-4.207-9.376-9.376 0-5.17 4.207-9.376 9.376-9.376s9.376 4.206 9.376 9.376c0 5.17-4.207 9.376-9.376 9.376z" fill="#333"/></svg>