<svg width="134" height="112" fill="none" xmlns="http://www.w3.org/2000/svg"><circle cx="25.684" cy="25" r="25" fill="#FF8A00"/><path d="M29.124 58.832h2.336l-7.1 52.926h-2.336l7.1-52.926zm53.599 0h-2.336l7.1 52.926h2.336l-7.1-52.926z" fill="#9E765C"/><path d="M59.189 37.621c.28.426 1.962 4.261 2.804 7.414.84 3.153 2.056 5.283 2.15 5.539.093.255 2.897.767 6.541 2.13a186.19 186.19 0 015.888 2.301l-3.458 1.364s-6.729-1.108-9.065-1.79c-2.337-.682-3.178-1.79-4.206-3.068-1.028-1.278-6.075-10.226-6.075-10.226l5.421-3.664z" fill="#FFBA9F"/><path d="M54.582 107.676h2.373V81.623h-2.373v26.053z" fill="#464646"/><path d="M53.622 82.297h4.293v11.02a2.06 2.06 0 01-2.058 2.058h-.176a2.06 2.06 0 01-2.059-2.059v-11.02z" fill="#464646"/><path d="M52.617 84.138h6.303c.873 0 1.661-.522 2.003-1.325l.844-1.984a2.177 2.177 0 00-2.003-3.028h-7.99a2.177 2.177 0 00-2.004 3.028l.844 1.984a2.177 2.177 0 002.003 1.325z" fill="#333"/><path d="M43.916 110.07a1.706 1.706 0 103.413 0 1.706 1.706 0 00-3.413 0zm23.704 0a1.706 1.706 0 11-3.412 0 1.706 1.706 0 013.413 0z" fill="#464646"/><path d="M55.78 107.066h-.002c-3.543 0-6.855.8-9.68 2.224v.948H65.18v-1.088c-2.764-1.336-5.973-2.084-9.4-2.084zM34.04 35.88c4.16-2.962 10.83-2.187 10.83-2.187l6.504 2.875s5.552 8.612 7.007 13.557c.148 2.208.304 4.416.476 6.623.56 7.174 1.254 16.87 2.135 24.019l.019.153c-9.221-.068-19.307-1.438-19.307-1.438-2.986 0-6.01-2.655-6.637-5.25-.505-2.093-1.828-19.169-2.474-29.88-.319-5.3-.409-7.15 1.448-8.472z" fill="#464646"/><path d="M40.666 75.443c-1.561-.48-2.651-2.615-2.986-5.928-.206-2.047-1.768-14.567-2.39-23.704-.263-3.847-.966-7.601-.352-8.905 2.364-5.016 17.593-4.146 21.35-1.07 3.754 3.073 3.88 9.457 4.273 14.86.3 4.148 2.285 21.277 2.67 25.776-8.04.453-15.027 1.288-22.565-1.03z" fill="#A5A5A5"/><path d="M35.907 75.521c0 3.327 8.751 6.024 19.547 6.024 10.796 0 19.547-2.697 19.547-6.024s-8.67-2.853-19.466-2.853c-10.796 0-19.628-.474-19.628 2.853z" fill="#2C3642"/><path d="M38.398 73.043c.02.168 4.744 3.292 5.781 3.672a32.347 32.347 0 009.502 1.924c3.58.178 7.183.01 10.736-.529 2.861-.433 5.923-.8 7.781-3.51.25-.363.457-.753.65-1.153 1.374.43 2.153 1.082 2.153 2.076 0 3.327-8.751 6.024-19.547 6.024-10.796 0-19.547-2.696-19.547-6.024 0-1.346.05-2.095 2.49-2.48z" fill="#464646"/><path d="M84.082 105.713s.795 2.983.89 3.702c.03.239-.005.73.031.969.048.318.213 1.217.517 1.365l4.164.002 5.951.238.162-.96c-.076-.652-1.126-1.034-1.736-1.261-1.279-.475-3.477-1.642-3.477-1.642l-1.319-4.603-5.182 2.19z" fill="#333"/><path d="M95.788 111.991s.212-.624.008-.961l-10.705-.155s.068.7.43.875l10.267.241z" fill="#333"/><path d="M84.452 78.39c-.534-2.61-2.052-5.451-4.598-6.855-4.782-2.636-11.733-3.635-12.569-4.124l-6.75-1.513-6.104.22s.22 8.135 2.801 10.59c.616.585 2.418 1.708 4.881 1.964 5.258.544 12.918.201 12.918.201s2.05 6.278 4.296 13.49c3.093 9.934 4.255 13.923 4.255 13.923l6.793-1.661s-3.738-15.541-5.923-26.235z" fill="#F8C992"/><path d="M68.869 78.644l8.105.494" stroke="#333" stroke-width=".5" stroke-miterlimit="10"/><path d="M72.656 105.721s.795 2.983.89 3.701c.03.24-.005.73.031.97.048.318.213 1.216.517 1.365l4.164.002 5.951.238.162-.96c-.076-.652-1.126-1.035-1.736-1.261-1.279-.475-3.477-1.642-3.477-1.642l-1.318-4.603-5.183 2.19z" fill="#333"/><path d="M84.363 111.994s.21-.623.008-.96l-10.706-.155s.068.7.43.875l10.268.24z" fill="#333"/><path d="M71.474 77.314c-2.337-7.302-15.962-9.154-17.242-9.903l-6.75-1.513-6.104.22s-.101 7.607 2.48 10.061c.616.586 2.418 1.71 4.882 1.965 5.257.544 13.31.874 13.31.874s1.475 5.697 4.064 12.793c3.29 9.016 6.02 15.336 6.02 15.336l6.506-1.665S74.19 85.8 71.474 77.314z" fill="#F8C992"/><path d="M75.471 91.664c-1.314-5.093-2.813-10.649-3.996-14.347-1.615-5.043-8.612-7.486-13.21-8.762m-2.45 10.093l8.106.494" stroke="#333" stroke-width=".5" stroke-miterlimit="10"/><path d="M47.698 26.523c.115 1.67-.206 2.495-.465 3.333-.259.839-3.291 2.731-3.291 2.731s9.433 8.156 12.783 7.907c3.349-.25-1.97-8.804-1.97-8.804s-1.453-.755-1.81-1.633c-.356-.879-.654-2.897-.654-2.897l-4.21-4.691-.384 4.053z" fill="#FFBA9F"/><path d="M56.928 32.926s2.24 1.01 3.453 3.948c.935 2.265 3.756 10.867 3.915 11.186.16.32.8.88 1.838 1.359 1.039.48 8.95 3.595 9.509 4.554 0 0-.183 2.011-2.529 2.404 0 0-9.457-1.844-11.055-2.723-1.598-.88-5.833-9.11-7.271-12.066-1.438-2.956 2.14-8.662 2.14-8.662z" fill="#333"/><path d="M46.328 30.883s-4.293 1.212-5.848 2.44c-1.747 1.379-1.223 5.96-1.02 8.162.119 1.3.06 16.12.06 23.184 0 4.366 2.532 3.856 3.82 3.602 2.595-.513 6.558-.012 10.575-.406 3.526-.345 5.782-.586 7.273-1.68 1.356-.993-.317-5.681-.752-10.545-.665-7.42-.902-15.205-1.165-16.527-.434-2.19-2.343-6.194-2.343-6.194l-2.47-1.423c-.396.785-1.074.975-1.431 1.061-4.67 1.129-6.7-1.674-6.7-1.674z" fill="#333"/><path d="M60.436 55.645c-.664-7.42-.902-15.204-1.164-16.527-.23-1.154-.868-2.812-1.42-4.122" stroke="#333" stroke-width=".5" stroke-linejoin="round"/><path d="M55.419 16.438c.565.805.93 2.502.876 3.58-.056 1.08-1.287 2.643-1.287 2.643l-1.885-6.175 2.296-.049z" fill="#333"/><path d="M55.031 17.749c1.056 1.46.962 3.105.877 4.146-.085 1.041-.133 1.265.006 2.597.182 1.738-1.004 3.805-1.725 4.609-1.31 1.459-4.604.486-5.705-1.164-.669-1.001-1.877-3.333-2.137-4.207-.26-.874-1.128-3.802-.047-5.145 1.081-1.345 3.2-1.562 5.394-1.39 2.195.174 2.89-.063 3.337.554z" fill="#FFBA9F"/><path d="M47.056 21.503s.804-.28 1.073-1.942c.21-1.3.275-1.975.275-1.975s1.11.204 1.801.352a9.206 9.206 0 002.966.127c3.447-.385 3.73-2.796 3.73-2.796s-.992.036-3.438-.815c-1.87-.65-4.32-.549-5.776-.032-1.396.495-1.42 1.791-1.42 1.791s-1.193-.242-1.876 1.1c-.655 1.288-.385 2.465.548 4.527.934 2.063 2.606 3.12 2.606 3.12l-.489-3.457z" fill="#333"/><path d="M46.888 22.715c-.799-.766-1.97-.481-1.737.713.193.995.674 1.143 1.486 1.896.55.511.97.193.971-.09.001-.8-.223-2.044-.72-2.52z" fill="#FFBA9F"/><path d="M47.163 24.49c.093.203.152.35.24.499.059-.074-.078-.237-.18-.594-.145-.509.022-.006-.187-.495-.208-.49-.41-.691-.744-.915-.188-.126-.344-.11-.461-.018a3.724 3.724 0 011.332 1.524m.346 30.976c.306.49.824.907 1.247.87.423-.04.92-.743 1.226-1.759.306-1.016.523-1.51-.284-1.835-.806-.323-3.523.587-2.19 2.724z" fill="#333"/><path d="M60.413 53.44c-.978-.978-2.725-1.297-3.764-1.351-1.04-.054-3.798.684-5.432.972-1.633.288-4.824-.445-4.824-.445l-1.561 2.818s4.29-.138 5.242.381c.952.52 2.424.74 3.576.75 1.152.008 1.885-1.225 2.304-1.288.418-.063 1.34.126 1.854.434.312.188.641.354.836.347.198-.006.182-.404-.184-.575.082.05.3.175.38.229.113.078.25.206.32.253.479.317.688.207.47-.24a2.18 2.18 0 00-.494-.6c-.458-.395-1.126-.775-1.126-.775s1.337.535 1.715 1.089c.378.554.929.79 1.152.661.222-.128-.7-1.408-1.105-1.768-.405-.36-1.188-.776-1.188-.776s.573.133.967.302c.394.168 1.611 1.228 2.032 1.203.42-.025-.19-.642-1.17-1.62z" fill="#FFBA9F"/><path d="M41.193 32.91c-.36.242-3.02 1.285-4.033 3.961-.694 1.83-1.597 7.873-1.923 10.783-.535 4.763-.194 5.66.42 6.685.614 1.025 13.1 1.991 13.1 1.991s-.985-.145-.37-1.88c.57-1.61 1.311-1.713 1.311-1.713l-8.267-2.632s1.536-6.124 2.235-8.636c1.267-4.55-2.472-8.559-2.472-8.559z" fill="#333"/><path d="M35.657 54.336c.614 1.026 13.1 1.992 13.1 1.992s-.985-.145-.37-1.881c.57-1.61 1.311-1.712 1.311-1.712l-8.267-2.632s1.536-6.124 2.235-8.637c.634-2.275.015-4.415-.761-5.986m-1.132 14.628s-1.96-.121-3.052 1.32" stroke="#333" stroke-width=".5" stroke-linejoin="round"/><path d="M60.353 55.961h5.144l5.144-17.996h-3.096c-.489 0-.924.307-1.087.767l-6.104 17.23z" fill="#6E6E6E"/><path d="M61.407 55.678l19.705.283 4.985-17.442a.435.435 0 00-.418-.554H67.814a.434.434 0 00-.414.304l-5.993 17.41z" fill="#333"/><path d="M80.552 56.895H61.32v-1.343h19.996v.577a.766.766 0 01-.765.766z" fill="#6E6E6E"/><path d="M61.32 56.895H50.84a.478.478 0 01-.478-.479v-.386c0-.264.214-.478.478-.478h10.48c.305 0 .553.248.553.553v.236a.553.553 0 01-.553.553z" fill="#6E6E6E"/><path d="M40.24 58.836h2.337l-7.1 52.926H33.14l7.1-52.926zm53.6 0h-2.337l7.1 52.926h2.336l-7.1-52.926z" fill="#9E765C"/><path d="M102.944 56.879H29.471v3.705h73.473v-3.705z" fill="#B48669"/><path d="M35.612 56.879H22.956v3.705h12.656v-3.705z" fill="#9E765C"/><path fill-rule="evenodd" clip-rule="evenodd" d="M51.834 20.753c.149.003.24.008.356-.08.158-.119.13-.481-.045-.568-.297-.149-.767-.108-1.08-.067-.523.067-1.124.192-1.564.515-.197.144-.276.304-.24.495a.255.255 0 00.22.21c.135.016.294-.07.411-.115.271-.106.545-.21.832-.265.372-.071.73-.13 1.11-.125zm3.924.359c.134.066.214.11.356.081.194-.04.324-.38.203-.533-.204-.262-.646-.427-.947-.524-.5-.163-1.097-.308-1.633-.206-.24.047-.38.157-.429.345a.256.256 0 00.108.284c.116.072.295.063.421.072.29.02.583.045.865.118.367.095.716.196 1.056.363zm-2.622 1.098c.034.32.117 1.018.121 1.34.001.082.01.182.006.279a.41.41 0 01-.042.194c-.023.038-.062.052-.107.058a.551.551 0 01-.163-.008 1.601 1.601 0 01-.661-.308.168.168 0 10-.224.252 2 2 0 00.825.388c.269.048.502-.013.62-.209a.682.682 0 00.084-.286c.011-.124 0-.257 0-.364-.004-.33-.09-1.043-.124-1.372a.168.168 0 00-.336.036zm-.48 3.19c-.295-.053-.566-.138-.7-.211-.478-.266-.731-.527-.862-1.006a.169.169 0 00-.325.089c.156.573.45.894 1.024 1.211.153.085.464.188.803.25a.168.168 0 10.06-.332zm-1.255-3.661a.393.393 0 00-.412.372.393.393 0 00.369.415c.216.012.4-.155.412-.372a.393.393 0 00-.369-.415zm3.459-.239a.393.393 0 00-.412.373.393.393 0 00.369.415c.215.012.4-.155.412-.372a.393.393 0 00-.37-.415zm-2.199 8.035a2.548 2.548 0 01-.856-.126c-.745-.226-1.111-.429-1.582-.979a.169.169 0 10-.256.22c.518.605.92.832 1.74 1.082.221.068.505.147.96.14a.169.169 0 00-.006-.337z" fill="#333"/></svg>