<svg width="134" height="106" fill="none" xmlns="http://www.w3.org/2000/svg"><circle cx="25.684" cy="25" r="25" fill="#FF8A00"/><path fill-rule="evenodd" clip-rule="evenodd" d="M76.649 16.11c-.736-2.556-3.002-10.322-3.486-11.777C71.98.775 71.465-.92 66.235.504c-2.98.813-25.791 7.734-28.67 8.491-4.52 1.19-3.467 3.505-2.712 6.435.576 2.236 3.078 10.67 3.63 12.326.742 2.224.88 5.158 5.983 3.677 2.908-.843 25.762-7.64 28.612-8.588 4.949-1.645 4.74-2.67 3.57-6.735z" fill="#333"/><path d="M71.46 6.58a60.598 60.598 0 01-.222-.656 26.983 26.983 0 01-.261-.845c-.211-.717-.34-1.149-.68-1.332-.236-.126-.546-.115-1.036.036-.716.221-1.423.443-2.107.657-1.09.341-2.03.636-2.646.817-.405.12-.625.26-.736.472-.183.348-.03.815.247 1.663a53.525 53.525 0 01.395 1.259c.225.744.35 1.154.553 1.391.243.281.561.271.996.16l.024-.007c1.145-.303 3.288-.995 5.233-1.633.28-.091.441-.207.525-.377.158-.317.01-.747-.284-1.604zm-6.94 1.337c-.072-.228-.14-.437-.2-.622l-.01-.03 1.833-.554-.1-.325c-.779.237-1.448.438-1.838.556-.17-.534-.253-.875-.153-1.065.067-.127.235-.225.546-.316.297-.087.669-.2 1.095-.333l.35 1.158.1.325.392 1.28c-.755.23-1.413.427-1.824.552l-.191-.626zm1.387 1.974c-.45.12-.589.075-.7-.054-.134-.156-.243-.47-.397-.97l1.826-.551c.135.435.269.86.394 1.252-.43.13-.817.242-1.123.323zm.11-4.764a1208.443 1208.443 0 012.08-.65l.354 1.17c-.69.216-1.416.438-2.082.64l-.352-1.16zm.45 1.485c.667-.202 1.393-.425 2.083-.64.126.415.259.848.392 1.28-.687.215-1.412.437-2.082.64l-.392-1.28zm.888 2.857c-.125-.391-.259-.816-.394-1.252.67-.204 1.395-.426 2.082-.64.132.427.264.847.388 1.237-.673.217-1.41.451-2.076.655zm1.066-5.093c.31-.097.62-.194.934-.29.06-.02.118-.035.171-.05.298-.076.494-.079.622-.01.199.106.31.417.463.925a80.74 80.74 0 01-1.836.595l-.354-1.17zm.453 1.495c.7-.22 1.346-.428 1.833-.594a24.019 24.019 0 00.41 1.271c-.478.165-1.133.377-1.85.603a355.55 355.55 0 01-.393-1.28zm2.59 2.175c-.044.087-.149.154-.342.217-.345.114-.827.271-1.368.447-.124-.39-.255-.808-.388-1.235.722-.227 1.38-.44 1.86-.606.211.615.328.995.238 1.177z" fill="#fff"/><path fill-rule="evenodd" clip-rule="evenodd" d="M61.59 45.588c.388-1.244.466-2.256.447-2.874-.027-.909-.206-2.139-1.526-3.162-.74-.571-2.342-1.016-4.082-.78-1.711.23-3.41.953-4.422 2.39-.34.481-1.143 1.618-1.083 4.223.028 1.22.244 2.937.424 3.755.298 1.351 1.046 3.047 1.9 3.718.228.179.533.313.821.365.349.062.691.059.694.06.07.058.18 1.583.178 1.608-.01.252-2.791 1.125-2.791 1.125.173.95 2.647 2.78 4.941 2.67 1.777-.086 5.185-.618 5.89-2.36 0 0-2.095-.861-2.142-1.833-.003-.047-.299-4.9-.234-5.92.06-.938.708-2.098.985-2.985z" fill="#FFBA9F"/><path fill-rule="evenodd" clip-rule="evenodd" d="M54.414 45.203c-.149.002-.24.008-.356-.08-.158-.12-.13-.482.045-.569.297-.149.767-.108 1.08-.067.523.068 1.124.192 1.563.515.197.145.277.304.24.495a.255.255 0 01-.219.21c-.135.016-.294-.069-.411-.115a4.792 4.792 0 00-.832-.265c-.372-.071-.73-.13-1.11-.124zm-3.466.729a8.326 8.326 0 01-.018-.368 4.227 4.227 0 01-.008-.327c.263-.217.662-.357.978-.436.288-.071.437-.038.548.122.093.133.031.288-.015.37-.066.12-.272.171-.388.22-.284.122-.774.237-1.097.42zm2.164.727c-.034.32-.117 1.018-.121 1.34-.001.083-.01.182-.006.28.003.07.01.14.042.193.022.038.062.052.107.058.05.007.105.003.163-.008.254-.045.544-.203.66-.307a.168.168 0 11.225.252 2 2 0 01-.826.387c-.268.048-.502-.012-.619-.208a.683.683 0 01-.084-.286c-.012-.124 0-.258 0-.364.004-.33.09-1.044.124-1.373a.169.169 0 01.335.036zm.48 3.191c.295-.054.566-.139.7-.212.478-.265.73-.527.862-1.006a.169.169 0 01.325.089c-.157.573-.451.894-1.024 1.212-.153.085-.464.187-.803.248a.169.169 0 01-.06-.331zm-1.595-3.49c.216-.012.4.155.412.372a.393.393 0 01-.369.415.393.393 0 01-.412-.372.393.393 0 01.369-.415zm2.85-.172c.215-.012.4.155.412.372a.393.393 0 01-.369.415.393.393 0 01-.412-.372.393.393 0 01.369-.415zm.068 6.9c.39-.112.61-.254.783-.37.646-.434.937-.735 1.227-1.398a.169.169 0 11.309.135c-.32.73-.636 1.065-1.348 1.543-.193.13-.441.289-.878.414a.169.169 0 01-.093-.324z" fill="#333"/><path fill-rule="evenodd" clip-rule="evenodd" d="M49.92 40.268c-.091.393.378 3.254 1.197 3.554.429.157 1.16.095 1.934-.002 2.37-.3 4.198-1.07 4.906-1.045 1.006.035 1.26.784 1.218 1.974-.012.332-.03 1.165.075 1.255.044.038.355-.545 1.169-.739.72-.17.89.006 1.328.266.035.02.646-1.827.797-2.553.132-.633.152-1.21.047-1.567-.08-.273-.028-.477.017-.873.168-1.476-.715-2.285-2.005-2.705-1.294-.423-2.645-.64-6.665.02-1.71.282-3.72 1.146-4.017 2.415z" fill="#333"/><path fill-rule="evenodd" clip-rule="evenodd" d="M58.878 42.66c.212-.07.821-.297 1.032-.37.829-.28 1.692-.697 2.36-1.277a.085.085 0 01.118.008.085.085 0 01-.008.119c-.684.594-1.567 1.023-2.415 1.31-.212.072-.822.3-1.034.37a.084.084 0 11-.053-.16z" fill="#464646"/><path fill-rule="evenodd" clip-rule="evenodd" d="M60.919 40.027c.097.447.135 1.354.039 1.94a.085.085 0 01-.097.07.085.085 0 01-.07-.097c.094-.567.057-1.445-.037-1.877a.084.084 0 01.165-.036zm-10.125.06c.133 1.17.338 2.22.703 2.86a.084.084 0 01-.146.084c-.374-.655-.589-1.727-.724-2.926a.084.084 0 01.167-.019zm1.076 1.525c.01.128.033.253.064.378l.027.105c.102.394.262.75.443 1.112a.085.085 0 01-.15.076 5.774 5.774 0 01-.483-1.253 2.688 2.688 0 01-.07-.403.084.084 0 11.168-.015z" fill="#464646"/><path fill-rule="evenodd" clip-rule="evenodd" d="M58.922 46.815c-.028-.004.145-1.174 1.262-1.566.51-.18 1.37-.15 1.736.345.187.252.223.651.187.948-.082.68-.429 1.097-.955 1.528-.15.123-.335.248-.547.387-.059.039-1.588-1.456-1.683-1.642z" fill="#FFBA9F"/><path fill-rule="evenodd" clip-rule="evenodd" d="M59.811 46.703a.977.977 0 01.216-.392c.312-.355.797-.49 1.306-.285a.17.17 0 01-.126.313c-.36-.145-.705-.057-.926.195a.632.632 0 00-.143.252.169.169 0 01-.327-.083z" fill="#333"/><path fill-rule="evenodd" clip-rule="evenodd" d="M60.538 46.234l-.002-.006s.063.183.153.327c.101.163.25.304.464.324a.169.169 0 11-.032.336c-.326-.032-.564-.233-.718-.482a1.634 1.634 0 01-.199-.45.168.168 0 11.334-.049z" fill="#333"/><path fill-rule="evenodd" clip-rule="evenodd" d="M46.961 87.288c-.258 4.17-.448 8.263-.681 12.465-.155 2.795-.262 4.841-.086 6.248l12.223-.035c.043-.872.202-1.478.514-3.137.026-.137.318 1.388.59 3.049l14.061-.442c-.037-2.51-.72-11.231-1.668-15.895-.129-.636-.638-2.166-1.199-3.788-.728-2.106-23.61-.791-23.754 1.535z" fill="#FF8A00" fill-opacity=".4"/><path fill-rule="evenodd" clip-rule="evenodd" d="M65.486 84.742c.45 3.229 1.644 7.206 2.095 10.468.627 4.538.524 5.835 1.165 10.376l.66-.021c-.642-4.54-.553-5.907-1.18-10.444-.452-3.263-1.646-7.24-2.095-10.47a.326.326 0 10-.645.09zm-6.926 15.883c-.57 1.326-1.4 3.272-1.639 5.342l.574-.003c.181-1.638.805-3.236 1.327-4.344.076-.163-.263-.995-.263-.995z" fill="#333"/><path fill-rule="evenodd" clip-rule="evenodd" d="M58.163 100.177c-.065-1.19-.164-2.755-.171-2.878-.182-3-.505-5.48-.505-8.487a.316.316 0 01.632 0c0 2.993.323 5.462.504 8.449.012.184.225 3.574.229 4.168 0 .191-.076.29-.088.303a.307.307 0 01-.176.097.305.305 0 01-.225-.042.307.307 0 01-.121-.137c-.56-1.19-2.288-3.853-2.334-3.952-.66-1.432-.953-7.37-.948-8.481 0-.155.017-.249.025-.272a.31.31 0 01.094-.142.31.31 0 01.199-.078.302.302 0 01.247.107c.072.081.095.19.07.288a3.551 3.551 0 00-.002.1c-.004.76.129 3.832.43 6.086.124.933.273 1.722.46 2.127.033.073.963 1.51 1.68 2.744zm-3.099-10.912zm9.482.311c.013.071.043.232.088.378.3.975 1.202 2.913 2.142 4.024.348.412.682.719 1.003.747a.316.316 0 11-.055.63c-.444-.04-.951-.4-1.431-.968-.992-1.174-1.946-3.218-2.264-4.247a2.66 2.66 0 01-.12-.54.61.61 0 01.021-.224.351.351 0 01.241-.245.317.317 0 01.375.444z" fill="#333"/><path fill-rule="evenodd" clip-rule="evenodd" d="M42.239 26.93c.436-.124.533-.636.384-1.101-.084-.26-.24-.498-.424-.625a.548.548 0 00-.486-.086.525.525 0 00-.337.339c-.075.203-.072.48-.002.74.07.263.21.504.383.635a.534.534 0 00.482.098zm-.089-.313c-.096.027-.18-.019-.25-.091a.972.972 0 01-.212-.413 1.048 1.048 0 01-.027-.473c.021-.1.061-.184.148-.211.096-.03.185.017.263.09.106.1.19.25.241.41.05.156.07.323.036.462-.025.106-.086.193-.199.226zm1.922-.211c.436-.124.533-.635.384-1.101-.084-.26-.24-.498-.425-.624a.548.548 0 00-.485-.087.524.524 0 00-.337.34c-.076.202-.073.48-.002.74.07.263.21.503.383.635a.533.533 0 00.482.097zm-.09-.313c-.095.027-.178-.018-.248-.091a.97.97 0 01-.213-.413 1.046 1.046 0 01-.027-.472c.02-.1.061-.185.148-.212.095-.03.185.017.263.09.105.1.19.25.24.41.051.157.07.323.037.462-.025.107-.086.194-.2.226zm2.099-.223c.235-.066.37-.239.423-.462.045-.19.025-.42-.045-.637-.083-.26-.238-.497-.421-.625a.541.541 0 00-.483-.087.52.52 0 00-.334.338c-.074.203-.07.48 0 .74.071.262.209.503.381.634.14.107.303.15.48.1zm-.089-.312c-.094.026-.175-.02-.244-.092a.982.982 0 01-.212-.414 1.056 1.056 0 01-.029-.472c.02-.1.06-.184.144-.21.094-.03.182.018.258.09.105.1.19.251.24.41a.9.9 0 01.038.463c-.025.106-.084.193-.195.225zm1.981-.246c.437-.123.534-.635.384-1.1-.083-.261-.24-.498-.424-.625a.55.55 0 00-.486-.087.525.525 0 00-.337.34c-.075.202-.072.48-.002.74.071.263.21.504.384.635.14.106.304.148.481.097zM47.884 25c-.096.028-.179-.018-.249-.091a.966.966 0 01-.212-.413 1.044 1.044 0 01-.028-.472c.021-.1.061-.185.148-.212.096-.03.185.017.263.09a.98.98 0 01.241.41c.05.157.07.324.037.462-.026.107-.086.194-.2.226zm4.41-.863c.436-.124.533-.636.384-1.102-.084-.26-.24-.497-.425-.624a.548.548 0 00-.485-.086.524.524 0 00-.337.339c-.076.202-.073.48-.002.74.07.263.21.504.383.635a.532.532 0 00.482.098zm-.09-.314c-.095.028-.178-.018-.248-.09a.97.97 0 01-.213-.413 1.048 1.048 0 01-.028-.473c.022-.1.062-.185.149-.212.095-.03.184.018.262.091.106.1.19.25.242.409.05.157.07.324.036.462-.026.107-.086.194-.2.226zm1.802-.21c.437-.124.534-.635.384-1.1-.083-.261-.24-.498-.424-.625a.548.548 0 00-.486-.087.525.525 0 00-.337.34c-.075.202-.072.48-.002.74.071.263.21.504.384.635a.53.53 0 00.481.097zm-.088-.313c-.096.027-.18-.018-.25-.091a.968.968 0 01-.213-.412 1.05 1.05 0 01-.027-.473c.021-.1.062-.185.148-.212.096-.03.185.017.263.09.106.1.19.25.241.41.05.157.07.324.037.462-.026.106-.086.194-.2.226zm1.922-.163c.438-.124.534-.636.385-1.102-.084-.26-.24-.497-.424-.624a.547.547 0 00-.486-.086.525.525 0 00-.337.339c-.075.203-.072.48-.002.74.07.263.21.504.383.635a.532.532 0 00.482.098zm-.088-.313c-.096.027-.179-.019-.249-.092a.97.97 0 01-.213-.412 1.046 1.046 0 01-.027-.473c.021-.1.061-.185.148-.211.096-.03.185.017.263.09.106.1.19.25.241.41.05.156.07.323.037.462-.026.106-.087.194-.2.226zm1.883-.191c.437-.124.534-.636.384-1.101-.083-.26-.24-.498-.424-.625a.548.548 0 00-.486-.086.524.524 0 00-.337.339c-.075.203-.072.48-.002.74.071.263.21.504.384.635a.53.53 0 00.481.098zm-.088-.313c-.096.027-.18-.019-.25-.092a.967.967 0 01-.213-.412 1.055 1.055 0 01-.027-.473c.022-.1.061-.184.148-.211.096-.03.185.017.263.09.106.1.19.25.241.41a.89.89 0 01.037.461c-.026.107-.086.195-.2.227zm6.897-1.599c.436-.124.534-.635.384-1.1-.084-.26-.24-.497-.424-.624a.55.55 0 00-.486-.086.524.524 0 00-.337.338c-.075.203-.072.481-.002.74.07.263.21.504.383.635a.532.532 0 00.481.097zm-.089-.313c-.096.027-.18-.018-.25-.091a.963.963 0 01-.212-.412 1.045 1.045 0 01-.027-.472c.021-.1.061-.185.148-.212.096-.029.185.018.263.09.106.1.19.25.241.41a.88.88 0 01.036.461c-.025.107-.086.194-.199.226zm-1.801.932a.57.57 0 00.387-.358c.085-.218.072-.516-.017-.793-.087-.274-.246-.525-.43-.66a.54.54 0 00-.494-.1.518.518 0 00-.335.354c-.072.211-.063.503.01.776.075.276.216.53.391.67.144.115.31.16.488.11zm-.088-.314c-.096.028-.18-.024-.251-.103a1.11 1.11 0 01-.226-.45 1.198 1.198 0 01-.035-.51c.02-.105.056-.196.143-.223.095-.03.184.024.263.103.11.108.2.272.254.445.055.171.077.352.045.501-.024.113-.08.205-.193.237zm3.762-.776c.436-.124.533-.636.384-1.101-.084-.26-.24-.498-.424-.625a.549.549 0 00-.486-.086.525.525 0 00-.337.339c-.076.203-.072.481-.002.74.07.263.21.504.383.635a.532.532 0 00.482.098zm-.09-.313c-.095.027-.178-.019-.249-.091a.969.969 0 01-.212-.413 1.044 1.044 0 01-.027-.472c.02-.1.061-.185.148-.212.096-.03.185.017.263.09.105.1.19.25.24.41.052.157.07.323.037.462-.025.106-.086.194-.2.226zm1.856-.183c.436-.124.534-.636.384-1.101-.084-.26-.24-.498-.424-.625a.548.548 0 00-.486-.086.524.524 0 00-.337.339c-.075.203-.072.48-.002.74.07.264.21.504.384.635.14.106.304.148.481.098zm-.089-.313c-.096.027-.179-.019-.249-.091a.97.97 0 01-.213-.413 1.049 1.049 0 01-.027-.473c.021-.1.061-.184.148-.211.096-.03.185.017.263.09.106.1.19.25.241.41.05.156.07.323.036.462-.025.106-.086.194-.199.226z" fill="#fff"/><path fill-rule="evenodd" clip-rule="evenodd" d="M37.42 22.762c-.113-.062.837-.357 1.074-.475.63-.316 2.75-.825 2.524-1.724-.133-.531-1.509-.405-2.226-.12-.402.16-.542-.065-.117-.305.198-.11 2.868-.946 2.687-1.669-.207-.827-1.184-.47-1.293-.62-.106-.147 1.478-.532 1.084-1.401-.451-.993-3.91 1.001-4.51 1.163-.183.05-.17-.25.075-.364.757-.352 2.108-1.08 1.863-1.663-.453-1.075-5.66 2.477-6.917 3.308-1.337.885 1.3 2.22 1.345 5.596.07 5.193-2.992 11.366-2.12 15.81.513 2.611 2.021 5.506 3.538 7.616 1.25 1.74 5.296 6.959 5.778 6.895.225-.03 5.241-5.087 5.233-5.177-.054-.598-6.568-6.555-7.726-9.28-.708-1.667-.667-9.074-.684-13.42-.003-.843.902-1.311.835-2.137-.058-.714-.444-1.475-.444-2.033z" fill="#FFBA9F"/><path fill-rule="evenodd" clip-rule="evenodd" d="M34.957 18.593c.611-.41 1.186-.718 1.904-1.06a.163.163 0 00-.14-.294c-.734.35-1.32.665-1.945 1.084a.163.163 0 00.181.27zm.841 1.24a.163.163 0 01-.25-.2.177.177 0 01.046-.054.77.77 0 01.101-.062c.453-.241 2.678-1.255 4.33-1.82a.163.163 0 01.106.307c-1.455.498-3.357 1.346-4.076 1.696-.123.06-.237.122-.257.133zm.855 1.493c.346-.198 1.698-.692 2.164-.893a.163.163 0 00-.13-.299c-.472.205-1.844.709-2.195.909a.163.163 0 10.161.283z" fill="#333"/><path fill-rule="evenodd" clip-rule="evenodd" d="M80.629 13.227c.035-.393.018-.99-.32-1.305-.705-.656-6.584-3.819-6.922-2.871-.17.478 1.029 1.557 1.694 1.86.464.21.18.447-.024.362-.894-.376-1.832-.88-2.583-1.125-.262-.086-1.172-.543-1.48.107-.282.598.453.99.672 1.116.458.263.439.246.65.451.238.231-1.254-.421-1.53.475-.276.9 3.943 1.947 3.867 2.168-.037.109-.376.069-1.58-.202-.77-.174-2.087-.41-2.142.402-.083 1.236 3.456 1.244 3.595 1.587.2.492-.449 1.686-.29 2.335.137.557.927.605.988 1.103.24 1.968.115 6.126.186 9.753.053 2.677-.314 5.229-.716 5.905-1.966 3.307-5.295 9.918-5.24 10.041.098.216 7.206 3.967 7.255 3.87 1.183-2.375 5.62-11.43 5.816-14.584.111-1.784-.283-3.624-.645-5.357-.74-3.539-1.32-6.537-2.269-11.068-.331-1.582 1.018-3.412 1.018-5.023z" fill="#FFBA9F"/><path fill-rule="evenodd" clip-rule="evenodd" d="M73.83 14.07l.015.004c.167.049 1.033.282 1.514.449a.163.163 0 01-.107.307c-.476-.165-1.333-.395-1.498-.444a.368.368 0 01-.061-.022.15.15 0 01-.074-.087.163.163 0 01.211-.208zm.096.202l-.003.008.003-.008zm0-.101zm-.066-.086c.031.02.054.05.065.084v-.003a.148.148 0 00-.065-.08zm-1.435-1.98c.56.201 2.508 1.045 3.657 1.502a.163.163 0 00.12-.302c-1.152-.459-3.106-1.304-3.666-1.506a.163.163 0 10-.11.306zM75.04 10.9l.039.018c.37.173 2.3 1.002 2.85 1.302a.163.163 0 01-.155.286c-.548-.299-2.466-1.122-2.833-1.293a.448.448 0 01-.11-.066.155.155 0 01-.045-.12.162.162 0 01.255-.128zm.07.116a.162.162 0 01-.045.131.15.15 0 00.045-.131z" fill="#333"/><path fill-rule="evenodd" clip-rule="evenodd" d="M54.478 55.55c.39 1.236 1.054 2.609 3.033 2.608 2.39 0 3.375-2.016 3.375-2.016.046.301 1.102 30.34 1.305 32.529.033.354-8.399 1.357-8.559.584-.485-2.342.846-33.704.846-33.704z" fill="#fff"/><path fill-rule="evenodd" clip-rule="evenodd" d="M60.788 64.197c.014.999.445 26.092 1.21 26.108 2.03.042 9.475-2.384 9.881-2.693.198-.15-.197-9.562-.168-10.826.123-5.457-.371-10.204 1.197-15.48.407-1.372 3.578-9.772 4.434-11.934.227-.572-6.916-4.804-7.947-5.16-.311-.107-3.322 6.839-4.19 8.104-1.1 1.604-3.206 2.125-4.293 2.206 0 0 2.332 3.986 1.953 5.703-.403 1.828-2.085 3.42-2.077 3.972zm-8.083-8.933c.787.015 1.83-.314 1.79-.248-.592 1-1.257 4.563-1.213 6.22.036 1.382 1.302 1.06 1.273 2.557-.098 5.023.223 27.141-.497 27.142-1.005.001-8.262-.693-8.32-1.371-.49-5.721-.917-16.581-1.161-22.282-.09-2.1.287-5.414-.425-6.268-1.831-2.194-3.519-4.173-4.634-5.798-.373-.542 4.607-5.941 5.877-6.643.217-.12 3.432 3.876 4.027 4.477 1.028 1.037 1.747 2.185 3.283 2.214z" fill="#333"/><path fill-rule="evenodd" clip-rule="evenodd" d="M51.371 61.819c-.057.183 3.184 1.906 3.184 1.9-.038-1.768-.027-2.448-.038-3.925-.02-2.404 0-4.537-.019-4.78 0-.007-.009-.009-.012-.003-.177.366-2.813 5.837-3.115 6.808zm12.439-1.501c.095-.374-2.822-6.811-2.956-5.676-.086.731-.022 3.769-.018 4.352.013 2.06-.035 3.61-.048 5.202 0 .01 2.836-3.15 3.022-3.878z" fill="#333"/></svg>