<svg width="144" height="140" fill="none" xmlns="http://www.w3.org/2000/svg"><circle cx="31.684" cy="65" r="25" fill="#FF8A00"/><path fill-rule="evenodd" clip-rule="evenodd" d="M121.851 39.614c-.823-2.86-3.36-11.554-3.902-13.181-1.325-3.984-1.901-5.882-7.755-4.287-3.335.91-28.868 8.656-32.09 9.504-5.06 1.332-3.88 3.923-3.035 7.203.644 2.503 3.444 11.943 4.063 13.797.83 2.489.983 5.773 6.696 4.116 3.255-.945 28.835-8.553 32.026-9.613 5.539-1.842 5.305-2.99 3.997-7.538z" fill="#333"/><path d="M116.044 28.948a31.886 31.886 0 01-.542-1.681c-.236-.801-.379-1.285-.761-1.49-.264-.141-.61-.13-1.159.04-.802.248-1.593.496-2.359.736-1.219.381-2.271.711-2.962.914-.453.134-.699.291-.823.528-.205.39-.034.912.276 1.862.067.206.143.439.222.692.083.264.155.504.22.716.252.834.391 1.293.62 1.558.271.315.628.304 1.114.178l.026-.007c1.283-.34 3.681-1.114 5.858-1.827.313-.103.494-.233.588-.422.177-.356.012-.837-.318-1.796zm-7.771 1.496c-.08-.256-.156-.49-.224-.696l-.011-.034 2.052-.62a53.183 53.183 0 00-.111-.364c-.872.265-1.622.49-2.058.622-.19-.598-.283-.98-.171-1.192.075-.143.263-.252.611-.354.333-.098.749-.225 1.226-.373l.392 1.297.111.363c.142.466.291.952.44 1.433l-2.042.618a63.234 63.234 0 00-.215-.7zm1.553 2.209c-.503.134-.659.084-.783-.06-.151-.176-.273-.527-.444-1.086.46-.14 1.197-.36 2.043-.618.152.488.301.964.442 1.402-.481.145-.915.271-1.258.362zm.124-5.332l1.378-.431.95-.297.396 1.31c-.772.24-1.585.49-2.331.716l-.393-1.298zm.504 1.662c.745-.227 1.558-.476 2.33-.717.142.464.29.95.44 1.433-.769.24-1.581.489-2.331.717l-.439-1.433zm.993 3.198c-.14-.438-.29-.914-.441-1.402a354.56 354.56 0 002.33-.717c.148.479.296.948.435 1.385-.754.243-1.578.505-2.324.734zm1.193-5.701c.346-.108.695-.217 1.046-.325.068-.021.131-.04.191-.055.334-.086.553-.089.697-.012.222.12.347.467.517 1.035-.543.186-1.267.42-2.054.666-.146-.478-.281-.925-.397-1.31zm.507 1.673a91.037 91.037 0 002.052-.665c.074.25.157.526.26.837.07.212.137.407.198.586-.534.185-1.267.422-2.071.674-.149-.483-.298-.968-.439-1.432zm2.899 2.434c-.049.098-.167.173-.382.244l-1.532.5c-.138-.436-.285-.905-.434-1.383a83.942 83.942 0 002.083-.678c.235.689.366 1.114.265 1.317z" fill="#fff"/><path fill-rule="evenodd" clip-rule="evenodd" d="M83.336 51.73c.488-.138.597-.71.43-1.232-.094-.291-.27-.556-.475-.698a.614.614 0 00-.544-.098.588.588 0 00-.377.38c-.085.227-.081.538-.003.83.08.293.235.563.43.71.157.118.34.165.539.109zm-.1-.35c-.107.03-.2-.02-.279-.102a1.087 1.087 0 01-.238-.461 1.175 1.175 0 01-.03-.53c.023-.11.068-.206.165-.236.107-.033.207.019.295.1.118.112.212.28.27.459a.993.993 0 01.04.517c-.029.12-.096.217-.223.253zm2.151-.232c.489-.138.597-.71.43-1.232-.094-.291-.269-.557-.475-.699a.613.613 0 00-.544-.096.586.586 0 00-.377.379c-.084.227-.08.538-.002.83.08.293.234.563.429.71.158.118.34.165.539.108zm-.1-.35c-.107.03-.2-.02-.278-.102a1.084 1.084 0 01-.239-.462 1.172 1.172 0 01-.03-.529c.024-.111.069-.206.166-.237.107-.032.207.02.294.102.118.11.213.279.27.458a.995.995 0 01.04.517c-.028.12-.096.217-.223.253zm2.349-.251c.263-.075.414-.268.473-.518.05-.213.028-.471-.05-.713-.093-.291-.267-.557-.471-.7a.606.606 0 00-.54-.097.581.581 0 00-.375.379c-.082.226-.078.537 0 .828.08.293.234.563.427.71.157.12.34.167.536.11zm-.1-.35c-.105.03-.196-.022-.273-.104a1.097 1.097 0 01-.237-.462 1.181 1.181 0 01-.032-.53c.023-.11.066-.205.161-.234.105-.033.203.02.289.102.117.111.211.28.269.459.056.176.078.363.041.518-.027.118-.093.215-.217.25zm2.218-.275c.489-.139.598-.711.43-1.233-.094-.291-.269-.556-.475-.698a.614.614 0 00-.544-.097.587.587 0 00-.377.38c-.084.226-.08.538-.002.828.08.295.234.564.43.71a.59.59 0 00.538.11zm-.1-.35c-.107.03-.2-.021-.278-.103a1.082 1.082 0 01-.238-.461 1.169 1.169 0 01-.03-.53c.023-.11.068-.206.165-.236.107-.033.207.02.294.101.119.111.213.28.27.458a.992.992 0 01.04.517c-.028.12-.095.218-.222.254zm4.936-.967c.489-.138.597-.71.43-1.232-.094-.291-.269-.557-.475-.699a.614.614 0 00-.544-.096.586.586 0 00-.377.379c-.085.227-.081.538-.002.829.079.294.234.564.429.71.158.119.34.166.539.11zm-.1-.35c-.107.03-.2-.02-.278-.102a1.085 1.085 0 01-.239-.462 1.172 1.172 0 01-.03-.529c.023-.111.069-.207.166-.237.107-.033.206.02.294.102.118.11.213.279.27.457a.995.995 0 01.04.518c-.028.12-.096.217-.223.253zm2.017-.232c.488-.138.597-.71.43-1.232-.094-.291-.27-.557-.475-.699a.614.614 0 00-.544-.097.587.587 0 00-.377.38c-.084.227-.08.538-.003.83.08.293.235.563.43.71.157.118.34.165.538.108zm-.1-.35c-.107.03-.2-.02-.279-.102a1.082 1.082 0 01-.238-.462 1.175 1.175 0 01-.03-.529c.023-.11.068-.206.165-.236.107-.033.207.019.294.1.119.112.213.28.27.459a.995.995 0 01.041.517c-.028.12-.096.217-.223.253zm2.153-.184c.49-.14.598-.712.43-1.233-.094-.291-.268-.557-.475-.699a.613.613 0 00-.543-.097.588.588 0 00-.378.38c-.084.227-.08.538-.002.829.08.294.235.564.43.71.157.119.34.166.538.11zm-.1-.35c-.106.03-.2-.022-.278-.103a1.086 1.086 0 01-.238-.462 1.174 1.174 0 01-.03-.529c.023-.111.068-.207.165-.237.107-.033.207.02.294.102.119.11.213.279.27.458a.995.995 0 01.041.517c-.029.12-.096.217-.223.253zm2.109-.217c.488-.139.597-.711.429-1.232-.093-.292-.268-.557-.475-.7a.612.612 0 00-.543-.096.587.587 0 00-.377.38c-.084.227-.08.538-.002.829.079.294.234.563.429.71a.594.594 0 00.539.109zm-.1-.35c-.107.03-.2-.021-.279-.103a1.077 1.077 0 01-.238-.461 1.179 1.179 0 01-.03-.53c.024-.11.068-.206.166-.236.106-.033.206.02.294.101.118.111.212.28.27.458a.991.991 0 01.04.517c-.028.12-.096.218-.223.254zm7.72-1.792c.489-.139.598-.711.43-1.232-.093-.291-.268-.556-.474-.698a.616.616 0 00-.544-.097.589.589 0 00-.377.38c-.084.226-.081.538-.003.828.08.294.235.563.43.71.157.118.34.165.538.109zm-.099-.35c-.107.03-.2-.021-.279-.103a1.077 1.077 0 01-.238-.46 1.173 1.173 0 01-.03-.53c.024-.11.069-.206.166-.236.107-.033.207.02.294.101.118.111.212.28.27.458a.988.988 0 01.04.516c-.028.12-.096.217-.223.253zm-2.015 1.047a.638.638 0 00.432-.4c.096-.245.081-.578-.018-.888-.098-.307-.276-.588-.483-.74a.605.605 0 00-.552-.11c-.181.056-.308.197-.375.396-.08.236-.071.562.012.867.083.31.242.594.437.75a.59.59 0 00.547.125zm-.1-.351c-.107.03-.2-.028-.28-.116a1.23 1.23 0 01-.252-.503 1.349 1.349 0 01-.041-.57c.022-.12.063-.22.161-.25.106-.034.206.026.295.114.123.122.222.305.284.498.061.192.086.395.05.561-.027.126-.09.23-.217.266zm4.211-.876c.489-.139.598-.711.43-1.232-.094-.291-.268-.557-.475-.7a.613.613 0 00-.543-.096.588.588 0 00-.378.38c-.084.227-.08.538-.002.829.079.294.235.563.429.71a.596.596 0 00.539.109zm-.099-.35c-.108.03-.201-.021-.279-.102a1.08 1.08 0 01-.238-.462 1.176 1.176 0 01-.031-.529c.024-.111.069-.207.166-.237.107-.033.207.02.294.102.119.11.213.279.27.457a.992.992 0 01.041.518c-.029.119-.096.217-.223.253zm2.077-.2c.488-.14.597-.712.429-1.233-.093-.291-.268-.557-.475-.699a.612.612 0 00-.543-.097.587.587 0 00-.378.38c-.084.227-.08.538-.002.829.079.294.234.564.429.71a.597.597 0 00.54.11zm-.1-.351c-.107.03-.201-.02-.279-.102a1.082 1.082 0 01-.238-.462 1.162 1.162 0 01-.03-.529c.023-.111.068-.207.165-.237.107-.033.207.02.294.101.119.112.213.28.27.458a.992.992 0 01.041.518c-.029.12-.096.217-.223.253z" fill="#F4F4F4"/><path fill-rule="evenodd" clip-rule="evenodd" d="M73.025 70.075c-.288-.324-.892-.99-.925-1.973-.02-.618-.29-2.067-.41-2.521-.252-.945-.707-2.171-.479-3.26.296-1.412-.119-2.12-.855-1.77-.431.205-.783.774-.958 1.484-.277 1.128-.243 2.509-.417 2.574-.113.041-.469-.793-.863-1.6-.422-.863-.872-1.82-1.05-2.17-1.173-2.317-1.451-3.712-2.538-4.197-.472-.21-1.062-.138-1.072-.154-.223-.33-.516-.67-1.106-.495-.718.213-.678.807-.532 1.394.008.035-.922.255-.906 1.248.004.274.09 1 .119 1.178.014.086-.629.146-.728.822-.105.714 1.464 4.889 1.84 5.588.453.843.998 1.766 1.557 2.494.454.59 3.86 4.18 5.043 5.152.05.041 1.938-2.137 4.28-3.794z" fill="#DD9476"/><path fill-rule="evenodd" clip-rule="evenodd" d="M63.366 57.188a.221.221 0 01.179-.324.206.206 0 01.201.099.82.82 0 01.052.114c.164.426 1.014 2.738 2.718 6.308a.222.222 0 01-.4.191c-1.712-3.588-2.567-5.912-2.731-6.34l-.02-.048zm-1.516.772a.222.222 0 01.178-.322.205.205 0 01.205.1.767.767 0 01.05.114c.16.423.985 2.721 2.649 6.268a.222.222 0 01-.4.189c-1.673-3.566-2.503-5.876-2.663-6.301a2.075 2.075 0 00-.018-.048zm-.89 2.392a.222.222 0 01.18-.324c.033-.002.129-.01.201.099a.637.637 0 01.044.094c.13.323.804 2.072 2.054 4.649a.222.222 0 01-.398.194c-1.258-2.593-1.935-4.352-2.066-4.677l-.014-.035z" fill="#333"/><path fill-rule="evenodd" clip-rule="evenodd" d="M123.317 68.437c.587-1.578.76-2.88.78-3.678.029-1.175-.115-2.776-1.746-4.19-.912-.79-2.948-1.478-5.208-1.298-2.224.177-4.466.99-5.874 2.772-.472.598-1.589 2.009-1.695 5.377-.051 1.576.106 3.808.281 4.876.288 1.766 1.132 4.01 2.187 4.936.28.246.665.442 1.033.529.446.105.888.125.89.127.087.08.046 2.807.077 2.82.371.152.956.706 4.097.72 1.824.009 3.476-.715 3.638-.84.049-.037-.098-7.054.058-8.367.143-1.206 1.062-2.658 1.482-3.784z" fill="#DD9476"/><path fill-rule="evenodd" clip-rule="evenodd" d="M114.311 67.668c-.213-.009-.342-.008-.501-.142-.216-.183-.147-.697.109-.807.434-.188 1.1-.094 1.543-.011.739.137 1.585.362 2.186.856.269.222.37.456.302.725a.364.364 0 01-.328.282c-.194.012-.413-.122-.577-.196-.377-.173-.76-.342-1.164-.443-.523-.131-1.03-.243-1.57-.264zm-4.743.704a7.51 7.51 0 01-.006-.535 5.63 5.63 0 01.015-.466c.391-.29.97-.458 1.426-.545.416-.079.626-.02.771.216.121.197.022.413-.05.527-.104.164-.4.222-.57.284-.414.15-1.111.284-1.586.52zm2.61 1.103c-.075.465-.251 1.475-.282 1.945-.011.151-.037.34-.03.516a.957.957 0 00.096.407c.148.281.469.38.846.335.452-.055.979-.312 1.196-.484a.222.222 0 00-.276-.347c-.176.14-.606.346-.974.391a.79.79 0 01-.239-.002c-.069-.013-.129-.039-.161-.1a.606.606 0 01-.046-.29c.002-.139.021-.28.029-.397.031-.46.205-1.448.278-1.903a.221.221 0 10-.437-.07zm.946 5.118c.485-.06.933-.182 1.157-.29.836-.406 1.277-.836 1.544-1.636a.221.221 0 10-.42-.14c-.226.677-.609 1.033-1.317 1.377-.197.095-.592.196-1.019.249a.221.221 0 00.055.44zm-2.055-5.553a.56.56 0 01.558.562.56.56 0 01-.558.562.56.56 0 01-.558-.562c0-.31.25-.563.558-.563zm4.072-.028a.56.56 0 01.557.562.56.56 0 01-.557.563.56.56 0 01-.558-.563c0-.31.25-.562.558-.562zm-.791 9.278a4.82 4.82 0 001.504-.217c1.28-.375 1.896-.71 2.665-1.592a.222.222 0 00-.334-.292c-.707.812-1.278 1.113-2.456 1.458-.316.093-.72.203-1.378.2a.22.22 0 00-.221.222.22.22 0 00.22.222z" fill="#333"/><path fill-rule="evenodd" clip-rule="evenodd" d="M119.788 69.834c-.037-.007.269-1.505 1.738-1.933.671-.195 1.779-.095 2.216.569.223.339.24.857.173 1.237-.154.873-.63 1.386-1.34 1.905a8.507 8.507 0 01-.733.461c-.078.046-1.945-1.993-2.054-2.24z" fill="#DD9476"/><path fill-rule="evenodd" clip-rule="evenodd" d="M121.361 69.886a.82.82 0 01.202-.315c.301-.308.75-.397 1.204-.184a.222.222 0 00.188-.401c-.644-.303-1.281-.163-1.709.276a1.267 1.267 0 00-.307.491.22.22 0 10.422.132z" fill="#333"/><path fill-rule="evenodd" clip-rule="evenodd" d="M121.475 69.25c.003.042.069.314.225.596.182.333.475.61.893.675a.22.22 0 00.252-.185.221.221 0 00-.185-.253c-.272-.042-.454-.234-.572-.45-.105-.191-.173-.432-.173-.432l.001.008a.221.221 0 10-.441.04z" fill="#333"/><path fill-rule="evenodd" clip-rule="evenodd" d="M108.673 59.749c-.339.55-.248 1.027-1.088 2.092-.405.511-2.188 2.142-2.08 3.094.059.516.515.801.972.963.441.156 1.152.177 1.414.415.773.704 1.696.643 1.703.585.149-1.313.224-1.89.415-2.207.536-.889 1.6-1.983 1.947-1.925.656.108 1.063 1.297 2.114 1.713.465.184.949.395 1.669.642.996.343 1.417 1.214 1.713.978.292-.233-.666-1.64-.607-1.688.494-.405 1.852 1.294 1.867 2.463.015 1.168.105 2.502.99 2.642 1.197.188 1.486-.985 2.918-.894 1.48.094 1.939.165 3.058-.469.816-.462 1.804-.129 2.21-1.017.472-1.032-1.292-1.548-1.503-3.66-.131-1.318-.374-2.41-1.741-3.072-1.255-.609-1.153-1.488-2.104-2.33-2.067-1.826-4.185-.924-5.791-1.004-1.444-.072-1.789-.816-3.114-.387-.966.314-1.806 1.509-3.089 1.925-.517.167-1.285.186-1.873 1.14z" fill="#333"/><path fill-rule="evenodd" clip-rule="evenodd" d="M112.377 62.282c.03-.112.072-.222.118-.328.148-.344.348-.638.628-.888.174-.156.381-.265.58-.381.225-.132.441-.274.609-.482.309-.383.51-.861.762-1.293.23-.395.505-.751.977-.928a.154.154 0 00-.108-.289c-.545.205-.869.607-1.135 1.062-.244.418-.436.884-.736 1.255-.143.179-.332.296-.524.409-.217.127-.441.248-.63.418-.314.28-.54.61-.705.995-.052.12-.098.243-.133.369a.154.154 0 00.297.08zm1.142-.115c.481.102.804.238 1.034.444.227.204.361.474.476.832.056.174.212.311.419.468.25.19.577.426.793.91a.154.154 0 00.281-.124c-.243-.547-.607-.818-.888-1.031-.147-.111-.273-.194-.313-.317-.134-.418-.298-.729-.563-.967-.262-.235-.627-.4-1.176-.515a.154.154 0 00-.063.3zm2.277-3.008c.609.037 1.093.315 1.492.557.294.178.547.337.769.395.465.12.937.02 1.402.107.631.118 1.179.556 1.574 1.079.398.525.644 1.137.658 1.61a.155.155 0 00.159.15.153.153 0 00.148-.159c-.015-.524-.28-1.206-.72-1.787-.441-.583-1.058-1.064-1.763-1.196-.457-.085-.923.017-1.381-.102-.199-.052-.423-.2-.687-.36-.436-.265-.967-.56-1.632-.601a.154.154 0 00-.019.307zm7.929 3.185c.437.474.538.957.598 1.365.045.306.072.573.17.776.269.553.509.835.695 1.085.257.343.394.622.349 1.576a.154.154 0 10.307.015c.051-1.077-.12-1.388-.41-1.776-.178-.238-.408-.506-.664-1.035-.087-.178-.104-.416-.143-.686-.068-.457-.186-.998-.676-1.529a.154.154 0 10-.226.21z" fill="#F4F4F4"/><path fill-rule="evenodd" clip-rule="evenodd" d="M113.069 60.768a1.02 1.02 0 00-.145-.08c-.24-.101-.65-.189-.982-.087-.315.096-.602.308-.873.53-.292.24-.565.492-.827.652-.226.138-.471.2-.707.279-.201.066-.396.145-.559.324-.266.293-.407.686-.55 1.05a4.003 4.003 0 01-.614 1.062.154.154 0 01-.236-.198c.235-.28.43-.639.564-.978.157-.397.318-.822.609-1.143.201-.222.44-.327.689-.41.215-.07.438-.124.644-.25.251-.152.512-.396.792-.626.302-.248.626-.479.978-.586.403-.124.9-.025 1.19.096.157.066.258.15.289.204a.154.154 0 01-.262.16zm-.686-1.906c.306.027.607.026.907.107.617.166.792.591.929.903a.153.153 0 10.281-.125c-.165-.375-.387-.875-1.13-1.075-.317-.086-.636-.088-.96-.117a.154.154 0 00-.027.307z" fill="#F4F4F4"/><path fill-rule="evenodd" clip-rule="evenodd" d="M69.873 76.645c-.305 1.76 2.075 4.183 2.742 5.077 2.517 3.372 8.679 10.8 12.32 12.65 4.727 2.402 18.112.906 18.239 1.29.793 2.403 4.442 16.772 4.532 16.772 1.523-.001 24.546-.047 28.838-.073 5.256-.032 6.921-.065 6.921-.065.273-3.544-2.073-19.855-3.915-23.243-3.876-7.13-17.394-9.695-17.792-9.306-.381.372-1.603 1.64-4.905 1.554-1.526-.04-2.8-1.35-2.838-1.342-2.501.503-10.787 2.539-13.407 3.764-.436.204-1.427.174-3.61.174-2.318 0-4.467.036-7.52-.01-.648-.009-8.888-7.271-10.812-9.276-.363-.378-1.55-2.557-3.546-2.7-.072-.005-1.956-2.642-2.472-2.321-1.013.63-3.433 2.311-4.506 3.984-.337.525 2.006 2.795 1.731 3.07z" fill="#FF8A00"/><path fill-rule="evenodd" clip-rule="evenodd" d="M89.134 84.409c-.196 1.246-.613 2.19-.856 2.766a.215.215 0 10.396.167c.252-.597.682-1.575.885-2.867a.215.215 0 10-.425-.066zm42.121 10.976a58.89 58.89 0 00.486 4.082c.47 2.569 1.93 9.564 3.102 12.512.044.11.169.164.28.121a.216.216 0 00.12-.28c-1.164-2.929-2.612-9.878-3.079-12.43a59.19 59.19 0 01-.48-4.04.215.215 0 10-.429.035zm-19.181-14.512c.67.98 1.773 1.488 2.609 1.847 1.375.59 3.802.627 5.801.002 1.359-.425 2.516-1.157 3.038-2.203a.216.216 0 00-.385-.193c-.476.953-1.544 1.598-2.781 1.985-1.896.593-4.199.572-5.503.012-.774-.331-1.804-.788-2.424-1.693a.215.215 0 10-.355.243zM74.59 72.092c-1.632.954-3.687 2.673-4.526 3.832a.215.215 0 10.348.253c.815-1.124 2.811-2.787 4.396-3.713a.215.215 0 10-.217-.372z" fill="#333"/><path fill-rule="evenodd" clip-rule="evenodd" d="M62.176 83.166c.044-.431.144-1.325-.406-2.141-.345-.513-.975-1.845-1.143-2.284-.35-.913-.7-2.174-1.522-2.922-1.066-.97-1.145-1.787-.343-1.935.468-.087 1.088.168 1.645.64.885.752 1.666 1.89 1.845 1.84.116-.032-.085-.917-.238-1.801-.163-.947-.36-1.988-.42-2.376-.407-2.564-.998-3.858-.401-4.888.258-.448.779-.735.778-.754-.013-.399.025-.846.606-1.05.706-.249 1.021.256 1.248.817.013.033.895-.335 1.464.48.158.224.513.862.594 1.024.039.078.595-.25 1.07.239.504.517 1.677 4.82 1.783 5.607.126.948.225 2.016.199 2.933-.022.745-.68 5.651-1.069 7.134-.016.062-2.82-.595-5.69-.563z" fill="#FFBA9F"/><path fill-rule="evenodd" clip-rule="evenodd" d="M62.458 67.065l.013.05c.117.443.785 2.827 1.499 6.74a.221.221 0 11-.436.079c-.71-3.893-1.375-6.264-1.491-6.706a.775.775 0 01-.026-.122.206.206 0 01.106-.199.222.222 0 01.335.158zm1.677-.271l.013.05c.12.438.8 2.797 1.533 6.666a.222.222 0 11-.435.082c-.73-3.85-1.406-6.196-1.525-6.632a.791.791 0 01-.026-.123.205.205 0 01.107-.2.221.221 0 01.333.157zm2.121 1.415l.008.036c.085.34.566 2.164 1.066 5.002a.222.222 0 01-.437.077c-.496-2.821-.974-4.633-1.058-4.972a.703.703 0 01-.02-.102.205.205 0 01.105-.197.222.222 0 01.336.156zM49.212 98.326c-2.604-.367-8.006.487-8.33.572-1.018.268-2.189.696-3.085 1.256-1.394.872-1.566 1.429-2.27 1.967-.36.275-1.405.83-1.804 1.033-1.314.669-2.127 1.923-2.757 3.26-1.12 2.377-.934 5.553-.853 8.098.176 5.555.992 10.908 1.786 16.396.275 1.903.212 7.675.545 7.861.644.36 6.75.3 7.792.25 5.557-.268 20.627-.432 22.157-.414.033.001-.516-6.036-.432-6.162.142-.213 2.581 5.601 2.906 6.156l8.375-.03c-.162-1.31-2.71-9.969-5.221-14.796-1.1-2.117-2.286-6.453-2.772-8.792-.562-2.703-1.73-6.243-1.886-6.687-.04-.114 2.095-1.481 2.494-3.415.186-.901.429-1.719.596-2.521.887-4.262 1.465-7.46 2.168-12.769.135-1.024.694-5.683.29-5.885-.818-.411-6.933-1.308-7.518-.813-.222.187-1.267 3.52-1.512 4.134-1.132 2.848-1.593 5.226-2.736 8.069-.276.687-1.66 4.004-2.31 4.437-.123.082-2.716-.797-5.623-1.205z" fill="#333"/><path fill-rule="evenodd" clip-rule="evenodd" d="M38.342 90.722c-1.29-1.192-2.064-2.324-2.459-3.059-.58-1.082-1.2-2.642-.346-4.729.478-1.167 2.052-2.768 4.243-3.666 2.156-.884 4.628-1.185 6.78-.187.721.334 2.426 1.122 4.112 4.21.789 1.446 1.694 3.6 2.034 4.678.563 1.782.832 4.271.286 5.632-.146.362-.41.8-.7 1.068-.723.672-2.238.893-2.24.897-.043.114.081 5.68.059 5.706-.064.073-.179.088-1.465.33-2.04.384-6.24.374-6.449.335-.063-.012.211-7.034-.552-8.184-.702-1.057-2.381-2.179-3.303-3.03z" fill="#FFBA9F"/><path fill-rule="evenodd" clip-rule="evenodd" d="M46.472 85.434c.175-.098.286-.153.362-.333.105-.247-.173-.651-.436-.636-.447.027-.969.392-1.307.65-.565.432-1.184.984-1.48 1.657-.133.303-.118.543.053.742a.344.344 0 00.398.097c.168-.072.296-.279.403-.412.245-.306.496-.613.794-.87.386-.335.766-.645 1.213-.895zm4.543-1.484c.002 0-.094-.189-.227-.442a6.986 6.986 0 00-.212-.388c-.454-.077-1.014.028-1.437.15-.384.111-.536.25-.558.512-.018.218.158.358.267.423.157.095.433.017.602-.004.414-.05 1.064-.246 1.565-.25zm-2.036 2.308c.256.352.824 1.112 1.046 1.487.056.095.133.206.194.322a.566.566 0 01.083.259c0 .061-.039.106-.089.144a.74.74 0 01-.197.102 2.166 2.166 0 01-.983.086.222.222 0 00-.09.433c.258.054.816.045 1.223-.102.343-.125.574-.35.58-.656a.919.919 0 00-.094-.389c-.07-.153-.173-.301-.246-.425-.227-.383-.807-1.161-1.069-1.521a.221.221 0 10-.358.26zm1.791 3.558c.269.08.377.43.362.755-.035.753-.55 1.296-1.181 1.424-.812.164-1.816-.16-2.444-.833-.179-.191-.677-.719-.367-.978.096-.08.315-.055.43-.05.267.011.757.11 1.86-.07.685-.111 1.056-.333 1.34-.248z" fill="#333"/><path fill-rule="evenodd" clip-rule="evenodd" d="M50.77 89.816c.269.08.386.435.362.755-.004.049-.98.256-1.947.365-1.097.123-1.84.047-1.876.003-.195-.24-.393-.567-.169-.755.096-.08.315-.055.43-.05.267.011.757.11 1.86-.07.685-.111 1.056-.333 1.34-.248z" fill="#fff"/><path fill-rule="evenodd" clip-rule="evenodd" d="M50.833 89.605c-.146-.043-.31-.032-.512.016-.23.056-.523.16-.927.227-1.076.175-1.555.078-1.816.067-.092-.004-.245-.016-.365.007a.465.465 0 00-.214.094c-.205.17-.222.408-.12.656.104.251.347.516.466.644.681.728 1.77 1.076 2.65.898.724-.147 1.318-.767 1.358-1.631a1.25 1.25 0 00-.145-.67.65.65 0 00-.375-.308zm-3.557.757c-.017.02-.015.045-.01.07.01.052.035.105.066.158.099.172.255.335.337.423.575.616 1.494.917 2.238.767.538-.11.974-.575 1.004-1.218a.87.87 0 00-.057-.372c-.032-.074-.075-.139-.147-.16-.11-.032-.233.007-.398.052-.22.06-.491.146-.844.203-1.129.185-1.631.084-1.905.073-.053-.002-.13-.01-.204-.007-.026 0-.068.009-.08.01zm2.801-5.204a.53.53 0 00-.23.713.53.53 0 00.71.237.53.53 0 00.231-.713.53.53 0 00-.71-.237zM46.63 86.88a.531.531 0 00-.231.714.53.53 0 00.71.237.531.531 0 00.231-.714.53.53 0 00-.71-.236zm2.94 8.324c-1.568-.018-2.592-.537-3.136-1.15a.221.221 0 10-.33.295c.601.677 1.725 1.278 3.46 1.298a.222.222 0 00.006-.443z" fill="#333"/><path fill-rule="evenodd" clip-rule="evenodd" d="M42.29 90.358c.032-.024-.96-1.276-2.53-.981-.717.134-1.702.75-1.797 1.575-.048.42.18.912.422 1.235.554.74 1.24.994 2.146 1.143.257.043.557.065.9.084.094.006.874-2.775.86-3.056z" fill="#FFBA9F"/><path fill-rule="evenodd" clip-rule="evenodd" d="M41.125 90.881a1.247 1.247 0 00-.487-.293c-.576-.197-1.201-.034-1.637.522a.154.154 0 10.242.19c.346-.441.84-.576 1.296-.421a.924.924 0 01.366.217c.06.061.156.062.217.003a.154.154 0 00.003-.218z" fill="#333"/><path fill-rule="evenodd" clip-rule="evenodd" d="M40.084 90.746c.012.032.053.25.044.507-.01.28-.1.568-.354.75a.154.154 0 00.179.25c.338-.242.47-.617.482-.99.011-.32-.05-.591-.065-.63a.154.154 0 00-.2-.087.154.154 0 00-.086.2zm9.006-13.667c.32.096.8.532.967.798.612.978.56 2.461-.264 3.302-.748.762-1.692 1.299-2.664 1.707-2.97 1.248-5.627 1.581-6.438 2.087-1.152.719-.946 1.767-.093 3.131.238.38.82 1.342.758 1.519-.026.074-.782-.398-1.864-.076-.956.285-1.038.607-1.373 1.206-.027.048-2.45-1.377-3.089-2.147-1.474-1.777-2.811-4.59-1.061-6.54.538-.599 1.803-1.235 1.845-1.364.087-.268.384-.91.676-1.299.905-1.209 2.274-1.863 3.718-2.223a7.768 7.768 0 013.162-.123c.68.115 1.391.404 2.082.412.567.007 1.046-.32 1.57-.49.64-.21 1.453-.187 2.067.1z" fill="#333"/><path fill-rule="evenodd" clip-rule="evenodd" d="M37.77 84.248c-.887-.927-1.313-1.728-1.468-2.965a.154.154 0 10-.305.038c.163 1.31.612 2.158 1.552 3.14a.154.154 0 10.222-.213zm11.296-5.514c.176 1.044-.395 1.884-1.398 2.483-1.574.94-4.193 1.292-6.828.9a.154.154 0 00-.045.305c2.714.404 5.41.027 7.03-.94 1.126-.673 1.742-1.628 1.544-2.8a.154.154 0 10-.303.052z" fill="#CBAA8E"/><path fill-rule="evenodd" clip-rule="evenodd" d="M45.145 79.862c-.53.665-1.556.866-2.234.977-.877.145-1.7.04-2.528-.031-1.293-.113-2.6-.153-4.143.838a.154.154 0 00.166.259c1.47-.945 2.719-.899 3.95-.79.854.074 1.7.177 2.605.028.738-.121 1.846-.364 2.424-1.088a.154.154 0 00-.24-.192z" fill="#CBAA8E"/><path fill-rule="evenodd" clip-rule="evenodd" d="M46.33 114.679c.053.017.037 1.521.033 2.124a273.023 273.023 0 01-.126 5.213c-.043 1.366-.178 2.412-.019 2.412.843 0 1.36-.119 1.466-.47.056-.186.104-1.281.12-2.347.022-1.437.085-2.872.11-4.308.005-.309.08-2.965.048-2.963-.263.017-1.364.305-1.631.339zm4.873-1.042c-.049.026.109 1.582.218 2.174.212 1.139.609 3.122.985 4.905.282 1.338.598 2.344.442 2.372-.83.148-1.359.122-1.525-.205-.089-.173-.327-1.243-.53-2.29-.275-1.41-.588-2.812-.864-4.222-.06-.303-.409-2.413-.378-2.416.263-.03 1.383-.304 1.652-.318z" fill="#F4F4F4"/><path fill-rule="evenodd" clip-rule="evenodd" d="M62.98 108.474c-4.658 2.654-7.902 4.041-13.606 5.289-5.159 1.129-8.032.78-8.741.901a.215.215 0 10.072.424c.71-.12 3.59.228 8.76-.904 5.755-1.259 9.028-2.659 13.728-5.336a.215.215 0 10-.213-.374zm-26.898-6.17a.226.226 0 01-.063-.002c-.126-.023-.155-.113-.163-.134a.21.21 0 01-.005-.144.204.204 0 01.11-.127.184.184 0 01.076-.022c.01-.001.06-.003.142-.003.78-.004 5.021.028 6.336-.009 6.666-.19 8.797-.966 12.044-2.177a.215.215 0 01.15.403c-3.284 1.226-5.439 2.013-12.182 2.204-1.317.038-5.566.006-6.346.01l-.099.001zm.19-.221a.22.22 0 01-.047.141.189.189 0 00.047-.141zm-.011-.064a.196.196 0 00-.166-.141c.08.014.14.07.166.141z" fill="#333"/><path fill-rule="evenodd" clip-rule="evenodd" d="M61.154 109.734c.2.909.227 3.476.36 7.45.231 6.86.316 8.684.1 14.761a.215.215 0 10.43.015c.216-6.089.132-7.916-.099-14.79-.135-4.016-.169-6.611-.371-7.528a.215.215 0 00-.42.092zm-7.897-49.89l.01.005c.439.19 3.268 1.254 4.861 1.95a.215.215 0 11-.172.394c-1.593-.696-4.421-1.759-4.86-1.949a.392.392 0 01-.14-.091.2.2 0 01-.021-.24.203.203 0 01.223-.11.23.23 0 01.099.041zm.014.334a.215.215 0 01-.173.052.192.192 0 00.173-.052zm5.281-9.807c.712 1.56 1.35 2.772 2.298 4.608a.215.215 0 10.383-.197c-.944-1.83-1.58-3.036-2.29-4.59a.216.216 0 10-.39.18zm9.26 6.951c.17-.458 1.589-3.805 2.365-4.815a.216.216 0 00-.34-.263c-.796 1.035-2.254 4.46-2.429 4.928a.216.216 0 00.404.15z" fill="#333"/><path opacity=".88" d="M43.54 62.353s-9.582-54.904-9.8-55.251c.265 17.134.467 19.895-6.196 51.32 4.76-1.057 12.463.474 15.997 3.93z" fill="#fff"/><path d="M33.913 7.12l-.087-.01-6.785 54.937.087.01L33.913 7.12z" fill="#333"/><path opacity=".88" d="M25.845 57.962s-12.343-1.504-16.309-2.013c10.83-23.16 21.662-44.662 23.02-47.397l-6.71 49.41z" fill="#fff"/><path d="M3.525 59.84l-.076-.043L33.112 6.919l.077.043L3.525 59.84z" fill="#333"/><path d="M4.827 59.984l-.072-.043 28.4-53.04.072.042-28.4 53.04zm22.699-8.43l-1.493-.138-.013.094 1.496.138a.047.047 0 00.01-.094zm-.565 3.612h-.002l-1.39-.13-.012.093 1.394.13a.048.048 0 00.053-.042.048.048 0 00-.043-.05zm1.15-8.298h-.002l-1.476-.131-.012.093 1.48.132c.024.002.045-.017.047-.043.003-.025-.014-.048-.037-.05zm1.407-9.352h-.001l-1.683-.135-.012.093 1.685.136c.02.001.038-.019.04-.045.003-.025-.01-.047-.029-.05zm1.106-9.261h-.001l-1.6-.15-.012.094 1.599.15c.014 0 .028-.019.031-.045.004-.025-.004-.046-.017-.049zm1.432-9.29l-1.837-.179-.012.093 1.83.178c.008.001.019-.019.024-.044.005-.025.002-.046-.005-.048zm-3.269 23.269l-1.558-.137-.013.094 1.563.137a.047.047 0 00.051-.043c.002-.025-.013-.05-.043-.05zm1.163-9.253l-1.53-.167-.013.093 1.533.168a.048.048 0 00.052-.042.047.047 0 00-.041-.052zm1.15-9.286l-1.486-.191-.012.093 1.487.191a.047.047 0 00.053-.04.047.047 0 00-.041-.053zm1.208-9.43l-1.492-.14-.012.095 1.495.139a.047.047 0 00.052-.043c.002-.026-.016-.047-.043-.051z" fill="#333"/><path d="M26.823 51.578c.014.002.027-.013.03-.033.002-.02-.007-.037-.02-.039l-9.96-1.35c-.014-.002-.027.012-.03.032-.003.02.006.037.02.04l9.96 1.35zm.894-6.974c.014.002.027-.013.03-.032.002-.02-.007-.038-.02-.04l-8.366-1.134c-.015-.002-.028.012-.03.032-.003.02.006.038.02.04l8.366 1.134zm-5.837-7.903l6.799.828c.013.001.027-.014.03-.033.002-.02-.008-.038-.021-.04l-6.799-.827c-.014-.002-.027.013-.03.033-.002.02.007.037.02.039h.001zm7.722-6.055c.014.002.027-.012.03-.032.002-.02-.007-.038-.02-.04l-5.206-.704c-.014-.001-.028.013-.03.033-.003.02.006.037.02.04l5.206.703zm.924-6.95c.014.002.027-.013.03-.032.002-.02-.007-.038-.02-.04l-3.569-.504c-.014-.001-.027.013-.03.033-.002.02.007.037.02.04l3.569.503zm.927-6.938c.013.002.026-.012.03-.032.002-.02-.007-.038-.02-.04l-1.923-.32c-.013 0-.027.012-.03.032-.003.02.006.038.02.04l1.922.32z" fill="#333"/><path d="M32.735 6.884L25.314 62.09l.087.011 7.42-55.206-.086-.011zM16.986 50.203a.11.11 0 10-.218-.028.11.11 0 00.218.029zm2.476-6.746a.11.11 0 10-.219-.028.11.11 0 00.219.028zm2.53-6.769a.11.11 0 10-.218-.028.11.11 0 00.218.028zm2.492-6.766a.11.11 0 10-.218-.028.11.11 0 00.218.028zm2.561-6.734a.11.11 0 10-.218-.028.11.11 0 00.218.028zm2.602-6.766a.11.11 0 10-.218-.028.11.11 0 00.218.028z" fill="#333"/><path d="M34.623 63.836L5.28 60.594l1.592-1.16 6.245.677.762-1.233-.524-.318s5.638.492 7.681.998c.892.338 2.782 2.074 2.782 2.074l8.872 1.193 1.933 1.01z" fill="#333"/><path d="M22.825 61.113a26.187 26.187 0 00-1.764-1.262l-.905-.116-.503.971 3.172.407zm-3.431-.444l.46-.977-2.077-.266.198 1.06 1.42.183zm-1.687-.214l-.25-1.068-.684-.088-.607.958 1.54.198zm-3.413-.44l.638-.954-.845-.108-.011.007-.633.946.851.109z" fill="#fff"/><path d="M17.52 59.636l-.97.646.322.042.7-.466-.051-.222zm2.067-.003l-.231-.03-1.305.869.23.03 1.306-.869zm.221.129l.046-.1-.033-.004-1.305.869.12.015 1.172-.78zm-2.318-.253l-.014-.065-1.207.803.094.012 1.128-.75zm3.571.315l-.128-.016-1.264.84-.016.031.208.027 1.264-.841-.064-.041zm-2.171-.281l-.354-.045-.659.438.047.25.966-.643zm3.197.983l-.133-.096-.68.452.233.03.58-.386zm-5.302-1.254l-.012-.001-.01.016.022-.015zm-1.877-.242l-.094-.012-1.305.868.094.012 1.305-.868zm-.185.315l.055-.082-.99.658.059.007.876-.583zm-.095-.35l-.232-.03-.616.41-.223.333 1.071-.713zm6.664.985l-.056-.038-1.19.792.094.012 1.152-.767zm.448.303c-.113-.08-.226-.157-.337-.233l-1.077.717.576.073.838-.557z" fill="#fff"/><path d="M15.181 61.5l-1.43-.184 1.969-3.098 1.43.184-1.97 3.098zM33.772 6.845l-.74-.095-7.225 56.332.74.095 7.225-56.332z" fill="#333"/><path d="M26.372 41.193l-.123.233 3.843 2.036.123-.233-3.843-2.036zm2.684-17.758l-.123.233 3.462 1.835.124-.233-3.463-1.835zm5.069-16.638l-1.463-.188-.053.414 1.463.188.053-.414z" fill="#333"/><path d="M33.961 3.478l-.13-.017-.491 3.825.13.016.491-3.824z" fill="#333"/><path d="M33.474 6.672a.174.174 0 01-.192.153l-.315-.04a.173.173 0 01-.147-.197.173.173 0 01.192-.152l.314.04c.094.012.16.1.148.196zm-3.23 35.162a.344.344 0 01-.385.297l-.631-.08a.344.344 0 11.087-.683l.631.08a.344.344 0 01.298.386zm-3.454 16.52c-.02.144-.144.247-.279.23L9.26 56.37c-.136-.018-.23-.149-.211-.293.018-.144.142-.248.278-.23l17.252 2.213c.135.017.23.148.211.293zM3.195 59.702l-.104.005-.074-1.713.104-.004.074 1.712zm3.663-1.236l-.103-.013-.218 1.7.103.013.218-1.7zm3.448.446l-.104-.014-.218 1.7.104.014.218-1.7zm3.448.441l-.104-.013-.218 1.7.104.013.218-1.7zm3.448.437l-.104-.013-.218 1.7.104.013.218-1.7zm3.448.446l-.104-.013-.218 1.7.103.013.218-1.7zm3.448.441l-.104-.013-.218 1.7.104.013.218-1.7zm3.447.446l-.103-.014-.218 1.7.103.013.218-1.7zm3.448.441l-.103-.013-.218 1.7.103.013.218-1.7zm3.448.441l-.103-.013-.218 1.7.103.013.218-1.7zM44.83 63.03l-.92 1.712.092.05.92-1.712-.092-.05zm-3.09-.398l-.92 1.712.093.05.92-1.713-.093-.049zm-3.262-.417l-.921 1.71.091.05.922-1.71-.092-.05z" fill="#333"/><path d="M38.4 62.435c-.023-.005-.107-.014-.131-.017L3.074 57.903c-.187-.024-.342-.009-.348.033-.005.042.142.096.328.12l35.195 4.514.056.006c.037-.05.076-.095.095-.141zm7.121.683c-.005.042-.04.072-.078.067l-7.07-.907c-.038-.004-.064-.042-.058-.085.005-.042.04-.072.078-.067l7.07.907c.038.005.063.042.058.085zm-.501.839c-.003.022-.183.016-.402-.013l-41.484-5.32c-.22-.029-.396-.069-.393-.09.003-.02.183-.015.403.013l41.483 5.321c.22.028.396.069.393.09zM32.312 25.3l1.114-18.009.088.005-1.114 18.01-.088-.006z" fill="#333"/><path d="M32.412 25.468l-.087-.011-4.964 38.695.088.011 4.963-38.695zm11.545 39.385L33.708 7.011l.087-.016 10.249 57.843-.087.015z" fill="#333"/><path d="M29.075 42.845l-.088.003.506 19.8.088-.003-.506-19.8zm-5.734 18.84l-.085-.023 5.252-19.13.085.024-5.252 19.129zm20.522 1.881c.005.038-.035.074-.09.081-.053.008-.101-.017-.106-.055l-.054-.41c-.005-.038.034-.074.088-.081.054-.008.103.017.108.055l.054.41zm-6.268-.551c.005.038-.035.074-.088.081-.055.008-.103-.017-.108-.055l-.054-.41c-.005-.038.035-.074.089-.081.054-.007.102.018.107.055l.054.41zM4.72 57.886c-.024.045-.095.054-.16.02-.065-.035-.098-.1-.074-.144l.26-.49c.024-.045.095-.054.16-.02.065.035.098.099.074.144l-.26.49zm1.26.144c-.023.046-.095.054-.16.02-.064-.034-.098-.099-.074-.144l.26-.49c.024-.044.096-.053.16-.02.065.035.098.1.074.145l-.26.49z" fill="#333"/><path d="M29.632 61.045c0 .053-.06.095-.135.096-.076 0-.137-.042-.137-.094l-.003-.57c0-.053.06-.096.135-.096.076 0 .137.041.137.094l.003.57zm-5.679-1.257c-.015.05-.085.074-.158.052-.072-.021-.118-.08-.104-.13l.163-.546c.014-.05.085-.074.157-.053.072.022.119.08.104.13l-.162.547zM11.83 56.532l-1.308 3.488.082.03 1.308-3.488-.083-.03zm.103 3.711l.074-3.724-.087-.002-.075 3.724.088.002zm19.459-35.456l-.085-.006-1.258 18.672.085.006 1.258-18.672zm-5.037 16.577L22.602 62.06l.084.015 3.753-20.695-.084-.015z" fill="#333"/><path d="M28.342 62.477l1.698-19.22.085.008-1.698 19.22-.085-.008zm-1.834-.267c.03-.039.016-.1-.031-.135l-6.122-4.723c-.046-.036-.108-.034-.138.005-.03.038-.016.099.031.135l6.122 4.721c.046.037.109.035.138-.003z" fill="#333"/><path d="M26.298 62.112c-.038-.02-3.836-2.087-5.706-4.432l.034-.028c1.864 2.338 5.655 4.401 5.693 4.422l-.02.038z" fill="#333"/><path d="M16.067 57.597c-2.801-.36-4.77-1.094-4.8-1.105l.017-.041c.044.017 4.464 1.666 9.504 1.219h.007l.006.002c1.16.64 5.237 1.242 5.7.703l.034.028c-.47.547-4.572-.045-5.75-.689-1.689.15-3.309.064-4.718-.117zm-4.824.895a.113.113 0 11-.223-.029.113.113 0 01.223.029zm17.918.785l-3.349 2.97.059.066 3.349-2.97-.059-.066zm-1.634-.909l-4.207 3.097.052.07 4.207-3.096-.052-.07z" fill="#333"/><path d="M27.602 60.866a.14.14 0 11-.278-.036.14.14 0 01.278.036z" fill="#333"/><path d="M27.767 60.679a.14.14 0 11-.278-.036.14.14 0 01.278.036z" fill="#333"/><path d="M24.059 62.38l-.033-.03 3.408-3.893.013.004c.078.02 7.9 2.021 16.098 3.867l-.01.042a638.103 638.103 0 01-16.086-3.864l-3.39 3.874z" fill="#333"/><path opacity=".95" d="M37.394 62.264s-5.863-41.781-5.763-39.98c.483 8.685-.251 22.437-2.512 37.088 1.104-.198 5.358-.331 8.275 2.892z" fill="#fff"/><path d="M37.605 64.03l-6.061-42.05.087-.012 6.061 42.05-.087.012zm-11.707-3.594a.14.14 0 11-.278-.036.14.14 0 01.278.036z" fill="#333"/><path d="M26.063 60.253a.14.14 0 01-.278-.036.14.14 0 11.278.036zm-14.043-.667a.113.113 0 11-.223-.029.113.113 0 01.224.029z" fill="#333"/><path d="M12.02 59.414a.112.112 0 11-.223-.029.112.112 0 01.223.03zm-.834-.754a.113.113 0 11-.224-.029.113.113 0 01.224.029zM32.568 8.679l-.031-.111.54-1.39.081.033-.59 1.468zm4.812 53.59c-2.008-1.289-8.141-2.862-8.203-2.878l.01-.043c.063.016 6.203 1.591 8.217 2.884l-.023.037zm6.114 2.329a.179.179 0 01-.2.155l-1.617-.208a.179.179 0 01.045-.354l1.617.207a.179.179 0 01.155.2zm-7.68-.985a.178.178 0 01-.2.154l-.514-.066a.179.179 0 01.045-.354l.514.066a.179.179 0 01.155.2zM3.402 59.477a.19.19 0 00.159.216l.297.038a.19.19 0 00.208-.168.19.19 0 00-.159-.216l-.297-.038a.19.19 0 00-.208.168zm17.282 2.558l10.595 1.36.101-.79-10.595-1.36-.101.79zM8.792 60.25l3.832.492.069-.539-3.831-.491-.07.539z" fill="#333"/><path d="M39.773 68.852L2.298 64.045S1.226 62.943.612 62.22c.943-1.894 2.286-2.853 2.286-2.853l41.92 5.377s-2.22 3.122-5.045 4.108z" fill="#333"/><path d="M1.01 61.508a8.726 8.726 0 00-.398.713c.613.723 1.685 1.825 1.685 1.825l37.476 4.807c1.182-.413 2.258-1.2 3.11-1.975a518.64 518.64 0 01-21.678-2.347c-6.975-.905-16.072-1.877-20.195-3.024zm32.113 3.223a.7.7 0 11-1.388-.178.7.7 0 011.388.178z" fill="#333"/><path d="M32.828 64.978a.521.521 0 11-.798-.671.521.521 0 01.798.67z" fill="#fff"/><path d="M32.598 64.156a.526.526 0 00-.282-.016l-.408.484a.525.525 0 00.064.276l.626-.744zm.349.456l-.462.55a.518.518 0 00.207-.068l.224-.266a.52.52 0 00.031-.216zm-.204-.384a.523.523 0 00-.092-.057l-.649.77c.02.029.045.056.072.081l.67-.794z" fill="#fff"/><path d="M25.528 64.465a.7.7 0 10.177-1.388.7.7 0 00-.177 1.388z" fill="#333"/><path d="M26.015 64.107a.521.521 0 11-.797-.672.521.521 0 01.797.672z" fill="#fff"/><path d="M25.786 63.285a.525.525 0 00-.283-.016l-.407.484a.523.523 0 00.064.276l.626-.744zm.215.134a.428.428 0 00-.037-.039l-.67.796c.014.011.03.02.044.03l.663-.787zm-.071-.062a.528.528 0 00-.092-.057l-.648.77c.02.029.045.056.072.081l.669-.794z" fill="#fff"/><path d="M18.715 63.594a.7.7 0 10.178-1.388.7.7 0 00-.178 1.388z" fill="#333"/><path d="M19.203 63.236a.521.521 0 11-.797-.671.521.521 0 01.797.67z" fill="#fff"/><path d="M19.189 62.548a.456.456 0 00-.038-.039l-.67.796.045.03.663-.787zm.134.322l-.463.549a.517.517 0 00.208-.068l.224-.266a.52.52 0 00.03-.215zm-.204-.384a.53.53 0 00-.093-.057l-.648.77c.02.029.045.056.072.081l.669-.794z" fill="#fff"/><path d="M12.686 62.11a.7.7 0 11-1.388-.178.7.7 0 011.388.178z" fill="#333"/><path d="M12.391 62.357a.521.521 0 11-.797-.671.521.521 0 01.797.67z" fill="#fff"/><path d="M12.161 61.535a.526.526 0 00-.282-.016l-.407.484a.523.523 0 00.064.276l.625-.744zm.216.134a.443.443 0 00-.038-.039l-.67.796a.45.45 0 00.045.03l.663-.787zm.133.321l-.462.55a.518.518 0 00.207-.068l.224-.266a.52.52 0 00.032-.215z" fill="#fff"/></svg>