<svg width="20" height="20" fill="none" xmlns="http://www.w3.org/2000/svg"><path d="M0 10c0 4.299 2.714 7.964 6.522 9.377L7.392 10 6.521.621A10.004 10.004 0 000 10z" fill="#6DA544"/><path d="M20 10c0-5.523-4.477-10-10-10a9.98 9.98 0 00-3.478.622v18.756A9.98 9.98 0 0010 20c5.523 0 10-4.477 10-10z" fill="#D80027"/><path d="M6.522 13.478a3.478 3.478 0 100-6.957 3.478 3.478 0 000 6.957z" fill="#FFDA44"/><path d="M4.565 8.26v2.175a1.957 1.957 0 103.913 0V8.26H4.565z" fill="#D80027"/><path d="M6.522 11.088a.653.653 0 01-.652-.652v-.87h1.304v.87c0 .36-.293.652-.652.652z" fill="#F4F4F4"/></svg>