<svg width="96" height="95" fill="none" xmlns="http://www.w3.org/2000/svg"><ellipse cx="22.64" cy="22.722" rx="22.14" ry="22.72" fill="#FF8A00"/><path d="M71.148 54.65l5.81 10.328c-.24.142-.495.334-.796.513C68.991 69.739 61.867 74 54.708 78.2c-.904.536-1.994.811-3.021.843-2.39.179-4.825.137-7.224.157-1.48.01-2.341-1.376-1.591-2.686 1.4-2.438 2.788-4.827 4.271-7.19.283-.497.803-.929 1.285-1.214 7.425-4.44 14.898-8.868 22.37-13.296.074-.084.23-.094.35-.165z" fill="#333"/><path d="M56.134 80.737c-1.205.714-2.692 1.142-4.293 1.224-2.019.124-4.013.151-5.898.156-.514.015-.967-.005-1.48.01-.467.03-.907-.04-1.383-.17-1.425-.392-2.496-1.366-3.058-2.723-.563-1.357-.418-2.886.344-4.244a254.191 254.191 0 014.297-7.287c.638-1.08 1.593-1.81 2.256-2.203a2373.4 2373.4 0 0119.405-11.497l1.929-1.143C71.08 42.032 73.92 31.156 76.7 20.315c.038-.146.076-.293.067-.452.093-1.334-.879-2.49-2.114-2.83L37.247 6.749c-1.52-.418-3.16-.189-4.533.584-3.964 2.307-7.93 4.615-11.907 6.972-.421.25-.755.942-.895 1.479-4.98 19.07-9.994 38.08-14.926 57.163a1.9 1.9 0 00-.045.562c.065 1.116.85 2.012 1.896 2.3L55.982 89.32c1.045.288 2.114-.098 2.762-1.017.171-.267.343-.534.432-.875l2.661-10.194c-1.906 1.254-3.835 2.396-5.703 3.503zm-17.17-58.514c.305-1.17.958-1.722 2.147-1.396l12.215 3.36c1.093.3 1.463 1.029 1.217 2.164l-1.388 5.316c-.331 1.268-1.102 1.684-2.29 1.357l-11.74-3.228c-1.378-.38-1.83-1.183-1.413-2.584.433-1.659.818-3.33 1.251-4.989zm-13.4 12.103c.366-1.206 1.405-1.286 2.546-.972l30.324 8.338c1.188.326 2.084.991 1.693 2.295-.332 1.268-1.406 1.286-2.547.972-5.025-1.434-10.123-2.783-15.161-4.169l-15.162-4.169c-1.188-.326-2.097-.942-1.693-2.295zM39.61 51.153c-3.565-.98-7.07-1.996-10.647-2.927-1.188-.327-2.11-.894-1.753-2.26.331-1.268 1.37-1.348 2.512-1.034l21.625 5.946c1.14.314 2.002.917 1.671 2.185-.356 1.365-1.43 1.384-2.62 1.057L39.61 51.153zm39.65 12.419c-1.949-3.463-3.85-6.914-5.728-10.253 1.7-1.049 3.39-2.257 5.268-3.204 1.998-1.019 4.444-.242 5.678 1.666a23.22 23.22 0 011.531 2.721c1.028 2.112.387 4.76-1.58 6.048-1.652 1.062-3.434 2.035-5.17 3.022z" fill="#333"/></svg>