<svg width="420" height="211" fill="none" xmlns="http://www.w3.org/2000/svg"><path d="M14.56 178.022c9.375-15.4 36.773-44.227 71.358-36.337 45.836 11.42 55.212 23.878 72.921 31.665 17.71 7.786 69.796 31.664 112.507 4.672 20.992-20.061 25.314-42.337 24.8-58.879m75.829-59.473c-32.821 30.927-57.089 49.067-75.829 59.473m0 0c-.418-13.42-4.02-23.067-4.486-24.694-1.042-3.634-19.272-31.664-41.669-34.779-22.398-3.114-40.628 5.191-49.483 24.916-8.854 19.725 7.293 42.046 31.252 45.161 15.318 1.991 31.167 7.842 64.386-10.604z" stroke="#FF8A00" stroke-width="3" stroke-linecap="round" stroke-dasharray="9.13 9.13"/><path d="M411.115 46.994h-30.904l-3.109-4.898L420 39.49l-8.885 7.505zm8.217-12.753l-20.586 3.01V.266l20.586 33.975zM397.668 9.905l-19.504 28.492 19.504-1.146m-187.46-2.328c-4.764 0-8.618 3.849-8.618 8.588 0 6.958 8.618 15.82 8.618 15.82s8.618-8.862 8.618-15.82c0-4.747-3.862-8.588-8.618-8.588zm0 12.544a3.963 3.963 0 01-3.969-3.956 3.958 3.958 0 013.969-3.955 3.958 3.958 0 013.968 3.956 3.958 3.958 0 01-3.968 3.955zm-33.425 101.962c-4.763 0-8.617 3.848-8.617 8.588 0 6.957 8.617 15.82 8.617 15.82s8.618-8.863 8.618-15.82c0-4.747-3.862-8.588-8.618-8.588zm0 12.543a3.963 3.963 0 01-3.968-3.955 3.958 3.958 0 013.968-3.955 3.958 3.958 0 013.969 3.955 3.958 3.958 0 01-3.969 3.955zM8.618 185.858c-4.764 0-8.618 3.848-8.618 8.588 0 6.957 8.618 15.82 8.618 15.82s8.617-8.863 8.617-15.82c0-4.748-3.861-8.588-8.617-8.588zm0 12.543a3.963 3.963 0 01-3.969-3.955 3.958 3.958 0 013.969-3.955 3.958 3.958 0 013.968 3.955 3.958 3.958 0 01-3.968 3.955z" fill="#333"/></svg>