<svg width="40" height="40" fill="none" xmlns="http://www.w3.org/2000/svg"><path d="M20.001 39.998C31.046 39.998 40 31.044 40 19.999 40 8.954 31.046 0 20.001 0 8.956 0 .002 8.954.002 19.999c0 11.045 8.954 19.999 19.999 19.999z" fill="#fff"/><path d="M38.857 13.333H26.534c.535 4.272.539 8.98.01 13.258h12.339A19.956 19.956 0 0039.999 20c0-2.339-.405-4.582-1.142-6.668z" fill="#2B479D"/><path d="M26.533 13.33h12.322a.129.129 0 00-.006-.018C36.29 6.095 29.705.785 21.795.08c3.061 1.678 3.956 6.995 4.738 13.25z" fill="#EFECEC"/><path d="M21.797 39.914c7.925-.706 14.518-6.034 17.068-13.27a.79.79 0 01.019-.058H26.545c-.776 6.289-1.675 11.643-4.748 13.328z" fill="#E63026"/><path d="M0 20.002c0 2.31.397 4.525 1.116 6.589h26.458a55.293 55.293 0 00-.01-13.258H1.143A19.959 19.959 0 000 20.002z" fill="#3757A6"/><path d="M1.148 13.314a.269.269 0 01-.006.018h26.421C26.78 7.077 24.856 1.76 21.795.082A20.351 20.351 0 0019.998 0C11.299 0 3.9 5.556 1.148 13.314z" fill="#EFEFEF"/><path d="M27.575 26.586H1.118l.019.057c2.74 7.778 10.15 13.354 18.864 13.354.606 0 1.204-.03 1.796-.083 3.075-1.685 5.002-7.039 5.778-13.328z" fill="#E73B36"/></svg>