<svg width="420" height="816" fill="none" xmlns="http://www.w3.org/2000/svg"><path d="M56.547 538.544H388.08l2.245 2.602v45.889c-2.876-.079-9.763-.189-14.301 0-4.539.19-8.904-4.494-10.519-6.86-3.782-6.859-11.465-21.076-11.938-23.063-.591-2.483-4.609-7.096-6.264-8.279-1.655-1.182-2.246-.591-6.737 1.183-3.593 1.419-4.728 7.924-4.846 10.999-3.152.237-11.725.876-20.802 1.538-7.942 2.933-9.455 8.003-9.219 10.171l1.064 27.558h-91.481c-8.471-6.269-28.674-21.337-41.723-31.461-16.31-9.58-17.019-5.677-33.803-8.634-42.265-3.784-73.082-16.006-83.207-21.643z" fill="#fff"/><path d="M341.627 556.997h-5.673l-.591 2.602h5.673v6.268l2.837 1.064.472-6.268c.788.079 2.341-.023 2.246-1.064-.094-1.041-1.221-1.538-1.773-1.656v-6.978l-2.482 1.301-.709 4.731zM48.983 529.793H389.26l2.246-2.247v2.247l-2.246 4.258-7.091 1.183-327.63 1.064-5.556-6.505zm339.92-28.148l7.328-2.365 3.427 8.397-3.427 5.677v-3.903l-5.792 1.893h-10.637v2.956l-30.494.946c-47.316-.867-144.077-2.602-152.587-2.602-8.51 0-86.044-4.967-123.748-7.451v-2.956l-47.75-2.721-8.982-11.945 60.278 5.322 106.492 6.623 61.105 2.129c24.23.434 73.162 1.301 75.053 1.301 1.891 0 47.277-.867 69.734-1.301z" fill="#fff"/><path d="M382.877 534.879c-.631.867-1.892 2.862-1.892 3.903h6.619l2.01 2.129v45.653H375.43c-5.957.473-9.022-3.351-9.81-5.322l-15.837-30.041c-.394-1.222-2.341-3.43-6.974-2.484-5.791 1.183-5.673 7.451-5.673 8.279 0 .662 3.152.276 4.728 0v-3.903l2.245-1.892c.118.788.355 3.24.355 6.741 4.349 1.419 1.812 2.72 0 3.194l-1.3 5.913-2.364-2.957v-4.139h-4.61l-.354 1.656c-2.916.354-11.039 1.064-20.211 1.064-8.51 2.176-9.928 7.767-9.574 10.29v26.848h-91.363c-11.031-8.122-34.63-25.665-40.776-30.869-7.683-6.505-8.865-4.731-54.606-11.828-36.592-5.677-56.456-14.035-61.814-17.504l-43.85-55.588h3.664l29.312 2.247 99.518 7.451 138.168 4.258h82.971v-3.43l15.602-17.149h12.764l1.537 17.149c.709 4.14 2.198 12.585 2.482 13.247.284.662-6.579 17.859-10.046 26.375l-6.737.709z" stroke="#fff" stroke-width=".449"/><path d="M247.309 504.717c2.876-.039 8.793-.094 9.455 0 .276 0 .969.355 1.536 1.775.568 1.419-.788 2.562-1.536 2.957h-8.983c-.591.236-2.009-1.183-2.245-2.248-.189-.851 1.103-2.011 1.773-2.484zm-47.75-1.65h7.919c.946 0 1.537 1.183 1.655 2.484.094 1.041-.827 1.695-1.3 1.893-2.128.039-6.761.094-8.274 0-1.891-.119-1.3-1.538-1.3-2.366 0-.663.867-1.617 1.3-2.011zm-47.159-2.129h8.037c2.647.757 1.891 2.76 1.182 3.667-2.049.118-6.761.284-9.219 0-1.702-.946-.709-2.839 0-3.667zm171.736 4.848H334.3c.662 1.987-.275 3.272-.827 3.667h-9.337c-1.229-.379-.512-2.603 0-3.667zm-218.186-7.81c.355 0 8.51-.118 9.337 0 3.877 1.704 1.615 4.259 0 5.323h-11.228c-3.546-3.075 1.536-5.323 1.891-5.323z" fill="#333" stroke="#fff" stroke-width=".449"/><path d="M398.95 507.677c-.568-.851-1.182-5.953-1.419-8.397l-.439-4.494m-30.527 3.548l.945-1.892 6.687-8.634m-7.632 10.526h22.457m-22.457 0h-54.842m77.299 0v-20.816m0 20.816l8.07-3.548m-8.07-17.268h6.382l.786 8.043m-7.168-8.043h-6.856l-7.969 10.29m0 0l15.061-.237 6.932-2.01m0 0l.902 9.225m-85.369 3.548c-.378 0-.63-13.247-.709-19.87m.709 19.87l-71.625-.828m0 0v-18.687m0 18.687l-87.817-2.957c-4.885-.709-15.105-2.129-16.901-2.129-1.516 0-52.727-3.424-90.063-5.938m0 0l-18.911-1.276-8.155-1.42h-4.846l-7.801-13.837c-1.576-1.656-3.215-5.039 2.836-5.323 6.052-.283 12.687.671 15.247 1.183l21.63 20.673z" stroke="#fff" stroke-width=".449"/><path d="M14.232 480.711L162.209 8.096l2.01-4.967m.473 12.299h6.383V494.43m161.924-25.549l-7.327-18.332 3.072 15.375c1.931 4.495 6.075 13.767 7.21 14.902 1.135 1.136-1.497-7.49-2.955-11.945zm34.631 25.43c-.567-1.419-2.285-5.007-3.073-6.623h-26.12l-2.128 2.72h-60.396l-31.203-1.183-9.692-4.967-17.493-1.065-2.363 3.549m-12.294-1.535h-21.511m-10.991-.591h-8.155m-3.193-.356h-15.719" stroke="#fff" stroke-width=".449"/><path d="M297.528 488.991c-4.029-1.532-27.275-12.458-39.346-17.258m-5.673-2.257l-16.784 14.429m16.784-14.429c1.654.659 3.579 1.425 5.673 2.257m-5.673-2.257l5.673 2.257m0 0l-13.947 17.258m150.578-1.301L172.965 3.957c0-.986-.141-2.957-.709-2.957-.567 0-5.515 1.42-7.919 2.129" stroke="#fff" stroke-width=".449"/><path d="M172.848 4.31c-.757.473-2.679 1.774-3.546 2.366h-6.146" stroke="#fff" stroke-width=".449"/><path d="M170.84 6.438v8.752h-6.382l-1.182-8.752m8.036 9.582h3.782m-3.192.476h3.545l28.839 72.264c12.687 35.561 38.91 109.047 42.314 118.509 3.404 9.462 19.698 60.003 27.42 84.091l27.894 92.962 15.01 58.782m8.864.704l-1.3 5.204-154.714 2.839v-5.559h11.701l76.943-1.538 67.37-.946z" stroke="#fff" stroke-width=".449"/><path d="M380.631 478.467c-111.338.197-339.237-1.987-360.134-12.301m353.516 21.404c-104.955-2.05-319.097-6.954-336.022-10.171" stroke="#fff" stroke-width=".449" stroke-dasharray="1.46 1.46"/><path d="M290.221 484.498c0-2.365-1.072-11.835-1.072-15.738 1.773-1.223 5.035-3.738 3.9-4.022-1.134-.284-21.747-.118-31.912 0l-9.337 4.022M164.574 4.786l-2.482 479.83" stroke="#fff" stroke-width=".449"/><path d="M105.832 196.736l45.977 240.566m-23.52-320.752l38.649 321.345" stroke="#fff" stroke-width=".449" stroke-dasharray="8.78 8.78"/><path d="M298.015 372.961c-5.39 0-83.878 2.05-122.448 3.075m137.812 57.956c-4.917.379-96.288 2.918-141.359 4.141" stroke="#fff" stroke-width=".449" stroke-dasharray="1.46 1.46"/><path d="M248.611 468.287l-99.637 4.495m43.496-367.473c4.294-1.577 13.166-4.778 14.301-4.967l1.536 2.484c-7.328 2.365-22.409 7.238-24.111 7.805-1.702.568 4.807-3.311 8.274-5.322zm29.427 84.102c4.728-1.735 14.608-5.393 16.31-6.15l1.537 4.139-27.066 8.043-2.246-1.42 11.465-4.612zm29.195 86.922c4.727-1.38 14.632-4.281 16.428-4.849l1.3 4.849-27.065 6.15-2.6-1.301 11.937-4.849zm18.318 82.793c6.54-.237 20.4-.734 23.52-.828l1.3 3.785h-23.638l-2.245-1.183 1.063-1.774zm46.332 83.032L244.59 226.902" stroke="#fff" stroke-width=".449"/><path d="M274.965 295.144c-6.997.379-71.94 5.283-103.537 7.688" stroke="#fff" stroke-width=".449" stroke-dasharray="1.46 1.46"/><path d="M187.151 494.904l-20.802-164.517-20.211 161.323m143.039-22.758l-15.393 9.513m43.496-34.771v5.441" stroke="#fff" stroke-width=".449"/><path d="M150.628 439.791L21.561 472.434v6.386l228.467-10.644-92.309-443.757v12.064l24.112 426.725" stroke="#fff" stroke-width=".449" stroke-dasharray="8.78 8.78"/><path opacity=".3" stroke="#fff" stroke-width=".43" stroke-dasharray="4.3 4.3" d="M4.818 468.287v307.32m395.065-268.532v269.383"/><path d="M159.109 725.472h65.7m-67.601-16.497h-25.062m25.062-1.672h-25.062m6.683 4.183v-25.08m-1.672 25.08v-25.08m-1.672 25.08v-25.08m-1.669 25.08v-25.08m23.392 19.225h-25.062m8.355 5.855v-25.08m16.707 17.547h-25.062m10.024 7.533v-25.08m15.038 15.882h-25.062m11.696 9.198v-25.08m13.366 14.203h-25.062m13.368 10.877v-25.08m11.694 12.538h-25.062m15.037 12.542v-25.08m10.025 10.86h-25.062m16.709 14.22v-25.08m8.353 9.194h-25.062m18.378 15.886v-25.08m6.684 7.1h-25.062m20.05 17.98v-25.08m5.012 5.851h-25.062m21.719 19.229v-25.08m3.343 4.172h-25.062m23.391 20.908v-25.08m184.629-5.859h-30.075m-72.684 2.096H96.221m141.186-2.512H102.905m134.502-2.511H107.082m146.2-2.504H112.931m140.351-2.504H116.273m137.009-2.512H116.273m137.009-2.511h-28.404m28.404-2.504h-28.404m28.404-2.505h-28.404m-67.67 5.009h-24.227m120.301-7.519h-28.404m115.288 22.989h-30.075m-72.684 2.087H90.373m66.835 2.505H84.527m30.91 2.511h-30.91m30.91 2.511H92.045m23.392 2.504H99.564m15.873 2.512h-10.025m-12.863-14.322c9.962-1.719 9.59-16.185 8.159-23.204 2.404 13.407-3.865 17.332-7.3 17.618.687 3.094-.287 5.013-.86 5.586zm7.729 30.939c2.748-11-4.295-18.62-8.16-21.055 2.062 3.094 1.718 6.159 1.289 7.305 6.871 3.437 7.443 10.599 6.871 13.75zm239.888-28.743h-30.075m-65.998 2.088h-86.049m182.122.423h-30.075m-65.998 2.088H178.93m161.236.416h-30.075m-65.998 2.095H178.93m161.236.417h-30.075m-65.998 2.087H178.93m161.236 0H308.42m-64.327 2.512H178.93m161.236 0h-35.923m-60.15 2.504H178.93m161.236 0h-68.505m68.505 2.511H178.929m161.237 2.511H178.929m152.883 2.504H178.93m143.783 3.149v20.626m-3.434-21.27h-93.568m84.378 2.511h-63.492m63.492 2.511h-61.821m.418 34.685v-9.196m-23.809-82.76v-31.35m-87.72 84.438v11.286h18.38v-11.286m-18.38 0h18.38m-18.38 0l5.431 7.942h6.265l6.684-7.942m-31.328-5.85c1.671.335 5.709-1.811 7.519-2.926v-6.688l-3.759-3.344h-3.76l-5.43 3.344v4.18c.139.836.501 2.759.835 3.762.418 1.254 2.507 1.254 4.595 1.672zm128.653-46.816h-27.986m46.785 42.635h-17.543v-23.825m44.693 20.482v-20.482m-46.365 9.611h-15.038v-10.867h15.038m2.087-20.904h14.62v-11.285h-14.62v11.285zm11.279 21.324v-8.359h-11.695m0-9.195h11.695v7.524h-11.695m115.706 33.02c-2.339 1.003-41.075 9.056-60.15 12.957m57.226 7.945c-2.005.669-38.151 9.754-55.973 14.212m24.227 5.009v-9.614m-24.644 13.796v-31.349m-20.888 34.693v-47.65m20.051 31.349H275.42m34.669-13.796h-33.835m0 0h-27.151v23.825h27.151v8.36-32.185zm30.494 19.227v-11.703m-171.263-62.695v-11.704m-2.505 11.704v-11.704m-2.504 11.704v-11.704m-2.508 11.704v-11.704m-2.505 12.542v-11.704m-2.508 12.537v-11.704m-2.505 12.537v-11.704m183.793 83.598v-11.703m-2.508 11.703v-11.703m-2.505 11.703v-11.703m-2.508 11.703v-11.703m-2.504 11.703v-11.703m-7.521 11.703v-11.703m-2.505 11.703v-11.703m-2.505 11.703v-11.703m-2.508 11.703v-11.703m98.162-43.89l-67.669-3.762h-37.177m37.594-.414v-44.725" stroke="#fff" stroke-width=".43"/><path d="M309.672 676.371v18.392l-10.442 4.598h-27.152v-71.895m94.821 29.259l-56.809-12.539m25.479 5.437v-12.958m-12.53 40.123v-29.26m14.202 30.092c-4.734-2.508-14.202-9.112-14.202-15.465m32.162 39.716v-22.153m-14.619 25.497v-25.916m-2.088 17.968c-1.253.836-30.911 18.809-40.936 19.227m36.759-8.78c-11.696 5.685-11.835 17.416-10.443 22.572-1.336-5.016 3.899-11.565 6.684-14.212-.418-5.852 2.506-5.852 3.759-8.36z" stroke="#fff" stroke-width=".43"/><path d="M336.822 677.62c-2.228-2.09-6.266-6.938-4.595-9.613-3.759.836-9.607-2.926-9.19-5.016m-58.477 86.523v-32.185m-.245 30.923h-37.789m22.579-31.756l-2.506-4.18h-21.303v36.366m-19.634-1.672v-12.957m-48.037 5.431V636.658m24.644 108.264v-10.868m42.192-.841h-65.999m65.579-75.653v10.868h-65.163m113.2 8.776h-18.379v-36.365m18.798-.415h-48.454M52.362 706.88v-35.947m18.379 42.218v-48.487m44.278 63.54l.418-57.265m.416 2.921v-25.916m-.832 53.088c-1.337-.334-23.114-8.221-33.835-12.122l33.835-15.047" stroke="#fff" stroke-width=".43"/><path d="M115.02 724.861l-44.695-17.236v-37.419l45.948-17.658" stroke="#fff" stroke-width=".43"/><path d="M156.79 727.361h-23.392m0 0v5.852m0-5.852l-18.38-12.122v-5.016l17.127-1.254V688.07h25.48m67.668 24.248v-3.762H178.51m0 0h-20.886v-18.809h20.886v18.809zm45.115-56.853h-65.581m66.417-.416v-23.825m-1.256 18.39c-2.339.334-44.417.139-65.163 0m48.872-2.084v-15.466m-25.477 15.049v-10.867m-24.648 31.765c-3.008.669-28.544 3.902-40.936 5.435m22.14-3.343v-25.08m-1.252 14.21l-20.886 2.926m145.159 12.543c0-.805.652-1.458 1.456-1.458a1.457 1.457 0 010 2.915 1.456 1.456 0 01-1.456-1.457zm0-7.527c0-.805.652-1.458 1.456-1.458a1.457 1.457 0 010 2.915 1.456 1.456 0 01-1.456-1.457zm-15.037-9.614a2.71 2.71 0 115.42-.002 2.71 2.71 0 01-5.42.002zm-9.19 0a2.71 2.71 0 115.42-.002 2.71 2.71 0 01-5.42.002zm5.013-6.686a2.71 2.71 0 115.418 0 2.71 2.71 0 11-5.418 0z" stroke="#fff" stroke-width=".43"/><path d="M392.379 650.036c13.032 30.095 5.43 62.698 0 75.238l-56.391 14.212c-14.759 2.787-47.87 8.694-62.239 10.032-17.961 1.672-57.644-.418-83.96-3.344-21.052-2.341-66.137-14.909-86.048-20.9-29.518-10.31-89.975-31.516-95.656-33.857-5.68-2.341-2.367-4.319 0-5.016l120.718-43.053c17.684-4.877 61.07-15.048 93.15-16.72 32.08-1.672 69.618 2.09 84.378 4.18 19.91 4.18 64.995 13.877 86.048 19.228z" stroke="#fff" stroke-width=".43"/><path d="M113.589 656.725l-9.877 3.438v17.188l9.877-5.586v-15.04zm-.859 45.979l-9.447-2.579v17.618l9.447 2.578v-17.617zm265.031 25.916v-81.926m-10.026 84.431v-87.36m30.074 24.24h-29.658" stroke="#fff" stroke-width=".43"/><path d="M371.077 699.361h15.873l-.835-23.408h-15.038v23.408zm5.848 17.969c-15.316 7.106-50.042 21.485-66.416 22.154m67.252-81.51c-13.924-5.991-46.784-18.642-66.834-21.317" stroke="#fff" stroke-width=".43" stroke-dasharray="1.72 1.72"/><path d="M223.205 643.768h-64.328m76.026 13.374v-15.884m18.379 58.935h-6.265m0 0h-2.507v-12.54h2.507v12.54zm-115.709-12.125l-15.873 2.926" stroke="#fff" stroke-width=".43"/><path d="M409.493 799.458v10.182h-1.233v-8.89h-.06l-2.486 1.651v-1.253l2.546-1.69h1.233zm2.508 10.182v-.895l3.361-3.679c.394-.431.719-.806.974-1.124.255-.321.444-.623.567-.905.126-.285.189-.583.189-.895a1.648 1.648 0 00-.955-1.536 2.262 2.262 0 00-.994-.214c-.391 0-.733.082-1.024.244a1.673 1.673 0 00-.671.671 2.103 2.103 0 00-.234 1.014h-1.173c0-.596.137-1.12.412-1.571.275-.45.65-.802 1.124-1.054a3.395 3.395 0 011.606-.377c.596 0 1.125.126 1.586.377.46.252.822.592 1.083 1.02.262.427.393.903.393 1.426 0 .375-.068.741-.204 1.099-.132.355-.364.751-.696 1.188-.328.435-.783.965-1.367 1.591l-2.287 2.446v.08h4.733v1.094h-6.423zM4.375 807.093c-.749 0-1.387-.204-1.914-.612-.527-.411-.93-1.006-1.208-1.784-.279-.783-.418-1.727-.418-2.834 0-1.101.14-2.04.418-2.819.282-.782.686-1.379 1.213-1.79.53-.414 1.167-.621 1.909-.621s1.377.207 1.904.621c.53.411.935 1.008 1.213 1.79.282.779.423 1.718.423 2.819 0 1.107-.14 2.051-.418 2.834-.278.778-.681 1.373-1.208 1.784-.527.408-1.165.612-1.914.612zm0-1.094c.742 0 1.32-.358 1.73-1.074.411-.716.617-1.737.617-3.062 0-.882-.095-1.633-.284-2.252-.185-.62-.454-1.093-.805-1.417a1.778 1.778 0 00-1.258-.488c-.736 0-1.31.363-1.725 1.089-.414.723-.622 1.745-.622 3.068 0 .881.093 1.63.279 2.247.185.616.452 1.085.8 1.407.352.321.774.482 1.268.482z" fill="#fff"/><path d="M38.175 792.21v-15.446c0-.581.903-.584.903 0v15.446c0 .58-.903.583-.903 0zm237.669 0v-15.446c0-.581.903-.584.903 0v15.446c0 .58-.903.583-.903 0zm-271.58 0v-15.446c0-.581.903-.584.903 0v15.446c0 .58-.903.583-.903 0z" fill="#FF8A00"/><path opacity=".3" d="M41.697 785.295v-8.532c0-.58.903-.584.903 0v8.532c0 .58-.903.583-.903 0zm-33.74-.034v-8.532c0-.58.903-.583.903 0v8.532c0 .581-.903.584-.903 0zm237.673 0v-8.532c0-.58.903-.583.903 0v8.532c0 .581-.903.584-.903 0zm33.814-.134v-8.532c0-.58.903-.583.903 0v8.532c0 .58-.903.583-.903 0zm67.537.134v-8.532c0-.58.903-.583.903 0v8.532c0 .581-.903.584-.903 0zm-301.755.034v-8.532c0-.58.903-.584.903 0v8.532c0 .58-.903.583-.903 0zm-33.74-.034v-8.532c0-.58.903-.583.903 0v8.532c0 .581-.903.584-.903 0zm237.672 0v-8.532c0-.58.903-.583.903 0v8.532c0 .581-.903.584-.903 0zm33.815-.134v-8.532c0-.58.902-.583.902 0v8.532c0 .58-.902.583-.902 0zm67.537.134v-8.532c0-.58.903-.583.903 0v8.532c0 .581-.903.584-.903 0zm-301.758.034v-8.532c0-.58.903-.584.903 0v8.532c0 .58-.903.583-.903 0zm-33.74-.034v-8.532c0-.58.902-.583.902 0v8.532c0 .581-.902.584-.902 0zm237.672 0v-8.532c0-.58.903-.583.903 0v8.532c0 .581-.903.584-.903 0zm33.814-.134v-8.532c0-.58.903-.583.903 0v8.532c0 .58-.903.583-.903 0zm67.534.134v-8.532c0-.58.903-.583.903 0v8.532c0 .581-.903.584-.903 0zm-285.037-.134v-8.532c0-.58.902-.583.902 0v8.532c0 .58-.902.583-.902 0zm-33.787.134v-8.532c0-.58.902-.583.902 0v8.532c0 .581-.902.584-.902 0zm237.668 0v-8.532c0-.58.903-.583.903 0v8.532c0 .581-.903.584-.903 0zM55.29 788.853v-12.256c0-.58.902-.583.902 0v12.256c0 .58-.903.584-.903 0zm-33.788.134v-12.256c0-.58.903-.583.903 0v12.256c0 .581-.903.584-.903 0zm237.669 0v-12.256c0-.58.903-.583.903 0v12.256c0 .581-.903.584-.903 0zm33.814-.134v-12.256c0-.58.903-.583.903 0v12.256c0 .58-.903.584-.903 0zm67.537.134v-12.256c0-.58.903-.583.903 0v12.256c0 .581-.903.584-.903 0z" fill="#fff"/><path d="M72.154 792.21v-15.446c0-.581.903-.584.903 0v15.446c0 .58-.903.583-.903 0z" fill="#fff"/><path opacity=".3" d="M51.693 785.295v-8.532c0-.58.903-.584.903 0v8.532c0 .58-.903.583-.903 0zm-33.737-.034v-8.532c0-.58.903-.583.903 0v8.532c0 .581-.903.584-.903 0zm237.669 0v-8.532c0-.58.903-.583.903 0v8.532c0 .581-.903.584-.903 0zm33.814-.134v-8.532c0-.58.903-.583.903 0v8.532c0 .58-.903.583-.903 0zm67.538.134v-8.532c0-.58.903-.583.903 0v8.532c0 .581-.903.584-.903 0zm-298.397-.134v-8.532c0-.58.902-.583.902 0v8.532c0 .58-.903.583-.903 0zm-33.791.134v-8.532c0-.58.903-.583.903 0v8.532c0 .581-.903.584-.903 0zm237.672 0v-8.532c0-.58.903-.583.903 0v8.532c0 .581-.903.584-.903 0zm-200.427-.08v-8.532c0-.581.903-.584.903 0v8.532c0 .58-.903.583-.903 0zm-33.79.134v-8.532c0-.58.903-.583.903 0v8.532c0 .58-.903.583-.903 0zm237.672 0v-8.532c0-.58.903-.583.903 0v8.532c0 .58-.903.583-.903 0zm-200.534-.188v-8.532c0-.58.902-.583.902 0v8.532c0 .58-.902.583-.902 0zm-33.791.134v-8.532c0-.58.903-.583.903 0v8.532c0 .581-.903.584-.903 0zm237.673 0v-8.532c0-.58.902-.583.902 0v8.532c0 .581-.902.584-.902 0z" fill="#fff"/><path d="M72.154 792.21v-15.446c0-.581.903-.584.903 0v15.446c0 .58-.903.583-.903 0z" fill="#FF8A00"/><path opacity=".3" d="M75.68 785.295v-8.532c0-.58.902-.584.902 0v8.532c0 .58-.903.583-.903 0zm3.525 0v-8.532c0-.58.903-.584.903 0v8.532c0 .58-.903.583-.903 0zm3.529 0v-8.532c0-.58.903-.584.903 0v8.532c0 .58-.903.583-.903 0zm20.192 0v-8.532c0-.58.903-.584.903 0v8.532c0 .58-.903.583-.903 0zm-13.706 3.719v-12.256c0-.58.904-.583.904 0v12.256c0 .581-.903.584-.903 0z" fill="#fff"/><path d="M106.129 792.21v-15.446c0-.581.903-.584.903 0v15.446c0 .58-.903.583-.903 0z" fill="#fff"/><path opacity=".3" d="M85.672 785.295v-8.532c0-.58.903-.584.903 0v8.532c0 .58-.903.583-.903 0zm6.839 0v-8.532c0-.58.903-.584.903 0v8.532c0 .58-.903.583-.903 0zm3.452.054v-8.533c0-.58.902-.583.902 0v8.533c0 .58-.902.583-.902 0zm3.347-.054v-8.532c0-.58.903-.584.903 0v8.532c0 .58-.903.583-.903 0z" fill="#fff"/><path d="M106.129 792.21v-15.446c0-.581.903-.584.903 0v15.446c0 .58-.903.583-.903 0z" fill="#FF8A00"/><path opacity=".3" d="M109.658 785.295v-8.532c0-.58.903-.584.903 0v8.532c0 .58-.903.583-.903 0zm3.526 0v-8.532c0-.58.902-.584.902 0v8.532c0 .58-.902.583-.902 0zm3.525 0v-8.532c0-.58.903-.584.903 0v8.532c0 .58-.903.583-.903 0zm20.193 0v-8.532c0-.58.902-.584.902 0v8.532c0 .58-.902.583-.902 0zm-13.699 3.726v-12.256c0-.581.902-.584.902 0v12.256c0 .58-.902.583-.902 0z" fill="#fff"/><path d="M140.108 792.21v-15.446c0-.581.903-.584.903 0v15.446c0 .58-.903.583-.903 0z" fill="#fff"/><path opacity=".3" d="M119.65 785.295v-8.532c0-.58.903-.584.903 0v8.532c0 .58-.903.583-.903 0zm6.836 0v-8.532c0-.58.903-.584.903 0v8.532c0 .58-.903.583-.903 0zm3.455.054v-8.533c0-.58.903-.583.903 0v8.533c0 .58-.903.583-.903 0zm3.348-.054v-8.532c0-.58.903-.584.903 0v8.532c0 .58-.903.583-.903 0z" fill="#fff"/><path d="M140.108 792.21v-15.446c0-.581.903-.584.903 0v15.446c0 .58-.903.583-.903 0z" fill="#FF8A00"/><path opacity=".3" d="M143.633 785.295v-8.532c0-.58.903-.584.903 0v8.532c0 .58-.903.583-.903 0zm3.529 0v-8.532c0-.58.903-.584.903 0v8.532c0 .58-.903.583-.903 0zm3.526 0v-8.532c0-.58.903-.584.903 0v8.532c0 .58-.903.583-.903 0zm20.196 0v-8.532c0-.58.902-.584.902 0v8.532c0 .58-.902.583-.902 0zm-13.703 3.719v-12.256c0-.58.903-.583.903 0v12.256c0 .581-.903.584-.903 0z" fill="#fff"/><path d="M174.09 792.21v-15.446c0-.581.903-.584.903 0v15.446c0 .58-.903.583-.903 0z" fill="#fff"/><path opacity=".3" d="M153.629 785.295v-8.532c0-.58.903-.584.903 0v8.532c0 .58-.903.583-.903 0zm6.839 0v-8.532c0-.58.903-.584.903 0v8.532c0 .58-.903.583-.903 0zm3.452.054v-8.533c0-.58.903-.583.903 0v8.533c0 .58-.903.583-.903 0zm3.347-.054v-8.532c0-.58.903-.584.903 0v8.532c0 .58-.903.583-.903 0z" fill="#fff"/><path d="M174.09 792.21v-15.446c0-.581.903-.584.903 0v15.446c0 .58-.903.583-.903 0z" fill="#FF8A00"/><path opacity=".3" d="M177.615 785.295v-8.532c0-.58.903-.584.903 0v8.532c0 .58-.903.583-.903 0zm3.522 0v-8.532c0-.58.903-.584.903 0v8.532c0 .58-.903.583-.903 0zm3.533 0v-8.532c0-.58.902-.584.902 0v8.532c0 .58-.902.583-.902 0zm20.192 0v-8.532c0-.58.903-.584.903 0v8.532c0 .58-.903.583-.903 0zm101.993 0v-8.532c0-.58.903-.584.903 0v8.532c0 .58-.903.583-.903 0zm67.534.134v-8.532c0-.58.903-.583.903 0v8.532c0 .581-.903.584-.903 0zm-183.233 3.585v-12.256c0-.58.903-.583.903 0v12.256c0 .581-.903.584-.903 0z" fill="#fff"/><path d="M208.069 792.21v-15.446c0-.581.902-.584.902 0v15.446c0 .58-.902.583-.902 0z" fill="#fff"/><path opacity=".3" d="M187.611 785.295v-8.532c0-.58.903-.584.903 0v8.532c0 .58-.903.583-.903 0zm6.836 0v-8.532c0-.58.903-.584.903 0v8.532c0 .58-.903.583-.903 0zm101.993 0v-8.532c0-.58.902-.584.902 0v8.532c0 .58-.902.583-.902 0zm67.534.134v-8.532c0-.58.903-.583.903 0v8.532c0 .581-.903.584-.903 0zm-166.072-.08v-8.533c0-.58.903-.583.903 0v8.533c0 .58-.903.583-.903 0zm101.993 0v-8.533c0-.58.903-.583.903 0v8.533c0 .58-.903.583-.903 0zm67.534.134v-8.532c0-.58.903-.583.903 0v8.532c0 .58-.903.583-.903 0zm-166.183-.188v-8.532c0-.58.903-.584.903 0v8.532c0 .58-.903.583-.903 0zm101.993 0v-8.532c0-.58.903-.584.903 0v8.532c0 .58-.903.583-.903 0zm67.534.134v-8.532c0-.58.903-.583.903 0v8.532c0 .581-.903.584-.903 0z" fill="#fff"/><path d="M208.069 792.21v-15.446c0-.581.902-.584.902 0v15.446c0 .58-.902.583-.902 0zm101.993 0v-15.446c0-.581.902-.584.902 0v15.446c0 .58-.902.583-.902 0zm67.537.134v-15.446c0-.58.903-.583.903 0v15.446c0 .58-.903.584-.903 0z" fill="#FF8A00"/><path opacity=".3" d="M211.594 785.295v-8.532c0-.58.903-.584.903 0v8.532c0 .58-.903.583-.903 0zm101.993 0v-8.532c0-.58.903-.584.903 0v8.532c0 .58-.903.583-.903 0zm67.537.134v-8.532c0-.58.903-.583.903 0v8.532c0 .581-.903.584-.903 0zm-166.005-.134v-8.532c0-.58.903-.584.903 0v8.532c0 .58-.903.583-.903 0zm101.994 0v-8.532c0-.58.902-.584.902 0v8.532c0 .58-.902.583-.902 0zm67.533.134v-8.532c0-.58.903-.583.903 0v8.532c0 .581-.903.584-.903 0zm-166.001-.134v-8.532c0-.58.903-.584.903 0v8.532c0 .58-.903.583-.903 0zm101.993 0v-8.532c0-.58.903-.584.903 0v8.532c0 .58-.903.583-.903 0zm67.538.134v-8.532c0-.58.902-.583.902 0v8.532c0 .581-.902.584-.902 0zm-149.335-.134v-8.532c0-.58.902-.584.902 0v8.532c0 .58-.902.583-.902 0zm101.992 0v-8.532c0-.58.903-.584.903 0v8.532c0 .58-.903.583-.903 0zm67.538.134v-8.532c0-.58.903-.583.903 0v8.532c0 .581-.903.584-.903 0zm-183.233 3.585v-12.256c0-.58.903-.583.903 0v12.256c0 .581-.903.584-.903 0zm101.993.007v-12.256c0-.581.903-.584.903 0v12.256c0 .58-.903.583-.903 0zm67.534.127v-12.256c0-.58.903-.583.903 0v12.256c0 .581-.903.584-.903 0z" fill="#fff"/><path d="M242.047 792.21v-15.446c0-.581.903-.584.903 0v15.446c0 .58-.903.583-.903 0z" fill="#fff"/><path opacity=".3" d="M221.586 785.295v-8.532c0-.58.903-.584.903 0v8.532c0 .58-.903.583-.903 0zm101.993 0v-8.532c0-.58.903-.584.903 0v8.532c0 .58-.903.583-.903 0zm67.538.134v-8.532c0-.58.902-.583.902 0v8.532c0 .581-.902.584-.902 0zm-162.692-.134v-8.532c0-.58.903-.584.903 0v8.532c0 .58-.903.583-.903 0zm101.993 0v-8.532c0-.58.903-.584.903 0v8.532c0 .58-.903.583-.903 0zm67.538.134v-8.532c0-.58.903-.583.903 0v8.532c0 .581-.903.584-.903 0zm-166.079-.08v-8.533c0-.58.903-.583.903 0v8.533c0 .58-.903.583-.903 0zm101.993 0v-8.533c0-.58.903-.583.903 0v8.533c0 .58-.903.583-.903 0zm67.538.134v-8.532c0-.58.902-.583.902 0v8.532c0 .58-.902.583-.902 0zm-166.183-.188v-8.532c0-.58.902-.584.902 0v8.532c0 .58-.902.583-.902 0zm101.993 0v-8.532c0-.58.902-.584.902 0v8.532c0 .58-.902.583-.902 0zm67.533.134v-8.532c0-.58.903-.583.903 0v8.532c0 .581-.903.584-.903 0z" fill="#fff"/><path d="M242.047 792.21v-15.446c0-.581.903-.584.903 0v15.446c0 .58-.903.583-.903 0zm101.99 0v-15.446c0-.581.902-.584.902 0v15.446c0 .58-.902.583-.902 0zm67.537.134v-15.446c0-.58.903-.583.903 0v15.446c0 .58-.903.584-.903 0z" fill="#FF8A00"/></svg>