<svg width="294" height="549" fill="none" xmlns="http://www.w3.org/2000/svg"><path d="M274.7 311.426L127.48 2.73 126.394.556h-5.976L12.856 301.643" stroke="#fff" stroke-width=".43"/><path d="M125.848 2.188l-1.629 1.63-5.976 289.674m-4.888.542L121.504 2.73 120.417.556" stroke="#fff" stroke-width=".43"/><path d="M124.766 12.514h2.173l23.359 42.934c10.865 24.276 32.812 73.479 33.681 76.088.87 2.608 13.401 36.232 19.557 52.717 7.244 24.275 21.73 75.218 21.73 84.783m6.517.006v3.261H121.505v-2.174h2.172l1.087-1.087h107.019zm-58.127-7.617l15.211-3.805L121.504 8.707m33.683 53.815c-1.738.435-11.951 3.805-16.841 5.436m37.483 45.652l-20.643 7.065m40.745 44.016c-1.304 0-14.668 4.711-21.187 7.066m38.025 47.284l-16.841-1.631" stroke="#fff" stroke-width=".43"/><path d="M118.244 9.794l23.36 122.826 19.014 97.826 11.951 70.109-20.643 4.892" stroke="#fff" stroke-width=".43"/><path d="M154.642 293.494l9.778-2.718-48.349-276.63m-9.234 26.627l26.076 236.957-11.408 1.631m-24.989-5.971l15.21-5.979L92.713 78.824m-15.211 42.393l15.755 139.13-15.755 7.609" stroke="#fff" stroke-width=".43"/><path d="M273.578 335.158l-.038.102-.105.03c-4.164 1.19-10.7 2.962-16.777 4.41-3.039.725-5.965 1.368-8.424 1.818-2.452.448-4.459.707-5.65.653-2.276-.103-3.52.586-4.172 1.439-.661.864-.751 1.942-.626 2.672l.006.036-.006.036-.792 4.622-.001.004-1.056 7.001-.007.045-.024.038-8.93 14.058c.093.375-.036.848-.572 1.219-.57.396-1.604.683-3.362.683-3.393 0-12.748.334-17.341.514a.393.393 0 01-.084.242.847.847 0 01-.332.242 3.078 3.078 0 01-.57.185c-.945.227-2.783.403-6.114.403h-65.115c-1.294.179-4.356-.121-6.522-2.721-2.114-2.538-9.159-11.19-12.418-15.199-.78-.91-2.256-2.295-4.138-3.478-1.884-1.185-4.159-2.157-6.54-2.261-2.445-.106-10.255-1.21-19.004-2.543a2177.502 2177.502 0 01-24.74-3.934c-3.247-.243-8.353-.892-13.14-2.05-2.397-.579-4.72-1.287-6.691-2.138-1.962-.847-3.597-1.843-4.607-3.012a270.154 270.154 0 00-4.326-3.857 24.147 24.147 0 00-.772-.648 1.627 1.627 0 00-.123-.091l.012.006a.254.254 0 00.033.01c.012.002.051.01.1-.003a.216.216 0 00.118-.085 2.055 2.055 0 00-.144-.107l-.184.146a145.305 145.305 0 01-4.535-5.05c-1.64-1.92-3.174-3.853-3.82-5.039a7967.7 7967.7 0 01-10.042-18.637l-.005-.011-.005-.011-1.057-2.643-.118-.295h3.896l.055.132.608 1.459 38.825 1.449 14.159-.787 4.031-5.335c.315-.466 1.393-1.254 3.383-1.279a82.238 82.238 0 011.528-1.656l.061-.061.087-.002 17.438-.396.22-.005v1.194h1.512l.056.13.34.795h2.457c1.258-.537 4.2-1.687 6.209-2.11 2.019-.425 6.319-.972 8.21-1.192l.013-.002h.012c.817 0 2.114.013 3.353.053 1.232.04 2.427.106 3.027.215.725.132 1.231.233 1.589.335.358.102.599.214.77.385.098.098.324.217.572.316.118.048.232.087.322.114.046.013.083.023.112.029l.034.007h.831l3.768-3.899.005-.006.007-.006 1.152-1.024a.96.96 0 01.222-.283c.124-.115.296-.236.525-.355.458-.238 1.153-.475 2.173-.636.518-.082 1.656-.147 3.144-.198 1.494-.053 3.357-.092 5.335-.122 3.858-.058 8.158-.078 11.024-.079v-.542a.633.633 0 01.09-.579c.162-.216.466-.333.918-.333.835 0 13.204-.348 19.417-.525.09-.164.232-.36.427-.529.25-.218.596-.4 1.029-.4 1.009 0 1.536.593 1.536 1.14 0 .045.009.063.011.067h.001a.093.093 0 00.042.005.247.247 0 00.06-.011l.03-.01.031-.001 17.26-.524c.042-.219.127-.483.273-.707.196-.302.522-.554 1-.486.579.083.919.574 1.109 1.022a3.452 3.452 0 01.265 1.181l.001.019.006.065.025.21c.023.173.055.407.095.688.08.561.192 1.306.316 2.121.246 1.622.542 3.517.74 4.773.192.653.67 1.637 1.479 2.457.81.821 1.947 1.472 3.464 1.472v0l.013.001c3.385.211 15.332 1.234 20.879 1.718h0l26.817 2.379h.002l15.878 1.313c.325-.348.832-.746 1.367-.835.301-.05.614-.003.897.206.278.204.504.548.67 1.048l.004.012.003.012c.425 2.02.62 3.943.664 4.657l.002.026-.005.025c-.03.167.015.432.305.644.3.219.887.397 1.974.294l.01-.001h.01c2.331 0 6.968.176 8.993.264l.083.004.06.059 1.453 1.454.097.097-.047.129-8.059 21.94z" stroke="#fff" stroke-width=".43"/><path d="M206.531 311.164c-1.013-1.057-3.409-3.225-4.888-3.436-1.48-.212-102.783-1.851-153.25-2.644" stroke="#fff" stroke-width=".43"/><path d="M34.654 336.936l229.345.793c-10.965 3.04-21.27 4.229-23.516 4.626-2.246.396-2.642 2.247-2.642 2.379 0 .105-1.409 8.591-2.114 12.82-2.73 4.362-8.323 13.323-8.851 14.274-.529.952-1.806 1.63-2.378 1.85-5.769.177-17.677.529-19.156.529-.423.846-1.674 1.234-2.246 1.322h-63.678c-8.772.317-11.053-.925-11.097-1.586l-8.984-10.706c-1.673-2.247-5.627-7.216-8.058-9.119-2.431-1.904-9.724-2.874-12.586-3.183l-20.837-2.926c-3.876-.308-14.299-1.754-24.128-3.657-9.512-.634-16.784-5.346-19.074-7.416zm-6.151-5.748l245.663.654-1.19 3.004-220.806-.392c-6.567.087-19.886.209-20.626 0-.74-.209-2.336-2.264-3.041-3.266z" fill="#fff"/><path d="M280.908 313.276c-.529.132-4.096-.529-6.342 1.057-1.849 2.247-3.17 10.442-3.17 10.838v4.362l1.585 5.022" stroke="#fff" stroke-width=".43"/><path d="M268.884 316.712L23.95 308.253" stroke="#fff" stroke-width="1.719"/><path d="M10.872 302.436v-.132h3.435l.925 1.586 53.9 1.851 43.598 1.85 29.592.925c.309.176.952.608 1.057.925.529-.528.925-.793 1.718-.661.634 0 11.097.441 16.249.661l31.311 1.058 36.198 1.321 41.483 1.454c.264.176.766.635.661 1.057m3.435.133l-262.24-9.649m-3.966-8.983c5.945.264 17.888.793 18.1.793l.66.661-18.363-.661-.397-.793zm20.214 1.45l238.196 8.723" stroke="#fff" stroke-width=".43"/><path d="M270.735 297.416h13.871c.952.423.397.881 0 1.058h-12.154l-8.719 14.538-1.057-.132c2.818-4.758 8.429-14.301 8.323-14.406-.106-.106-.22-.749-.264-1.058z" stroke="#fff" stroke-width=".43"/><path d="M282.624 299.008v-.396h-.925l-2.246 6.74h-11.229l-.396.793h11.493l-1.717 5.419h1.057l3.302-10.309h1.718l.396-2.247h-1.453z" stroke="#fff" stroke-width=".43"/><path d="M274.039 310.496v-1.851c-.616-.396-2.087-.978-3.039-.132-.317 1.48-.572 2.115-.66 2.247m0 0h4.36v.529h-4.889v-.529h.529zM22.233 288.828l11.097 15.464h-1.189c-3.434-4.67-10.357-14.116-10.568-14.539-.212-.423-.529-.617-.661-.661-4.492-.22-13.74-.66-14.796-.66-1.057 0-.97 1.057-.793 1.586l6.21 12.291h-.926c-1.761-3.348-5.495-10.547-6.341-12.556 0-2.247 2.114-2.247 2.378-2.247.264 0 13.74.529 14.532.661.634.106.705.485.66.661h.397z" stroke="#fff" stroke-width=".43"/><path d="M176.276 292.788h-3.435c.106-.529-.573-.837-.925-.925-1.673.088-5.337.264-6.605.264-1.269-.106-1.322.573-1.189.925h-2.907c-.106-.634-.66-.793-.925-.793-1.673.044-5.205.132-5.945.132-.739 0-.836.617-.792.926h-4.36c-.106-.635-.572-.793-.793-.793h-6.341c-1.374 0-1.453.528-1.321.793h-3.831c-.317-.741 1.453-1.542 2.378-1.851 10.657-.308 32.393-.925 34.084-.925 1.691 0 2.643 1.498 2.907 2.247zm-54.431 4.494c1.586-.106 2.51 1.101 2.775 1.718a65.99 65.99 0 01-3.832.133c0-.529-.528-.75-.792-.794-1.938.044-5.998.133-6.738.133-.74 0-1.013.705-1.057 1.057h-3.699c.106-.74-.661-.837-1.057-.793-2.202.044-6.87.132-7.927.132-1.056-.106-1.409.573-1.453.925h-3.17c.317-.846 1.629-1.498 2.245-1.718 7.575-.22 23.12-.687 24.705-.793z" fill="#F4F4F4" stroke="#fff" stroke-width=".43"/><path d="M122.639 296.49l-22.063 1.057m31.836-2.246l-2.51 3.966m-2.64.929h-15.061m-34.743.265c.634 0 21.93-.177 32.499-.265m-15.197-3.048c-.105 0-12.198.264-18.23.396m20.084.141c-.634.106-13.916.485-20.477.661m-1.72 3.166l-1.982 3.437m-3.961-.657c-.132.264-.238.846.397 1.057m168.042 44.006c-.264 0-6.077-.529-6.605-.793-.423-.212-1.674-1.322-2.246-1.851l-24.308 25.905 1.453 1.586" stroke="#fff" stroke-width=".43"/><path d="M238.898 347.634l-1.453-1.057-.397 3.172 1.85-.793v-1.322z" fill="#fff" stroke="#fff" stroke-width=".43"/><path d="M241.67 342.75c.176 1.366.529 4.15.529 4.362-.74-.317-2.51.132-3.303.396v1.586c0 .265 1.321.925 1.982 1.058.528.105.484.396.396.528a14.9 14.9 0 00-.793 1.586c-.396.926-.396 1.322 0 1.586 2.775.133 2.378-3.04 2.378-3.436 3.171-1.454.265-3.04.265-3.304 2.219-2.749-.044-4.053-1.454-4.362z" fill="#F4F4F4" stroke="#fff" stroke-width=".43"/><path d="M214.983 301.914c.353.044.899.291.265.925-.793.794-3.435 1.587-4.492 0-.211-.317.264-.572.528-.661l-.132-1.321m0 0c-.352-.485-.528-1.507 1.586-1.719 2.642-.264 3.17 1.322 1.849 1.851-1.321.529-3.038.264-3.435-.132zm3.833-.003v1.057m0 .131c-.484.573-1.902 1.428-3.699.265m-66.453-5.945l35.67.264c1.162.008 1.453 1.061 1.453 1.586.132.705.423 2.511.528 4.097.318 1.269-.22 1.498-.528 1.454-12.859-.176-38.946-.555-40.426-.661-1.48-.106-1.321-1.454-1.057-2.115.397-.704 1.374-2.379 2.114-3.436.74-1.057 1.805-1.234 2.246-1.189z" stroke="#fff" stroke-width=".43"/><path d="M181.294 298.204c-.211-1.057-1.145-1.146-1.585-1.057-11.009-.044-33.318-.133-34.481-.133-1.163-.105-1.717.397-1.85.661-.396.617-1.374 2.088-2.113 3.04-.423 1.48.352 1.85.792 1.85 12.331.177 37.308.529 38.577.529 1.162.106 1.277-.484 1.189-.793-.088-.925-.317-3.04-.529-4.097z" fill="#F4F4F4" stroke="#fff" stroke-width=".43"/><path d="M194.773 288.03l-42.54 1.454m22.854-.925v-.925m-2.38-.396v1.586m-.131-.794l-20.213.793m42.275 7.532c.793 2.82 6.342 8.512 22.195 8.724 15.853.211 40.514.616 50.863.793m-150.607-11.629c-.106-.318-.045-4.802 0-7.005m-4.624-1.061v8.459m-36.595-3.558c.089 4.758.291 14.406.397 14.935h-.793l.397-14.935z" stroke="#fff" stroke-width=".43"/><path d="M35.842 302.17h-1.85c-2.113 0-6.5.026-7.133.132-.529.212-.309.793-.133 1.058l7.135-.133h1.982c.528-.211.22-.793 0-1.057z" fill="#F4F4F4" stroke="#fff" stroke-width=".43"/><path d="M33.86 303.363c.044.264.132.846.132 1.057H33.2l-.529-1.321v-.794c0-.132-.132-.264.661-.396.635-.106.617.925.529 1.454zm-4.097.006v.925h-.793v-.925l-.265-.265-.132-.661a1.05 1.05 0 01.925-.528c.53 0 .573.793.53 1.189l-.265.265z" stroke="#fff" stroke-width=".43"/><path d="M20.65 289.087l.66.132v3.305h-2.642v-3.701l1.982.264z" fill="#F4F4F4" stroke="#fff" stroke-width=".43"/><path d="M19.722 289.614h-1.057v2.512h1.057v-2.512z" fill="#fff" stroke="#fff" stroke-width=".43"/><path d="M104.54 301.122h8.323a1.7 1.7 0 011.321 1.719c0 1.163-.881 1.718-1.321 1.85l-7.927-.132c-.22.088-.872 0-1.717-1.057-.529-1.587.66-2.247 1.321-2.38zm-20.637 0h8.918c.472.085 1.416.535 1.416 1.655s-.944 1.655-1.416 1.782l-8.493-.127c-.236.085-.934 0-1.84-1.018-.566-1.528.708-2.164 1.415-2.292z" fill="#F4F4F4" stroke="#fff" stroke-width=".43"/><path d="M103.877 300.851c2.994-.044 9.036-.132 9.248-.132.44.088 1.373.608 1.585 1.983.211 1.375-.969 2.159-1.585 2.379-2.643.044-8.112.106-8.852 0-.925-.132-1.849-.925-1.849-2.379.105-1.057 1.012-1.674 1.453-1.851zm-20.535-.132c3.15-.044 9.503-.134 9.725-.134.463.09 1.445.618 1.667 2.016.223 1.398-1.018 2.195-1.667 2.419-2.778.045-8.53.107-9.308 0-.973-.134-1.945-.941-1.945-2.419.11-1.075 1.065-1.702 1.528-1.882z" stroke="#fff" stroke-width=".43"/><path d="M4.375 542.779c-.749 0-1.387-.204-1.914-.612-.527-.411-.93-1.006-1.208-1.784-.279-.783-.418-1.727-.418-2.834 0-1.101.14-2.04.418-2.819.282-.782.686-1.379 1.213-1.79.53-.414 1.167-.621 1.909-.621s1.377.207 1.904.621c.53.411.935 1.008 1.213 1.79.282.779.423 1.718.423 2.819 0 1.107-.14 2.051-.418 2.834-.278.778-.681 1.373-1.208 1.784-.527.408-1.165.612-1.914.612zm0-1.094c.742 0 1.32-.358 1.73-1.074.411-.716.617-1.737.617-3.062 0-.882-.095-1.633-.284-2.252-.185-.62-.454-1.092-.805-1.417a1.778 1.778 0 00-1.258-.488c-.736 0-1.31.363-1.725 1.089-.414.723-.622 1.745-.622 3.068 0 .881.093 1.63.279 2.247.185.616.452 1.085.8 1.407.352.321.774.482 1.268.482zm271.806 1.094c-.683 0-1.286-.121-1.81-.363-.52-.245-.926-.582-1.218-1.009a2.538 2.538 0 01-.433-1.472 2.716 2.716 0 01.254-1.193c.172-.368.408-.675.706-.92a2.167 2.167 0 011.009-.472v-.06a1.964 1.964 0 01-1.163-.82 2.491 2.491 0 01-.428-1.447 2.462 2.462 0 01.393-1.387 2.76 2.76 0 011.094-.964c.467-.236.999-.353 1.596-.353.59 0 1.117.117 1.581.353.464.235.828.556 1.093.964.269.408.405.87.408 1.387a2.524 2.524 0 01-.442 1.447 1.967 1.967 0 01-1.149.82v.06c.368.066.7.224.994.472.295.245.531.552.706.92.176.365.266.762.269 1.193a2.572 2.572 0 01-.448 1.472c-.291.427-.697.764-1.218 1.009-.517.242-1.115.363-1.794.363zm0-1.094c.46 0 .858-.074 1.193-.224.335-.149.593-.359.775-.631.183-.272.276-.59.279-.955a1.834 1.834 0 00-.298-1.019 2.029 2.029 0 00-.801-.696 2.512 2.512 0 00-1.148-.253c-.434 0-.822.084-1.164.253a2.019 2.019 0 00-.8.696 1.792 1.792 0 00-.283 1.019c-.004.365.084.683.263.955.182.272.443.482.781.631.338.15.739.224 1.203.224zm0-4.832c.364 0 .687-.073.969-.219.285-.146.509-.35.671-.612a1.73 1.73 0 00.249-.919 1.695 1.695 0 00-.244-.9 1.574 1.574 0 00-.661-.597 2.16 2.16 0 00-.984-.214c-.381 0-.715.072-1 .214a1.54 1.54 0 00-.661.597 1.661 1.661 0 00-.229.9c-.003.351.075.658.234.919.163.262.386.466.671.612.285.146.613.219.985.219z" fill="#fff"/><path d="M38.186 527.756V512.31c0-.581.902-.584.902 0v15.446c0 .58-.902.583-.902 0zm237.729 0V512.31c0-.581.903-.584.903 0v15.446c0 .58-.903.583-.903 0zm-271.647 0v-15.447c0-.58.902-.583.902 0v15.447c0 .58-.902.583-.902 0z" fill="#FF8A00"/><path opacity=".3" d="M41.711 520.84v-8.532c0-.58.903-.583.903 0v8.532c0 .58-.903.583-.903 0zm-33.747-.034v-8.532c0-.58.903-.583.903 0v8.532c0 .581-.903.584-.903 0zm237.726 0v-8.532c0-.58.903-.583.903 0v8.532c0 .581-.903.584-.903 0zm33.824-.134v-8.532c0-.58.903-.583.903 0v8.532c0 .58-.903.583-.903 0zm-234.274.168v-8.532c0-.58.903-.583.903 0v8.532c0 .58-.903.583-.903 0zm-33.747-.034v-8.532c0-.58.903-.583.903 0v8.532c0 .581-.903.584-.903 0zm237.73 0v-8.532c0-.58.902-.583.902 0v8.532c0 .581-.902.584-.902 0zm33.82-.134v-8.532c0-.58.903-.583.903 0v8.532c0 .58-.903.583-.903 0zm-234.274.168v-8.532c0-.58.903-.583.903 0v8.532c0 .58-.903.583-.903 0zm-33.751-.034v-8.532c0-.58.903-.583.903 0v8.532c0 .581-.903.584-.903 0zm237.73 0v-8.532c0-.58.903-.583.903 0v8.532c0 .581-.903.584-.903 0zm33.824-.134v-8.532c0-.58.903-.583.903 0v8.532c0 .58-.903.583-.903 0zm-217.557 0v-8.532c0-.58.903-.583.903 0v8.532c0 .581-.903.584-.903 0zm-33.797.134v-8.532c0-.58.902-.583.902 0v8.532c0 .581-.902.584-.902 0zm237.729.001v-8.533c0-.58.903-.583.903 0v8.533c0 .58-.903.583-.903 0zm-217.641 3.591v-12.256c0-.58.903-.584.903 0v12.256c0 .58-.903.583-.903 0zm-33.797.134v-12.256c0-.58.902-.583.902 0v12.256c0 .581-.902.584-.902 0zm237.729 0v-12.256c0-.58.903-.583.903 0v12.256c0 .581-.903.584-.903 0zm33.824-.134v-12.256c0-.58.903-.584.903 0v12.256c0 .58-.903.583-.903 0z" fill="#fff"/><path d="M72.174 527.756V512.31c0-.581.903-.584.903 0v15.446c0 .58-.903.583-.903 0z" fill="#fff"/><path opacity=".3" d="M51.71 520.84v-8.532c0-.58.903-.583.903 0v8.532c0 .58-.903.583-.903 0zm-33.75-.034v-8.532c0-.58.902-.583.902 0v8.532c0 .581-.902.584-.902 0zm237.729 0v-8.532c0-.58.903-.583.903 0v8.532c0 .581-.903.584-.903 0zm33.824-.134v-8.532c0-.58.903-.583.903 0v8.532c0 .58-.903.583-.903 0zm-230.917 0v-8.532c0-.58.903-.583.903 0v8.532c0 .58-.903.583-.903 0zm-33.796.134v-8.532c0-.58.902-.583.902 0v8.532c0 .581-.903.584-.903 0zm237.729.001v-8.533c0-.58.903-.583.903 0v8.533c0 .58-.903.583-.903 0zm-200.478-.081v-8.532c0-.581.903-.584.903 0v8.532c0 .58-.903.583-.903 0zm-33.797.134v-8.532c0-.58.903-.583.903 0v8.532c0 .58-.903.583-.903 0zm237.729 0v-8.532c0-.58.903-.583.903 0v8.532c0 .581-.903.584-.903 0zm-200.584-.188v-8.532c0-.58.903-.583.903 0v8.532c0 .58-.903.583-.903 0zm-33.798.134v-8.532c0-.58.903-.583.903 0v8.532c0 .581-.903.584-.903 0zm237.73 0v-8.532c0-.58.903-.583.903 0v8.532c0 .581-.903.584-.903 0z" fill="#fff"/><path d="M72.174 527.756V512.31c0-.581.903-.584.903 0v15.446c0 .58-.903.583-.903 0z" fill="#FF8A00"/><path opacity=".3" d="M75.7 520.84v-8.532c0-.58.903-.583.903 0v8.532c0 .58-.903.583-.903 0zm3.525 0v-8.532c0-.58.903-.583.903 0v8.532c0 .58-.903.583-.903 0zm3.529 0v-8.532c0-.58.903-.583.903 0v8.532c0 .58-.903.583-.903 0zm20.199 0v-8.532c0-.58.903-.583.903 0v8.532c0 .58-.903.583-.903 0zm-13.709 3.726V512.31c0-.58.903-.584.903 0v12.256c0 .58-.903.583-.903 0z" fill="#fff"/><path d="M106.16 527.756V512.31c0-.581.902-.584.902 0v15.446c0 .58-.902.583-.902 0z" fill="#fff"/><path opacity=".3" d="M85.695 520.84v-8.532c0-.58.903-.583.903 0v8.532c0 .58-.903.583-.903 0zm6.84 0v-8.532c0-.58.902-.583.902 0v8.532c0 .58-.902.583-.902 0zm3.451.054v-8.532c0-.581.903-.584.903 0v8.532c0 .58-.903.583-.903 0zm3.351-.054v-8.532c0-.58.903-.583.903 0v8.532c0 .58-.903.583-.903 0z" fill="#fff"/><path d="M106.16 527.756V512.31c0-.581.902-.584.902 0v15.446c0 .58-.902.583-.902 0z" fill="#FF8A00"/><path opacity=".3" d="M109.689 520.84v-8.532c0-.58.902-.583.902 0v8.532c0 .58-.902.583-.902 0zm3.525 0v-8.532c0-.58.903-.583.903 0v8.532c0 .58-.903.583-.903 0zm3.525 0v-8.532c0-.58.903-.583.903 0v8.532c0 .58-.903.583-.903 0zm20.199 0v-8.532c0-.58.903-.583.903 0v8.532c0 .58-.903.583-.903 0zm-13.705 3.726V512.31c0-.58.903-.584.903 0v12.256c0 .58-.903.583-.903 0z" fill="#fff"/><path d="M140.145 527.756V512.31c0-.581.903-.584.903 0v15.446c0 .58-.903.583-.903 0z" fill="#fff"/><path opacity=".3" d="M119.684 520.84v-8.532c0-.58.903-.583.903 0v8.532c0 .58-.903.583-.903 0zm6.836 0v-8.532c0-.58.903-.583.903 0v8.532c0 .58-.903.583-.903 0zm3.455.054v-8.532c0-.581.903-.584.903 0v8.532c0 .58-.903.583-.903 0zm3.348-.054v-8.532c0-.58.902-.583.902 0v8.532c0 .58-.902.583-.902 0z" fill="#fff"/><path d="M140.145 527.756V512.31c0-.581.903-.584.903 0v15.446c0 .58-.903.583-.903 0z" fill="#FF8A00"/><path opacity=".3" d="M143.674 520.84v-8.532c0-.58.903-.583.903 0v8.532c0 .58-.903.583-.903 0zm3.529 0v-8.532c0-.58.902-.583.902 0v8.532c0 .58-.902.583-.902 0zm3.525 0v-8.532c0-.58.903-.583.903 0v8.532c0 .58-.903.583-.903 0zm20.199 0v-8.532c0-.58.903-.583.903 0v8.532c0 .58-.903.583-.903 0zm-13.705 3.726V512.31c0-.58.902-.584.902 0v12.256c0 .58-.902.583-.902 0z" fill="#fff"/><path d="M174.134 527.756V512.31c0-.581.902-.584.902 0v15.446c0 .58-.902.583-.902 0z" fill="#fff"/><path opacity=".3" d="M153.669 520.84v-8.532c0-.58.903-.583.903 0v8.532c0 .58-.903.583-.903 0zm6.84 0v-8.532c0-.58.902-.583.902 0v8.532c0 .58-.902.583-.902 0zm3.455.054v-8.532c0-.581.902-.584.902 0v8.532c0 .58-.902.583-.902 0zm3.347-.054v-8.532c0-.58.903-.583.903 0v8.532c0 .58-.903.583-.903 0z" fill="#fff"/><path d="M174.134 527.756V512.31c0-.581.902-.584.902 0v15.446c0 .58-.902.583-.902 0z" fill="#FF8A00"/><path opacity=".3" d="M177.659 520.84v-8.532c0-.58.903-.583.903 0v8.532c0 .58-.903.583-.903 0zm3.529 0v-8.532c0-.58.903-.583.903 0v8.532c0 .58-.903.583-.903 0zm3.529 0v-8.532c0-.58.903-.583.903 0v8.532c0 .58-.903.583-.903 0zm20.199 0v-8.532c0-.58.903-.583.903 0v8.532c0 .58-.903.583-.903 0zm-13.709 3.726V512.31c0-.58.903-.584.903 0v12.256c0 .58-.903.583-.903 0z" fill="#fff"/><path d="M208.122 527.756V512.31c0-.581.903-.584.903 0v15.446c0 .58-.903.583-.903 0z" fill="#fff"/><path opacity=".3" d="M187.658 520.84v-8.532c0-.58.903-.583.903 0v8.532c0 .58-.903.583-.903 0zm6.839 0v-8.532c0-.58.903-.583.903 0v8.532c0 .58-.903.583-.903 0zm3.455.054v-8.532c0-.581.903-.584.903 0v8.532c0 .58-.903.583-.903 0zm3.345-.054v-8.532c0-.58.902-.583.902 0v8.532c0 .58-.902.583-.902 0z" fill="#fff"/><path d="M208.122 527.756V512.31c0-.581.903-.584.903 0v15.446c0 .58-.903.583-.903 0z" fill="#FF8A00"/><path opacity=".3" d="M211.648 520.84v-8.532c0-.58.903-.583.903 0v8.532c0 .58-.903.583-.903 0zm3.525 0v-8.532c0-.58.903-.583.903 0v8.532c0 .58-.903.583-.903 0zm3.529 0v-8.532c0-.58.903-.583.903 0v8.532c0 .58-.903.583-.903 0zm20.203 0v-8.532c0-.58.902-.583.902 0v8.532c0 .58-.902.583-.902 0zm-13.709 3.726V512.31c0-.58.902-.584.902 0v12.256c0 .58-.902.583-.902 0z" fill="#fff"/><path d="M242.108 527.756V512.31c0-.581.903-.584.903 0v15.446c0 .58-.903.583-.903 0z" fill="#fff"/><path opacity=".3" d="M221.643 520.84v-8.532c0-.58.903-.583.903 0v8.532c0 .58-.903.583-.903 0zm6.84 0v-8.532c0-.58.902-.583.902 0v8.532c0 .58-.902.583-.902 0zm3.455.054v-8.532c0-.581.902-.584.902 0v8.532c0 .58-.902.583-.902 0zm3.347-.054v-8.532c0-.58.903-.583.903 0v8.532c0 .58-.903.583-.903 0z" fill="#fff"/><path d="M242.108 527.756V512.31c0-.581.903-.584.903 0v15.446c0 .58-.903.583-.903 0z" fill="#FF8A00"/><path opacity=".4" stroke="#fff" stroke-width=".43" stroke-dasharray="4.3 4.3" d="M285.346 312.199V511.7M4.835 296.85v214.438"/><path d="M105.67 453.081c-4.042-1.724-12.186-7.238-12.429-15.505m20.308 15.961l.82-1.048" stroke="#fff" stroke-width=".43"/><path d="M112.109 451.43l-.419-18.295" stroke="#fff" stroke-width=".43" stroke-dasharray="2.58 2.58"/><path d="M176.088 454.242l-.959-1.05" stroke="#fff" stroke-width=".43"/><path d="M184.102 448.838s-21.494 2.706-35.342 2.99c-13.352.275-34.17-1.403-34.17-1.403m69.442-11.927s-22.335-2.529-36.675-2.105c-13.023.384-33.167 3.609-33.167 3.609" stroke="#fff" stroke-width=".86"/><path d="M168.349 446.635h15.666v-7.094l-15.666.178v6.916zm8.877-34.443l-1.59-1.646m-81.74 20.794h.855l-.326-13.873m1.048 6.321a7.504 7.504 0 017.502-7.506 7.504 7.504 0 017.502 7.506 7.503 7.503 0 11-15.004 0z" stroke="#fff" stroke-width=".43"/><path d="M97.215 423.785a5.76 5.76 0 1111.52 0 5.761 5.761 0 01-5.76 5.763 5.761 5.761 0 01-5.76-5.763z" stroke="#fff" stroke-width=".43"/><circle cx="103.27" cy="411.226" r=".375" transform="rotate(180 103.27 411.226)" stroke="#fff" stroke-width=".43"/><path d="M102.507 411.226a.764.764 0 111.528 0 .764.764 0 01-1.528 0z" stroke="#fff" stroke-width=".43"/><path d="M111.203 416.684l-.205-11.789" stroke="#fff" stroke-width=".43" stroke-dasharray="8.6 8.6"/><path d="M96.314 416.209h12.808c.874 0 1.116-.797 1.127-1.196-.125-.934-.43-3.068-.649-4.134-.218-1.066-.614-1.401-.785-1.436-2.733.069-8.771.205-11.067.205-2.049-.246-2.425.718-2.356 1.231-.08.786-.24 2.713-.24 4.134-.273 1.176.66 1.287 1.162 1.196z" stroke="#fff" stroke-width=".43" stroke-dasharray="2.58 2.58"/><path d="M113.788 482.186l-.696-27.769m.038 27.79l-.679-27.85m-.177.637l-17.942.538m.043-.628l.537 25.738m-.232-5.519c-8.235-1.519-26.123-5.188-31.8-7.712-9.548-3.331-28.637-10.963-31.926-13.641m-5.584 5.085l-.585-26.719m1.273 27.196l-.744-27.462m5.734 27.979l-.554-28.799c-1.28.463-4.084 1.597-5.053 2.423m5.607 26.382c-.688-.139-2.652-.891-5.008-2.782m4.289 2.527l-.405-28.313m167.901 50.08l10.697-1.17 15.634-2.072 13.492-2.309 12.693-2.62 10.475-2.309 8.521-2.442 8.655-2.664c.369-.197 1.209-.771 1.609-1.492.401-.72 1.654-3.805 2.231-5.257l.905-2.74c.325-1.501.976-4.547.976-4.72 0-.174.362-4.631.542-6.837.018-2.225.011-6.842-.162-7.515-.131-.738-.687-4.233-.949-5.887-.326-1.8-1.123-5.709-1.709-6.946-.542-1.454-1.925-5.073-2.549-6.701-.109-.371-.77-1.242-2.549-1.763-1.779-.521-9.202-2.261-12.692-3.066l-14.155-2.822-13.587-2.306-16.84-2.306-8.082-.841" stroke="#fff" stroke-width=".43"/><path d="M279.476 464.318c-.536.064-1.461-.193-.874-1.725.587-1.532.827-2.492.874-2.78l.752-1.836.236-.656c.376-.359 1.185-1.244 1.416-1.915.288-.84 1.153-4.381 1.337-5.745.183-1.364.262-6.427.288-6.768.027-.341.158-6.453-.288-7.686-.21-1.07-1.171-6.007-1.626-8.341-.085-.23-.366-.723-.806-.86-.741-.589-1.633-1.748-1.728-2.47-.076-.577-1.323-3.445-1.937-4.806-.234-.754-.342-2.162 1.101-1.767m-1.94-1.052c.121.341.154 1.032-.682 1.068-.982-.273-6.288-1.463-8.818-2.024l-7.477-1.569c-.235-.28-.564-.95 0-1.387m10.823 3.718c-.229-.36-.468-1.105.409-1.209m-5.705-.04c.459-.037 1.224-.331.614-1.209" stroke="#fff" stroke-width=".43"/><path d="M280.471 425.28c1.023.314.52-.319.141-.675l-.08-.041c0-.019.036-.159.178-.564-.123-.694-.454-.401-.605-.168l-.168.773c.033.061.185.281.534.675zm.565 32.786c.57.907.602.099.547-.419l-.034-.083c.013-.014.131-.097.503-.311.36-.606-.082-.601-.348-.522l-.632.475c-.015.068-.043.335-.036.86z" fill="#fff"/><path d="M274.136 461.211l3.409-.614c.704-.06.908-.43.922-.607l1.51-3.304 1.069-3.911c.174-1.076.554-3.524.681-4.706.128-1.183-.507-1.463-.841-1.455-.75.022-2.704.054-4.522 0-1.819-.055-2.015.856-1.887 1.318-.053 1.296-.195 4.198-.341 5.434 0 1.365-1 5.707-1.227 7.003-.182 1.037.743.993 1.227.842zm1.157-25.312h5.161c.484 0 .607-.369.608-.554a21.47 21.47 0 00-.325-2.759c-.271-1.448-2.02-6.94-2.654-8.66-.241-1.134-1.045-1.398-1.417-1.388-.785-.161-2.6-.519-3.59-.663-.989-.145-1.015.523-.904.875l1.327 5.793c.251 1.8.766 5.6.814 6.397.048.797.673.971.98.959zm2.078 29.884c.332-.378.695-1.171-.503-1.321-1.589.675-5.958 2.068-7.943 2.681l-4.097 1.085m-88.468 8.108l-62.719 1.084m62.991-1.809l-62.9 1.083" stroke="#fff" stroke-width=".43"/><path d="M285.208 439.869c.534 16.663-3.87 24.21-6.139 25.902-.224.096-.994.416-2.277.927-4.245 2.031-26.979 7.38-32.913 8.517-5.576 1.717-36.613 5.724-53.89 7.321-13.445 1.728-39.484 1.81-50.822 1.636l-38.186-2.761c-4.798-.547-15.35-1.91-19.168-2.985-4.4-.074-25.432-6.267-29.719-7.699-4.497-1.208-25.706-11.213-26.712-11.549-1.007-.336-16.776-10.061-18.985-11.658-2.21-1.596-.614-2.609.5-3.381.063-.818 11.917-8.359 17.836-12.027 2.986-2.83 25.694-12.342 25.694-12.342s19.958-6.131 22.944-7.703c3.143-1.179 30.198-5.712 32.789-6.509 2.591-.798 34.08-3.589 37.966-3.589 3.587-.798 36.172-.199 39.361 0 2.551.159 27.681 2.335 39.927 3.402l31.954 5.187c7.162 1.607 21.623 4.86 22.167 5.015.68.195.971.535 1.534 1.065 1.468 2.804 2.936 2.137 6.139 23.231z" stroke="#fff" stroke-width=".43"/><path d="M197.908 481.569v-1.584l.378-.918-.378-.781.378-.306v-.204h-.238l.645-1.053v-.543h-.407l-.238-.918-.14-.985-.641-1.087v-1.834l.306-1.291v-2.582l.475-.849.849-.646.204-.306-.204-.509v-.544l.544-.305.271-.374v-.646l.544-1.087.441-1.155v-.883l.34-.679.373-2.412v-.578l.577-.577v-.272h-.577l-.373-.306.373-.951v-1.325l.272-1.699-.272-1.189-.373-1.698-.781-.544-.238-.441.475-.51-.781-1.053c.102-.793.306-2.419.306-2.582 0-.163.158-.815.238-1.121l.781-2.446.916-1.8.476-1.733.611-1.461.509-1.664v-.714l.442-1.223.509-1.664.408-.68v-.543l-.408-.578.747-.408v-.577l.272-1.665.747-1.63.747-1.359.373-.544 1.019-2.242 1.359-3.057.271-1.053-.271-.748.271-.679.374-.204.271-.544-.271-1.087c.294-.147.93-.591 1.12-1.189.191-.598.08-1.427 0-1.766v-.918l-.441-3.125-.408-.917m-33.897 79.465l-.77-30.257m21.318 20.173l-20.766.309m20.662-.963l-20.683.251m18.927-.533v.318l-.439-20.099m-18.017 20.207l-.471-19.706m18.756 15.315l-18.405.274m24.593-16.02l-107.123 1.874m180.756-10.574a1.435 1.435 0 112.87 0 1.435 1.435 0 01-2.87 0z" stroke="#fff" stroke-width=".43"/><path d="M274.25 444.059a2.307 2.307 0 114.614-.002 2.307 2.307 0 01-4.614.002zm.874-5.311a1.435 1.435 0 112.868-.002 1.435 1.435 0 01-2.868.002z" stroke="#fff" stroke-width=".43"/><path d="M274.253 438.748a2.307 2.307 0 114.615-.001 2.307 2.307 0 01-4.615.001zm-51.307 38.145l-1.265.575-23.775 3.261m27.995-3l-.323-1.341m-1.564 1.643l-.348-1.341" stroke="#fff" stroke-width=".43"/><path d="M225.011 477.374v-.808h-.627c.032.102.097.424.097.892.223.245.446.046.53-.084z" fill="#fff"/><path d="M222.931 476.889l3.484-.688 5.588-.615 7.5-1.377 18.949-4.194 6.524-1.775m9.276-3.351c.544.543.872 0 .968-.34 0-.051-.044-.258-.221-.679-.176-.422-.571-.301-.747-.187-.062.079-.149.431 0 1.206zm-2.071.476c.543.544.871 0 .968-.339 0-.051-.045-.258-.221-.68-.177-.421-.572-.3-.747-.187-.063.08-.15.432 0 1.206zm1.985-.472l-.951.152m-1.221.24l-1.121.237c-.339 0-.896-.156-.407-.781.72-.136 1.318-.226 1.528-.255m2.038-.443l-1.121.203" stroke="#fff" stroke-width=".43"/><path d="M275.304 464.569l1.307-.272.204-.136c.085-.198.146-.611-.289-.679a5.988 5.988 0 00-1.12.288l-.424.102m-10.85 4.544l2.12-.807c.561-.446 1.723-1.397 1.889-1.637.207-.299 1.889-2.028 2.649-4.863.609-2.268 1.175-5.769 1.383-7.237.238-2.95.696-9.081.622-10.002v-6.454l-.83-7.122-1.704-8.113c-.331-1.229-1.166-3.835-1.866-4.425-.899-.991-1.936-2.558-3.571-3.18m10.309 2.182c.284-.098.755-.432.365-.987m-1.718 3.471l1.436.329c.211-.037.57-.21.317-.609-.653-.303-1.477-.528-1.753-.573m-1.145.564l-.841-.122m.975-.671l-.865-.17m-1.129.644c.224.692.775.402 1.023.171 0-.057.024-.312.122-.877-.078-.566-.618-.447-.877-.317-.045.028-.161.273-.268 1.023zm-.086-.098l-1.192-.243c-.228-.175-.546-.582 0-.816.652.087 1.188.207 1.375.256m-73.585 54.453c1.263.602 4.096 1.905 5.323 2.302 1.227.397 4.797 1.504 6.428 2.008.768.244 2.757.741 4.57.773 2.267.041 6.734-.04 9.225-.407 1.993-.293 2.237-.399 2.11-.415" stroke="#fff" stroke-width=".43"/><path d="M197.265 471.534l4.817 2.002 6.224 1.98c.625.269 2.381.835 4.408.946 2.026.111 3.146.139 3.452.139 1.708-.048 5.308-.188 6.049-.37.741-.182 4.515-.686 6.309-.914l8.601-1.424 10.843-2.237 6.172-1.356 9.206-2.426c.451-.07 1.601-.425 2.586-1.289a17.483 17.483 0 002.047-2.131c.428-.642 1.353-2.141 1.627-2.998.274-.858.64-2.312.789-2.932l.849-4.931.483-5.089.31-6.159m-.013-.007v-5.412l-.948-7.697-2.395-9.233c-.516-.943-1.95-2.934-3.262-3.821-1.466-.992-1.714-1.405-4.419-1.942l-7.99-1.301-8.857-1.673-10.019-1.464-9.98-1.238-7.863-.467c-1.32.018-4.124.187-4.784.715m61.264 10.35c.243.536.767.297.999.11v-.926c-.215-.653-.756-.337-.999-.097v.913z" stroke="#fff" stroke-width=".43"/><path d="M213.659 410.996a2.053 2.053 0 114.106 0 2.054 2.054 0 11-4.106 0zm.977 62.717a2.054 2.054 0 112.053 2.055 2.054 2.054 0 01-2.053-2.055zm7.58-1.476l3.387-.496c.681-.593.112-.775-.257-.792-.777.076-2.538.272-3.37.446-.621.439-.099.744.24.842zm2.399-.383l-.08-.823m-1.152.937v-.732m-25.774-3.627c.646.304 2.424.981 4.362 1.264 1.938.283 3.638.408 4.246.436l5.117-.218 6.607-.218 6.773-.596 6.316-.634 7.91-.781 10.507-1.338 9.125-1.423 6.125-1.052c.846-.149 2.644-.995 3.06-3.19.416-2.195.974-5.081 1.201-6.249l.481-6.329c.013-4.126-.012-12.602-.22-13.499-.257-1.394-.815-4.827-1.062-6.369l-.98-4.606c-.147-.701-1.065-2.163-3.564-2.404-2.626-.432-6.032-1.114-7.407-1.402l-8.608-1.442-9.975-.948-16.637-.678h-10.99" stroke="#fff" stroke-width=".43"/><path d="M237.767 465.079h.748l-.166-2.356h-.582v2.356zm-16.87 1.504h.666v-2.384h-.666v2.384zm4.904-14.885l-18.007.304v1.623h-2.797l-.353-22.467h2.774v1.255h3.551c1.113.018 3.421.043 3.746 0 .325-.042.418-.359.424-.512l-.173-7.852c-.018-1.265-.044-3.971 0-4.678.043-.707.716-.875 1.047-.87h3.846v-1.387h.924v1.468l2.896.136 4.906.15 8.142.231v-1.006h.992v1.088c.952.009 3.018.035 3.67.068.653.032.805.618.799.907l.245 7.537c-.014 1.082-.035 3.349 0 3.754.034.406.28.5.399.496h8.91c.576-.164.692-.621.679-.829l-.095-3.451c-.045-.883-.109-2.739 0-3.098.136-.448.638-.584 1.222-.584.75-.076 1.046.467 1.1.747v6.277c-.033.565.147.692.241.684h10.428c1.39-.138 1.738.344 1.738.603l.086 3.029h.516v-.189h.275v1.067h-.361v-.31h-.516l.206 4.184.093 6.817h.688v.854l-.688-.143v2.561c-.095.797-.687.972-.972.96h-7.521c-.68.007-2.246.016-3.063 0-.816-.016-.898.497-.837.756l.102 2.676v4.229c-.04.252-.326.735-1.143.654-.817-.082-.994-.47-.98-.654v-1.471c-.034-1.342-.107-4.245-.123-5.128-.016-.882-1.081-.895-1.612-.791h-7.369l-18.035.305z" stroke="#fff" stroke-width=".43"/><path d="M216.333 451.969l.17 13.093c-.064.117-.003.336.745.274.748-.063 2.722-.209 3.615-.274l8.087-.708 7.042-.406 5.57-.477c.237-.008.714-.118.733-.493.02-.376.008-3.628 0-5.207l-.168-5.759c.008-.176-.048-.531-.336-.541" stroke="#fff" stroke-width=".43"/><path d="M243.112 451.436a.54.54 0 00-.445.505c-.029.356.084 3.378.144 4.845l.12 6.385c.012.248-.113.76-.709.817-.596.058-2.716.273-3.701.373l-9.074.565-8.029.77-4.735.348c-.288.016-.877-.096-.925-.673-.048-.577-.084-4.625-.096-6.577l-.193-6.565-.084-.36m-7.612.117l-.327-19.559m58.653 18.077l-10.788.153c-.375-.039-.493-.492-.505-.713v-3.492l-.147-8.168v-5.408c0-.371.326-.546.489-.587h10.408c.43-.061.664.169.727.291v2.669h-.628v-.252h-.23v1.058h.334v-.168h.586v1.934l.156 6.673v2.464h-.626l-.228-.242v1.309l.356-.384h.498l.113.256c-.004.631-.011 1.947 0 2.163.012.216-.338.387-.515.444zm-45.66-38.313h4.317l-.293.84h-3.661l-.363-.84zm2.769.806v-.743m-1.521.756v-.796m-10.119-4.506c1.497-.079 4.711-.23 5.596-.208.884.022 4.199.148 5.746.208l6.694.591 18.031 2.693 11.539 2.341" stroke="#fff" stroke-width=".43"/><path d="M197.652 469.601c1.189.393 4.051 1.228 5.982 1.417 2.413.236 6.552.422 9.815 0 2.379-.146 5.948-.422 7.436-.542l8.977-.894c3.018-.28 9.336-.897 10.457-1.126 1.122-.229 5.407-.798 7.409-1.054l7.289-.886 5.484-1.106c1.53-.336 4.768-1.11 5.481-1.52.892-.512 2.101-1.303 2.62-2.269.415-.773.663-2.043.735-2.581l.88-4.601.591-5.912.302-6.85-.23-6.042c-.192-1.482-.593-4.553-.665-4.982-.071-.428-.754-3.872-1.086-5.54l-.685-3.142c-.253-.784-1.209-2.478-3.007-2.978-1.799-.501-4.878-1.003-6.193-1.192l-9.518-1.759-7.813-.994-10.269-.8-8.944-.448-9.626-.195h-2.631" stroke="#fff" stroke-width=".43"/><path d="M253.281 458.586h1.3l-.578-34.035-1.264.216.542 33.819z" fill="#fff"/><path d="M250.732 451.315c.303 0 .92-.194.971-.971.051-.778.022-5.379 0-7.582.26-.085.79-.389.828-.924.038-.536-.536-.807-.828-.876l-.159-8.953" stroke="#fff" stroke-width=".43"/><path d="M251.388 432.787l-5.939.095c-.308.043-.911.357-.86 1.275.051.917.085 7.731.095 11.023v4.332c-.042.261.026.79.637.829.612.038 4.458.016 6.305 0m-2.961.128v.813m-38.762.081l33.641-.499c.712-.01.832-.83.803-1.238l-.162-5.983v-4.183a1507.34 1507.34 0 01-.202-5.78c-.016-.598-.343-.775-.505-.788l-2.565.141-17.576.345h-7.449c-1.709.023-5.325.074-6.12.089-.795.014-1.053.715-1.082 1.064l.106 9.744c.018 1.87.06 5.751.089 6.319.028.568.693.749 1.022.769z" stroke="#fff" stroke-width=".43"/><path d="M246.754 442.025c.045.984 1.292 1.293 1.91 1.325.274.028 2.119-.208 2.044-1.552-.076-1.344-1.608-1.288-2.157-1.288-.549 0-1.854.284-1.797 1.515z" fill="#333" stroke="#fff" stroke-width=".43"/><path d="M242.729 431.963l-27.779.324m26.765-.479l-.207-11.619c.007-.172-.124-.504-.702-.455-.579.05-6.855-.131-9.92-.227l-14.528-.455c-.2-.041-.599.025-.599.62v7.815l.124 4.673" stroke="#fff" stroke-width=".43"/><path d="M236.792 421.464h.884v-3.313h-.884v3.313zm-17.023-.618h1.038v-3.732h-.905l-.133 3.732zm51.922 46.865c-.38-.184-.99-.695-.386-1.258m-4.981 2.768c.319-.335.718-1.057-.235-1.258m-5.384 2.883c-.464-.089-1.238-.463-.621-1.241m-61.145-4.385h-2.556v-10.123h4.722m-1.951-3.017l-.319-19.11m-.248 19.11l-.462-19.003m-6.888 19.218l-.32-19.145m-5.008 19.212l-.355-19.074m-1.24 19.114l-.284-19.109m19.385-.357l-17.894.284-9.018.178-17.291.249-24.143.568-22.013.355v-.667h11.462l19.425-.412 20.882-.444 29.47-.571h9.12m.923-2.758l-10.557.156c-.268.026-.812-.118-.843-.902-.031-.785-.013-3.778 0-5.177l-.294-9.195c.052-.268.329-.82 1.019-.883.69-.063 4.403-.026 6.174 0h4.468c.216.026.655.208.686.726.032.517.209 7.588.294 11.058v.353m2.048-4.457l-.396-17.424" stroke="#fff" stroke-width=".43"/><path d="M207.098 412.266l-26.546.423h-4.75l.343 20.169" stroke="#fff" stroke-width=".43"/><path d="M175.561 432.831l-.343-20.539 15.253-.264 16.651-.343m15.18-4.066l.204-1.637-2.045-.389-.103 2.026c-.675-.362-2.176-1.109-2.782-1.208-.606-.098-4.467-.505-6.321-.696" stroke="#fff" stroke-width=".43"/><path d="M221.763 406.817l-.057.748h-.564v-.748c-.054 0-.164-.062-.173-.31-.011-.311.323-.415.737-.323.331.074.176.453.057.633z" fill="#fff"/><path d="M180.33 401.969l.183 10.243m-.107-1.749l-17.265.209-20.164.288-21.47.34-9.742.261v-.444l12.354-.262 17.526-.287 14.836-.314 12.824-.183h11.101m-68.732-5.182l.533 29.151m.53-.128l-.406-22.23m-.621 5.482l-18.009.285m18.073-.7l-18.04.19m8.21-10.403l.19 10.309m9.067.382l.251 13.857.691.115m.809 2.726l-19.049.296-.313-26.163m-.028 5.778l-10.668 2.442c-4.175 1.114-12.554 3.363-12.664 3.456-.11.092-9.821 3.569-14.662 5.297l-11.737 4.943-4.083 2.12-7.76 4.147-1.398 1.034m63.13-3.514l-17.522 4.894.267 13.526 17.745 2.625" stroke="#fff" stroke-width=".43"/><path d="M94.09 407.993l.305 8.885m86.491 15.725l-.387-19.819" stroke="#fff" stroke-width=".43" stroke-dasharray="8.6 8.6"/><path d="M207.538 427.782h5.47l1.192-4.585-1.192-4.922h-5.745l.275 9.507zM76.297 452.105l-9.216.228c-.502.027-1.538-.132-1.67-.987-.131-.854-.31-7.807-.383-11.176-.046-.475.148-1.392 1.287-1.26 1.511 0 7.11-.128 9.72-.192" stroke="#fff" stroke-width=".43" stroke-dasharray="2.58 2.58"/><circle cx="197.607" cy="459.956" r=".275" transform="rotate(180 197.607 459.956)" stroke="#fff" stroke-width=".43"/><circle cx="170.305" cy="443.418" r=".215" transform="rotate(180 170.305 443.418)" stroke="#fff" stroke-width=".231"/><circle cx="160.32" cy="443.626" r=".215" transform="rotate(180 160.32 443.626)" stroke="#fff" stroke-width=".231"/><path d="M90.448 452.229l22.122 1.49 1.859-.415-.583-18.313h-2.127l-21.271 2.696-13.33 2.979v9.648l13.33 1.915z" stroke="#fff" stroke-width=".43"/><circle cx="112.533" cy="444.356" r=".419" transform="rotate(180 112.533 444.356)" fill="#333" stroke="#fff" stroke-width=".43"/><path d="M110.998 435.357l-9.074 7.753c-1.858-1.275-5.847-4.22-6.943-5.79m99.051-15.095a.575.575 0 111.15 0 .575.575 0 01-1.15 0zm-10.746 6.817h6.783c.507 0 .643-.427.648-.641-.054-3.218-.159-9.82-.145-10.485.015-.664-.499-.842-.758-.848l-4.423.108c.09.337.264 1.084.235 1.373-.029.289-.313.12-.452 0l-.541-1.373h-.921c.06.313.191 1.026.235 1.373.043.346-.391.277-.614.198-.066-.373-.259-1.187-.501-1.459-.213 0-.463.338-.561.508.063 3.223.187 9.857.187 10.605.129.641.606.695.828.641z" stroke="#fff" stroke-width=".43"/><path d="M185.372 417.104l-.867-2.8h-.56l.686 2.89h-.92l-.939-2.89h-.56l.704 2.89" stroke="#fff" stroke-width=".43"/><circle cx="184.113" cy="413.662" r=".423" transform="rotate(180 184.113 413.662)" stroke="#fff" stroke-width=".43"/><circle cx="182.451" cy="413.83" r=".423" transform="rotate(180 182.451 413.83)" stroke="#fff" stroke-width=".43"/><circle cx="238.852" cy="446.025" r=".429" transform="rotate(180 238.852 446.025)" fill="#333"/><circle cx="214.627" cy="446.421" r=".429" transform="rotate(180 214.627 446.421)" fill="#333"/><path d="M159.353 446.877h2.64v-6.79h-13.537v6.79h8.446m51.979-12.656h34.791m.914-.04h7.04m2.989-.034h11.476m6.037-11.118h5.489m-2.924 24.976h7.051m-72.863-12.066h34.791m.914-.04h7.04m2.989-.034h11.476m6.54-11.118h5.732m-4.194 24.977h7.427m-72.715-12.066h34.791m.914-.04h7.04m2.989 0h11.476m7.034-11.118h5.67m-4.626 24.977h7.194m-7.194 1.718h6.599m-6.599 1.719h6.094m-6.792 1.719h6.521m-6.776 1.718h5.864m-5.931 1.719h5.071m-4.756-31.851h5.939m-5.57 1.718h6.104m-6.104 1.719h6.673m-6.474 1.719h6.737m-6.6 1.718h6.893m-26.447 4.244h11.476m-11.476 1.719h11.476m-11.476 1.719h11.476m-11.476 1.718h11.476m-11.476 1.719h11.476m-11.476 1.719h11.476m-11.476 1.719h11.476m-21.505-10.313h7.04m-7.04 1.719h2.377m-2.377 1.719h2.377m-2.377 1.718h7.04m-7.04 1.719h7.04m-7.04 1.719h7.04m-7.04 1.719h7.04m-42.745-10.272h34.791m-34.791 1.718h34.791m-34.791 1.719h34.791m-34.791 1.719h34.791m-34.791 1.718h34.791m-129.286-10.313h69.582m-95.798-.584h19.279m6.937-1.134h69.582m24.913 13.75h34.791m-129.286-10.313h69.582m-100.139-.953h13.173m-18.374 1.323h10.544m-10.115 14.563h15.265m-6.975 1.107h22.509m-33.659-14.461h7.202m-6.773 12.146h8.575m123.68-1.693h34.791m-129.286-10.312h69.582m-69.582 1.718h34.068m13.539 0h6.358m-91.234 1.805l3.02-2.898m34.249 2.812h34.068m13.539 0h6.358m-91.147 2.424l5.86-5.655m31.322 4.95h34.068m13.539 0h6.358m-91.147 2.907l8.77-8.722m-8.77 10.971l11.521-11.315m-9.859 11.973l12.884-12.764m-10.725 13.224l13.175-13.47m-10.722 13.805l13.174-14.178m-10.632 14.46l13.219-14.72m-11.116 15.112l13.935-15.494m-11.782 15.824l13.937-16.156m-11.559 16.324l14.269-16.543m-11.779 16.71l14.49-17.097m-11.776 17.259l14.598-17.597m-11.507 17.597l12.999-15.939m-10.839 16.213l10.84-13.057m-8.351 13.168l8.516-9.572m-5.643 9.85l5.752-7.027m-3.26 7.192l3.372-4.318m.051-2.902h34.068m13.539 0h6.358m-53.965 1.719h69.582m-69.582 1.719h69.582m-69.582 1.719h69.582m-69.582 1.719h69.582" stroke="#fff" stroke-width=".43"/></svg>