<svg width="419" height="713" fill="none" xmlns="http://www.w3.org/2000/svg"><path d="M143.778 636.148v-5.134m134.531-24.647v-1.37h-10.954m-24.304 42.104v-54.429" stroke="#fff" stroke-width=".43"/><path d="M364.575 560.493v63.329c-2.396 5.477-80.787 21.908-120.153 23.62-39.367 1.712-82.156-6.846-102.011-11.639-15.883-3.834-49.293-17.116-64.013-23.277-13.35-5.363-40.736-16.569-43.474-18.486-2.739-1.917-1.141-3.765 0-4.45.57-.114 4.86-2.533 18.827-8.557 14.035-7.531 72.686-26.245 100.641-34.575 12.096-3.08 45.871-9.174 84.21-8.9 38.34.274 99.957 15.404 125.973 22.935z" stroke="#fff" stroke-width=".43"/><path d="M364.233 571.105c-28.412-8.672-88.044-25.81-99.272-24.989v-6.846M77.368 612.182v-40.051m200.599 71.888v-25.674m-8.213-.341h14.035V607.05h-14.035v10.954z" stroke="#fff" stroke-width=".43"/><circle cx="272.149" cy="609.45" r="1.154" transform="rotate(180 272.149 609.45)" stroke="#fff" stroke-width=".43"/><circle cx="162.608" cy="622.457" r="1.154" transform="rotate(180 162.608 622.457)" stroke="#fff" stroke-width=".43"/><path d="M340.612 584.118v18.828l-45.87 7.531v-35.259l45.87 8.9z" stroke="#fff" stroke-width=".43"/><path d="M356.359 612.182v-39.024c.114-1.712-1.164-5.34-7.188-6.162-5.751-1.643-25.218-5.477-34.232-7.188l-27.385-3.766m68.463 56.146c0 1.141-.411 3.697-2.054 4.792-1.643 1.096-6.846 2.739-9.243 3.424l-11.981 2.396-5.477 3.423c-6.618 1.826-20.881 5.546-24.989 5.819m0 0c-4.108.274-5.135-1.939-5.135-3.08.343-1.142 1.37-3.424 2.739-3.424 1.711 0 2.396 4.793 2.396 6.504z" stroke="#fff" stroke-width=".43"/><path d="M300.56 625.539c.822-.274 31.38-5.82 46.556-8.558 1.825-.343 5.614-1.712 6.161-4.45.548-2.739.685-26.929.685-38.682-.342-1.712-2.328-5.204-7.531-5.477-4.929-.822-34.688-5.82-48.951-8.216l-9.585-1.027" stroke="#fff" stroke-width=".43"/><path d="M350.539 612.182l.684-38.682c.229-.798-1.985-2.738-12.665-4.108-10.407-2.19-35.145-5.248-46.213-6.504m58.196 49.299c-.457.685-2.397 2.191-6.504 2.739-4.108.548-35.944 6.162-51.348 8.9l-9.927-8.9m14.034 17.455h-7.873l-2.397-2.396h-2.054" stroke="#fff" stroke-width=".43"/><path d="M297.481 625.877l-16.089 2.054v3.081l-36.97 1.027m33.202 6.165c-.821 0-22.479 1.598-33.204 2.397m34.232-59.221h15.405l1.027-6.162-3.424-3.766h-13.008v9.928z" stroke="#fff" stroke-width=".43"/><path d="M286.525 580.695v-1.369h-4.45v-2.397h4.45v-1.369h-5.135v-3.765m48.951 9.927v-19.854m-53.057 5.814h3.765l.342-12.666-.342-5.477-4.792-1.37h-10.27v19.513l2.739 1.369h6.504l2.054-1.369z" stroke="#fff" stroke-width=".43"/><path d="M281.391 555.359h-7.188l-1.369-1.027h-6.847m16.089-3.081l4.107 4.108 3.766 1.027v7.873l5.135 6.846-3.424-1.711-5.477-5.135-2.738-6.162-2.054.685m0 47.927V581.72m-50.319-11.642v-31.493m16.089.344v5.135h-15.404m19.853 3.085v21.566h-14.035v-21.566h14.035zm27.384 34.228v4.45h-5.819l-7.189-2.054-6.162 11.639 7.531 9.927v12.324l-1.369 2.054h-21.908m17.46 1.712h-17.116m28.413-17.117l3.765-17.458m-9.929 17.115l5.819-17.8m-8.898 14.04l5.135-15.062m-25.676 7.523h-14.719v22.593h-51.348v26.701m66.41-11.295h-66.067m66.409 5.137h-66.752m50.32 11.295v-10.612m-35.257 7.53v-7.874" stroke="#fff" stroke-width=".43"/><path d="M263.59 549.539h-8.216l-1.369 20.882h-22.936m.003-20.535h-54.771m35.599 0v-11.297m-17.456 11.639v-9.585m-18.145 30.462v-28.07m-.342 28.413h-30.124m18.487 0v-26.701m66.752 25.673c-2.465.548-36.857.229-53.744 0m-13.351-8.555h-18.143m16.773 3.768v-8.9m-1.37 8.9v-8.216m-2.055 8.558v-8.9m103.038 73.936v-8.9m16.089-17.113v1.711m-101.667 23.617h-31.493v-12.665h31.493m-3.423-3.766h3.765v-11.639h-16.431v11.639h12.666zm.344-.343V602.94" stroke="#fff" stroke-width=".43"/><path d="M175.957 602.257v-3.765h-30.466v18.827m-.343-18.144l-14.377-4.108v-11.296l14.377-6.504v-21.909c-6.276 1.141-22.388 5.272-36.628 12.666m-31.15 15.404l31.493-15.405M95.855 591.99H77.37m65.384 9.927v19.512H130.43v-21.566l12.324 2.054z" stroke="#fff" stroke-width=".43"/><path d="M143.439 557.76v18.485l-13.351 5.135-1.369-19.512 14.72-4.108zm-3.082 56.819l-7.531-2.054m8.558-43.131l-9.243 3.081m-1.713 42.789c-.799-2.738-3.423-8.352-7.531-8.9-1.369-6.162-3.081-12.666-6.161-13.35 8.215 4.108 12.665 8.558 13.692 22.25zm-13.007-25.329c9.037-4.93 10.84-18.029 10.612-23.962-2.396 8.215-3.766 5.134-7.189 8.9 1.027 5.819 0 7.189-3.423 15.062z" stroke="#fff" stroke-width=".43"/><path d="M123.242 601.572v-22.935l1.027-2.396 3.765-2.739m16.432 57.167l-31.835-12.323-35.259-17.459m147.538-13.345v24.989h-45.185v-24.989m44.843 6.499c-1.096.274-30.695.114-44.844 0m51.348-37.998h-54.429m-25.673 71.886h15.062v-9.585H150.97v9.585zm113.647-75.988h-8.9m8.9 2.733h-9.585m9.585 2.739h-9.585m9.585 2.74h-9.585m9.585 2.74h-10.27m10.27 2.74h-9.927m9.927 2.733h-10.27m10.27 2.055h-11.639m25.331 3.424H145.49m132.819 2.74H145.49m132.819 2.74H140.698m137.611 2.74H135.221m129.396 2.733H131.113m132.819 2.74H131.113m147.881-2.74h-10.269m-6.163 5.479h-37.655m-45.183 2.74h-48.609m48.609-2.74h-48.609m130.081 2.74H242.71m17.116 2.74h-16.432m-15.062 0h-3.423m3.423-2.74h-3.423m3.423 5.473h-3.423m-45.185 0h-34.232" stroke="#fff" stroke-width=".43"/><path d="M161.237 598.49h-15.746" stroke="#fff" stroke-width="1.289"/><path d="M228.332 601.23h-3.423m-45.185 0h-34.232m15.06 2.739h-15.061m15.061 2.74h-15.061m15.061 2.74h-15.061m15.061 2.733h-15.061m31.493 3.425h-31.493m82.841-11.638h-3.423m-45.185 0h-2.738m51.346 2.74h-3.423m-45.185 0h-2.738m51.346 2.74h-3.423m-45.185 0h-2.738m51.346 2.733h-3.423m-45.185 0h-2.738m2.738-16.425h-45.87m128.027 2.733h-19.17m21.906 2.74h-21.224m22.594 2.739h-23.278m24.648 2.74H242.71m24.647 2.74H242.71m24.647 2.733H242.71m24.647 2.74h-23.962m23.962 2.74H242.71m35.599-46.214h-14.035v-25.331" stroke="#fff" stroke-width=".43"/><g clip-path="url(#clip0_1_2082)"><path d="M69.744 446.097l260.688 1.209-7.47 6.729-1.625 5.143 2.784.821c.61-1.101 2.032-3.408 2.838-3.825.807-.417.809 2.006.709 3.269l-2.024 4.564.778 4.962-2.251-.095-1.622-4.997-2.426-2.637-.231 5.483c.701 2.33-.073 10.476-8.776 24.421-8.704 13.945-23.882 18.295-30.384 18.727-6.232.725-25.533 1.887-52.883.741-34.13-2.839-55.61-18.247-59.086-19.378-3.476-1.132-5.76-10.524-37.571-21.576-26.055-5.148-51.822-17.853-61.448-23.561z" fill="#fff" stroke="#fff" stroke-width=".43"/><path d="M335.346 48.661l.513.061.238-.054-.751-.007z" fill="#919DB3"/><path d="M360.371 416.586l-3.702-2.828-.634-3.081-3.177-6.242-8.196-14.089-2.177-2.764-12.119-20.744-.032.763 9.927 18.361 1.016 3.097c.101.64.451 2.004 1.048 2.335.598.33 5.724 9.276 8.213 13.707-.43 1.128-.758 3.481 1.365 3.876 1.475 1.283 1.038 2.589.635 3.081m-22.139-45.978l-.446 1.509c-.318.292-1.085-1.446-1.429-2.351.132-.122.55-.359 1.16-.333.318-.292.609.662.715 1.175zm-1.082-1.576l-17.627-44.265m16.85 44.618l-17.278-43.487m.413-.746L180.161-11.953" stroke="#fff" stroke-width=".43"/><path d="M356.178 398.093l-22.502-.943c-.88-.291-2.819-.194-3.545 2.524-.725 2.719-2.603 7.4-3.451 9.401m24.858-9.655l-3.419 8.638" stroke="#fff" stroke-width=".43"/><path d="M349.664 398.574l-5.339-.224c-.662.608-1.993 1.978-2.019 2.588l-.208 4.955m-11.105-8.481l-29.018-.453" stroke="#fff" stroke-width=".43"/><path d="M350.076 406.991l-3.782-.922-9.917-.416-32.069-.581m37.297 3.478c.026-.61-8.023-27.318-12.05-40.595m18.105 32.828l-.208 4.955m-40.189 1.75c.013-.305-2.249-7.094-3.382-10.451m-124.945-36.166l-3.401-.906-.064 1.525 1.875.842 1.907.08 3.766 1.303 75.372 6.596c12.56 1.163 37.911 3.422 38.839 3.155.928-.266.482-2.398.144-3.43l-74.991-6.58-41.095-4.013-2.352 1.428zm32.608 5.954c-7.89 8.96-24.992 27.435-30.282 29.657l-3.051-.128c8.414-6.265 26.86-20.943 33.333-29.529zm14.699 50.253l-46.282-397.49" stroke="#fff" stroke-width=".43"/><path d="M297.413 396.385c-.55-5.114-1.28-16.854.197-22.901 1.476-6.047-1.963 10.354-3.867 19.311l2.875 4.32m1.819-25.121L179.994-8.018M198.37 416.67l-16.678-169.686m10.828 117.9c-4.087 9.374-14.348 28.722-22.702 31.121m9.111-7.645l6.255-399.124m-38.059 410.392l33.418-383.824M129.471 392.4L182.374-7.639M80.312 407.521c-.746-.413-.696-10.72-3.603-14.278-2.907-3.559-4.894-1.733-5.721-.24-.662 1.194-5.501 9.696-7.838 13.798" stroke="#fff" stroke-width=".43"/><path d="M78.087 405.906l-5.86-15.136-1.096-1.192m5.068 15.863l-5.876-14.755c-.206-1.154-1.036-2.64-2.702.65s-4.892 10.359-6.297 13.481" stroke="#fff" stroke-width=".43"/><path d="M64.025 404.163l-4.318-15.453 9.7-21.739 8.953-22.152 16-44.383 16.383-53.53M185.637-4.825L90.034 312.476M55.56 387.394c.026-.61-.526-11.731-.806-17.215m-13.47 38.765l3.038-8.655-2.606-1.636 1.304-3.763 1.526.063 1.653-2.985.763.032 7.89-24.105 3.085-9.798-.301-1.922 1.24-2.238.08-1.906.064-1.525 1.557-.698 10.546-32.776L184.132-9.25" stroke="#fff" stroke-width=".43"/><path d="M184.062-7.565L89.938 260.166l-21.234 68.981-7.444 22.597.747.413-.875 2.636-1.16.333-.032.763-.08 1.905-.81 1.112-10.943 33.141.763.032-.923 3.779 1.875.842-1.32 4.145-3.052-.128-.46 1.89 1.525.064-.048 1.143c-.016.381-.204 1.213-.827 1.493-.623.279-2.157 2.836-2.846 4.08l-1.525-.064.047-1.143m-4.18-.562l2.288.096c.229.01.874-2.809 1.39-5.287m-1.31 3.382l-6.483-.272m0 0l-.683-1.938-1.144-.048-1.177.714-.73-.794.064-1.524 2.304-.286-.683-1.937m2.049 5.813l.751-4.283 7.042 1.173m-9.842-2.703l1.558-.699 8.74 1.13c-.08.412-.174.89-.278 1.402m-10.02-1.833l10.02 1.833m0 0l-.178.87m321.177 21.102c-1.416 6.431-4.954 19.723-7.777 21.437-2.823 1.715-19.06 2.001-26.825 1.93-19.869-.24-32.424 0-53.453 0-23.832.401-69.478.32-77.106 0-7.627-.319-90.24-.855-129.92-2.137l-31.57-30.723c-.498-.275-1.646-.832-2.256-.858-.61-.025-.477-.783-.334-1.159l1.193-1.096c.137-.248.566-.739 1.176-.714.61.026 7.893.076 11.458.099l11.855-.267 36.678.01 22.9.578 9.108-7.636c.794-.73 2.765-2.175 4.291-2.111 1.525.064 2.935-.132 3.448-.237l8.789-.014 7.675-.823 10.695.066 37.124-1.498.811-1.112c4.206-.078 12.618-.234 12.236-.25l-.048 1.143c4.847-.179 14.69-.453 15.288-.123.966-1.181 1.992-1.953 2.384-2.191l15.288-.123c1.801-.433 6.382-.954 10.298.432 4.894 1.733 6.801 1.812 11.615 5.45a2677.481 2677.481 0 0014.077 10.518c.238.391.702 1.48.651 2.7 1.493.826 4.609-.571 5.371-.539.763.032 3.417.525 4.959.208 1.233-.254 8.449-1.046 11.903-1.41l1.907.08 3.448-.237 1.843 1.604.795-.73-1.827-1.986-1.096-1.191-1.843-1.605 7.961 1.479 32.435.978 4.163.938 3.622 4.734 4.958.208 1.462 1.588.699 1.557 1.128.429-.064 1.524-1.574 1.08z" stroke="#fff" stroke-width=".43"/><path d="M363.646 420.546l-1.526-.064-2.32.666-44.752 1.179-41.27.179-58.036-.906-52.681-1.063-62.135-3.368-31.99-2.486c-3.93-.419-12.706-1.296-16.367-1.45-4.577-.192-17.115-1.863-18.625-2.308-1.22-.051-1.335 1.471-1.24 2.239l8.343 1.495 49.899 3.619 41.921 2.521 46.53 1.95 27.079 1.136 35.534-.038 40.476.551 17.195-.043 7.278-.458 11.855-.267 38.617-.672 4.18.557 1.955-1.064.08-1.905z" fill="#fff"/><path d="M351.85 428.449l-10.711.315m-1.178.72l-1.462-1.589-.826 1.493-1.097-1.192-1.208 1.477m-1.112-.814c-13.01.473-44.376 1.347-65.759 1.062-24.169.514-75.999-.768-98.894-1.473l-84.208-5.439-26.65-2.262m306.67-24.181l-6.902 18.801-.747-.413 6.886-18.42.763.032z" stroke="#fff" stroke-width=".43"/><path d="M367.623 398.564l-9.154-.384c-.63-.153-1.986-.007-2.368 1.81-.382 1.817-3.192 12.339-4.55 17.373" stroke="#fff" stroke-width=".43"/><path d="M364.137 408.73l.032-.762-9.916-.415.349.778 9.535.399zm-9.883-1.178c-4.608.57-15.202 1.73-20.707 1.805-5.505.074-22.37-1.065-30.114-1.644l-53.443-1.095-57.274-.874-60.308-1.382-69-3.656-34.644-2.98m102.615-5.242l.995 21.805m-2.902-21.886l-2.438 21.661M46.75 406.12l-1.843-1.605c24.908 1.299 74.874 3.902 75.485 3.928.61.026-1.06.974-1.971 1.445l-71.67-3.768z" stroke="#fff" stroke-width=".43"/><path d="M39.33 410.007c-.597-.331-11.899-13.863-17.475-20.587-1.218-1.324-2.208-3.835 3.577-3.287 5.784.548 25.76 2.226 35.024 2.996l2.51 3.923m0 0l1.859 1.224 127.386 5.339 6.532-.871c.524-.36 1.268-1.093.048-1.144m-135.825-4.548c44.766 1.495 134.604 4.497 135.825 4.548m-135.825-4.548l3.878-1.364 59.879 2.51 72.068 3.402m-35.125 17.618l.048-1.144-45.687-3.824c-24.144-1.266-72.128-3.787-70.907-3.736 1.22.052 78.206 5.824 116.546 8.704zm-44.846-5.698l9.871-7.604c.911-.471 4.11-1.431 9.615-1.506 5.505-.075 11.733-.399 14.16-.552l24.854-.485m22.247-2.124c.928-.266 8.81-.522 12.634-.616l-.048 1.144 15.272.258 2.003-2.207 16.051-.091a.92.92 0 01.151-.108m0 0c.419-.25 1.465-.588 3.313-.51 2.136.089 5.954.759 7.596 1.082 5.249 2.384 16.252 7.859 18.272 10.693 2.975 1.957 5.678 4.311 6.658 5.243.1.64.298 1.998.285 2.302-.016.382 8.423-.41 9.932.035 1.208.356 10.219-.717 14.573-1.298l3.067-.253 1.859 1.223.779-.349-1.827-1.986-1.08-1.572-11.709-12.327c-2.171-2.891-6.507-8.826-6.481-9.436.032-.762-.603-3.843-3.638-4.352-2.428-.407-6.605-.404-8.391-.352-1.298.582-4.046 1.74-4.656 1.714-.611-.026-7.904.178-11.474.283-2.903-.631-8.966-1.216-9.996 1.49-1.289 3.382-6.153 7.912-7.082 8.37z" stroke="#fff" stroke-width=".43"/><path d="M263.091 385.782c2.892.885 9.229 4.053 11.439 9.643 4.347 5.681 8.769 12.586 10.437 15.329l-5.951-3.877m0 0l-5.95-3.877c-3.474-2.182-11.103-6.727-13.824-7.452-2.72-.725-2.87-1.393-2.605-1.636l5.961-5.478c.021-.508.512-1.276 2.304-.285 1.792.992 6.149 5.222 8.103 7.213l7.228 9.848c.095.767-.015 2.176-1.217 1.667zm-23.221-20.254l4.196.176c.778-.35 1.493.826 1.08 1.572-.331.597-4.377 4.144-6.358 5.843l-6.103-.256c1.198-1.223 3.838-4.039 4.817-5.525.979-1.487 1.987-1.826 2.368-1.81zm35.042 2.616c-.055 4.325-1.225 14.61-5.473 21.152m-7.702-25.908l7.231.685c1.011.17 3.098.817 3.352 2.05.254 1.232.561 1.805.683 1.937l1.907.08" stroke="#fff" stroke-width=".43"/><path d="M357.323 398.137c-.763-.032-13.413.965-26.38.422-10.374-.435-21.602-1.16-25.919-1.469l-82.032-2.675-62.994-1.113-37.758-1.583-53.411-1.857-7.994-.717-4.528-1.335-32.371-2.502m5.624 11.686l52.601 2.968 45.768 1.919m-2.668-9.27l-.48 11.434m103.87-7.868c-.61-.026-23.922-.494-35.502-.725l.016-.381-14.509-.227-24.425-.642-28.986-1.215-33.61-.263m101.577 1.21l-1.326 22.471m-10.693-.075l-2.249-28.349m164.199 29.417l-9.596-8.039m-186.281-3.99l19.467.434c2.654.493 2.606 1.637 2.128 3.908-.382 1.816-2.501 1.931-3.512 1.761l-19.086-.418c-1.006-.297-2.844-1.417-2.144-3.526.699-2.109 2.389-2.318 3.147-2.159z" stroke="#fff" stroke-width=".43"/><path d="M147.217 406.507c6.368.013 19.175.117 19.468.435.508.021 1.509.445 1.445 1.969-.064 1.525-1.595 1.588-2.352 1.429l-19.086-.418c-.503-.149-1.497-.75-1.445-1.97.051-1.22 1.335-1.471 1.97-1.445z" fill="#F4F4F4" stroke="#fff" stroke-width=".43"/><path d="M35.104 410.591l35.47 1.487 115.181 4.828 131.741 1.704 42.463-1.274" stroke="#fff" stroke-width=".43"/><path d="M238.946 405.772c6.998.166 21.145.504 21.756.53l2.987 1.652c1.377.567 4.487 2.327 5.91 4.83-.102 2.439-1.389 2.742-2.019 2.588-6.489-.145-20.459-.476-24.425-.642-3.674.151-5.059-.849-5.292-1.367-.106-.514-.368-2.154-.571-4.606-.533-1.855.881-2.763 1.654-2.985z" stroke="#fff" stroke-width=".43"/><path d="M240.422 406.984l20.23.466c1.372.694 4.633 2.485 6.705 4.099 2.072 1.614.789 2.451-.112 2.668-7.124-.171-22.137-.546-25.188-.674-3.448.237-3.003-1.271-3.272-3.955-.216-2.147 1.002-2.631 1.637-2.604z" fill="#F4F4F4" stroke="#fff" stroke-width=".43"/><path d="M202.664 405.394l22.518.563c1.832.044 2.246 1.099 2.224 1.62.09.895.251 3.142.174 4.971-.077 1.829-1.611 1.969-2.369 1.81-9.037-.124-27.489-.465-29.002-.834-1.891-.461-2.955-2.416-1.747-3.892.967-1.181 5.881-3.572 8.202-4.238z" stroke="#fff" stroke-width=".43"/><path d="M203 406.551l22.137.546c.916.023 1.128.431 1.128.431.005-.127.104.9.253 3.063.19 2.757-1.255 2.6-2.4 2.572-7.125-.171-22.442-.558-26.714-.738-3.025-.737-1.175-2.34.128-3.049l5.468-2.825z" fill="#F4F4F4" stroke="#fff" stroke-width=".43"/><path d="M167.773 392.213l11.877 3.502 6.432-388.537-6.43-.27-11.879 385.305zM188.726 9.586H177.91" stroke="#fff" stroke-width=".43"/></g><path opacity=".4" stroke="#fff" stroke-width=".43" stroke-dasharray="4.3 4.3" d="M364.421 405.322v267.995M32.888 396.727v274.827"/><path d="M370.343 696.458v10.181h-1.232v-8.889h-.06l-2.486 1.651v-1.253l2.546-1.69h1.232zm5.83 10.321c-.749 0-1.387-.204-1.914-.612-.527-.411-.93-1.006-1.208-1.785-.279-.782-.418-1.726-.418-2.834 0-1.1.139-2.04.418-2.818.281-.783.686-1.379 1.213-1.79.53-.414 1.166-.622 1.909-.622.742 0 1.377.208 1.904.622.53.411.935 1.007 1.213 1.79.282.778.423 1.718.423 2.818 0 1.108-.14 2.052-.418 2.834-.278.779-.681 1.374-1.208 1.785-.527.408-1.165.612-1.914.612zm0-1.094c.742 0 1.319-.358 1.73-1.074.411-.716.616-1.737.616-3.063 0-.881-.094-1.632-.283-2.252-.186-.619-.454-1.092-.805-1.417a1.782 1.782 0 00-1.258-.487c-.736 0-1.311.363-1.725 1.089-.415.723-.622 1.745-.622 3.067 0 .882.093 1.631.279 2.248.185.616.452 1.085.8 1.407.351.321.774.482 1.268.482zM32.68 706.779c-.75 0-1.388-.204-1.915-.612-.527-.411-.93-1.006-1.208-1.784-.278-.783-.417-1.727-.417-2.834 0-1.101.139-2.04.417-2.819.282-.782.686-1.379 1.213-1.79.53-.414 1.167-.621 1.91-.621.742 0 1.377.207 1.903.621.53.411.935 1.008 1.214 1.79.281.779.422 1.718.422 2.819 0 1.107-.14 2.051-.418 2.834-.278.778-.68 1.373-1.208 1.784-.527.408-1.165.612-1.914.612zm0-1.094c.742 0 1.319-.358 1.73-1.074.41-.716.616-1.737.616-3.062 0-.882-.095-1.633-.284-2.252-.185-.62-.453-1.092-.805-1.417a1.778 1.778 0 00-1.258-.488c-.736 0-1.31.363-1.725 1.089-.414.723-.621 1.745-.621 3.068 0 .881.093 1.63.278 2.247.186.616.453 1.085.8 1.407.352.321.774.482 1.268.482z" fill="#fff"/><path d="M66.51 689.896v-15.449c0-.58.903-.583.903 0v15.449c0 .58-.903.583-.903 0zm237.867 0v-15.449c0-.58.903-.583.903 0v15.449c0 .58-.903.583-.903 0zm-271.805 0v-15.449c0-.58.903-.583.903 0v15.449c0 .58-.903.583-.903 0z" fill="#FF8A00"/><path opacity=".3" d="M70.036 682.979v-8.533c0-.58.903-.583.903 0v8.533c0 .581-.903.584-.903 0zm-33.767-.033v-8.534c0-.58.902-.583.902 0v8.534c0 .58-.902.583-.902 0zm237.867 0v-8.534c0-.58.902-.583.902 0v8.534c0 .58-.902.583-.902 0zm33.844-.135v-8.533c0-.581.903-.584.903 0v8.533c0 .58-.903.584-.903 0zm-234.412.168v-8.533c0-.58.903-.583.903 0v8.533c0 .581-.903.584-.903 0zm-33.768-.033v-8.534c0-.58.904-.583.904 0v8.534c0 .58-.903.583-.903 0zm237.868 0v-8.534c0-.58.903-.583.903 0v8.534c0 .58-.903.583-.903 0zm33.844-.135v-8.533c0-.58.903-.583.903 0v8.533c0 .581-.903.584-.903 0zm-234.415.168v-8.533c0-.58.903-.583.903 0v8.533c0 .581-.903.584-.903 0zm-33.767-.033v-8.534c0-.58.902-.583.902 0v8.534c0 .58-.902.583-.902 0zm237.867 0v-8.534c0-.58.902-.583.902 0v8.534c0 .58-.902.583-.902 0zm33.841-.135v-8.533c0-.58.902-.583.902 0v8.533c0 .581-.902.584-.902 0zm-217.682 0v-8.533c0-.58.903-.583.903 0v8.533c0 .581-.903.584-.903 0zm-33.817.135v-8.534c0-.58.903-.583.903 0v8.534c0 .58-.903.583-.903 0zm237.867 0v-8.534c0-.58.903-.583.903 0v8.534c0 .58-.903.583-.903 0zM83.64 686.538V674.28c0-.58.903-.583.903 0v12.258c0 .581-.902.584-.902 0zm-33.817.134v-12.258c0-.58.903-.583.903 0v12.258c0 .581-.903.584-.903 0zm237.867 0v-12.258c0-.58.903-.583.903 0v12.258c0 .581-.903.584-.903 0zm33.845-.134V674.28c0-.58.902-.583.902 0v12.258c0 .581-.902.584-.902 0z" fill="#fff"/><path d="M100.516 689.896v-15.449c0-.58.903-.583.903 0v15.449c0 .58-.903.583-.903 0z" fill="#fff"/><path opacity=".3" d="M80.041 682.979v-8.533c0-.58.903-.583.903 0v8.533c0 .581-.903.584-.903 0zm-33.767-.033v-8.534c0-.58.903-.583.903 0v8.534c0 .58-.903.583-.903 0zm237.867 0v-8.534c0-.58.903-.583.903 0v8.534c0 .58-.903.583-.903 0zm33.845-.135v-8.533c0-.58.902-.583.902 0v8.533c0 .581-.902.584-.902 0zm-231.055 0v-8.533c0-.58.903-.583.903 0v8.533c0 .581-.903.584-.903 0zm-33.817.135v-8.534c0-.58.902-.583.902 0v8.534c0 .58-.902.583-.902 0zm237.87 0v-8.534c0-.58.903-.583.903 0v8.534c0 .58-.903.583-.903 0zm-200.594-.081v-8.533c0-.581.902-.584.902 0v8.533c0 .58-.903.584-.903 0zm-33.818.134v-8.533c0-.58.903-.583.903 0v8.533c0 .581-.903.584-.903 0zm237.867 0v-8.533c0-.58.903-.583.903 0v8.533c0 .581-.903.584-.903 0zm-200.699-.188v-8.533c0-.58.903-.583.903 0v8.533c0 .581-.903.584-.903 0zm-33.817.135v-8.534c0-.58.902-.583.902 0v8.534c0 .58-.902.583-.902 0zm237.867 0v-8.534c0-.58.903-.583.903 0v8.534c0 .58-.903.583-.903 0z" fill="#fff"/><path d="M100.516 689.896v-15.449c0-.58.903-.583.903 0v15.449c0 .58-.903.583-.903 0z" fill="#FF8A00"/><path opacity=".3" d="M104.045 682.979v-8.533c0-.58.902-.583.902 0v8.533c0 .581-.902.584-.902 0zm3.528 0v-8.533c0-.58.903-.583.903 0v8.533c0 .581-.903.584-.903 0zm3.532 0v-8.533c0-.58.903-.583.903 0v8.533c0 .581-.903.584-.903 0zm20.213 0v-8.533c0-.58.903-.583.903 0v8.533c0 .581-.903.584-.903 0zm-13.719 3.721v-12.259c0-.58.903-.583.903 0V686.7c0 .58-.903.583-.903 0z" fill="#fff"/><path d="M134.521 689.896v-15.449c0-.58.903-.583.903 0v15.449c0 .58-.903.583-.903 0z" fill="#fff"/><path opacity=".3" d="M114.047 682.979v-8.533c0-.58.903-.583.903 0v8.533c0 .581-.903.584-.903 0zm6.842 0v-8.533c0-.58.903-.583.903 0v8.533c0 .581-.903.584-.903 0zm3.455.054V674.5c0-.581.903-.584.903 0v8.533c0 .58-.903.583-.903 0zm3.351-.054v-8.533c0-.58.903-.583.903 0v8.533c0 .581-.903.584-.903 0z" fill="#fff"/><path d="M134.521 689.896v-15.449c0-.58.903-.583.903 0v15.449c0 .58-.903.583-.903 0z" fill="#FF8A00"/><path opacity=".3" d="M138.053 682.979v-8.533c0-.58.903-.583.903 0v8.533c0 .581-.903.584-.903 0zm3.529 0v-8.533c0-.58.903-.583.903 0v8.533c0 .581-.903.584-.903 0zm3.529 0v-8.533c0-.58.903-.583.903 0v8.533c0 .581-.903.584-.903 0zm20.209 0v-8.533c0-.58.903-.583.903 0v8.533c0 .581-.903.584-.903 0zm-13.712 3.721v-12.259c0-.58.903-.583.903 0V686.7c0 .58-.903.583-.903 0z" fill="#fff"/><path d="M168.53 689.896v-15.449c0-.58.903-.583.903 0v15.449c0 .58-.903.583-.903 0z" fill="#fff"/><path opacity=".3" d="M148.052 682.979v-8.533c0-.58.903-.583.903 0v8.533c0 .581-.903.584-.903 0zm6.843 0v-8.533c0-.58.903-.583.903 0v8.533c0 .581-.903.584-.903 0zm3.458.054V674.5c0-.581.903-.584.903 0v8.533c0 .58-.903.583-.903 0zm3.351-.054v-8.533c0-.58.903-.583.903 0v8.533c0 .581-.903.584-.903 0z" fill="#fff"/><path d="M168.53 689.896v-15.449c0-.58.903-.583.903 0v15.449c0 .58-.903.583-.903 0z" fill="#FF8A00"/><path opacity=".3" d="M172.059 682.979v-8.533c0-.58.903-.583.903 0v8.533c0 .581-.903.584-.903 0zm3.529 0v-8.533c0-.58.902-.583.902 0v8.533c0 .581-.902.584-.902 0zm3.528 0v-8.533c0-.58.903-.583.903 0v8.533c0 .581-.903.584-.903 0zm20.213 0v-8.533c0-.58.903-.583.903 0v8.533c0 .581-.903.584-.903 0zm-13.716 3.721v-12.259c0-.58.903-.583.903 0V686.7c0 .58-.903.583-.903 0z" fill="#fff"/><path d="M202.539 689.896v-15.449c0-.58.903-.583.903 0v15.449c0 .58-.903.583-.903 0z" fill="#fff"/><path opacity=".3" d="M182.061 682.979v-8.533c0-.58.903-.583.903 0v8.533c0 .581-.903.584-.903 0zm6.843 0v-8.533c0-.58.903-.583.903 0v8.533c0 .581-.903.584-.903 0zm3.458.054V674.5c0-.581.903-.584.903 0v8.533c0 .58-.903.583-.903 0zm3.348-.054v-8.533c0-.58.902-.583.902 0v8.533c0 .581-.902.584-.902 0z" fill="#fff"/><path d="M202.539 689.896v-15.449c0-.58.903-.583.903 0v15.449c0 .58-.903.583-.903 0z" fill="#FF8A00"/><path opacity=".3" d="M206.064 682.979v-8.533c0-.58.903-.583.903 0v8.533c0 .581-.903.584-.903 0zm3.529 0v-8.533c0-.58.903-.583.903 0v8.533c0 .581-.903.584-.903 0zm3.532 0v-8.533c0-.58.903-.583.903 0v8.533c0 .581-.903.584-.903 0zm20.209 0v-8.533c0-.58.903-.583.903 0v8.533c0 .581-.903.584-.903 0zm102.077 0v-8.533c0-.58.903-.583.903 0v8.533c0 .581-.903.584-.903 0zM219.619 686.7v-12.259c0-.58.903-.583.903 0V686.7c0 .58-.903.583-.903 0z" fill="#fff"/><path d="M236.544 689.896v-15.449c0-.58.903-.583.903 0v15.449c0 .58-.903.583-.903 0z" fill="#fff"/><path opacity=".3" d="M216.07 682.979v-8.533c0-.58.903-.583.903 0v8.533c0 .581-.903.584-.903 0zm6.843 0v-8.533c0-.58.902-.583.902 0v8.533c0 .581-.902.584-.902 0zm102.077 0v-8.533c0-.58.902-.583.902 0v8.533c0 .581-.902.584-.902 0zm-98.622.054V674.5c0-.581.902-.584.902 0v8.533c0 .58-.902.583-.902 0zm102.08 0V674.5c0-.581.903-.584.903 0v8.533c0 .58-.903.583-.903 0zm-98.733-.054v-8.533c0-.58.903-.583.903 0v8.533c0 .581-.903.584-.903 0zm102.077 0v-8.533c0-.58.903-.583.903 0v8.533c0 .581-.903.584-.903 0z" fill="#fff"/><path d="M236.544 689.896v-15.449c0-.58.903-.583.903 0v15.449c0 .58-.903.583-.903 0zm102.077 0v-15.449c0-.58.903-.583.903 0v15.449c0 .58-.903.583-.903 0z" fill="#FF8A00"/><path opacity=".3" d="M240.073 682.979v-8.533c0-.58.903-.583.903 0v8.533c0 .581-.903.584-.903 0zm102.077 0v-8.533c0-.58.903-.583.903 0v8.533c0 .581-.903.584-.903 0zm-98.548 0v-8.533c0-.58.903-.583.903 0v8.533c0 .581-.903.584-.903 0zm102.077 0v-8.533c0-.58.903-.583.903 0v8.533c0 .581-.903.584-.903 0zm-98.548 0v-8.533c0-.58.903-.583.903 0v8.533c0 .581-.903.584-.903 0zm102.077 0v-8.533c0-.58.902-.583.902 0v8.533c0 .581-.902.584-.902 0zm-81.865 0v-8.533c0-.58.903-.583.903 0v8.533c0 .581-.903.584-.903 0zm102.077 0v-8.533c0-.58.903-.583.903 0v8.533c0 .581-.903.584-.903 0zM253.628 686.7v-12.259c0-.58.902-.583.902 0V686.7c0 .58-.902.583-.902 0zm102.076.006v-12.258c0-.58.903-.583.903 0v12.258c0 .581-.903.584-.903 0z" fill="#fff"/><path d="M270.55 689.896v-15.449c0-.58.903-.583.903 0v15.449c0 .58-.903.583-.903 0z" fill="#fff"/><path opacity=".3" d="M250.075 682.979v-8.533c0-.58.903-.583.903 0v8.533c0 .581-.903.584-.903 0zm102.077 0v-8.533c0-.58.903-.583.903 0v8.533c0 .581-.903.584-.903 0zm-95.234 0v-8.533c0-.58.903-.583.903 0v8.533c0 .581-.903.584-.903 0zm102.077 0v-8.533c0-.58.903-.583.903 0v8.533c0 .581-.903.584-.903 0zm-98.622.054v-8.534c0-.58.903-.583.903 0v8.534c0 .58-.903.583-.903 0zm102.077 0V674.5c0-.581.902-.584.902 0v8.533c0 .58-.902.583-.902 0zm-98.726-.054v-8.533c0-.58.903-.583.903 0v8.533c0 .581-.903.584-.903 0zm102.077 0v-8.533c0-.58.903-.583.903 0v8.533c0 .581-.903.584-.903 0z" fill="#fff"/><path d="M270.55 689.896v-15.449c0-.58.903-.583.903 0v15.449c0 .58-.903.583-.903 0zm102.077 0v-15.449c0-.58.902-.583.902 0v15.449c0 .58-.902.583-.902 0z" fill="#FF8A00"/><defs><clipPath id="clip0_1_2082"><path fill="#fff" transform="matrix(-.99916 -.04093 -.04291 .99908 418.663 16.838)" d="M0 0h395.388v550.104H0z"/></clipPath></defs></svg>