<svg width="100" height="105" fill="none" xmlns="http://www.w3.org/2000/svg"><circle cx="28.173" cy="43.776" fill="#FF8A00" r="28.173"/><path d="M48.98 18.049L0 84.469l48.836-5.056.144-61.364z" fill="#333"/><path d="M76.709 90.757l-6.911-3.805H54.095l-.176-7.62c31.567-6.112 43.948 1.092 43.948 1.092C100 40.21 52.382 9.945 52.382 9.945s22.714 43.53 1.5 67.838L52.08 0l-2.016 86.952H34.898l-2.418 6.271-31.978 1.89L7.713 105h71.68L100 86.952l-23.291 3.805zm-33.661 5.438H39.39c-1.113 0-2.015-.94-2.015-2.1 0-1.16.902-2.1 2.015-2.1h3.657c1.113 0 2.015.94 2.015 2.1 0 1.16-.903 2.1-2.015 2.1zm10.86 0h-3.657c-1.113 0-2.015-.94-2.015-2.1 0-1.16.902-2.1 2.015-2.1h3.657c1.113 0 2.016.94 2.016 2.1 0 1.16-.903 2.1-2.016 2.1zm10.86 0h-3.656c-1.113 0-2.016-.94-2.016-2.1 0-1.16.903-2.1 2.016-2.1h3.657c1.113 0 2.015.94 2.015 2.1 0 1.16-.902 2.1-2.015 2.1z" fill="#333"/></svg>