<svg width="20" height="20" fill="none" xmlns="http://www.w3.org/2000/svg"><path d="M10 20c5.523 0 10-4.477 10-10S15.523 0 10 0 0 4.477 0 10s4.477 10 10 10z" fill="#F4F4F4"/><path d="M10 20c5.523 0 10-4.477 10-10a9.98 9.98 0 00-.622-3.478H.622A9.978 9.978 0 000 10.001c0 5.522 4.477 10 10 10z" fill="#0052B4"/><path d="M10 20c4.3 0 7.965-2.714 9.378-6.522H.622A10.004 10.004 0 0010 19.999z" fill="#D80027"/><path d="M2.586 5.652v4.988c0 2.837 3.707 3.707 3.707 3.707S10 13.477 10 10.64V5.652H2.586z" fill="#F4F4F4"/><path d="M3.456 5.652v4.988c0 .333.074.648.22.943H8.91c.147-.295.22-.61.22-.943V5.652H3.457z" fill="#D80027"/><path d="M8.032 9.131H6.728v-.87h.87v-.869h-.87v-.87h-.87v.87h-.87v.87h.87v.869H4.554v.87h1.304v.87h.87V10h1.304v-.87z" fill="#F4F4F4"/><path d="M4.862 12.796c.56.352 1.136.557 1.431.648.295-.091.87-.296 1.43-.648.566-.355.962-.761 1.187-1.214a1.514 1.514 0 00-1.224-.239 1.522 1.522 0 00-2.786 0 1.52 1.52 0 00-1.224.24c.225.452.621.858 1.186 1.213z" fill="#0052B4"/></svg>