<svg width="65" height="65" fill="none" xmlns="http://www.w3.org/2000/svg"><circle cx="32.5" cy="32.5" r="32.5" fill="#FF8A00"/><path fill-rule="evenodd" clip-rule="evenodd" d="M19.578 45.748c-1.076 0-2.155-.298-3.269-1.04-.26-.188-.296-.521-.15-.782.15-.26.521-.298.782-.149.454.319.91.533 1.364.667.546-.887 1.561-2.087 2.239-2.895.26-.298.485-.559.558-.705.073-.111.222-.225.371-.225l27.53-3.082a.573.573 0 01.631.444c.19.728-1.579 3.328-3.822 5.008a7.46 7.46 0 011.851.788c.26.15.337.483.187.781-.149.26-.482.334-.78.187-2.562-1.524-5.165-.78-7.913.035-2.86.854-5.796 1.71-8.805-.035 0 0-.036 0-.036-.038-2.12-1.486-4.237-.743-6.539.073-1.339.483-2.748.968-4.199.968zm11.63-3.307a.563.563 0 01-.558-.483.574.574 0 01.482-.631l3.12-.337a.578.578 0 01.632.486.577.577 0 01-.482.631l-3.159.334h-.035zm5.682-.632a.56.56 0 01-.556-.482.575.575 0 01.483-.632l3.158-.336a.58.58 0 01.632.485.58.58 0 01-.485.632l-3.156.333h-.076zm5.723-.631a.563.563 0 01-.559-.483.577.577 0 01.483-.632l3.158-.333a.575.575 0 01.632.482.577.577 0 01-.483.632l-3.158.334h-.073zm-22.997 9.027c-1.079 0-2.193-.298-3.27-1.076-.26-.187-.297-.521-.148-.781.187-.26.52-.298.78-.15 2.118 1.486 4.235.744 6.501-.072 2.416-.857 4.942-1.746 7.504.073 2.565 1.523 5.164.743 7.913-.073 2.86-.857 5.796-1.711 8.805.073.26.149.334.482.187.78-.149.26-.485.334-.78.185-2.565-1.524-5.165-.743-7.914.038-2.86.854-5.796 1.746-8.805-.038 0 0-.037 0-.037-.035-2.118-1.489-4.235-.743-6.501.073-1.375.52-2.822 1.003-4.235 1.003zm9.11-11.602l.994-1.438c.076-.149.225-.222.41-.222l6.129-.707c.149-.036.336.037.447.149l1.286 1.18-9.265 1.038z" fill="#fff"/><path fill-rule="evenodd" clip-rule="evenodd" d="M33.214 37.685a.563.563 0 01-.558-.483L29.609 9.636a.58.58 0 01.482-.631c.299-.036.597.187.632.482l3.085 27.53a.577.577 0 01-.483.631c-.038.038-.075.038-.11.038z" fill="#fff"/><path fill-rule="evenodd" clip-rule="evenodd" d="M23.108 35.526a.575.575 0 01-.445-.222c-.111-.15-.149-.336-.111-.52l7.393-22.29a.588.588 0 01.705-.374c.298.076.444.41.371.707l1.784 20.47a.577.577 0 01.631.483.58.58 0 01-.482.632l-9.773 1.114h-.073zm8.878-22.105c2.378 3.94 7.32 13.71 2.378 19.727l9.398-1.078c.187-.89.559-3.454-.406-6.612-1.45-4.717-5.352-8.879-11.37-12.037z" fill="#fff"/><path fill-rule="evenodd" clip-rule="evenodd" d="M32.878 34.418a.561.561 0 01-.52-.334.516.516 0 01.149-.631c7.504-6.577-2.45-20.953-2.527-21.102-.149-.225-.149-.483.038-.67a.571.571 0 01.67-.149c9.287 4.31 12.63 9.846 13.82 13.71 1.225 4.198.295 7.392.258 7.503-.074.223-.258.372-.483.372l-11.329 1.3h-.076z" fill="#fff"/></svg>