<svg width="65" height="65" fill="none" xmlns="http://www.w3.org/2000/svg"><circle cx="32.5" cy="32.5" r="32.5" fill="#69A042"/><path d="M36.683 14.61v7.752h7.753l-7.753-7.753z" fill="#fff"/><path d="M34.606 24.438V14H17v34.319h19.64a10.333 10.333 0 01-2.085-3.157 10.322 10.322 0 01-.817-4.042 10.365 10.365 0 013.04-7.342 10.363 10.363 0 018.335-2.994v-6.346H34.606zm-12.428-.023h8.307v2.077h-8.307v-2.077zm8.307 14.536h-8.307v-2.076h8.307v2.076zm2.077-4.153H22.178v-2.077h10.384v2.077zm5.283-4.153H22.178v-2.077h15.667v2.077z" fill="#fff"/><path d="M44.122 32.813a8.307 8.307 0 100 16.613 8.307 8.307 0 000-16.614zm-.879 11.404l-2.95-3.036 1.489-1.448 1.564 1.61 3.269-2.914 1.382 1.55-4.754 4.238z" fill="#fff"/></svg>