<svg width="65" height="65" fill="none" xmlns="http://www.w3.org/2000/svg"><circle cx="32.5" cy="32.5" r="32.5" fill="#333"/><path d="M32.385 21.47a3.235 3.235 0 100-6.47 3.235 3.235 0 000 6.47zm16.637 5.547a3.235 3.235 0 100-6.47 3.235 3.235 0 000 6.47zm-33.274 0a3.235 3.235 0 100-6.47 3.235 3.235 0 000 6.47z" fill="#fff"/><path fill-rule="evenodd" clip-rule="evenodd" d="M49.456 25.897a1.386 1.386 0 00-2.292-1.297l-4.115 3.741a4.158 4.158 0 01-6.692-1.617l-2.674-7.13a1.387 1.387 0 00-2.596 0l-2.675 7.13a4.155 4.155 0 01-6.691 1.617L17.606 24.6a1.386 1.386 0 00-2.292 1.297l3.101 15.513a5.084 5.084 0 004.986 4.087h17.968a5.084 5.084 0 004.985-4.087l3.102-15.513zm-5.98 22.373H21.294a1.386 1.386 0 000 2.773h22.182a1.386 1.386 0 100-2.773z" fill="#fff"/></svg>