<svg width="20" height="21" fill="none" xmlns="http://www.w3.org/2000/svg"><path fill-rule="evenodd" clip-rule="evenodd" d="M10 .01c5.523 0 10 4.478 10 10 0 5.523-4.477 10-10 10s-10-4.477-10-10c0-5.522 4.477-10 10-10z" fill="#F4F4F4"/><path fill-rule="evenodd" clip-rule="evenodd" d="M19.472 6.796H.527C1.866 2.85 5.601.01 10 .01c4.398 0 8.133 2.84 9.472 6.786z" fill="#32AB45"/><path fill-rule="evenodd" clip-rule="evenodd" d="M19.472 13.225C18.133 17.17 14.398 20.01 10 20.01c-4.399 0-8.134-2.84-9.473-6.785h18.945z" fill="#333"/><path fill-rule="evenodd" clip-rule="evenodd" d="M5.357 1.151V18.87A10 10 0 010 10.01a9.999 9.999 0 015.357-8.859z" fill="#E92B2B"/></svg>