<svg width="76" height="10" fill="none" xmlns="http://www.w3.org/2000/svg"><path d="M67.527 9.887c-1.577 0-3.154-.642-4.565-1.925-.747-.642-1.411-1.375-2.075-2.108-.498-.55-.996-1.008-1.577-1.375-1.08-.733-2.075-.642-3.071 0-.747.458-1.328 1.1-1.91 1.742a22.593 22.593 0 01-2.075 2.016c-2.24 1.833-4.73 2.2-7.387 1.008-.913-.366-1.577-1.008-2.324-1.65-.913-.916-1.743-1.924-2.739-2.75-1.328-1.19-2.407-1.19-3.818-.091-1.162.825-1.992 1.925-2.988 2.933-1.66 1.467-3.486 2.475-5.644 2.292-.83-.092-1.66-.275-2.49-.642-1.246-.642-2.325-1.558-3.238-2.658-.58-.733-1.328-1.283-1.992-1.925-1.079-.917-2.24-1.008-3.403-.183a14.546 14.546 0 00-2.158 1.924c-1.245 1.284-2.49 2.475-4.15 3.117-1.328.458-2.656.458-3.984.183-1.08-.275-2.075-.916-2.988-1.65-.664-.733-1.329-1.375-1.91-2.108-.664-.733-.747-1.925-.083-2.75.581-.733 1.66-.916 2.408-.183.58.55 1.079 1.192 1.66 1.742 1.577 1.558 3.569 1.558 5.229.183a30.92 30.92 0 002.407-2.383C14.073 1.27 15.567.263 17.476.079c.83-.091 1.66.092 2.407.367 1.328.55 2.407 1.467 3.403 2.566.664.642 1.245 1.375 1.992 1.925 1.328 1.192 2.74 1.375 4.317.55 1.079-.641 1.826-1.65 2.739-2.475C33.662 1.821 34.99.538 36.733.171c1.494-.367 2.905 0 4.15.825a11.49 11.49 0 012.656 2.383 17.184 17.184 0 001.826 1.742c1.328 1.191 2.988 1.191 4.4.275.995-.734 1.825-1.65 2.655-2.567.996-1.008 2.075-1.833 3.32-2.383 1.66-.733 3.32-.55 4.898.458.996.642 1.909 1.375 2.656 2.2.498.55.996 1.1 1.494 1.558 1.909 1.833 3.901 1.833 5.81 0l1.992-1.925a1.644 1.644 0 012.324 0c.664.642.747 1.65.332 2.475a3.906 3.906 0 01-.498.642c-.664.641-1.245 1.283-1.909 1.925-1.494 1.283-3.154 2.108-5.312 2.108z" fill="#FF8A00"/></svg>