<svg width="51" height="50" fill="none" xmlns="http://www.w3.org/2000/svg"><path d="M25.492 45.498c2.072 0 3.752-1.72 3.752-3.843s-1.68-3.844-3.752-3.844c-2.071 0-3.75 1.72-3.75 3.843s1.679 3.844 3.75 3.844zM1.26 18.717a2.469 2.469 0 001.78.722 2.473 2.473 0 001.756-.778C10.33 12.809 17.683 9.59 25.5 9.585c2.45 0 4.846.341 7.16.961l-3.56 5.466a21.755 21.755 0 00-3.601-.339c-6.352 0-12.314 2.611-16.795 7.346a2.597 2.597 0 00-.706 1.824c.01.68.283 1.327.76 1.8a2.47 2.47 0 001.78.724 2.473 2.473 0 001.757-.778c3.531-3.734 8.22-5.791 13.204-5.791.155 0 .308.033.463.038l-4.407 6.772c-1.995.641-3.836 1.74-5.351 3.342a2.596 2.596 0 00-.705 1.823c.01.68.284 1.327.76 1.8.155.148.33.276.517.379L8.942 46.995a1.947 1.947 0 00-.292 1.45c.048.25.143.487.28.698.138.212.315.393.521.534a1.852 1.852 0 001.418.284c.243-.052.474-.152.679-.295a1.9 1.9 0 00.515-.54l30.01-46.12a1.947 1.947 0 00.292-1.45 1.949 1.949 0 00-.28-.7 1.9 1.9 0 00-.521-.533 1.851 1.851 0 00-1.418-.284 1.852 1.852 0 00-.679.295c-.205.143-.38.326-.515.54L35.55 6.1a32.423 32.423 0 00-10.054-1.64C16.32 4.464 7.69 8.24 1.205 15.095A2.597 2.597 0 00.5 16.917c.01.68.284 1.327.76 1.8zM48 19.44c.49 0 .971-.149 1.38-.427.41-.278.73-.673.922-1.137a2.62 2.62 0 00.156-1.469 2.585 2.585 0 00-.663-1.313 34.431 34.431 0 00-8.593-6.59l-2.793 4.294a29.32 29.32 0 017.795 5.863c.233.246.512.443.82.576.309.134.64.203.975.203zm-7.5 7.928c.49 0 .971-.149 1.38-.427.41-.278.73-.673.922-1.137a2.62 2.62 0 00.156-1.47 2.585 2.585 0 00-.663-1.312 23.67 23.67 0 00-7.167-5.184l-2.826 4.349a18.567 18.567 0 016.402 4.402c.233.246.512.442.82.576.309.134.64.203.976.203zM33 35.295c.491 0 .971-.148 1.381-.426.41-.278.73-.673.922-1.137a2.62 2.62 0 00.155-1.47 2.584 2.584 0 00-.663-1.312 12.807 12.807 0 00-5.897-3.536l-3.07 4.722c1.975.077 3.928.85 5.376 2.383.233.246.512.442.821.575.309.133.64.202.975.201z" fill="#fff"/></svg>