<svg width="66" height="66" fill="none" xmlns="http://www.w3.org/2000/svg"><circle cx="32.558" cy="32.984" r="32.5" fill="#FF8A00"/><path d="M31.498 15.516l-19.44 25.303 19.383-1.926.057-23.377z" fill="#fff"/><path d="M42.503 43.215l-2.743-1.45h-6.232l-.07-2.903c12.529-2.328 17.443.416 17.443.416.847-15.319-18.053-26.849-18.053-26.849s9.015 16.583.596 25.843l-.716-29.631-.8 33.124h-6.02l-.96 2.39-12.691.72 2.862 3.766h28.45l8.179-6.876-9.245 1.45zm-13.36 2.071h-1.451a.8.8 0 110-1.6h1.451a.8.8 0 110 1.6zm4.31 0h-1.45a.8.8 0 110-1.6h1.45a.8.8 0 010 1.6zm4.311 0h-1.451a.8.8 0 110-1.6h1.451a.8.8 0 110 1.6z" fill="#fff"/></svg>