<svg width="66" height="66" fill="none" xmlns="http://www.w3.org/2000/svg"><circle cx="32.741" cy="32.57" r="32.5" fill="#FF8A00"/><path d="M36.451 34.395h9.764l-9.764-16.228v16.228zm-9.282 6.502c.505.398.84.66 1.6.66.76 0 1.094-.263 1.6-.66.63-.495 1.415-1.112 2.91-1.112 1.493 0 2.278.617 2.908 1.112.506.398.84.66 1.6.66.76 0 1.095-.263 1.6-.66.63-.495 1.416-1.112 2.91-1.112 1.494 0 2.278.617 2.909 1.112.086.069.173.136.261.202l2.974-4.516V36.5H18.117v.083l2.973 4.515c.084-.062.17-.129.26-.2.631-.496 1.416-1.113 2.91-1.113 1.494 0 2.278.617 2.909 1.112zm19.637 2.764c-1.494 0-2.28-.616-2.91-1.111-.505-.397-.839-.66-1.6-.66-.76 0-1.094.263-1.6.66-.63.495-1.415 1.111-2.909 1.111-1.494 0-2.279-.616-2.909-1.111-.506-.397-.84-.66-1.6-.66-.76 0-1.094.263-1.6.66-.63.495-1.415 1.111-2.909 1.111-1.494 0-2.279-.616-2.91-1.111-.505-.397-.839-.66-1.6-.66-.76 0-1.094.263-1.6.66-.63.495-1.415 1.111-2.909 1.111-1.493 0-2.278-.616-2.909-1.111-.505-.397-.84-.66-1.6-.66v2.258h36.075V41.89c-.761 0-1.095.263-1.6.66-.631.495-1.416 1.111-2.91 1.111zm-14.584-9.266h2.116l-.003-22.38h2.913V9.91h-2.913V8.227h-2.114v3.32c-.972.592-3.032 2-5.096 4.389a22.741 22.741 0 00-3.858 6.274c-1.162 2.843-1.75 5.952-1.75 9.239V32.5H32.22v1.894zM23.49 50.184c0 .66-.128 1.217-.385 1.67a2.583 2.583 0 01-1.039 1.027 3.062 3.062 0 01-1.458.347 3.05 3.05 0 01-1.465-.35 2.608 2.608 0 01-1.035-1.03c-.255-.453-.383-1.008-.383-1.664 0-.66.128-1.215.383-1.667a2.564 2.564 0 011.035-1.027 3.05 3.05 0 011.465-.35c.536 0 1.022.116 1.458.35a2.56 2.56 0 011.04 1.027c.256.452.384 1.007.384 1.667zm-1.655 0c0-.355-.047-.654-.142-.897a1.134 1.134 0 00-.414-.556 1.14 1.14 0 00-.671-.19 1.16 1.16 0 00-.675.19c-.18.126-.319.31-.413.556-.093.243-.14.542-.14.897s.047.655.14.9c.094.243.232.428.413.556.184.125.409.188.675.188.266 0 .49-.063.671-.188.183-.128.321-.313.414-.556.095-.245.142-.545.142-.9zm8.34-.741h-1.632a1.104 1.104 0 00-.092-.367.83.83 0 00-.203-.284.845.845 0 00-.31-.185 1.2 1.2 0 00-.413-.067c-.27 0-.5.066-.686.197-.186.131-.326.32-.423.564a2.47 2.47 0 00-.142.883c0 .363.049.667.145.912.098.243.24.426.425.55.186.121.408.182.669.182.148 0 .282-.019.4-.055a.934.934 0 00.306-.165.855.855 0 00.211-.258c.056-.102.094-.217.113-.344l1.632.011c-.019.251-.09.507-.21.767a2.495 2.495 0 01-1.344 1.245c-.328.133-.709.2-1.143.2a3.03 3.03 0 01-1.464-.35 2.538 2.538 0 01-1.022-1.03c-.249-.454-.373-1.009-.373-1.665 0-.66.127-1.215.382-1.667a2.55 2.55 0 011.03-1.027 2.99 2.99 0 011.447-.35c.374 0 .719.05 1.033.153.315.102.59.252.828.449.237.194.428.435.573.72.145.286.233.613.263.981zm1.138 3.705V47.22h4.271v1.296h-2.662v1.019h2.442v1.296h-2.442v1.019h2.65v1.297h-4.26zm7.017 0h-1.737l1.956-5.927h2.2l1.956 5.927h-1.736l-1.297-4.295h-.046l-1.297 4.294zm-.325-2.339h3.264v1.204h-3.264v-1.204zm10.806-3.589v5.928h-1.343l-2.141-3.114h-.035v3.114h-1.609V47.22h1.366l2.107 3.102h.046V47.22h1.61z" fill="#fff"/></svg>