<svg width="66" height="66" fill="none" xmlns="http://www.w3.org/2000/svg"><circle cx="32.558" cy="32.984" r="32.5" fill="#FF8A00"/><path d="M43.353 10.23l-9.446-2.531a.865.865 0 00-1.058.611l-.726 2.709 2.017.54a.865.865 0 01-.45 1.67l-2.014-.54-.819 3.053 4.379 1.173a.865.865 0 01-.45 1.67l-4.376-1.174-.818 3.054 2.017.54a.865.865 0 01-.45 1.67l-2.014-.54-.819 3.053 4.379 1.173a.865.865 0 01-.45 1.67l-4.376-1.174-.818 3.054 2.017.54a.865.865 0 01-.45 1.67l-2.014-.54-.819 3.053 4.379 1.173a.865.865 0 01-.45 1.67l-4.376-1.173-.818 3.053 2.017.54a.865.865 0 01-.45 1.67l-2.015-.54-.818 3.053 4.379 1.173a.865.865 0 01-.45 1.67l-4.376-1.173-.818 3.053 2.017.54a.865.865 0 01-.45 1.671l-2.014-.541-.726 2.706c-.123.46.15.935.611 1.058l9.446 2.531a.868.868 0 001.06-.61L43.965 11.29a.867.867 0 00-.612-1.06z" fill="#fff"/></svg>