<svg width="66" height="66" fill="none" xmlns="http://www.w3.org/2000/svg"><circle cx="32.691" cy="32.828" r="32.5" fill="#FF8A00"/><path d="M48.043 29.712H17.28A3.278 3.278 0 0014 32.98c0 2.63 1.881 4.83 4.374 5.337v7.88c0 3.004 2.453 5.447 5.467 5.447h17.642c3.014 0 5.467-2.443 5.467-5.446v-7.881c2.492-.506 4.374-2.707 4.374-5.337a3.278 3.278 0 00-3.28-3.268zM16.187 32.98c0-.6.49-1.09 1.093-1.09h1.094v4.158c-1.27-.452-2.187-1.65-2.187-3.068zm30.763 3.068V31.89h1.093c.604 0 1.094.488 1.094 1.09 0 1.417-.917 2.615-2.187 3.067zm-28.403-9.149c.254.553.91.784 1.45.534L43.91 16.541c.549-.252.789-.9.536-1.445a1.093 1.093 0 00-1.45-.534l-8.02 3.604a4.376 4.376 0 00-5.802-2.136 4.35 4.35 0 00-2.144 5.78l-7.946 3.645c-.549.25-.789.898-.536 1.444zm25.841-6.618c0-.602-.489-1.09-1.093-1.09-.205 0-2.031.032-3.095 1.09-1.061 1.06-1.092 2.878-1.092 3.082 0 .38-.133 1.221-.453 1.54-.303.303-1.104.449-1.546.452a1.09 1.09 0 00-1.094 1.089c0 .602.49 1.09 1.094 1.09.205 0 2.03-.031 3.092-1.09 1.063-1.058 1.094-2.877 1.094-3.08 0-.38.133-1.223.452-1.542.303-.301 1.102-.447 1.55-.451a1.091 1.091 0 001.091-1.09zm-.718 7.252c.205 0 2.03-.03 3.092-1.089 1.063-1.058 1.093-2.877 1.093-3.08 0-.38.134-1.223.453-1.542.303-.302 1.102-.447 1.55-.451a1.091 1.091 0 001.091-1.09c0-.602-.489-1.09-1.093-1.09-.206 0-2.031.032-3.095 1.09-1.062 1.06-1.092 2.878-1.092 3.082 0 .38-.133 1.221-.453 1.54-.303.303-1.104.448-1.546.452a1.09 1.09 0 00-1.094 1.089c0 .602.49 1.09 1.093 1.09z" fill="#fff"/></svg>