<svg width="65" height="66" fill="none" xmlns="http://www.w3.org/2000/svg"><circle cx="32.5" cy="32.695" r="32.5" fill="#FF8A00"/><path d="M52.862 31.651h-3.078a17.197 17.197 0 00-4.156-10.014l2.123-2.124a1.263 1.263 0 10-1.787-1.786L43.84 19.85a17.197 17.197 0 00-10.015-4.156v-3.079a1.263 1.263 0 10-2.527 0v3.079a17.195 17.195 0 00-10.014 4.156l-2.123-2.123a1.264 1.264 0 00-1.787 1.787l2.123 2.123a17.196 17.196 0 00-4.156 10.014h-3.079a1.263 1.263 0 100 2.527h3.08a17.197 17.197 0 004.155 10.015l-2.123 2.123a1.263 1.263 0 101.787 1.786l2.123-2.123a17.194 17.194 0 0010.014 4.156v3.08a1.263 1.263 0 102.527 0v-3.08A17.195 17.195 0 0043.84 45.98l2.123 2.122a1.261 1.261 0 001.787 0 1.263 1.263 0 000-1.786l-2.123-2.123a17.194 17.194 0 004.155-10.015h3.08a1.263 1.263 0 100-2.527zm-11.419 8.357l-4.836-4.837c.175-.313.314-.647.412-.993h6.844a11.315 11.315 0 01-2.42 5.83zm-17.76-14.187l4.836 4.837a4.598 4.598 0 00-.412.993h-6.844a11.316 11.316 0 012.42-5.83zm20.18 5.83H37.02a4.592 4.592 0 00-.412-.993l4.836-4.837a11.315 11.315 0 012.42 5.83zm-9.043-2.78a4.6 4.6 0 00-.994-.412v-6.845a11.31 11.31 0 015.83 2.42l-4.836 4.837zm-3.52-.412c-.347.098-.68.236-.994.412l-4.837-4.837a11.316 11.316 0 015.83-2.42v6.845zm-10.037 5.719h6.844c.098.346.236.68.412.993l-4.836 4.837a11.316 11.316 0 01-2.42-5.83zm9.043 2.78c.314.176.647.314.993.413v6.844a11.316 11.316 0 01-5.83-2.42l4.837-4.837zm3.52.413a4.6 4.6 0 00.994-.413l4.837 4.837a11.317 11.317 0 01-5.83 2.42V37.37z" fill="#fff"/></svg>