<svg width="66" height="66" fill="none" xmlns="http://www.w3.org/2000/svg"><circle cx="33.334" cy="32.648" r="32.5" fill="#FF8A00"/><path d="M24.822 41.476l3.589-3.589a2.59 2.59 0 01-.91-.91l-3.59 3.589c.376.222.689.535.911.91zm11.372-13.578H29.72c-.715 0-1.294.58-1.294 1.295v6.473c0 .715.58 1.294 1.294 1.294h6.473c.715 0 1.294-.58 1.294-1.294v-6.473c0-.715-.58-1.295-1.294-1.295zm-11.372-4.515a2.59 2.59 0 01-.91.91l3.588 3.59a2.59 2.59 0 01.911-.911l-3.589-3.59zm-2.221 18.109h-6.473c-.714 0-1.294.58-1.294 1.295v6.472c0 .715.58 1.295 1.294 1.295h6.473c.715 0 1.295-.58 1.295-1.295v-6.472c0-.715-.58-1.295-1.295-1.295zm19.403-.926l-3.59-3.59a2.59 2.59 0 01-.91.911l3.59 3.59a2.57 2.57 0 01.91-.911zm-9.694-2.31h1.295v4.53h-1.294v-4.53zm17.476-9.061h-3.883c-.715 0-1.295.58-1.295 1.295v3.883c0 .715.58 1.295 1.295 1.295h3.883c.715 0 1.295-.58 1.295-1.295V30.49c0-.715-.58-1.295-1.295-1.295zm-11.371-1.312l3.589-3.59a2.59 2.59 0 01-.911-.91l-3.59 3.589c.376.222.69.535.912.91zm.368 3.899h4.53v1.294h-4.53v-1.294zm11.004-17.477h-6.473c-.715 0-1.294.58-1.294 1.294v6.473c0 .715.58 1.294 1.294 1.294h6.473c.715 0 1.294-.58 1.294-1.294v-6.473c0-.715-.58-1.294-1.294-1.294zM22.602 31.781h4.53v1.295h-4.53V31.78zm-2.59-2.586h-3.884c-.714 0-1.294.58-1.294 1.295v3.883c0 .715.58 1.295 1.294 1.295h3.884c.715 0 1.295-.58 1.295-1.295V30.49c0-.715-.58-1.295-1.295-1.295zm2.589-14.89h-6.473c-.714 0-1.294.58-1.294 1.294v6.473c0 .715.58 1.294 1.294 1.294h6.473c.715 0 1.295-.58 1.295-1.294v-6.473c0-.715-.58-1.294-1.295-1.294zm27.186 27.187h-6.473c-.715 0-1.294.58-1.294 1.295v6.472c0 .715.58 1.295 1.294 1.295h6.473c.715 0 1.294-.58 1.294-1.295v-6.472c0-.715-.58-1.295-1.294-1.295zm-14.888 2.586h-3.884c-.715 0-1.294.58-1.294 1.295v3.883c0 .715.58 1.295 1.294 1.295H34.9c.715 0 1.294-.58 1.294-1.295v-3.883c0-.715-.58-1.295-1.294-1.295zm0-29.773h-3.884c-.715 0-1.294.58-1.294 1.294v3.884c0 .715.58 1.294 1.294 1.294H34.9c.715 0 1.294-.58 1.294-1.294v-3.884c0-.715-.58-1.294-1.294-1.294zM32.31 22.07h1.295v4.531h-1.294v-4.53z" fill="#fff"/></svg>