<svg width="488" height="833" fill="none" xmlns="http://www.w3.org/2000/svg"><path d="M167.725 739.384v-5.974m156.515-28.675v-1.593h-12.744m-28.276 48.984v-63.323" stroke="#fff" stroke-width=".5"/><path d="M424.602 651.366v73.677c-2.788 6.372-93.989 25.489-139.788 27.48-45.8 1.991-95.582-7.965-118.681-13.541-18.479-4.46-57.349-19.913-74.474-27.081-15.532-6.24-47.393-19.276-50.579-21.506-3.186-2.23-1.327-4.381 0-5.177.664-.133 5.656-2.947 21.904-9.957 16.329-8.761 84.564-30.533 117.088-40.224 14.072-3.584 53.366-10.673 97.971-10.355 44.605.319 116.291 17.922 146.559 26.684z" stroke="#fff" stroke-width=".5"/><path d="M424.203 663.712c-33.055-10.089-102.431-30.029-115.494-29.073v-7.965M90.463 711.501v-46.596m233.379 83.635v-29.869m-9.558-.397h16.329V705.53h-16.329v12.744z" stroke="#fff" stroke-width=".5"/><circle cx="317.071" cy="708.322" r="1.343" transform="rotate(180 317.071 708.322)" stroke="#fff" stroke-width=".5"/><circle cx="189.63" cy="723.455" r="1.343" transform="rotate(180 189.63 723.455)" stroke="#fff" stroke-width=".5"/><path d="M396.723 678.851v21.904l-53.367 8.762v-41.021l53.367 10.355z" stroke="#fff" stroke-width=".5"/><path d="M415.043 711.501V666.1c.133-1.992-1.354-6.213-8.363-7.169-6.691-1.912-29.338-6.372-39.826-8.363l-31.86-4.381m79.651 65.321c0 1.327-.478 4.301-2.39 5.575-1.911 1.275-7.965 3.186-10.753 3.983l-13.939 2.788-6.372 3.982c-7.699 2.124-24.293 6.452-29.073 6.771m0 0c-4.779.318-5.973-2.257-5.973-3.585.398-1.327 1.593-3.982 3.186-3.982 1.991 0 2.787 5.576 2.787 7.567z" stroke="#fff" stroke-width=".5"/><path d="M350.128 727.04c.956-.319 36.507-6.77 54.163-9.956 2.124-.399 6.531-1.992 7.169-5.178.637-3.186.796-31.329.796-45.003-.398-1.991-2.708-6.053-8.762-6.372-5.734-.956-40.356-6.77-56.95-9.558l-11.152-1.195" stroke="#fff" stroke-width=".5"/><path d="M408.273 711.501l.796-45.003c.266-.929-2.31-3.186-14.735-4.779-12.107-2.549-40.888-6.107-53.765-7.567m67.705 57.355c-.531.797-2.788 2.549-7.567 3.186s-41.817 7.169-59.739 10.355l-11.549-10.355m16.327 20.308h-9.16l-2.787-2.788h-2.39" stroke="#fff" stroke-width=".5"/><path d="M346.543 727.434l-18.718 2.389v3.585l-43.012 1.195m38.631 7.173c-.956 0-26.153 1.858-38.631 2.787m39.825-68.898h17.921l1.195-7.169-3.982-4.38h-15.134v11.549z" stroke="#fff" stroke-width=".5"/><path d="M333.799 674.868v-1.593h-5.177v-2.788h5.177v-1.593h-5.974v-4.381m56.951 11.55v-23.098m-61.731 6.763h4.381l.398-14.735-.398-6.372-5.575-1.593h-11.948v22.7l3.186 1.593h7.567l2.389-1.593z" stroke="#fff" stroke-width=".5"/><path d="M327.824 645.392h-8.363l-1.593-1.195h-7.965m18.717-3.584l4.779 4.779 4.381 1.195v9.16l5.974 7.965-3.982-1.991-6.373-5.974-3.186-7.169-2.389.797m0 55.759v-29.073m-58.543-13.544v-36.64m18.718.4v5.974h-17.921m23.098 3.589v25.091h-16.329V635.84h16.329zm31.861 39.822v5.177h-6.77l-8.363-2.389-7.169 13.54 8.762 11.55v14.337l-1.593 2.39h-25.489m20.312 1.992h-19.913m33.054-19.914l4.381-20.311m-11.548 19.912l6.77-20.709m-10.356 16.334l5.974-17.523M283.22 688.8h-17.125v26.285h-59.739v31.064m77.262-13.14h-76.863m77.261 5.976h-77.66m58.544 13.141V739.78m-41.021 8.76v-9.16" stroke="#fff" stroke-width=".5"/><path d="M307.115 638.621h-9.558l-1.593 24.294h-26.683m0-23.891H205.56m41.419 0v-13.142m-20.312 13.541v-11.151m-21.107 35.44v-32.657m-.399 33.055h-35.046m21.506 0v-31.064m77.66 29.869c-2.867.637-42.879.265-62.526 0m-15.532-9.953h-21.108m19.514 4.383V646.99m-1.593 10.355v-9.558m-2.389 9.956v-10.355m119.875 86.019v-10.354m18.718-19.91v1.991M205.958 732.61h-36.639v-14.735h36.639m-3.983-4.382h4.381v-13.541h-19.117v13.541h14.736zm.399-.398v-12.346" stroke="#fff" stroke-width=".5"/><path d="M205.161 699.954v-4.381h-35.445v21.905m-.397-21.11l-16.727-4.779v-13.142l16.727-7.567v-25.489c-7.302 1.328-26.046 6.133-42.614 14.736m-36.242 17.921l36.64-17.922m-15.134 27.883H90.463m76.068 11.549v22.701h-14.337v-25.09l14.337 2.389z" stroke="#fff" stroke-width=".5"/><path d="M167.327 648.185v21.506l-15.532 5.974-1.593-22.701 17.125-4.779zm-3.585 66.105l-8.761-2.39m9.957-50.179l-10.753 3.585m-1.991 49.781c-.93-3.186-3.983-9.718-8.762-10.355-1.593-7.168-3.584-14.735-7.169-15.532 9.558 4.779 14.736 9.957 15.931 25.887zm-15.133-29.469c10.514-5.735 12.611-20.975 12.346-27.878-2.788 9.558-4.382 5.974-8.364 10.355 1.195 6.77 0 8.363-3.982 17.523z" stroke="#fff" stroke-width=".5"/><path d="M143.83 699.157v-26.683l1.195-2.788 4.38-3.186m19.118 66.509l-37.038-14.337-41.02-20.312m171.647-15.526v29.073h-52.569v-29.073m52.172 7.561c-1.274.319-35.71.133-52.172 0m59.738-44.207h-63.322m-29.87 83.633h17.523V718.67h-17.523v11.151zm132.222-88.406h-10.355m10.355 3.18H297.16m11.151 3.187H297.16m11.151 3.188H297.16m11.151 3.187h-11.948m11.948 3.188h-11.55m11.55 3.179h-11.948m11.948 2.391H294.77m29.47 3.984H169.717m154.523 3.188H169.717m154.523 3.187H164.141m160.099 3.188H157.769m150.542 3.18h-155.32m154.523 3.187H152.99m172.047-3.187H313.09m-7.17 6.375h-43.808m-52.569 3.187h-56.552m56.552-3.187h-56.552m151.337 3.187h-21.506m19.913 3.188h-19.117m-17.523 0h-3.983m3.983-3.188h-3.983m3.983 6.367h-3.983m-52.569 0h-39.826" stroke="#fff" stroke-width=".5"/><path d="M188.036 695.571h-18.319" stroke="#fff" stroke-width="1.5"/><path d="M266.095 698.759h-3.983m-52.569 0h-39.826m17.523 3.187h-17.523m17.523 3.188h-17.523m17.523 3.187h-17.523m17.523 3.18h-17.523m36.639 3.984h-36.64m96.379-13.539h-3.983m-52.569 0h-3.186m59.738 3.188h-3.983m-52.569 0h-3.186m59.738 3.187h-3.983m-52.569 0h-3.186m59.738 3.18h-3.983m-52.569 0h-3.186m3.186-19.109h-53.366m148.948 3.179h-22.302m25.488 3.188h-24.692m26.285 3.187h-27.082m28.674 3.188h-28.674m28.674 3.187h-28.674m28.674 3.18h-28.674m28.674 3.187h-27.878m27.878 3.188h-28.674m41.418-53.766h-16.328v-29.471" stroke="#fff" stroke-width=".5"/><g clip-path="url(#clip0_1254_3530)"><path d="M81.59 518.274l303.288 1.407-8.691 7.828-1.891 5.984 3.239.955c.71-1.281 2.364-3.964 3.302-4.449.939-.485.941 2.333.825 3.803l-2.355 5.309.906 5.773-2.619-.11-1.888-5.814-2.823-3.068-.267 6.379c.815 2.711-.086 12.188-10.211 28.412-10.126 16.224-27.785 21.285-35.349 21.787-7.25.843-29.705 2.196-61.525.862-39.707-3.303-64.698-21.228-68.742-22.545-4.044-1.317-6.701-12.243-43.711-25.101-30.313-5.99-60.29-20.77-71.489-27.412z" fill="#fff" stroke="#fff" stroke-width=".5"/><path d="M390.596 55.891l.597.072.276-.064-.873-.008z" fill="#919DB3"/><path d="M419.709 483.941l-4.307-3.29-.739-3.584-3.696-7.263-9.535-16.391-2.532-3.215-14.1-24.134-.037.886 11.549 21.362 1.182 3.603c.117.746.525 2.332 1.22 2.717.695.384 6.659 10.792 9.554 15.948-.5 1.311-.881 4.049 1.589 4.508 1.715 1.494 1.207 3.012.738 3.585m-25.758-53.491l-.518 1.755c-.37.34-1.263-1.682-1.663-2.735.154-.142.639-.417 1.349-.388.37-.34.709.77.832 1.368zm-1.257-1.834l-20.508-51.499m19.602 51.91l-20.101-50.594m.481-.868L210.048-14.628" stroke="#fff" stroke-width=".5"/><path d="M414.833 462.426l-26.18-1.097c-1.023-.339-3.28-.226-4.124 2.937-.844 3.162-3.028 8.608-4.015 10.936m28.921-11.232l-3.978 10.05" stroke="#fff" stroke-width=".5"/><path d="M407.254 462.985l-6.212-.26c-.771.708-2.319 2.301-2.349 3.011l-.242 5.764m-12.922-9.866l-33.76-.527m55.962 11.671l-4.4-1.072-11.537-.484-37.309-.676m43.391 4.046c.03-.709-9.334-31.782-14.02-47.229m21.066 38.193l-.242 5.764m-46.757 2.036c.015-.354-2.617-8.253-3.934-12.158m-145.365-42.076l-3.957-1.055-.074 1.774 2.181.98 2.219.093 4.381 1.516 87.689 7.674c14.612 1.353 44.106 3.981 45.186 3.671 1.079-.31.561-2.79.167-3.991l-87.245-7.655-47.811-4.669-2.736 1.662zm37.937 6.926c-9.18 10.424-29.077 31.919-35.231 34.504l-3.55-.149c9.789-7.289 31.249-24.365 38.781-34.355zm17.103 58.466L209.818 22.068" stroke="#fff" stroke-width=".5"/><path d="M346.462 460.438c-.639-5.949-1.488-19.607.23-26.642 1.717-7.036-2.284 12.046-4.499 22.466l3.345 5.026m2.116-29.226L209.855-10.049m21.38 494.088l-19.403-197.415M224.43 423.79c-4.755 10.906-16.694 33.415-26.412 36.206m10.596-8.893l7.278-464.347m-44.277 477.456l38.88-446.547m-59.418 438.137l61.547-465.41M93.886 473.394c-.868-.48-.81-12.471-4.192-16.611-3.382-4.14-5.694-2.016-6.656-.279-.77 1.389-6.4 11.281-9.12 16.053" stroke="#fff" stroke-width=".5"/><path d="M91.297 471.516l-6.817-17.61-1.275-1.386m5.894 18.455l-6.836-17.167c-.24-1.342-1.205-3.071-3.144.757-1.938 3.828-5.691 12.051-7.326 15.684" stroke="#fff" stroke-width=".5"/><path d="M74.936 469.488l-5.024-17.979 11.285-25.291 10.416-25.771 18.614-51.636 19.061-62.279M216.423-6.335L105.196 362.817m-40.109 87.162c.03-.71-.612-13.648-.937-20.029m-15.671 45.1l3.534-10.069-3.032-1.903 1.517-4.379 1.775.074 1.924-3.473.887.038 9.179-28.045 3.59-11.399-.351-2.235 1.443-2.605.093-2.217.074-1.774 1.812-.813 12.269-38.131L214.671-11.483" stroke="#fff" stroke-width=".5"/><path d="M214.588-9.522L105.083 301.959l-24.705 80.254-8.66 26.29.869.48-1.018 3.067-1.35.388-.037.887-.093 2.217-.943 1.293-12.731 38.557.888.037-1.074 4.397 2.181.98-1.536 4.822-3.55-.149-.536 2.198 1.775.075-.056 1.33c-.019.443-.237 1.411-.962 1.736-.725.325-2.51 3.301-3.31 4.748l-1.776-.074.056-1.331m-4.862-.653l2.663.111c.265.012 1.016-3.267 1.616-6.151m-1.523 3.934l-7.544-.316m0 0l-.794-2.254-1.331-.056-1.368.831-.85-.924.074-1.774 2.68-.332-.794-2.254m2.383 6.763l.875-4.982 8.192 1.364m-11.45-3.145l1.813-.812 10.168 1.314c-.093.479-.203 1.035-.323 1.631m-11.658-2.133l11.658 2.133m0 0c-.067.327-.136.667-.208 1.012m373.66 24.551c-1.647 7.482-5.764 22.946-9.048 24.94-3.284 1.995-22.174 2.328-31.209 2.246-23.116-.28-37.722 0-62.188 0-27.726.466-80.831.372-89.705 0-8.875-.372-104.987-.996-151.153-2.487l-36.726-35.743c-.58-.32-1.916-.969-2.625-.998-.71-.03-.555-.912-.388-1.349l1.387-1.275c.16-.289.658-.861 1.368-.831.71.03 9.183.089 13.33.115l13.793-.311 42.671.012 26.642.673 10.597-8.884c.924-.85 3.217-2.531 4.992-2.456 1.775.074 3.415-.153 4.012-.276l10.225-.016 8.93-.958 12.443.077 43.189-1.743.944-1.293c4.893-.091 14.68-.273 14.236-.292l-.056 1.331c5.639-.208 17.091-.528 17.786-.143 1.125-1.375 2.318-2.272 2.774-2.549l17.786-.143c2.096-.505 7.426-1.11 11.981.502 5.694 2.016 7.912 2.108 13.513 6.341 4.481 3.386 12.785 9.568 16.378 12.236.277.456.816 1.722.757 3.141 1.737.961 5.362-.664 6.249-.626.888.037 3.975.61 5.768.241 1.435-.295 9.831-1.216 13.849-1.64l2.218.093 4.013-.276 2.144 1.867.924-.85-2.125-2.31-1.276-1.386-2.144-1.867 9.263 1.721 37.734 1.137 4.844 1.092 4.214 5.507 5.768.242 1.701 1.848.813 1.811 1.312.499-.074 1.774-1.831 1.256z" stroke="#fff" stroke-width=".5"/><path d="M423.517 488.548l-1.775-.075-2.7.776-52.064 1.371-48.015.208-67.52-1.053-61.289-1.237-72.289-3.918-37.217-2.893c-4.573-.488-14.783-1.508-19.043-1.687-5.325-.223-19.912-2.167-21.668-2.685-1.42-.059-1.553 1.712-1.443 2.605l9.706 1.74 58.053 4.21 48.772 2.933 54.134 2.269 31.504 1.32 41.341-.044 47.09.642 20.005-.05 8.468-.534 13.792-.31 44.928-.782 4.862.648 2.275-1.237.093-2.217z" fill="#fff"/><path d="M409.795 497.743l-12.461.366m-1.368.838l-1.701-1.849-.962 1.737-1.275-1.386-1.406 1.718m-1.294-.947c-15.136.55-51.628 1.567-76.506 1.235-28.118.598-88.418-.893-115.054-1.714l-97.97-6.327-31.004-2.633m356.782-28.132l-8.03 21.874-.869-.48 8.012-21.431.887.037z" stroke="#fff" stroke-width=".5"/><path d="M428.145 462.974l-10.649-.446c-.734-.179-2.311-.008-2.756 2.105-.444 2.114-3.714 14.355-5.293 20.212" stroke="#fff" stroke-width=".5"/><path d="M424.092 474.801l.037-.886-11.537-.484.407.905 11.093.465z" stroke="#fff" stroke-width=".5"/><path d="M412.594 473.431c-5.362.663-17.687 2.012-24.091 2.099-6.405.087-26.026-1.239-35.036-1.913l-62.177-1.273-66.632-1.017-70.164-1.608-80.276-4.253-40.304-3.467m119.382-6.099l1.158 25.368m-3.378-25.462l-2.836 25.201m-93.4-9.243l-2.145-1.866c28.977 1.51 87.109 4.539 87.819 4.569.71.03-1.232 1.133-2.293 1.681l-83.382-4.384z" stroke="#fff" stroke-width=".5"/><path d="M46.205 476.286c-.695-.384-13.843-16.127-20.33-23.951-1.417-1.54-2.569-4.461 4.16-3.823 6.73.637 29.97 2.589 40.749 3.485l2.92 4.564m0 0l2.162 1.424 148.203 6.212 7.599-1.014c.61-.419 1.476-1.271.056-1.33m-158.02-5.292c52.081 1.739 156.6 5.232 158.02 5.292m-158.02-5.292l4.511-1.587 69.664 2.92 83.845 3.959m-40.866 20.496l.056-1.33-53.154-4.449c-28.09-1.474-83.914-4.406-82.494-4.347 1.42.06 90.986 6.776 135.592 10.126zm-52.174-6.628l11.484-8.847c1.06-.548 4.782-1.665 11.186-1.752 6.405-.087 13.651-.464 16.474-.642l28.916-.565m25.884-2.471c1.08-.31 10.249-.607 14.699-.716l-.056 1.33 17.767.301 2.331-2.568 18.673-.106c.042-.038.1-.081.176-.126m0 0c.488-.291 1.705-.683 3.855-.593 2.485.104 6.927.883 8.837 1.259 6.107 2.773 18.908 9.143 21.259 12.44 3.46 2.278 6.605 5.015 7.745 6.1.116.745.347 2.324.332 2.679-.019.443 9.799-.478 11.555.04 1.405.414 11.888-.834 16.954-1.51l3.569-.295 2.163 1.423.906-.406-2.126-2.31-1.257-1.83-13.622-14.341c-2.526-3.363-7.57-10.268-7.54-10.977.037-.887-.701-4.472-4.232-5.064-2.825-.474-7.685-.47-9.762-.409-1.51.677-4.708 2.024-5.418 1.994-.71-.03-9.195.207-13.349.329-3.377-.734-10.431-1.415-11.63 1.733-1.498 3.935-7.157 9.206-8.239 9.738z" stroke="#fff" stroke-width=".5"/><path d="M306.531 448.104c3.365 1.029 10.737 4.714 13.309 11.219 5.056 6.608 10.201 14.642 12.142 17.833l-6.923-4.511m0 0l-6.923-4.51c-4.042-2.538-12.917-7.826-16.082-8.67-3.165-.843-3.34-1.62-3.032-1.903l6.935-6.373c.025-.591.596-1.485 2.681-.332 2.085 1.154 7.153 6.075 9.427 8.391l8.409 11.458c.111.893-.017 2.531-1.415 1.939zm-27.015-23.563l4.881.204c.906-.406 1.738.961 1.257 1.83-.385.694-5.092 4.821-7.398 6.797l-7.099-.298c1.393-1.422 4.464-4.699 5.604-6.428 1.139-1.729 2.311-2.124 2.755-2.105zm40.767 3.043c-.063 5.032-1.425 16.998-6.367 24.609m-8.959-30.142l8.412.797c1.178.197 3.605.951 3.901 2.385.295 1.433.653 2.1.794 2.254l2.219.093" stroke="#fff" stroke-width=".5"/><path d="M416.164 462.478c-.887-.038-15.605 1.122-30.691.49-12.069-.506-25.132-1.35-30.155-1.708l-95.437-3.112-73.288-1.296-43.928-1.841-62.14-2.161-9.3-.834-5.268-1.553-37.66-2.911m6.542 13.596l61.196 3.453 53.246 2.232m-3.103-10.785l-.559 13.303m120.845-9.155c-.71-.029-27.831-.574-41.303-.843l.018-.443-16.88-.263-28.416-.747-33.723-1.414-39.104-.306m118.178 1.407l-1.541 26.143m-12.443-.087l-2.617-32.981m191.034 34.223l-11.165-9.352m-216.722-4.642l22.648.505c3.088.574 3.032 1.904 2.477 4.546-.445 2.114-2.91 2.247-4.087 2.05l-22.205-.487c-1.17-.345-3.309-1.649-2.494-4.102.814-2.454 2.78-2.697 3.661-2.512z" stroke="#fff" stroke-width=".5"/><path d="M171.723 472.215c7.408.015 22.308.136 22.648.505.592.025 1.757.518 1.682 2.292-.074 1.774-1.855 1.847-2.737 1.662l-22.204-.486c-.586-.173-1.742-.873-1.682-2.292.059-1.419 1.553-1.712 2.293-1.681z" fill="#F4F4F4" stroke="#fff" stroke-width=".5"/><path d="M41.286 476.967l41.266 1.729 134.004 5.618 153.27 1.982 49.402-1.483" stroke="#fff" stroke-width=".5"/><path d="M278.44 471.36c8.141.193 24.601.587 25.311.616l3.475 1.923c1.602.659 5.221 2.706 6.876 5.619-.119 2.838-1.615 3.189-2.348 3.011-7.55-.169-23.802-.554-28.417-.747-4.275.176-5.885-.987-6.156-1.591-.123-.597-.429-2.505-.664-5.358-.621-2.159 1.023-3.215 1.923-3.473z" stroke="#fff" stroke-width=".5"/><path d="M280.16 472.769l23.536.543c1.596.807 5.39 2.891 7.801 4.769 2.41 1.878.917 2.852-.131 3.104-8.289-.2-25.754-.636-29.304-.784-4.012.276-3.494-1.479-3.807-4.602-.251-2.498 1.165-3.061 1.905-3.03z" fill="#F4F4F4" stroke="#fff" stroke-width=".5"/><path d="M236.232 470.92l26.198.655c2.131.052 2.613 1.278 2.588 1.885.104 1.041.291 3.655.202 5.783-.09 2.129-1.874 2.291-2.756 2.106-10.513-.145-31.981-.541-33.741-.97-2.2-.537-3.438-2.811-2.033-4.529 1.125-1.374 6.842-4.155 9.542-4.93z" stroke="#fff" stroke-width=".5"/><path d="M236.619 472.266l25.754.636c1.066.026 1.313.501 1.313.501.006-.148.121 1.048.295 3.564.221 3.207-1.461 3.024-2.793 2.992-8.289-.199-26.109-.65-31.079-.858-3.52-.859-1.367-2.723.149-3.548l6.361-3.287z" fill="#F4F4F4" stroke="#fff" stroke-width=".5"/><path d="M195.638 455.586l13.818 4.074 7.482-452.03-7.481-.314-13.819 448.27zM220.013 10.43h-12.584" stroke="#fff" stroke-width=".5"/></g><path opacity=".4" stroke="#fff" stroke-width=".5" stroke-dasharray="5 5" d="M424.419 470.837v311.789M38.709 460.837v319.738"/><path d="M431.216 806.653v11.636h-1.409V808.13h-.069l-2.841 1.886v-1.431l2.91-1.932h1.409zm6.662 11.795c-.856 0-1.586-.233-2.188-.699-.602-.469-1.062-1.149-1.381-2.039-.318-.894-.477-1.974-.477-3.239 0-1.258.159-2.332.477-3.222.322-.894.785-1.575 1.387-2.045.606-.474 1.333-.71 2.182-.71.848 0 1.574.236 2.176.71.606.47 1.068 1.151 1.386 2.045.322.89.483 1.964.483 3.222 0 1.265-.159 2.345-.477 3.239-.318.89-.779 1.57-1.381 2.039-.602.466-1.331.699-2.187.699zm0-1.25c.848 0 1.507-.409 1.977-1.227.47-.818.704-1.985.704-3.5 0-1.008-.107-1.866-.323-2.574-.213-.708-.519-1.248-.921-1.619a2.029 2.029 0 00-1.437-.557c-.841 0-1.498.415-1.972 1.244-.473.826-.71 1.995-.71 3.506 0 1.007.106 1.864.318 2.568.212.705.517 1.241.915 1.608.401.367.884.551 1.449.551zm-399.498 1.25c-.857 0-1.586-.233-2.188-.699-.603-.469-1.063-1.149-1.381-2.039-.318-.894-.477-1.974-.477-3.239 0-1.258.159-2.332.477-3.222.322-.894.784-1.575 1.386-2.045.606-.474 1.334-.71 2.182-.71.849 0 1.574.236 2.176.71.606.47 1.068 1.151 1.387 2.045.322.89.483 1.964.483 3.222 0 1.265-.16 2.345-.478 3.239-.318.89-.778 1.57-1.38 2.039-.603.466-1.332.699-2.188.699zm0-1.25c.848 0 1.507-.409 1.976-1.227.47-.818.705-1.985.705-3.5 0-1.008-.108-1.866-.324-2.574-.212-.708-.519-1.248-.92-1.619a2.029 2.029 0 00-1.438-.557c-.84 0-1.498.415-1.971 1.244-.474.826-.71 1.995-.71 3.506 0 1.007.105 1.864.318 2.568.212.705.517 1.241.914 1.608.402.367.885.551 1.45.551z" fill="#fff"/><path d="M77.828 801.914v-17.973c0-.675 1.05-.679 1.05 0v17.973c0 .675-1.05.679-1.05 0zm276.74 0v-17.973c0-.675 1.05-.679 1.05 0v17.973c0 .675-1.05.679-1.05 0zm-316.223 0v-17.973c0-.675 1.05-.679 1.05 0v17.973c0 .675-1.05.679-1.05 0z" fill="#FF8A00"/><path opacity=".3" d="M81.933 793.867v-9.928c0-.675 1.05-.678 1.05 0v9.928c0 .675-1.05.679-1.05 0zm-39.286-.039V783.9c0-.675 1.05-.678 1.05 0v9.928c0 .675-1.05.679-1.05 0zm276.738 0V783.9c0-.675 1.05-.678 1.05 0v9.928c0 .675-1.05.679-1.05 0zm39.374-.156v-9.928c0-.675 1.05-.679 1.05 0v9.928c0 .675-1.05.679-1.05 0zm-272.718.195v-9.928c0-.675 1.05-.678 1.05 0v9.928c0 .675-1.05.679-1.05 0zm-39.286-.039V783.9c0-.675 1.05-.678 1.05 0v9.928c0 .675-1.05.679-1.05 0zm276.738 0V783.9c0-.675 1.051-.678 1.051 0v9.928c0 .675-1.051.679-1.051 0zm39.374-.156v-9.928c0-.675 1.051-.679 1.051 0v9.928c0 .675-1.051.679-1.051 0zm-272.72.195v-9.928c0-.675 1.05-.678 1.05 0v9.928c0 .675-1.05.679-1.05 0zm-39.287-.039V783.9c0-.675 1.05-.678 1.05 0v9.928c0 .675-1.05.679-1.05 0zm276.738 0V783.9c0-.675 1.05-.678 1.05 0v9.928c0 .675-1.05.679-1.05 0zm39.374-.156v-9.928c0-.675 1.05-.679 1.05 0v9.928c0 .675-1.05.679-1.05 0zm-253.255 0v-9.928c0-.675 1.05-.679 1.05 0v9.928c0 .675-1.05.679-1.05 0zm-39.344.156V783.9c0-.675 1.05-.678 1.05 0v9.928c0 .675-1.05.679-1.05 0zm276.74 0V783.9c0-.675 1.05-.678 1.05 0v9.928c0 .675-1.05.679-1.05 0zm-253.354 4.18v-14.261c0-.676 1.05-.679 1.05 0v14.261c0 .675-1.05.679-1.05 0zm-39.344.156v-14.261c0-.675 1.05-.679 1.05 0v14.261c0 .675-1.05.679-1.05 0zm276.739 0v-14.261c0-.675 1.05-.679 1.05 0v14.261c0 .675-1.05.679-1.05 0zm39.374-.156v-14.261c0-.676 1.05-.679 1.05 0v14.261c0 .675-1.05.679-1.05 0z" fill="#fff"/><path d="M117.393 801.914v-17.973c0-.675 1.051-.679 1.051 0v17.973c0 .675-1.051.679-1.051 0z" fill="#fff"/><path opacity=".3" d="M93.572 793.867v-9.928c0-.675 1.05-.678 1.05 0v9.928c0 .675-1.05.679-1.05 0zm-39.287-.039V783.9c0-.675 1.05-.678 1.05 0v9.928c0 .675-1.05.679-1.05 0zm276.739 0V783.9c0-.675 1.05-.678 1.05 0v9.928c0 .675-1.05.679-1.05 0zm39.374-.156v-9.928c0-.675 1.05-.679 1.05 0v9.928c0 .675-1.05.679-1.05 0zm-268.81 0v-9.928c0-.675 1.05-.679 1.05 0v9.928c0 .675-1.05.679-1.05 0zm-39.344.156V783.9c0-.675 1.05-.678 1.05 0v9.928c0 .675-1.05.679-1.05 0zm276.741 0V783.9c0-.675 1.05-.678 1.05 0v9.928c0 .675-1.05.679-1.05 0zm-233.373-.094v-9.927c0-.676 1.05-.679 1.05 0v9.927c0 .676-1.05.679-1.05 0zm-39.344.157v-9.928c0-.675 1.05-.679 1.05 0v9.928c0 .675-1.05.678-1.05 0zm276.738 0v-9.928c0-.675 1.05-.679 1.05 0v9.928c0 .675-1.05.678-1.05 0zm-233.498-.219v-9.928c0-.675 1.05-.679 1.05 0v9.928c0 .675-1.05.679-1.05 0zm-39.343.156V783.9c0-.675 1.05-.678 1.05 0v9.928c0 .675-1.05.679-1.05 0zm276.74 0V783.9c0-.675 1.05-.678 1.05 0v9.928c0 .675-1.05.679-1.05 0z" fill="#fff"/><path d="M117.393 801.914v-17.973c0-.675 1.051-.679 1.051 0v17.973c0 .675-1.051.679-1.051 0z" fill="#FF8A00"/><path opacity=".3" d="M121.498 793.867v-9.928c0-.675 1.051-.678 1.051 0v9.928c0 .675-1.051.679-1.051 0zm4.106 0v-9.928c0-.675 1.05-.678 1.05 0v9.928c0 .675-1.05.679-1.05 0zm4.107 0v-9.928c0-.675 1.05-.678 1.05 0v9.928c0 .675-1.05.679-1.05 0zm23.515 0v-9.928c0-.675 1.05-.678 1.05 0v9.928c0 .675-1.05.679-1.05 0zm-15.959 4.328v-14.261c0-.675 1.05-.679 1.05 0v14.261c0 .676-1.05.679-1.05 0z" fill="#fff"/><path d="M156.955 801.914v-17.973c0-.675 1.051-.679 1.051 0v17.973c0 .675-1.051.679-1.051 0z" fill="#fff"/><path opacity=".3" d="M133.134 793.867v-9.928c0-.675 1.05-.678 1.05 0v9.928c0 .675-1.05.679-1.05 0zm7.963 0v-9.928c0-.675 1.05-.678 1.05 0v9.928c0 .675-1.05.679-1.05 0zm4.018.063v-9.928c0-.675 1.051-.679 1.051 0v9.928c0 .675-1.051.679-1.051 0zm3.899-.063v-9.928c0-.675 1.05-.678 1.05 0v9.928c0 .675-1.05.679-1.05 0z" fill="#fff"/><path d="M156.955 801.914v-17.973c0-.675 1.051-.679 1.051 0v17.973c0 .675-1.051.679-1.051 0z" fill="#FF8A00"/><path opacity=".3" d="M161.064 793.867v-9.928c0-.675 1.05-.678 1.05 0v9.928c0 .675-1.05.679-1.05 0zm4.104 0v-9.928c0-.675 1.05-.678 1.05 0v9.928c0 .675-1.05.679-1.05 0zm4.106 0v-9.928c0-.675 1.05-.678 1.05 0v9.928c0 .675-1.05.679-1.05 0zm23.513 0v-9.928c0-.675 1.051-.678 1.051 0v9.928c0 .675-1.051.679-1.051 0zm-15.955 4.328v-14.261c0-.675 1.051-.679 1.051 0v14.261c0 .676-1.051.679-1.051 0z" fill="#fff"/><path d="M196.52 801.914v-17.973c0-.675 1.05-.679 1.05 0v17.973c0 .675-1.05.679-1.05 0z" fill="#fff"/><path opacity=".3" d="M172.698 793.867v-9.928c0-.675 1.051-.678 1.051 0v9.928c0 .675-1.051.679-1.051 0zm7.96 0v-9.928c0-.675 1.051-.678 1.051 0v9.928c0 .675-1.051.679-1.051 0zm4.023.063v-9.928c0-.675 1.05-.679 1.05 0v9.928c0 .675-1.05.679-1.05 0zm3.897-.063v-9.928c0-.675 1.051-.678 1.051 0v9.928c0 .675-1.051.679-1.051 0z" fill="#fff"/><path d="M196.52 801.914v-17.973c0-.675 1.05-.679 1.05 0v17.973c0 .675-1.05.679-1.05 0z" fill="#FF8A00"/><path opacity=".3" d="M200.625 793.867v-9.928c0-.675 1.05-.678 1.05 0v9.928c0 .675-1.05.679-1.05 0zm4.108 0v-9.928c0-.675 1.05-.678 1.05 0v9.928c0 .675-1.05.679-1.05 0zm4.105 0v-9.928c0-.675 1.05-.678 1.05 0v9.928c0 .675-1.05.679-1.05 0zm23.514 0v-9.928c0-.675 1.05-.678 1.05 0v9.928c0 .675-1.05.679-1.05 0zm-15.955 4.328v-14.261c0-.675 1.05-.679 1.05 0v14.261c0 .676-1.05.679-1.05 0z" fill="#fff"/><path d="M236.085 801.914v-17.973c0-.675 1.051-.679 1.051 0v17.973c0 .675-1.051.679-1.051 0z" fill="#fff"/><path opacity=".3" d="M212.264 793.867v-9.928c0-.675 1.05-.678 1.05 0v9.928c0 .675-1.05.679-1.05 0zm7.96 0v-9.928c0-.675 1.05-.678 1.05 0v9.928c0 .675-1.05.679-1.05 0zm4.022.063v-9.928c0-.675 1.051-.679 1.051 0v9.928c0 .675-1.051.679-1.051 0zm3.898-.063v-9.928c0-.675 1.05-.678 1.05 0v9.928c0 .675-1.05.679-1.05 0z" fill="#fff"/><path d="M236.085 801.914v-17.973c0-.675 1.051-.679 1.051 0v17.973c0 .675-1.051.679-1.051 0z" fill="#FF8A00"/><path opacity=".3" d="M240.19 793.867v-9.928c0-.675 1.05-.678 1.05 0v9.928c0 .675-1.05.679-1.05 0zm4.105 0v-9.928c0-.675 1.05-.678 1.05 0v9.928c0 .675-1.05.679-1.05 0zm4.109 0v-9.928c0-.675 1.05-.678 1.05 0v9.928c0 .675-1.05.679-1.05 0zm23.512 0v-9.928c0-.675 1.051-.678 1.051 0v9.928c0 .675-1.051.679-1.051 0zm118.759 0v-9.928c0-.675 1.05-.678 1.05 0v9.928c0 .675-1.05.679-1.05 0zm-134.716 4.328v-14.261c0-.675 1.05-.679 1.05 0v14.261c0 .676-1.05.679-1.05 0z" fill="#fff"/><path d="M275.65 801.914v-17.973c0-.675 1.05-.679 1.05 0v17.973c0 .675-1.05.679-1.05 0z" fill="#fff"/><path opacity=".3" d="M251.829 793.867v-9.928c0-.675 1.051-.678 1.051 0v9.928c0 .675-1.051.679-1.051 0zm7.959 0v-9.928c0-.675 1.051-.678 1.051 0v9.928c0 .675-1.051.679-1.051 0zm118.759 0v-9.928c0-.675 1.05-.678 1.05 0v9.928c0 .675-1.05.679-1.05 0zm-114.736.063v-9.928c0-.675 1.05-.679 1.05 0v9.928c0 .675-1.05.679-1.05 0zm118.759 0v-9.928c0-.675 1.05-.679 1.05 0v9.928c0 .675-1.05.679-1.05 0zm-114.865-.063v-9.928c0-.675 1.051-.678 1.051 0v9.928c0 .675-1.051.679-1.051 0zm118.758 0v-9.928c0-.675 1.05-.678 1.05 0v9.928c0 .675-1.05.679-1.05 0z" fill="#fff"/><path d="M275.651 801.914v-17.973c0-.675 1.05-.679 1.05 0v17.973c0 .675-1.05.679-1.05 0zm118.757 0v-17.973c0-.675 1.051-.679 1.051 0v17.973c0 .675-1.051.679-1.051 0z" fill="#FF8A00"/><path opacity=".3" d="M279.756 793.867v-9.928c0-.675 1.05-.678 1.05 0v9.928c0 .675-1.05.679-1.05 0zm118.758 0v-9.928c0-.675 1.05-.678 1.05 0v9.928c0 .675-1.05.679-1.05 0zm-114.654 0v-9.928c0-.675 1.05-.678 1.05 0v9.928c0 .675-1.05.679-1.05 0zm118.757 0v-9.928c0-.675 1.051-.678 1.051 0v9.928c0 .675-1.051.679-1.051 0zm-114.652 0v-9.928c0-.675 1.05-.678 1.05 0v9.928c0 .675-1.05.679-1.05 0zm118.758 0v-9.928c0-.675 1.05-.678 1.05 0v9.928c0 .675-1.05.679-1.05 0zm-95.24 0v-9.928c0-.675 1.05-.678 1.05 0v9.928c0 .675-1.05.679-1.05 0zm118.757 0v-9.928c0-.675 1.051-.678 1.051 0v9.928c0 .675-1.051.679-1.051 0zm-134.716 4.328v-14.261c0-.675 1.05-.679 1.05 0v14.261c0 .676-1.05.679-1.05 0zm118.758.008v-14.261c0-.675 1.051-.679 1.051 0v14.261c0 .675-1.051.679-1.051 0z" fill="#fff"/><path d="M315.212 801.914v-17.973c0-.675 1.05-.679 1.05 0v17.973c0 .675-1.05.679-1.05 0z" fill="#fff"/><path opacity=".3" d="M291.391 793.867v-9.928c0-.675 1.05-.678 1.05 0v9.928c0 .675-1.05.679-1.05 0zm118.758 0v-9.928c0-.675 1.05-.678 1.05 0v9.928c0 .675-1.05.679-1.05 0zm-110.795 0v-9.928c0-.675 1.05-.678 1.05 0v9.928c0 .675-1.05.679-1.05 0zm118.758 0v-9.928c0-.675 1.05-.678 1.05 0v9.928c0 .675-1.05.679-1.05 0zm-114.74.063v-9.928c0-.675 1.051-.679 1.051 0v9.928c0 .675-1.051.679-1.051 0zm118.759 0v-9.928c0-.675 1.05-.679 1.05 0v9.928c0 .675-1.05.679-1.05 0zm-114.861-.063v-9.928c0-.675 1.05-.678 1.05 0v9.928c0 .675-1.05.679-1.05 0zm118.759 0v-9.928c0-.675 1.05-.678 1.05 0v9.928c0 .675-1.05.679-1.05 0z" fill="#fff"/><path d="M315.211 801.914v-17.973c0-.675 1.05-.679 1.05 0v17.973c0 .675-1.05.679-1.05 0zm118.759 0v-17.973c0-.675 1.05-.679 1.05 0v17.973c0 .675-1.05.679-1.05 0z" fill="#FF8A00"/><defs><clipPath id="clip0_1254_3530"><path fill="#fff" transform="matrix(-.99916 -.04093 -.04291 .99908 487.526 18.868)" d="M0 0h460v640H0z"/></clipPath></defs></svg>