<svg width="66" height="66" fill="none" xmlns="http://www.w3.org/2000/svg"><circle cx="32.559" cy="33.328" r="32.5" fill="#FF8A00"/><path d="M26.554 34.074h2.031l-1.01-2.678-1.02 2.678z" fill="#fff"/><path d="M49.543 16.984H15.69a4.637 4.637 0 00-4.631 4.632v22.737a4.637 4.637 0 004.631 4.631h33.853a4.637 4.637 0 004.631-4.631V21.616a4.637 4.637 0 00-4.631-4.632zM20.324 31.932a1.053 1.053 0 010 2.105H18.09v2.105h2.496a1.053 1.053 0 010 2.105h-3.548a1.053 1.053 0 01-1.053-1.052v-8.421c0-.582.471-1.053 1.053-1.053h3.548a1.053 1.053 0 010 2.105H18.09v2.106h2.234zM31.26 38.18a1.051 1.051 0 01-1.357-.613l-.523-1.387h-3.627l-.53 1.39a1.052 1.052 0 11-1.967-.75l3.162-8.302.01-.024a1.24 1.24 0 011.149-.773h.001a1.239 1.239 0 011.162.8l3.133 8.302a1.053 1.053 0 01-.613 1.357zm9.31-2.625c-.278 1.56-1.768 2.693-3.543 2.693-1.421 0-2.81-.596-3.714-1.595a1.053 1.053 0 011.56-1.413c.512.565 1.317.902 2.154.902.814 0 1.387-.486 1.471-.957.112-.626-.735-1.01-1.104-1.147a44.833 44.833 0 01-2.514-1.02 1.03 1.03 0 01-.146-.079 2.677 2.677 0 01-1.194-2.65c.162-1.124.984-2.04 2.147-2.39 2.3-.694 4.194.868 4.273.935a1.05 1.05 0 01-.677 1.858c-.248 0-.488-.087-.677-.247l.006.005c-.011-.009-1.12-.897-2.318-.536-.54.163-.649.526-.67.675a.584.584 0 00.206.548c.296.13 1.259.545 2.293.926 2.125.784 2.657 2.318 2.448 3.492zm8.508-6.186l-2.498 3.838-.01 3.99a1.053 1.053 0 01-1.053 1.05h-.002a1.053 1.053 0 01-1.05-1.055l.01-3.987-2.519-3.856a1.053 1.053 0 011.763-1.15l1.808 2.767 1.786-2.745a1.053 1.053 0 111.765 1.148z" fill="#fff"/></svg>