<svg width="65" height="66" fill="none" xmlns="http://www.w3.org/2000/svg"><circle cx="32.5" cy="32.695" r="32.5" fill="#FF8A00"/><path d="M32.55 36.327c0 5.676 4.6 10.275 10.275 10.275h3.425v3.425H39.4v3.425h13.7V36.327H32.55zM25.7 19.202a6.85 6.85 0 00-13.7 0v34.25h3.425v-34.25a3.425 3.425 0 016.85 0l-4.281 1.712v1.713h11.987v-1.713l-4.28-1.713z" fill="#fff"/><path d="M20.99 26.905a1.284 1.284 0 100-2.569 1.284 1.284 0 000 2.569zm2.998 3.429a1.284 1.284 0 100-2.568 1.284 1.284 0 000 2.568zm2.997-3.429a1.284 1.284 0 100-2.569 1.284 1.284 0 000 2.569zm-5.995 6.851a1.284 1.284 0 100-2.569 1.284 1.284 0 000 2.57zm2.998 3.43a1.284 1.284 0 100-2.569 1.284 1.284 0 000 2.569zm2.997-3.43a1.284 1.284 0 100-2.569 1.284 1.284 0 000 2.57zm-5.995 6.852a1.284 1.284 0 100-2.569 1.284 1.284 0 000 2.569zm2.998 3.422a1.284 1.284 0 100-2.569 1.284 1.284 0 000 2.569zm2.997-3.422a1.284 1.284 0 100-2.569 1.284 1.284 0 000 2.569zM20.99 47.46a1.284 1.284 0 100-2.57 1.284 1.284 0 000 2.57zm5.995 0a1.284 1.284 0 100-2.57 1.284 1.284 0 000 2.57zM46.25 25.195h6.85v8.563h-6.85v-8.563z" fill="#fff"/></svg>