<svg width="66" height="66" fill="none" xmlns="http://www.w3.org/2000/svg"><circle cx="32.558" cy="32.984" r="32.5" fill="#FF8A00"/><path d="M34.448 14.053c-1.124-1.916-2.313-1.85-3.437 0C25.856 21.72 18.058 33.22 18.058 38.97c0 4.032 1.652 7.733 4.295 10.376a14.692 14.692 0 0010.376 4.296c4.032 0 7.733-1.652 10.377-4.296A14.692 14.692 0 0047.4 38.97c0-5.816-7.798-17.25-12.953-24.916zm8.856 31.459a12.549 12.549 0 01-4.428 4.296c-.86.462-1.917.198-2.38-.661-.528-.925-.198-1.983.661-2.445 1.322-.727 2.38-1.785 3.173-3.04a8.616 8.616 0 001.322-4.23c.066-.992.859-1.719 1.85-1.653.991.066 1.718.86 1.652 1.85-.132 2.116-.793 4.099-1.85 5.883z" fill="#fff"/></svg>