<svg width="66" height="66" fill="none" xmlns="http://www.w3.org/2000/svg"><circle cx="32.558" cy="32.984" r="32.5" fill="#FF8A00"/><path d="M49.502 49.463l-3.928-21.916a1.851 1.851 0 00-1.822-1.525h-6.533a6.627 6.627 0 001.986-4.734 6.655 6.655 0 00-6.648-6.647 6.655 6.655 0 00-6.648 6.647 6.63 6.63 0 001.987 4.734h-6.534a1.851 1.851 0 00-1.822 1.525l-3.928 21.916a1.851 1.851 0 001.822 2.178H47.68a1.852 1.852 0 001.822-2.178zm-16.945-31.12a2.948 2.948 0 012.945 2.945 2.949 2.949 0 01-2.945 2.946 2.949 2.949 0 01-2.945-2.946 2.949 2.949 0 012.945-2.945zm-.484 24.946a.552.552 0 01-.484.288h-.873a.552.552 0 01-.476-.273l-2.162-3.69-1.382 1.412v1.699a.853.853 0 01-1.704 0v-6.738a.852.852 0 111.704 0v2.896l3.28-3.57a.551.551 0 01.407-.179h.749a.552.552 0 01.397.935l-2.276 2.353 2.798 4.303a.552.552 0 01.022.564zm8.398-1.125a.553.553 0 01-.207.432c-.34.271-.789.515-1.345.73a5.65 5.65 0 01-2.059.395c-.883 0-1.652-.185-2.31-.556a3.53 3.53 0 01-1.48-1.59 5.135 5.135 0 01-.495-2.248c0-.88.185-1.66.553-2.344a3.723 3.723 0 011.619-1.572c.54-.28 1.215-.42 2.021-.42 1.048 0 1.867.22 2.456.659.25.185.47.41.648.666a.87.87 0 01-.554 1.352h-.002a.844.844 0 01-.868-.38 1.74 1.74 0 00-.45-.48c-.329-.24-.739-.36-1.23-.36-.745 0-1.337.236-1.776.708-.44.472-.66 1.173-.66 2.102 0 1.002.223 1.753.668 2.254.445.501 1.029.752 1.75.752.358 0 .716-.07 1.075-.21.359-.14.667-.31.924-.51v-1.071h-1.24a.711.711 0 110-1.422h2.41a.551.551 0 01.552.55v2.563z" fill="#fff"/></svg>