<svg width="493" height="955" fill="none" xmlns="http://www.w3.org/2000/svg"><path d="M65.785 625.738h385.709l2.612 3.027v53.389c-3.346-.092-11.358-.22-16.638 0-5.28.22-10.359-5.229-12.238-7.981-4.4-7.98-13.338-24.52-13.888-26.832-.688-2.889-5.363-8.256-7.288-9.632-1.925-1.376-2.613-.688-7.838 1.376-4.181 1.652-5.501 9.22-5.638 12.797-3.667.275-13.641 1.018-24.201 1.789-9.241 3.412-11.001 9.311-10.726 11.834l1.238 32.06H250.458c-9.855-7.293-33.36-24.823-48.54-36.601-18.976-11.146-19.801-6.605-39.327-10.045-49.173-4.403-85.026-18.622-96.806-25.181z" fill="#fff"/><path d="M397.453 647.207h-6.6l-.687 3.027h6.6v7.293l3.3 1.238.55-7.293c.917.092 2.723-.027 2.613-1.238-.11-1.211-1.421-1.789-2.063-1.926v-8.119l-2.888 1.514-.825 5.504zM56.985 615.558h395.884l2.612-2.615v2.615l-2.612 4.953-8.251 1.376-381.17 1.239-6.463-7.568zm395.47-32.748l8.526-2.752 3.988 9.769-3.988 6.605v-4.541l-6.738 2.202h-12.376v3.44l-35.477 1.101c-55.048-1.009-167.621-3.027-177.522-3.027-9.9 0-100.105-5.78-143.97-8.669v-3.44l-55.553-3.165-10.45-13.897 70.128 6.192 123.894 7.705 71.092 2.477c28.189.504 85.117 1.513 87.317 1.513 2.2 0 55.003-1.009 81.129-1.513z" fill="#fff"/><path d="M445.443 621.475c-.733 1.009-2.2 3.33-2.2 4.541h7.701l2.337 2.477v53.113H436.78c-6.93.55-10.496-3.899-11.413-6.192l-18.426-34.95c-.458-1.422-2.722-3.991-8.113-2.89-6.738 1.376-6.6 8.669-6.6 9.632 0 .771 3.667.321 5.5 0v-4.541l2.613-2.201c.137.917.412 3.77.412 7.843 5.061 1.651 2.109 3.165 0 3.715l-1.512 6.88-2.75-3.44v-4.816h-5.363l-.413 1.926c-3.392.413-12.843 1.239-23.513 1.239-9.901 2.532-11.551 9.036-11.139 11.971v31.235H249.77c-12.834-9.448-40.289-29.859-47.44-35.913-8.938-7.568-10.313-5.504-63.528-13.76-42.573-6.605-65.683-16.329-71.917-20.365L15.87 562.307h4.263l34.102 2.615 115.781 8.668 160.746 4.954h96.53v-3.99l18.151-19.952h14.851l1.788 19.952c.825 4.815 2.557 14.64 2.887 15.411.33.77-7.654 20.777-11.688 30.684l-7.838.826z" stroke="#fff" stroke-width=".523"/><path d="M287.723 586.384c3.345-.046 10.23-.11 11 0 .321 0 1.127.413 1.787 2.064.66 1.652-.916 2.982-1.787 3.441h-10.45c-.688.275-2.338-1.376-2.613-2.615-.22-.991 1.283-2.34 2.063-2.89zm-55.553-1.92h9.213c1.1 0 1.787 1.376 1.925 2.89.11 1.211-.963 1.972-1.513 2.202-2.475.046-7.865.11-9.625 0-2.2-.138-1.513-1.789-1.513-2.753 0-.77 1.009-1.88 1.513-2.339zm-54.866-2.477h9.351c3.08.881 2.2 3.211 1.375 4.266-2.384.138-7.865.331-10.726 0-1.98-1.1-.825-3.302 0-4.266zm199.799 5.64h11.825c.77 2.312-.321 3.807-.962 4.266h-10.863c-1.43-.44-.596-3.027 0-4.266zm-253.84-9.085c.413 0 9.901-.138 10.863 0 4.51 1.981 1.879 4.954 0 6.192h-13.063c-4.125-3.578 1.788-6.192 2.2-6.192z" fill="#333" stroke="#fff" stroke-width=".523"/><path d="M464.144 589.828c-.66-.991-1.375-6.926-1.65-9.77l-.511-5.228m-35.516 4.128l1.1-2.202 7.779-10.045m-8.879 12.247h26.126m-26.126 0h-63.804m89.93 0V554.74m0 24.218l9.39-4.128m-9.39-20.09h7.426l.914 9.357m-8.34-9.357h-7.975l-9.272 11.971m0 0l17.522-.275 8.065-2.339m0 0l1.05 10.733m-99.32 4.128c-.44 0-.733-15.411-.825-23.117m.825 23.117l-83.329-.964m0 0v-21.74m0 21.74l-102.168-3.44c-5.684-.825-17.574-2.476-19.664-2.476-1.763 0-61.343-3.984-104.78-6.91m0 0c-8.044-.541-15.534-1.047-22.002-1.484l-9.487-1.651h-5.638l-9.076-16.099c-1.833-1.927-3.74-5.862 3.3-6.192 7.04-.33 14.76.78 17.739 1.376l25.164 24.05z" stroke="#fff" stroke-width=".523"/><path d="M16.557 558.455L188.716 8.607l2.338-5.779m.551 14.31h7.425v557.278m188.385-29.724l-8.525-21.328 3.575 17.888c2.246 5.228 7.067 16.016 8.387 17.337 1.32 1.321-1.741-8.714-3.437-13.897zm40.289 29.585c-.66-1.651-2.658-5.825-3.575-7.705H393.74l-2.475 3.164h-70.266l-36.302-1.376-11.276-5.779-20.351-1.238-2.75 4.128m-14.301-1.785h-25.026m-12.789-.688h-9.487m-3.713-.414h-18.288" stroke="#fff" stroke-width=".523"/><path d="M346.148 568.088c-4.687-1.783-31.732-14.494-45.776-20.078m-6.6-2.626l-19.526 16.787m19.526-16.787l6.6 2.626m-6.6-2.626l6.6 2.626m0 0l-16.225 20.078m175.185-1.514L201.23 3.792c0-1.147-.165-3.44-.825-3.44-.66 0-6.417 1.65-9.213 2.476" stroke="#fff" stroke-width=".523"/><path d="M201.093 4.202c-.88.55-3.117 2.064-4.125 2.753h-7.151" stroke="#fff" stroke-width=".523"/><path d="M198.755 6.679V16.86h-7.425l-1.376-10.182m9.351 11.147h4.4m-3.713.555h4.126l33.551 84.073c14.76 41.372 45.268 126.867 49.228 137.875 3.96 11.008 22.918 69.809 31.902 97.833l32.452 108.154 17.463 68.387m10.314.819l-1.513 6.055-179.997 3.302v-6.467h13.613l89.517-1.789 78.38-1.101z" stroke="#fff" stroke-width=".523"/><path d="M442.83 555.844c-129.532.229-394.673-2.312-418.985-14.311m411.285 24.902c-122.107-2.385-371.243-8.091-390.934-11.833" stroke="#fff" stroke-width=".523" stroke-dasharray="1.7 1.7"/><path d="M337.648 562.861c0-2.752-1.248-13.77-1.248-18.311 2.063-1.422 5.858-4.348 4.538-4.678-1.32-.33-25.302-.138-37.127 0l-10.863 4.678M191.467 4.757l-2.888 558.242" stroke="#fff" stroke-width=".523"/><path d="M123.126 228.074l53.49 279.878m-27.363-373.168l44.965 373.858" stroke="#fff" stroke-width=".523" stroke-dasharray="10.21 10.21"/><path d="M346.713 433.097c-6.271 0-97.585 2.385-142.458 3.578m160.334 67.427c-5.721.44-112.023 3.394-164.459 4.816" stroke="#fff" stroke-width=".523" stroke-dasharray="1.7 1.7"/><path d="M289.236 544.001l-115.919 5.23m50.603-427.524c4.996-1.835 15.318-5.559 16.638-5.779l1.788 2.889c-8.526 2.752-26.071 8.421-28.051 9.082-1.98.66 5.592-3.853 9.625-6.192zm34.238 97.845c5.5-2.019 16.995-6.275 18.975-7.156l1.788 4.816-31.489 9.357-2.612-1.651 13.338-5.366zm33.965 101.127c5.5-1.606 17.023-4.981 19.113-5.642l1.513 5.642-31.489 7.155-3.025-1.514 13.888-5.641zM313.437 417c7.609-.275 23.733-.853 27.363-.963l1.513 4.404h-27.501l-2.612-1.376 1.237-2.065zm53.903 96.601L284.561 263.17" stroke="#fff" stroke-width=".523"/><path d="M319.899 342.563c-8.141.441-83.696 6.147-120.457 8.944" stroke="#fff" stroke-width=".523" stroke-dasharray="1.7 1.7"/><path d="M217.731 574.967L193.53 383.565l-23.514 187.686m166.416-26.477l-17.908 11.067m50.603-40.452v6.33" stroke="#fff" stroke-width=".523"/><path d="M175.241 510.847L25.083 548.825v7.43l265.802-12.384L183.491 27.598v14.035l28.052 496.459" stroke="#fff" stroke-width=".523" stroke-dasharray="10.21 10.21"/><path opacity=".3" stroke="#fff" stroke-width=".5" stroke-dasharray="5 5" d="M5.604 544.001v357.54m459.625-312.414v313.405"/><path d="M185.108 843.213h76.437m-78.647-19.192h-29.159m29.159-1.946h-29.159m7.776 4.866v-29.177m-1.945 29.177v-29.177m-1.943 29.177v-29.177m-1.944 29.177v-29.177m27.215 22.366h-29.159m9.72 6.811v-29.177m19.439 20.414h-29.159m11.663 8.763v-29.177m17.496 18.476h-29.159m13.608 10.701v-29.177m15.551 16.523h-29.159m15.552 12.654v-29.177m13.607 14.587h-29.159m17.495 14.59v-29.177m11.664 12.633h-29.159m19.439 16.544v-29.177m9.72 10.696h-29.159m21.383 18.481v-29.177m7.776 8.259h-29.159m23.327 20.918v-29.177m5.832 6.806h-29.159m25.27 22.371v-29.177m3.889 4.853h-29.159m27.214 24.324v-29.177m214.799-6.817h-34.99m-84.559 2.438H111.945m164.259-2.922H119.722m156.482-2.921H124.581m170.09-2.914H131.384m163.287-2.913H135.272m159.399-2.922H135.272m159.399-2.922h-33.046m33.046-2.913h-33.046m33.046-2.914h-33.046m-78.727 5.827h-28.187m139.96-8.748h-33.046m134.127 26.746h-34.99m-84.559 2.429H105.142m77.756 2.914h-84.56m35.962 2.921H98.338m35.962 2.922h-27.214m27.214 2.913h-18.467m18.467 2.922h-11.663m-14.965-16.662c11.59-1.999 11.157-18.83 9.492-26.996 2.798 15.598-4.496 20.164-8.493 20.497.799 3.6-.333 5.833-.999 6.499zm8.992 35.995c3.198-12.798-4.995-21.664-9.492-24.496 2.398 3.599 1.999 7.165 1.499 8.498 7.993 4 8.66 12.332 7.993 15.998zm279.088-33.441h-34.99m-76.783 2.43h-100.11m211.883.492h-34.99m-76.783 2.429h-75.811m187.584.484h-34.99m-76.783 2.438h-75.811m187.584.484h-34.99m-76.783 2.429h-75.811m187.584 0h-36.934m-74.839 2.922h-75.811m187.584 0h-41.793m-69.98 2.913h-75.811m187.584 0h-79.699m79.699 2.922H208.167m187.585 2.921H208.167m177.867 2.914H208.168m167.283 3.663v23.996m-3.996-24.745H262.597m98.166 2.921h-73.868m73.868 2.921h-71.924m.485 40.353V860.97m-27.699-96.284v-36.473M159.57 826.45v13.13h21.383v-13.13m-21.383 0h21.383m-21.383 0l6.318 9.24h7.29l7.775-9.24m-36.447-6.806c1.944.389 6.641-2.107 8.747-3.404v-7.781l-4.373-3.89h-4.374l-6.318 3.89v4.863c.162.973.583 3.21.972 4.377.486 1.458 2.916 1.459 5.346 1.945zm149.679-54.466h-32.56m54.428 49.601h-20.41V787.06m51.999 23.83v-23.829m-53.943 11.182h-17.495v-12.644h17.495m2.43-24.319h17.009v-13.13h-17.009v13.13zm13.121 24.809v-9.726h-13.607m0-10.697h13.607v8.753h-13.607m134.614 38.416c-2.721 1.167-47.787 10.536-69.98 15.075m66.578 9.243c-2.332.778-44.385 11.347-65.12 16.535m28.186 5.827V848.33m-28.671 16.051v-36.472m-24.3 40.362v-55.437m23.328 36.472h-39.85m40.335-16.051h-39.364m0 0h-31.588v27.719h31.588v9.726-37.445zm35.476 22.37v-13.616m-199.248-72.941v-13.616m-2.916 13.616v-13.616m-2.915 13.616v-13.616m-2.916 13.616v-13.616m-2.917 14.592v-13.616m-2.915 14.585v-13.617m-2.917 14.585v-13.616m213.829 97.26v-13.616m-2.917 13.616v-13.616m-2.916 13.616v-13.616m-2.915 13.616v-13.616m-2.916 13.616v-13.616m-8.748 13.616v-13.616m-2.915 13.616v-13.616m-2.916 13.616v-13.616m-2.916 13.616v-13.616m114.204-51.062l-78.728-4.377h-43.251m43.737-.481v-52.034" stroke="#fff" stroke-width=".5"/><path d="M360.278 786.089v21.397l-12.15 5.349H316.54v-83.643m110.315 34.04l-66.092-14.588m29.644 6.325v-15.075m-14.579 46.679v-34.041m16.523 35.01c-5.508-2.918-16.523-10.601-16.523-17.993m37.42 46.207v-25.774m-17.009 29.664v-30.151m-2.431 20.904c-1.457.972-35.961 21.883-47.625 22.37m42.766-10.216c-13.607 6.614-13.769 20.263-12.149 26.26-1.555-5.835 4.536-13.454 7.775-16.534-.485-6.808 2.916-6.808 4.374-9.726z" stroke="#fff" stroke-width=".5"/><path d="M391.865 787.542c-2.592-2.431-7.29-8.073-5.346-11.185-4.374.973-11.177-3.404-10.691-5.835m-68.036 100.663V833.74m-.285 35.976h-43.964m26.268-36.945l-2.915-4.863h-24.785v42.308m-22.841-1.945v-15.075m-55.886 6.319V739.886m28.672 125.956v-12.644m49.083-.979h-76.784m76.298-88.015v12.644h-75.812m131.698 10.21h-21.382V744.75m21.868-.483h-56.372M60.919 821.583v-41.822m21.383 49.118v-56.411m51.512 73.924l.486-66.623m.486 3.398v-30.15m-.972 61.762c-1.555-.389-26.89-9.564-39.363-14.102l39.363-17.507" stroke="#fff" stroke-width=".5"/><path d="M133.814 842.502L81.815 822.45v-43.534l53.457-20.543" stroke="#fff" stroke-width=".5"/><path d="M182.412 845.411h-27.215m0 0v6.808m0-6.808l-21.382-14.103v-5.836l19.924-1.458v-24.315h29.645m78.727 28.211v-4.377h-54.429m0 0h-24.299V801.65h24.299v21.883zm52.485-66.143h-76.298m77.27-.485v-27.719m-1.458 21.396c-2.721.389-51.675.162-75.811 0m56.858-2.425v-17.993m-29.644 17.509v-12.644m-28.673 36.957c-3.499.778-33.208 4.539-47.625 6.323m25.757-3.89v-29.178m-1.459 16.532l-24.298 3.405m168.882 14.591a1.695 1.695 0 113.39 0 1.695 1.695 0 01-3.39 0zm0-8.756a1.695 1.695 0 113.39-.002 1.695 1.695 0 01-3.39.002zm-17.495-11.185a3.153 3.153 0 116.304 0 3.153 3.153 0 11-6.304 0zm-10.691 0a3.153 3.153 0 113.152 3.154 3.153 3.153 0 01-3.152-3.154zm5.831-7.779a3.153 3.153 0 113.152 3.154 3.153 3.153 0 01-3.152-3.154z" stroke="#fff" stroke-width=".5"/><path d="M456.499 755.45c15.162 35.013 6.318 72.944 0 87.533l-65.606 16.534c-17.171 3.242-55.692 10.115-72.41 11.671-20.896 1.945-67.064-.486-97.68-3.89-24.493-2.723-76.945-17.345-100.11-24.315-34.342-11.995-104.678-36.667-111.287-39.39-6.61-2.723-2.754-5.025 0-5.836l140.445-50.088c20.573-5.674 71.049-17.507 108.372-19.452 37.323-1.945 80.995 2.431 98.166 4.863 23.165 4.863 75.617 16.145 100.11 22.37z" stroke="#fff" stroke-width=".5"/><path d="M132.152 763.232l-11.491 4v19.997l11.491-6.499v-17.498zm-1 53.492l-10.991-2.999v20.496l10.991 3v-20.497zm308.338 30.152v-95.314m-11.663 98.228V748.154m34.989 28.201h-34.504" stroke="#fff" stroke-width=".5"/><path d="M431.715 812.835h18.467l-.972-27.233h-17.495v27.233zm6.804 20.906c-17.819 8.267-58.22 24.996-77.27 25.774m78.241-94.829c-16.199-6.971-54.428-21.689-77.755-24.802" stroke="#fff" stroke-width=".5" stroke-dasharray="2 2"/><path d="M259.681 748.157h-74.84m88.447 15.56v-18.479m21.383 68.565h-7.29m0 0h-2.916v-14.589h2.916v14.589zm-134.614-14.106l-18.467 3.405" stroke="#fff" stroke-width=".5"/><path d="M476.314 928.721v11.636h-1.409v-10.159h-.069l-2.841 1.887v-1.432l2.91-1.932h1.409zm2.866 11.636v-1.022l3.841-4.205c.451-.492.822-.92 1.114-1.284.291-.367.507-.712.648-1.034a2.52 2.52 0 00.215-1.023c0-.409-.098-.763-.295-1.062a1.903 1.903 0 00-.795-.693 2.581 2.581 0 00-1.137-.245c-.447 0-.837.093-1.17.279a1.9 1.9 0 00-.767.767c-.178.329-.267.716-.267 1.159h-1.341c0-.682.157-1.281.471-1.796a3.286 3.286 0 011.284-1.204 3.874 3.874 0 011.836-.432c.681 0 1.286.144 1.812.432a3.25 3.25 0 011.239 1.165 3.06 3.06 0 01.449 1.63c0 .428-.078.847-.233 1.256-.152.405-.417.858-.796 1.358-.375.496-.896 1.102-1.562 1.818l-2.614 2.796v.09h5.409v1.25h-7.341zM5 937.392c-.856 0-1.585-.233-2.188-.699-.602-.47-1.062-1.15-1.38-2.04-.318-.894-.477-1.974-.477-3.239 0-1.257.159-2.331.477-3.221.322-.894.784-1.576 1.386-2.046.606-.473 1.334-.71 2.182-.71.848 0 1.574.237 2.176.71.606.47 1.068 1.152 1.386 2.046.322.89.483 1.964.483 3.221 0 1.265-.159 2.345-.477 3.239-.318.89-.778 1.57-1.38 2.04-.603.466-1.332.699-2.188.699zm0-1.25c.848 0 1.508-.41 1.977-1.228.47-.818.705-1.985.705-3.5 0-1.007-.108-1.865-.324-2.574-.212-.708-.519-1.248-.92-1.619A2.033 2.033 0 005 926.664c-.84 0-1.498.415-1.972 1.245-.473.825-.71 1.994-.71 3.505 0 1.008.106 1.864.318 2.568.212.705.517 1.241.915 1.608a2.07 2.07 0 001.449.552z" fill="#fff"/><path d="M44.413 920.858v-17.971c0-.675 1.05-.678 1.05 0v17.971c0 .675-1.05.678-1.05 0zm276.51 0v-17.971c0-.675 1.051-.678 1.051 0v17.971c0 .675-1.051.678-1.051 0zm-315.961 0v-17.971c0-.675 1.05-.678 1.05 0v17.971c0 .675-1.05.678-1.05 0z" fill="#FF8A00"/><path opacity=".3" d="M48.514 912.813v-9.927c0-.675 1.05-.678 1.05 0v9.927c0 .675-1.05.678-1.05 0zm-39.254-.039v-9.927c0-.675 1.05-.678 1.05 0v9.927c0 .675-1.05.678-1.05 0zm276.511 0v-9.927c0-.675 1.05-.678 1.05 0v9.927c0 .675-1.05.678-1.05 0zm39.34-.157v-9.926c0-.675 1.051-.679 1.051 0v9.926c0 .675-1.051.679-1.051 0zm78.572.157v-9.927c0-.675 1.05-.678 1.05 0v9.927c0 .675-1.05.678-1.05 0zm-351.064.039v-9.927c0-.675 1.05-.678 1.05 0v9.927c0 .675-1.05.678-1.05 0zm-39.254-.039v-9.927c0-.675 1.05-.678 1.05 0v9.927c0 .675-1.05.678-1.05 0zm276.51 0v-9.927c0-.675 1.05-.678 1.05 0v9.927c0 .675-1.05.678-1.05 0zm39.34-.157v-9.926c0-.675 1.051-.679 1.051 0v9.926c0 .675-1.051.679-1.051 0zm78.573.157v-9.927c0-.675 1.05-.678 1.05 0v9.927c0 .675-1.05.678-1.05 0zm-351.068.039v-9.927c0-.675 1.05-.678 1.05 0v9.927c0 .675-1.05.678-1.05 0zm-39.254-.039v-9.927c0-.675 1.05-.678 1.05 0v9.927c0 .675-1.05.678-1.05 0zm276.511 0v-9.927c0-.675 1.05-.678 1.05 0v9.927c0 .675-1.05.678-1.05 0zm39.34-.157v-9.926c0-.675 1.051-.679 1.051 0v9.926c0 .675-1.051.679-1.051 0zm78.572.157v-9.927c0-.675 1.051-.678 1.051 0v9.927c0 .675-1.051.678-1.051 0zm-331.617-.157v-9.926c0-.675 1.05-.679 1.05 0v9.926c0 .675-1.05.679-1.05 0zm-39.311.157v-9.927c0-.675 1.05-.678 1.05 0v9.927c0 .675-1.05.678-1.05 0zm276.51 0v-9.927c0-.675 1.05-.678 1.05 0v9.927c0 .675-1.05.678-1.05 0zm-253.144 4.178v-14.259c0-.675 1.05-.678 1.05 0v14.259c0 .675-1.05.679-1.05 0zm-39.312.157v-14.26c0-.675 1.05-.678 1.05 0v14.26c0 .675-1.05.678-1.05 0zm276.51 0v-14.26c0-.675 1.051-.678 1.051 0v14.26c0 .675-1.051.678-1.051 0zm39.341-.157v-14.259c0-.675 1.05-.678 1.05 0v14.259c0 .675-1.05.679-1.05 0zm78.573.157v-14.26c0-.675 1.05-.678 1.05 0v14.26c0 .675-1.05.678-1.05 0z" fill="#fff"/><path d="M83.945 920.858v-17.971c0-.675 1.05-.678 1.05 0v17.971c0 .675-1.05.678-1.05 0z" fill="#fff"/><path opacity=".3" d="M60.143 912.813v-9.927c0-.675 1.05-.678 1.05 0v9.927c0 .675-1.05.678-1.05 0zm-39.253-.039v-9.927c0-.675 1.05-.678 1.05 0v9.927c0 .675-1.05.678-1.05 0zm276.51 0v-9.927c0-.675 1.05-.678 1.05 0v9.927c0 .675-1.05.678-1.05 0zm39.34-.157v-9.926c0-.675 1.051-.679 1.051 0v9.926c0 .675-1.051.679-1.051 0zm78.572.157v-9.927c0-.675 1.051-.678 1.051 0v9.927c0 .675-1.051.678-1.051 0zm-347.158-.157v-9.926c0-.675 1.05-.679 1.05 0v9.926c0 .675-1.05.679-1.05 0zm-39.312.157v-9.927c0-.675 1.05-.678 1.05 0v9.927c0 .675-1.05.678-1.05 0zm276.51 0v-9.927c0-.675 1.051-.678 1.051 0v9.927c0 .675-1.051.678-1.051 0zm-233.18-.094v-9.927c0-.675 1.05-.678 1.05 0v9.927c0 .675-1.05.679-1.05 0zm-39.311.156v-9.926c0-.675 1.05-.679 1.05 0v9.926c0 .675-1.05.679-1.05 0zm276.511 0v-9.926c0-.675 1.051-.679 1.051 0v9.926c0 .675-1.051.679-1.051 0zm-233.305-.219v-9.926c0-.675 1.05-.679 1.05 0v9.926c0 .675-1.05.679-1.05 0zm-39.311.157v-9.927c0-.675 1.05-.678 1.05 0v9.927c0 .675-1.05.678-1.05 0zm276.51 0v-9.927c0-.675 1.05-.678 1.05 0v9.927c0 .675-1.05.678-1.05 0z" fill="#fff"/><path d="M83.945 920.858v-17.971c0-.675 1.05-.678 1.05 0v17.971c0 .675-1.05.678-1.05 0z" fill="#FF8A00"/><path opacity=".3" d="M88.046 912.813v-9.927c0-.675 1.05-.678 1.05 0v9.927c0 .675-1.05.678-1.05 0zm4.101 0v-9.927c0-.675 1.05-.678 1.05 0v9.927c0 .675-1.05.678-1.05 0zm4.107 0v-9.927c0-.675 1.05-.678 1.05 0v9.927c0 .675-1.05.678-1.05 0zm23.494 0v-9.927c0-.675 1.05-.678 1.05 0v9.927c0 .675-1.05.678-1.05 0zm-15.946 4.327v-14.259c0-.675 1.05-.679 1.05 0v14.259c0 .675-1.05.678-1.05 0z" fill="#fff"/><path d="M123.474 920.858v-17.971c0-.675 1.05-.678 1.05 0v17.971c0 .675-1.05.678-1.05 0z" fill="#fff"/><path opacity=".3" d="M99.672 912.813v-9.927c0-.675 1.051-.678 1.051 0v9.927c0 .675-1.05.678-1.05 0zm7.957 0v-9.927c0-.675 1.05-.678 1.05 0v9.927c0 .675-1.05.678-1.05 0zm4.016.062v-9.926c0-.675 1.05-.679 1.05 0v9.926c0 .675-1.05.679-1.05 0zm3.893-.062v-9.927c0-.675 1.051-.678 1.051 0v9.927c0 .675-1.051.678-1.051 0z" fill="#fff"/><path d="M123.474 920.858v-17.971c0-.675 1.05-.678 1.05 0v17.971c0 .675-1.05.678-1.05 0z" fill="#FF8A00"/><path opacity=".3" d="M127.579 912.813v-9.927c0-.675 1.05-.678 1.05 0v9.927c0 .675-1.05.678-1.05 0zm4.1 0v-9.927c0-.675 1.051-.678 1.051 0v9.927c0 .675-1.051.678-1.051 0zm4.102 0v-9.927c0-.675 1.051-.678 1.051 0v9.927c0 .675-1.051.678-1.051 0zm23.495 0v-9.927c0-.675 1.05-.678 1.05 0v9.927c0 .675-1.05.678-1.05 0zm-15.941 4.335v-14.259c0-.676 1.05-.679 1.05 0v14.259c0 .675-1.05.678-1.05 0z" fill="#fff"/><path d="M163.006 920.858v-17.971c0-.675 1.05-.678 1.05 0v17.971c0 .675-1.05.678-1.05 0z" fill="#fff"/><path opacity=".3" d="M139.204 912.813v-9.927c0-.675 1.051-.678 1.051 0v9.927c0 .675-1.051.678-1.051 0zm7.954 0v-9.927c0-.675 1.05-.678 1.05 0v9.927c0 .675-1.05.678-1.05 0zm4.019.062v-9.926c0-.675 1.05-.679 1.05 0v9.926c0 .675-1.05.679-1.05 0zm3.895-.062v-9.927c0-.675 1.05-.678 1.05 0v9.927c0 .675-1.05.678-1.05 0z" fill="#fff"/><path d="M163.006 920.858v-17.971c0-.675 1.05-.678 1.05 0v17.971c0 .675-1.05.678-1.05 0z" fill="#FF8A00"/><path opacity=".3" d="M167.107 912.813v-9.927c0-.675 1.05-.678 1.05 0v9.927c0 .675-1.05.678-1.05 0zm4.106 0v-9.927c0-.675 1.05-.678 1.05 0v9.927c0 .675-1.05.678-1.05 0zm4.101 0v-9.927c0-.675 1.051-.678 1.051 0v9.927c0 .675-1.051.678-1.051 0zm23.495 0v-9.927c0-.675 1.051-.678 1.051 0v9.927c0 .675-1.051.678-1.051 0zm-15.942 4.327v-14.259c0-.675 1.051-.679 1.051 0v14.259c0 .675-1.051.678-1.051 0z" fill="#fff"/><path d="M202.539 920.858v-17.971c0-.675 1.05-.678 1.05 0v17.971c0 .675-1.05.678-1.05 0z" fill="#fff"/><path opacity=".3" d="M178.737 912.813v-9.927c0-.675 1.05-.678 1.05 0v9.927c0 .675-1.05.678-1.05 0zm7.954 0v-9.927c0-.675 1.05-.678 1.05 0v9.927c0 .675-1.05.678-1.05 0zm4.019.062v-9.926c0-.675 1.05-.679 1.05 0v9.926c0 .675-1.05.679-1.05 0zm3.894-.062v-9.927c0-.675 1.05-.678 1.05 0v9.927c0 .675-1.05.678-1.05 0z" fill="#fff"/><path d="M202.539 920.858v-17.971c0-.675 1.05-.678 1.05 0v17.971c0 .675-1.05.678-1.05 0z" fill="#FF8A00"/><path opacity=".3" d="M206.641 912.813v-9.927c0-.675 1.05-.678 1.05 0v9.927c0 .675-1.05.678-1.05 0zm4.1 0v-9.927c0-.675 1.05-.678 1.05 0v9.927c0 .675-1.05.678-1.05 0zm4.106 0v-9.927c0-.675 1.05-.678 1.05 0v9.927c0 .675-1.05.678-1.05 0zm23.494 0v-9.927c0-.675 1.05-.678 1.05 0v9.927c0 .675-1.05.678-1.05 0zm118.66 0v-9.927c0-.675 1.05-.678 1.05 0v9.927c0 .675-1.05.678-1.05 0zm78.572.156v-9.926c0-.676 1.05-.679 1.05 0v9.926c0 .675-1.05.679-1.05 0zm-213.177 4.171v-14.259c0-.675 1.051-.679 1.051 0v14.259c0 .675-1.051.678-1.051 0z" fill="#fff"/><path d="M242.071 920.858v-17.971c0-.675 1.05-.678 1.05 0v17.971c0 .675-1.05.678-1.05 0z" fill="#fff"/><path opacity=".3" d="M218.27 912.813v-9.927c0-.675 1.05-.678 1.05 0v9.927c0 .675-1.05.678-1.05 0zm7.952 0v-9.927c0-.675 1.051-.678 1.051 0v9.927c0 .675-1.051.678-1.051 0zm118.66 0v-9.927c0-.675 1.05-.678 1.05 0v9.927c0 .675-1.05.678-1.05 0zm78.573.156v-9.926c0-.676 1.05-.679 1.05 0v9.926c0 .675-1.05.679-1.05 0zm-193.213-.094v-9.926c0-.675 1.051-.679 1.051 0v9.926c0 .675-1.051.679-1.051 0zm118.66 0v-9.926c0-.675 1.051-.679 1.051 0v9.926c0 .675-1.051.679-1.051 0zm78.572.156v-9.926c0-.675 1.05-.679 1.05 0v9.926c0 .675-1.05.679-1.05 0zm-193.341-.218v-9.927c0-.675 1.05-.678 1.05 0v9.927c0 .675-1.05.678-1.05 0zm118.661 0v-9.927c0-.675 1.05-.678 1.05 0v9.927c0 .675-1.05.678-1.05 0zm78.571.156v-9.926c0-.676 1.051-.679 1.051 0v9.926c0 .675-1.051.679-1.051 0z" fill="#fff"/><path d="M242.071 920.858v-17.971c0-.675 1.05-.678 1.05 0v17.971c0 .675-1.05.678-1.05 0zm118.66 0v-17.971c0-.675 1.051-.678 1.051 0v17.971c0 .675-1.051.678-1.051 0zm78.573.156v-17.97c0-.676 1.05-.679 1.05 0v17.97c0 .675-1.05.678-1.05 0z" fill="#FF8A00"/><path opacity=".3" d="M246.173 912.813v-9.927c0-.675 1.05-.678 1.05 0v9.927c0 .675-1.05.678-1.05 0zm118.66 0v-9.927c0-.675 1.051-.678 1.051 0v9.927c0 .675-1.051.678-1.051 0zm78.573.156v-9.926c0-.676 1.051-.679 1.051 0v9.926c0 .675-1.051.679-1.051 0zm-193.132-.156v-9.927c0-.675 1.05-.678 1.05 0v9.927c0 .675-1.05.678-1.05 0zm118.661 0v-9.927c0-.675 1.05-.678 1.05 0v9.927c0 .675-1.05.678-1.05 0zm78.571.156v-9.926c0-.676 1.051-.679 1.051 0v9.926c0 .675-1.051.679-1.051 0zm-193.131-.156v-9.927c0-.675 1.05-.678 1.05 0v9.927c0 .675-1.05.678-1.05 0zm118.661 0v-9.927c0-.675 1.05-.678 1.05 0v9.927c0 .675-1.05.678-1.05 0zm78.572.156v-9.926c0-.676 1.051-.679 1.051 0v9.926c0 .675-1.051.679-1.051 0zm-173.735-.156v-9.927c0-.675 1.05-.678 1.05 0v9.927c0 .675-1.05.678-1.05 0zm118.661 0v-9.927c0-.675 1.05-.678 1.05 0v9.927c0 .675-1.05.678-1.05 0zm78.573.156v-9.926c0-.676 1.05-.679 1.05 0v9.926c0 .675-1.05.679-1.05 0zm-213.178 4.171v-14.259c0-.675 1.05-.679 1.05 0v14.259c0 .675-1.05.678-1.05 0zm118.66.008v-14.259c0-.676 1.05-.679 1.05 0v14.259c0 .675-1.05.678-1.05 0zm78.572.148v-14.259c0-.675 1.05-.679 1.05 0v14.259c0 .675-1.05.679-1.05 0z" fill="#fff"/><path d="M281.6 920.858v-17.971c0-.675 1.051-.678 1.051 0v17.971c0 .675-1.051.678-1.051 0z" fill="#fff"/><path opacity=".3" d="M257.799 912.813v-9.927c0-.675 1.05-.678 1.05 0v9.927c0 .675-1.05.678-1.05 0zm118.66 0v-9.927c0-.675 1.051-.678 1.051 0v9.927c0 .675-1.051.678-1.051 0zm78.572.156v-9.926c0-.676 1.051-.679 1.051 0v9.926c0 .675-1.051.679-1.051 0zm-189.277-.156v-9.927c0-.675 1.05-.678 1.05 0v9.927c0 .675-1.05.678-1.05 0zm118.661 0v-9.927c0-.675 1.05-.678 1.05 0v9.927c0 .675-1.05.678-1.05 0zm78.573.156v-9.926c0-.676 1.05-.679 1.05 0v9.926c0 .675-1.05.679-1.05 0zm-193.218-.094v-9.926c0-.675 1.051-.679 1.051 0v9.926c0 .675-1.051.679-1.051 0zm118.66 0v-9.926c0-.675 1.05-.679 1.05 0v9.926c0 .675-1.05.679-1.05 0zm78.573.156v-9.926c0-.675 1.05-.679 1.05 0v9.926c0 .675-1.05.679-1.05 0zm-193.337-.218v-9.927c0-.675 1.05-.678 1.05 0v9.927c0 .675-1.05.678-1.05 0zm118.659 0v-9.927c0-.675 1.051-.678 1.051 0v9.927c0 .675-1.051.678-1.051 0zm78.572.156v-9.926c0-.676 1.051-.679 1.051 0v9.926c0 .675-1.051.679-1.051 0z" fill="#fff"/><path d="M281.6 920.858v-17.971c0-.675 1.051-.678 1.051 0v17.971c0 .675-1.051.678-1.051 0zm118.66 0v-17.971c0-.675 1.051-.678 1.051 0v17.971c0 .675-1.051.678-1.051 0zm78.572.156v-17.97c0-.676 1.05-.679 1.05 0v17.97c0 .675-1.05.678-1.05 0z" fill="#FF8A00"/></svg>