<svg width="66" height="66" fill="none" xmlns="http://www.w3.org/2000/svg"><circle cx="32.691" cy="32.828" r="32.5" fill="#FF8A00"/><path d="M47.25 18.242H17.917a.906.906 0 00-.917.896v1.792c0 .494.41.896.917.896H47.25a.906.906 0 00.917-.896v-1.792a.906.906 0 00-.917-.896zm0 26.875H17.917a.906.906 0 00-.917.896v1.792c0 .494.41.895.917.895H47.25a.906.906 0 00.917-.895v-1.792a.906.906 0 00-.917-.896zM29.558 38.22a.922.922 0 00-1.301 0 .873.873 0 000 1.272l3.666 3.583a.922.922 0 001.302 0l3.667-3.584a.873.873 0 000-1.272.922.922 0 00-1.302 0l-2.108 2.06V26.682l2.108 2.06a.89.89 0 00.642.268.906.906 0 00.641-.268.873.873 0 000-1.272l-3.666-3.583a.935.935 0 00-1.302 0l-3.667 3.583a.873.873 0 000 1.272.922.922 0 001.302 0l2.108-2.06V40.28l-2.108-2.06h.018z" fill="#fff"/></svg>