<svg width="342" height="643" fill="none" xmlns="http://www.w3.org/2000/svg"><path d="M319.587 362.546L148.31 3.404 147.045.875h-6.952l-125.14 350.29" stroke="#fff" stroke-width=".5"/><path d="M146.413 2.773l-1.896 1.897-6.952 337.012m-5.688.631l9.48-338.909-1.264-2.529" stroke="#fff" stroke-width=".5"/><path d="M145.15 14.787h2.528l27.177 49.951c12.64 28.243 38.174 85.486 39.185 88.521 1.011 3.035 15.59 42.153 22.752 61.332 8.427 28.243 25.281 87.51 25.281 98.638m7.584.007v3.795h-128.3v-2.53h2.528l1.264-1.265h124.508zm-67.626-8.862l17.697-4.426-78.371-289.59m39.187 62.61c-2.023.506-13.905 4.426-19.593 6.324m43.609 53.112l-24.017 8.22m47.402 51.209c-1.517 0-17.065 5.48-24.649 8.22m44.24 55.011l-19.593-1.897" stroke="#fff" stroke-width=".5"/><path d="M137.564 11.623l27.177 142.898 22.121 113.813 13.904 81.565-24.017 5.691" stroke="#fff" stroke-width=".5"/><path d="M179.911 341.684l11.376-3.162-56.249-321.837m-10.746 30.98l30.337 275.679-13.273 1.897m-29.071-6.947l17.696-6.955L107.86 91.934m-17.697 49.32l18.329 161.867-18.329 8.852" stroke="#fff" stroke-width=".5"/><path d="M318.284 390.156l-.044.119-.122.035c-4.844 1.385-12.448 3.446-19.519 5.131-3.535.843-6.94 1.591-9.801 2.114-2.852.522-5.188.823-6.572.76-2.648-.12-4.095.682-4.855 1.675-.769 1.005-.873 2.259-.728 3.108l.007.042-.007.042-.921 5.377-.001.005-1.229 8.145-.008.052-.028.044-10.39 16.356c.109.436-.041.986-.665 1.418-.663.46-1.866.794-3.911.794-3.948 0-14.831.389-20.175.599a.463.463 0 01-.097.282 1 1 0 01-.387.281 3.639 3.639 0 01-.663.215c-1.099.264-3.238.469-7.113.469h-75.757c-1.505.208-5.067-.141-7.587-3.166-2.46-2.953-10.656-13.018-14.447-17.683-.907-1.058-2.624-2.669-4.814-4.046-2.192-1.378-4.839-2.509-7.609-2.63-2.845-.124-11.931-1.408-22.11-2.959a2543.495 2543.495 0 01-28.783-4.577c-3.777-.283-9.717-1.038-15.288-2.385-2.788-.674-5.49-1.497-7.783-2.487-2.282-.985-4.185-2.145-5.36-3.505-2.575-2.33-4.132-3.709-5.033-4.487a29.147 29.147 0 00-.899-.754 1.52 1.52 0 00-.142-.105l.014.006c.005.002.019.008.038.012a.25.25 0 00.254-.102 2.463 2.463 0 00-.168-.125l-.214.17a169.038 169.038 0 01-5.276-5.875c-1.907-2.234-3.693-4.483-4.445-5.863-1.476-2.707-8.403-15.583-11.682-21.682l-.007-.013-.005-.013-1.23-3.075-.136-.343h4.532l.064.154.707 1.697 45.17 1.685 16.472-.915 4.69-6.206c.367-.542 1.621-1.46 3.935-1.489a96.947 96.947 0 011.78-1.926l.07-.071.1-.002 20.289-.461.256-.006v1.389h1.759l.065.152.396.925h2.858c1.464-.625 4.887-1.963 7.223-2.455 2.35-.495 7.352-1.132 9.552-1.388l.015-.001h.014c.95 0 2.459.015 3.901.061 1.434.046 2.824.123 3.522.25.843.154 1.432.271 1.849.39.415.119.696.249.896.448.113.114.377.252.665.368.138.055.27.1.375.132.052.015.096.027.129.034.03.007.042.008.041.008h.966l4.384-4.537.006-.006.007-.007 1.341-1.192a1.12 1.12 0 01.258-.329c.145-.133.345-.274.611-.413.533-.277 1.342-.552 2.528-.74.603-.095 1.926-.17 3.658-.231a338.75 338.75 0 016.207-.141 945.63 945.63 0 0112.826-.092v-.63a.738.738 0 01.104-.674c.189-.251.542-.388 1.068-.388.972 0 15.362-.404 22.59-.61.104-.191.27-.419.497-.616a1.804 1.804 0 011.197-.465c1.174 0 1.787.689 1.787 1.326 0 .052.01.073.013.078h.001a.12.12 0 00.049.006.314.314 0 00.069-.013l.035-.012.037-.001 20.08-.609c.049-.256.148-.562.318-.823.228-.351.607-.644 1.163-.565.673.097 1.069.667 1.29 1.188.224.531.308 1.102.308 1.366v.009l.001.005.001.017.007.075c.006.062.016.144.029.245.026.202.064.474.111.8.093.653.223 1.52.367 2.468.287 1.887.631 4.092.862 5.553.223.759.779 1.904 1.72 2.858.942.955 2.265 1.713 4.029 1.713h.008l.008.001c3.939.246 17.837 1.435 24.291 1.999h0l31.2 2.768h.001l18.473 1.527c.379-.405.968-.868 1.591-.971a1.339 1.339 0 011.044.239c.322.238.585.638.779 1.22l.005.014.002.014c.495 2.35.722 4.587.774 5.417l.002.031-.006.03c-.035.193.017.502.355.748.349.255 1.032.462 2.296.342l.012-.001h.012c2.711 0 8.106.205 10.462.307l.097.005.069.069 1.691 1.691.113.113-.055.15-9.376 25.525z" stroke="#fff" stroke-width=".5"/><path d="M240.278 362.241c-1.178-1.23-3.965-3.752-5.687-3.998-1.721-.246-119.578-2.152-178.292-3.075" stroke="#fff" stroke-width=".5"/><path d="M40.315 392.225l266.823.922c-12.757 3.537-24.746 4.921-27.359 5.382-2.613.461-3.074 2.614-3.074 2.768 0 .123-1.639 9.995-2.459 14.915-3.176 5.074-9.683 15.5-10.298 16.607-.615 1.107-2.1 1.896-2.766 2.153-6.712.205-20.565.615-22.287.615-.492.984-1.947 1.435-2.613 1.537h-74.083c-10.206.369-12.86-1.076-12.911-1.845l-10.452-12.455c-1.946-2.614-6.547-8.396-9.375-10.61-2.828-2.214-11.312-3.343-14.643-3.702l-24.242-3.404c-4.509-.359-16.635-2.041-28.07-4.255-11.067-.738-19.527-6.219-22.191-8.628zm-7.157-6.687l285.808.76-1.384 3.496-256.89-.456c-7.64.101-23.135.243-23.996 0-.861-.243-2.718-2.635-3.538-3.8z" fill="#fff"/><path d="M326.81 364.698c-.615.154-4.765-.615-7.378 1.231-2.151 2.614-3.688 12.147-3.688 12.608v5.075l1.844 5.843" stroke="#fff" stroke-width=".5"/><path d="M312.824 368.696l-284.96-9.842" stroke="#fff" stroke-width="2"/><path d="M12.648 352.087v-.153h3.996l1.076 1.845 62.71 2.153 50.721 2.152 34.429 1.077c.358.205 1.106.707 1.229 1.076.615-.615 1.076-.923 1.998-.769.738 0 12.911.513 18.905.769l36.427 1.23 42.114 1.538 48.262 1.691c.307.205.891.738.768 1.23m3.997.154L14.186 354.855m-4.613-10.452c6.917.308 20.811.923 21.057.923l.769.769-21.365-.769-.46-.923zm23.517 1.688l277.12 10.148" stroke="#fff" stroke-width=".5"/><path d="M314.976 346.247h16.138c1.107.492.461 1.025 0 1.23h-14.14l-10.144 16.914-1.23-.153c3.279-5.536 9.806-16.638 9.683-16.761-.123-.123-.256-.871-.307-1.23z" stroke="#fff" stroke-width=".5"/><path d="M328.809 348.099v-.461h-1.076l-2.613 7.842h-13.065l-.461.922h13.372l-1.998 6.305h1.23l3.842-11.994h1.998l.461-2.614h-1.69z" stroke="#fff" stroke-width=".5"/><path d="M318.818 361.464v-2.153c-.717-.462-2.428-1.138-3.535-.154-.369 1.722-.666 2.461-.768 2.614m0 0h5.072v.615H313.9v-.615h.615zM25.866 336.255l12.91 17.991h-1.383c-3.996-5.433-12.05-16.422-12.296-16.914-.246-.492-.615-.718-.769-.769-5.225-.256-15.984-.769-17.214-.769-1.23 0-1.127 1.23-.922 1.845l7.224 14.301H12.34c-2.05-3.896-6.394-12.271-7.378-14.608 0-2.614 2.46-2.614 2.767-2.614.307 0 15.985.615 16.907.769.738.123.82.563.768.768h.462z" stroke="#fff" stroke-width=".5"/><path d="M205.08 340.862h-3.996c.123-.615-.666-.974-1.076-1.076-1.947.102-6.21.308-7.685.308-1.476-.124-1.537.666-1.383 1.076h-3.382c-.123-.738-.768-.923-1.076-.923-1.946.052-6.055.154-6.916.154-.861 0-.974.718-.922 1.077h-5.072c-.123-.739-.666-.923-.923-.923h-7.377c-1.599 0-1.691.615-1.537.923h-4.458c-.368-.862 1.691-1.795 2.767-2.153 12.399-.359 37.687-1.077 39.655-1.077 1.967 0 3.074 1.743 3.381 2.614zm-63.324 5.229c1.845-.123 2.921 1.281 3.228 1.999-.768.051-2.736.154-4.457.154 0-.616-.615-.872-.922-.923-2.255.051-6.978.154-7.839.154-.861 0-1.178.82-1.23 1.23h-4.303c.123-.861-.769-.974-1.23-.923-2.562.052-7.992.154-9.222.154-1.229-.123-1.639.666-1.691 1.077h-3.688c.369-.985 1.895-1.743 2.613-2 8.812-.256 26.897-.799 28.741-.922z" fill="#F4F4F4" stroke="#fff" stroke-width=".5"/><path d="M142.678 345.169l-25.668 1.23m37.041-2.613l-2.92 4.614m-3.074 1.081h-17.521m-40.424.308c.738 0 25.515-.205 37.811-.308m-17.677-3.546c-.123 0-14.191.307-21.21.461m23.364.164c-.738.123-16.19.563-23.824.769m-1.998 3.683l-2.306 3.998m-4.611-.764c-.154.308-.277.984.461 1.23m195.506 51.197c-.307 0-7.07-.615-7.685-.923-.492-.246-1.947-1.537-2.613-2.152l-28.281 30.138 1.691 1.845" stroke="#fff" stroke-width=".5"/><path d="M277.934 404.672l-1.69-1.231-.462 3.691 2.152-.922v-1.538z" fill="#fff" stroke="#fff" stroke-width=".5"/><path d="M281.162 398.989c.205 1.589.615 4.829.615 5.075-.861-.369-2.921.153-3.843.461v1.845c0 .308 1.537 1.076 2.306 1.23.615.123.563.461.461.615-.154.257-.553.984-.922 1.845-.461 1.077-.461 1.538 0 1.846 3.227.153 2.766-3.537 2.766-3.998 3.689-1.692.308-3.537.308-3.844 2.582-3.199-.052-4.716-1.691-5.075z" fill="#F4F4F4" stroke="#fff" stroke-width=".5"/><path d="M250.114 351.48c.41.051 1.045.338.307 1.076-.922.923-3.996 1.846-5.226 0-.245-.369.308-.666.615-.769l-.153-1.538m0 0c-.41-.564-.615-1.753 1.844-1.999 3.074-.307 3.689 1.538 2.152 2.153s-3.535.308-3.996-.154zm4.457-.003v1.23m0 .153c-.563.666-2.213 1.661-4.303.307M168.5 345.02l41.499.307c1.352.01 1.69 1.235 1.69 1.845.154.821.492 2.922.615 4.767.369 1.476-.256 1.743-.615 1.692-14.96-.205-45.311-.646-47.032-.769-1.721-.123-1.537-1.692-1.23-2.46.462-.821 1.599-2.768 2.46-3.998.86-1.23 2.1-1.436 2.613-1.384z" stroke="#fff" stroke-width=".5"/><path d="M210.921 347.163c-.246-1.23-1.332-1.332-1.845-1.23-12.808-.051-38.763-.154-40.115-.154-1.353-.123-1.998.462-2.152.769-.461.718-1.599 2.43-2.459 3.537-.492 1.722.41 2.153.922 2.153 14.345.205 43.405.615 44.88.615 1.353.123 1.486-.564 1.384-.923-.103-1.076-.369-3.537-.615-4.767z" fill="#F4F4F4" stroke="#fff" stroke-width=".5"/><path d="M226.599 335.327l-49.492 1.692m26.59-1.076v-1.077m-2.767-.461v1.846m-.154-.924l-23.516.923m49.184 8.763c.922 3.28 7.378 9.902 25.822 10.148 18.444.246 47.134.718 59.174.923m-175.217-13.529c-.123-.369-.052-5.587 0-8.15m-5.38-1.234v9.841m-42.575-4.139c.103 5.536.338 16.761.462 17.376h-.923l.461-17.376z" stroke="#fff" stroke-width=".5"/><path d="M41.697 351.777h-2.152c-2.46 0-7.562.031-8.3.154-.615.246-.359.923-.154 1.23l8.3-.153h2.306c.614-.246.256-.923 0-1.231z" fill="#F4F4F4" stroke="#fff" stroke-width=".5"/><path d="M39.392 353.165c.051.308.153.985.153 1.231h-.922l-.615-1.538v-.923c0-.154-.154-.308.769-.461.738-.123.717 1.076.615 1.691zm-4.766.007v1.077h-.923v-1.077l-.307-.307-.154-.769a1.222 1.222 0 011.076-.616c.616 0 .667.923.616 1.385l-.308.307z" stroke="#fff" stroke-width=".5"/><path d="M24.022 336.557l.768.153v3.845h-3.074v-4.306l2.306.308z" fill="#F4F4F4" stroke="#fff" stroke-width=".5"/><path d="M22.946 337.17h-1.23v2.922h1.23v-2.922z" fill="#fff" stroke="#fff" stroke-width=".5"/><path d="M121.622 350.559h9.683a1.975 1.975 0 011.537 1.999c0 1.353-1.025 1.999-1.537 2.153l-9.222-.154c-.256.103-1.015 0-1.998-1.23-.615-1.846.768-2.615 1.537-2.768zm-24.01 0h10.375c.549.098 1.647.622 1.647 1.925s-1.098 1.925-1.647 2.073l-9.881-.148c-.275.099-1.087 0-2.141-1.185-.659-1.777.823-2.517 1.647-2.665z" fill="#F4F4F4" stroke="#fff" stroke-width=".5"/><path d="M120.852 350.244a6496.59 6496.59 0 0110.759-.154c.513.102 1.599.707 1.845 2.307.246 1.599-1.127 2.512-1.845 2.768-3.074.051-9.437.123-10.297 0-1.076-.154-2.152-1.077-2.152-2.768.123-1.231 1.178-1.948 1.69-2.153zm-23.89-.154a8041.05 8041.05 0 0111.314-.156c.539.104 1.681.719 1.94 2.345.258 1.626-1.185 2.554-1.94 2.814-3.232.052-9.924.125-10.83 0-1.13-.156-2.262-1.094-2.262-2.814.13-1.251 1.24-1.981 1.778-2.189z" stroke="#fff" stroke-width=".5"/><path d="M5 629.762c-.856 0-1.585-.233-2.188-.699-.602-.47-1.062-1.15-1.38-2.04-.318-.894-.477-1.973-.477-3.239 0-1.257.159-2.331.477-3.221.322-.894.784-1.576 1.386-2.046.606-.473 1.334-.71 2.182-.71.848 0 1.574.237 2.176.71.606.47 1.068 1.152 1.386 2.046.322.89.483 1.964.483 3.221 0 1.266-.159 2.345-.477 3.239-.318.89-.778 1.57-1.38 2.04-.603.466-1.332.699-2.188.699zm0-1.25c.848 0 1.508-.409 1.977-1.228.47-.818.705-1.984.705-3.5 0-1.007-.108-1.865-.324-2.574-.212-.708-.519-1.248-.92-1.619A2.033 2.033 0 005 619.034c-.84 0-1.498.415-1.972 1.245-.473.825-.71 1.994-.71 3.505 0 1.008.106 1.864.318 2.569.212.704.517 1.24.915 1.607a2.07 2.07 0 001.449.552zm315.059 1.25c-.78 0-1.469-.139-2.068-.415-.595-.28-1.059-.665-1.392-1.154a2.896 2.896 0 01-.494-1.681 3.104 3.104 0 01.289-1.364c.197-.42.466-.771.807-1.051a2.476 2.476 0 011.154-.54v-.068a2.25 2.25 0 01-1.33-.938 2.84 2.84 0 01-.488-1.653 2.806 2.806 0 01.448-1.585c.303-.466.72-.834 1.25-1.103.534-.268 1.142-.403 1.824-.403.675 0 1.277.135 1.807.403.53.269.947.637 1.25 1.103.307.466.462.994.466 1.585a2.876 2.876 0 01-.506 1.653 2.244 2.244 0 01-1.312.938v.068c.42.076.799.256 1.136.54.337.28.606.631.807 1.051.201.417.303.871.307 1.364a2.933 2.933 0 01-.512 1.681c-.333.489-.797.874-1.392 1.154-.591.276-1.274.415-2.051.415zm0-1.25c.527 0 .981-.086 1.364-.256.382-.171.678-.411.886-.722.209-.31.315-.674.318-1.091a2.088 2.088 0 00-.34-1.164 2.32 2.32 0 00-.915-.796 2.877 2.877 0 00-1.313-.29c-.496 0-.939.097-1.329.29a2.307 2.307 0 00-.915.796c-.22.337-.328.725-.324 1.164-.004.417.097.781.301 1.091.209.311.506.551.892.722.387.17.845.256 1.375.256zm0-5.523c.417 0 .786-.083 1.108-.25a1.9 1.9 0 00.767-.699 1.98 1.98 0 00.284-1.051 1.934 1.934 0 00-.278-1.029 1.808 1.808 0 00-.756-.681 2.46 2.46 0 00-1.125-.245c-.435 0-.816.082-1.142.245a1.76 1.76 0 00-.755.681 1.9 1.9 0 00-.262 1.029c-.004.401.085.752.267 1.051.186.299.442.532.767.699.326.167.701.25 1.125.25z" fill="#fff"/><path d="M44.423 614.228v-17.971c0-.675 1.05-.678 1.05 0v17.971c0 .675-1.05.678-1.05 0zm276.579 0v-17.971c0-.675 1.05-.678 1.05 0v17.971c0 .675-1.05.678-1.05 0zm-316.039 0v-17.971c0-.675 1.05-.678 1.05 0v17.971c0 .675-1.05.678-1.05 0z" fill="#FF8A00"/><path opacity=".3" d="M48.526 606.182v-9.927c0-.675 1.05-.678 1.05 0v9.927c0 .675-1.05.678-1.05 0zm-39.264-.039v-9.927c0-.675 1.05-.678 1.05 0v9.927c0 .675-1.05.678-1.05 0zm276.578 0v-9.927c0-.675 1.05-.678 1.05 0v9.927c0 .675-1.05.678-1.05 0zm39.351-.157v-9.926c0-.675 1.05-.679 1.05 0v9.926c0 .676-1.05.679-1.05 0zm-272.559.196v-9.927c0-.675 1.05-.678 1.05 0v9.927c0 .675-1.05.678-1.05 0zm-39.264-.039v-9.927c0-.675 1.05-.678 1.05 0v9.927c0 .675-1.05.678-1.05 0zm276.578 0v-9.927c0-.675 1.05-.678 1.05 0v9.927c0 .675-1.05.678-1.05 0zm39.351-.157v-9.926c0-.675 1.05-.679 1.05 0v9.926c0 .676-1.05.679-1.05 0zm-272.562.196v-9.927c0-.675 1.05-.678 1.05 0v9.927c0 .675-1.05.678-1.05 0zm-39.265-.039v-9.927c0-.675 1.05-.678 1.05 0v9.927c0 .675-1.05.678-1.05 0zm276.578 0v-9.927c0-.675 1.05-.678 1.05 0v9.927c0 .675-1.05.678-1.05 0zm39.351-.157v-9.926c0-.675 1.05-.679 1.05 0v9.926c0 .676-1.05.679-1.05 0zm-253.108 0v-9.926c0-.675 1.05-.679 1.05 0v9.926c0 .676-1.05.679-1.05 0zm-39.321.157v-9.927c0-.675 1.05-.678 1.05 0v9.927c0 .675-1.05.678-1.05 0zm276.579 0v-9.927c0-.675 1.05-.678 1.05 0v9.927c0 .675-1.05.678-1.05 0zm-253.206 4.178v-14.259c0-.675 1.05-.678 1.05 0v14.259c0 .676-1.05.679-1.05 0zm-39.321.157v-14.259c0-.676 1.05-.679 1.05 0v14.259c0 .675-1.05.678-1.05 0zm276.577 0v-14.259c0-.676 1.05-.679 1.05 0v14.259c0 .675-1.05.678-1.05 0zm39.351-.157v-14.259c0-.675 1.051-.678 1.051 0v14.259c0 .676-1.051.679-1.051 0z" fill="#fff"/><path d="M83.966 614.228v-17.971c0-.675 1.05-.678 1.05 0v17.971c0 .675-1.05.678-1.05 0z" fill="#fff"/><path opacity=".3" d="M60.158 606.182v-9.927c0-.675 1.05-.678 1.05 0v9.927c0 .675-1.05.678-1.05 0zm-39.264-.039v-9.927c0-.675 1.05-.678 1.05 0v9.927c0 .675-1.05.678-1.05 0zm276.578 0v-9.927c0-.675 1.05-.678 1.05 0v9.927c0 .675-1.05.678-1.05 0zm39.351-.157v-9.926c0-.675 1.05-.679 1.05 0v9.926c0 .676-1.05.679-1.05 0zm-268.653 0v-9.926c0-.675 1.05-.679 1.05 0v9.926c0 .676-1.05.679-1.05 0zm-39.322.157v-9.927c0-.675 1.05-.678 1.05 0v9.927c0 .675-1.05.678-1.05 0zm276.58 0v-9.927c0-.675 1.05-.678 1.05 0v9.927c0 .675-1.05.678-1.05 0zm-233.238-.094v-9.926c0-.676 1.05-.679 1.05 0v9.926c0 .675-1.05.679-1.05 0zm-39.32.156v-9.926c0-.675 1.05-.679 1.05 0v9.926c0 .675-1.05.679-1.05 0zm276.577 0v-9.926c0-.675 1.05-.679 1.05 0v9.926c0 .675-1.05.679-1.05 0zm-233.362-.219v-9.926c0-.675 1.05-.679 1.05 0v9.926c0 .676-1.05.679-1.05 0zm-39.32.157v-9.927c0-.675 1.05-.678 1.05 0v9.927c0 .675-1.05.678-1.05 0zm276.578 0v-9.927c0-.675 1.051-.678 1.051 0v9.927c0 .675-1.051.678-1.051 0z" fill="#fff"/><path d="M83.966 614.228v-17.971c0-.675 1.05-.678 1.05 0v17.971c0 .675-1.05.678-1.05 0z" fill="#FF8A00"/><path opacity=".3" d="M88.068 606.182v-9.927c0-.675 1.05-.678 1.05 0v9.927c0 .675-1.05.678-1.05 0zm4.103 0v-9.927c0-.675 1.05-.678 1.05 0v9.927c0 .675-1.05.678-1.05 0zm4.105 0v-9.927c0-.675 1.05-.678 1.05 0v9.927c0 .675-1.05.678-1.05 0zm23.501 0v-9.927c0-.675 1.05-.678 1.05 0v9.927c0 .675-1.05.678-1.05 0zm-15.95 4.335v-14.259c0-.676 1.051-.679 1.051 0v14.259c0 .675-1.051.678-1.051 0z" fill="#fff"/><path d="M123.504 614.228v-17.971c0-.675 1.051-.678 1.051 0v17.971c0 .675-1.051.678-1.051 0z" fill="#fff"/><path opacity=".3" d="M99.697 606.182v-9.927c0-.675 1.05-.678 1.05 0v9.927c0 .675-1.05.678-1.05 0zm7.958 0v-9.927c0-.675 1.051-.678 1.051 0v9.927c0 .675-1.051.678-1.051 0zm4.016.062v-9.926c0-.675 1.051-.679 1.051 0v9.926c0 .675-1.051.679-1.051 0zm3.897-.062v-9.927c0-.675 1.05-.678 1.05 0v9.927c0 .675-1.05.678-1.05 0z" fill="#fff"/><path d="M123.504 614.228v-17.971c0-.675 1.051-.678 1.051 0v17.971c0 .675-1.051.678-1.051 0z" fill="#FF8A00"/><path opacity=".3" d="M127.61 606.182v-9.927c0-.675 1.051-.678 1.051 0v9.927c0 .675-1.051.678-1.051 0zm4.103 0v-9.927c0-.675 1.05-.678 1.05 0v9.927c0 .675-1.05.678-1.05 0zm4.103 0v-9.927c0-.675 1.05-.678 1.05 0v9.927c0 .675-1.05.678-1.05 0zm23.5 0v-9.927c0-.675 1.05-.678 1.05 0v9.927c0 .675-1.05.678-1.05 0zm-15.946 4.335v-14.259c0-.676 1.05-.679 1.05 0v14.259c0 .675-1.05.678-1.05 0z" fill="#fff"/><path d="M163.046 614.228v-17.971c0-.675 1.05-.678 1.05 0v17.971c0 .675-1.05.678-1.05 0z" fill="#fff"/><path opacity=".3" d="M139.238 606.182v-9.927c0-.675 1.051-.678 1.051 0v9.927c0 .675-1.051.678-1.051 0zm7.956 0v-9.927c0-.675 1.05-.678 1.05 0v9.927c0 .675-1.05.678-1.05 0zm4.02.062v-9.926c0-.675 1.05-.679 1.05 0v9.926c0 .675-1.05.679-1.05 0zm3.895-.062v-9.927c0-.675 1.05-.678 1.05 0v9.927c0 .675-1.05.678-1.05 0z" fill="#fff"/><path d="M163.046 614.228v-17.971c0-.675 1.05-.678 1.05 0v17.971c0 .675-1.05.678-1.05 0z" fill="#FF8A00"/><path opacity=".3" d="M167.149 606.182v-9.927c0-.675 1.05-.678 1.05 0v9.927c0 .675-1.05.678-1.05 0zm4.105 0v-9.927c0-.675 1.05-.678 1.05 0v9.927c0 .675-1.05.678-1.05 0zm4.103 0v-9.927c0-.675 1.05-.678 1.05 0v9.927c0 .675-1.05.678-1.05 0zm23.5 0v-9.927c0-.675 1.05-.678 1.05 0v9.927c0 .675-1.05.678-1.05 0zm-15.946 4.335v-14.259c0-.676 1.051-.679 1.051 0v14.259c0 .675-1.051.678-1.051 0z" fill="#fff"/><path d="M202.588 614.228v-17.971c0-.675 1.051-.678 1.051 0v17.971c0 .675-1.051.678-1.051 0z" fill="#fff"/><path opacity=".3" d="M178.781 606.182v-9.927c0-.675 1.05-.678 1.05 0v9.927c0 .675-1.05.678-1.05 0zm7.955 0v-9.927c0-.675 1.051-.678 1.051 0v9.927c0 .675-1.051.678-1.051 0zm4.02.062v-9.926c0-.675 1.051-.679 1.051 0v9.926c0 .675-1.051.679-1.051 0zm3.896-.062v-9.927c0-.675 1.05-.678 1.05 0v9.927c0 .675-1.05.678-1.05 0z" fill="#fff"/><path d="M202.588 614.228v-17.971c0-.675 1.051-.678 1.051 0v17.971c0 .675-1.051.678-1.051 0z" fill="#FF8A00"/><path opacity=".3" d="M206.69 606.182v-9.927c0-.675 1.051-.678 1.051 0v9.927c0 .675-1.051.678-1.051 0zm4.104 0v-9.927c0-.675 1.05-.678 1.05 0v9.927c0 .675-1.05.678-1.05 0zm4.106 0v-9.927c0-.675 1.05-.678 1.05 0v9.927c0 .675-1.05.678-1.05 0zm23.499 0v-9.927c0-.675 1.05-.678 1.05 0v9.927c0 .675-1.05.678-1.05 0zm-15.948 4.335v-14.259c0-.676 1.05-.679 1.05 0v14.259c0 .675-1.05.678-1.05 0z" fill="#fff"/><path d="M242.13 614.228v-17.971c0-.675 1.05-.678 1.05 0v17.971c0 .675-1.05.678-1.05 0z" fill="#fff"/><path opacity=".3" d="M218.323 606.182v-9.927c0-.675 1.051-.678 1.051 0v9.927c0 .675-1.051.678-1.051 0zm7.955 0v-9.927c0-.675 1.05-.678 1.05 0v9.927c0 .675-1.05.678-1.05 0zm4.02.062v-9.926c0-.675 1.05-.679 1.05 0v9.926c0 .675-1.05.679-1.05 0zm3.892-.062v-9.927c0-.675 1.05-.678 1.05 0v9.927c0 .675-1.05.678-1.05 0z" fill="#fff"/><path d="M242.13 614.228v-17.971c0-.675 1.05-.678 1.05 0v17.971c0 .675-1.05.678-1.05 0z" fill="#FF8A00"/><path opacity=".3" d="M246.234 606.182v-9.927c0-.675 1.05-.678 1.05 0v9.927c0 .675-1.05.678-1.05 0zm4.101 0v-9.927c0-.675 1.05-.678 1.05 0v9.927c0 .675-1.05.678-1.05 0zm4.103 0v-9.927c0-.675 1.05-.678 1.05 0v9.927c0 .675-1.05.678-1.05 0zm23.504 0v-9.927c0-.675 1.05-.678 1.05 0v9.927c0 .675-1.05.678-1.05 0zm-15.95 4.335v-14.259c0-.676 1.051-.679 1.051 0v14.259c0 .675-1.051.678-1.051 0z" fill="#fff"/><path d="M281.669 614.228v-17.971c0-.675 1.051-.678 1.051 0v17.971c0 .675-1.051.678-1.051 0z" fill="#fff"/><path opacity=".3" d="M257.862 606.182v-9.927c0-.675 1.05-.678 1.05 0v9.927c0 .675-1.05.678-1.05 0zm7.958 0v-9.927c0-.675 1.05-.678 1.05 0v9.927c0 .675-1.05.678-1.05 0zm4.016.062v-9.926c0-.675 1.051-.679 1.051 0v9.926c0 .675-1.051.679-1.051 0zm3.896-.062v-9.927c0-.675 1.05-.678 1.05 0v9.927c0 .675-1.05.678-1.05 0z" fill="#fff"/><path d="M281.669 614.228v-17.971c0-.675 1.051-.678 1.051 0v17.971c0 .675-1.051.678-1.051 0z" fill="#FF8A00"/><path opacity=".4" stroke="#fff" stroke-width=".5" stroke-dasharray="5 5" d="M331.975 363.445v232.103M5.627 345.589v249.48"/><path d="M122.938 527.35c-4.702-2.006-14.176-8.421-14.459-18.038m23.627 18.569l.953-1.22" stroke="#fff" stroke-width=".5"/><path d="M130.427 525.429l-.488-21.284" stroke="#fff" stroke-width=".5" stroke-dasharray="3 3"/><path d="M204.861 528.701l-1.115-1.221" stroke="#fff" stroke-width=".5"/><path d="M214.186 522.413s-25.006 3.149-41.118 3.479c-15.534.32-39.753-1.633-39.753-1.633m80.789-13.875s-25.985-2.942-42.668-2.449c-15.151.447-38.587 4.199-38.587 4.199" stroke="#fff"/><path d="M195.86 519.851h18.226v-8.254l-18.226.207v8.047zm10.325-40.072l-1.85-1.915m-95.096 24.193h.994l-.379-16.141m1.221 7.354c0-4.823 3.908-8.732 8.728-8.732a8.73 8.73 0 018.729 8.732 8.73 8.73 0 01-8.729 8.732c-4.82 0-8.728-3.909-8.728-8.732z" stroke="#fff" stroke-width=".5"/><path d="M113.102 493.267a6.704 6.704 0 016.701-6.705 6.704 6.704 0 016.702 6.705 6.704 6.704 0 01-6.702 6.704 6.703 6.703 0 01-6.701-6.704z" stroke="#fff" stroke-width=".5"/><circle cx="120.145" cy="478.656" r=".436" transform="rotate(180 120.145 478.656)" stroke="#fff" stroke-width=".5"/><path d="M119.258 478.656a.889.889 0 111.778 0 .889.889 0 01-1.778 0z" stroke="#fff" stroke-width=".5"/><path d="M129.376 485.005l-.239-13.715" stroke="#fff" stroke-width=".5" stroke-dasharray="10 10"/><path d="M112.05 484.453h14.902c1.017 0 1.298-.928 1.311-1.392-.145-1.086-.5-3.57-.755-4.81-.254-1.24-.715-1.63-.914-1.67-3.179.08-10.204.239-12.874.239-2.385-.286-2.822.835-2.742 1.431-.093.914-.278 3.157-.278 4.81-.318 1.368.768 1.498 1.35 1.392z" stroke="#fff" stroke-width=".5" stroke-dasharray="3 3"/><path d="M132.383 561.211l-.81-32.307m.044 32.331l-.79-32.4m-.207.741l-20.873.625m.051-.73l.625 29.944m-.272-6.421c-9.581-1.767-30.392-6.036-36.997-8.973-11.109-3.874-33.316-12.754-37.143-15.87m-6.497 5.916l-.68-31.085m1.482 31.64l-.865-31.95m6.669 32.552l-.643-33.505c-1.49.539-4.752 1.858-5.879 2.818m6.522 30.694c-.8-.162-3.085-1.037-5.826-3.236m4.992 2.94l-.47-32.941m195.336 58.265l12.445-1.362 18.19-2.411 15.697-2.686 14.767-3.048 12.186-2.686 9.914-2.841 10.069-3.1c.43-.229 1.407-.897 1.873-1.735.465-.839 1.924-4.427 2.595-6.117l1.052-3.187c.379-1.747 1.136-5.29 1.136-5.492 0-.202.421-5.387.631-7.954.021-2.588.013-7.96-.189-8.743-.151-.859-.799-4.924-1.104-6.85-.379-2.093-1.306-6.641-1.988-8.08a1366.67 1366.67 0 00-2.966-7.796c-.126-.431-.896-1.446-2.965-2.052-2.07-.606-10.706-2.63-14.766-3.566l-16.469-3.283-15.806-2.683-19.593-2.683-9.402-.978" stroke="#fff" stroke-width=".5"/><path d="M325.146 540.424c-.623.073-1.7-.225-1.016-2.007.683-1.782.962-2.899 1.016-3.235l.875-2.136.275-.763c.437-.418 1.378-1.447 1.647-2.228.335-.977 1.342-5.097 1.556-6.684.213-1.587.305-7.477.335-7.874.031-.396.183-7.507-.335-8.942-.244-1.245-1.363-6.988-1.892-9.704-.099-.267-.425-.841-.938-1.001-.861-.685-1.9-2.033-2.01-2.873-.089-.672-1.539-4.008-2.254-5.592-.272-.876-.397-2.515 1.282-2.055m-2.258-1.225c.141.397.18 1.201-.793 1.244-1.143-.318-7.316-1.702-10.259-2.355l-8.699-1.825c-.273-.327-.656-1.106 0-1.614m12.593 4.325c-.267-.418-.545-1.285.476-1.407m-6.64-.046c.534-.044 1.424-.385.714-1.407" stroke="#fff" stroke-width=".5"/><path d="M326.304 495.005c1.19.367.605-.37.163-.785l-.092-.047c0-.023.041-.185.207-.656-.143-.808-.529-.467-.704-.196l-.196.899c.038.071.216.327.622.785zm.659 38.145c.662 1.055.7.114.636-.488l-.039-.096c.015-.017.152-.113.585-.362.419-.706-.096-.699-.405-.608l-.736.553c-.017.079-.05.389-.041 1.001z" fill="#fff"/><path d="M318.936 536.808l3.966-.714c.818-.069 1.056-.5 1.072-.706l1.757-3.844 1.243-4.55c.202-1.252.645-4.1.793-5.476.148-1.375-.591-1.701-.979-1.693a98.22 98.22 0 01-5.261 0c-2.116-.063-2.345.997-2.195 1.535-.062 1.507-.227 4.883-.396 6.322 0 1.587-1.164 6.639-1.428 8.147-.212 1.206.863 1.155 1.428.979zm1.342-29.448h6.005c.563 0 .707-.429.708-.644a25.513 25.513 0 00-.378-3.21c-.316-1.685-2.351-8.074-3.088-10.075-.281-1.32-1.217-1.626-1.65-1.615-.912-.187-3.024-.604-4.175-.772-1.151-.169-1.182.608-1.053 1.018l1.544 6.74c.292 2.095.891 6.516.947 7.442.057.927.784 1.13 1.14 1.116zm2.42 34.767c.386-.439.809-1.361-.586-1.536-1.848.785-6.931 2.406-9.241 3.119l-4.766 1.263m-102.926 9.432l-72.969 1.261m73.284-2.104l-73.178 1.26" stroke="#fff" stroke-width=".5"/><path d="M331.813 511.979c.621 19.385-4.503 28.167-7.142 30.134-.261.112-1.156.484-2.649 1.078-4.94 2.364-31.388 8.587-38.292 9.91-6.487 1.997-42.596 6.659-62.696 8.517-15.643 2.011-45.936 2.106-59.128 1.903l-44.426-3.212c-5.582-.636-17.857-2.222-22.3-3.472-5.12-.087-29.588-7.292-34.575-8.957-5.232-1.406-29.907-13.046-31.078-13.437-1.171-.39-19.517-11.705-22.088-13.563-2.57-1.857-.714-3.035.583-3.934.073-.951 13.864-9.724 20.75-13.992 3.475-3.292 29.893-14.358 29.893-14.358s23.22-7.134 26.693-8.963c3.657-1.371 35.133-6.645 38.147-7.572 3.015-.928 39.649-4.176 44.171-4.176 4.173-.928 42.083-.232 45.793 0 2.968.186 32.204 2.717 46.451 3.959l37.177 6.034c8.333 1.87 25.156 5.654 25.789 5.835.791.226 1.13.621 1.785 1.239 1.708 3.262 3.416 2.485 7.142 27.027z" stroke="#fff" stroke-width=".5"/><path d="M230.249 560.493v-1.843l.44-1.067-.44-.909.44-.356v-.237h-.277l.751-1.225v-.633h-.474l-.277-1.067-.163-1.146-.746-1.265v-2.134l.356-1.502v-3.004l.553-.988.988-.751.237-.355-.237-.593v-.633l.632-.355.316-.435v-.751l.632-1.265.514-1.343v-1.028l.395-.791.434-2.806v-.672l.672-.671v-.317h-.672l-.434-.355.434-1.107v-1.541l.316-1.977-.316-1.383-.434-1.976-.909-.632-.277-.514.553-.593-.908-1.225c.118-.923.355-2.814.355-3.004 0-.19.185-.949.277-1.304l.909-2.846 1.066-2.095.553-2.015.711-1.7.593-1.937v-.83l.514-1.422.592-1.937.474-.79v-.633l-.474-.672.869-.474v-.672l.316-1.937.87-1.897.869-1.581.434-.632 1.185-2.608 1.581-3.558.316-1.225-.316-.869.316-.791.434-.237.316-.632-.316-1.265c.343-.171 1.083-.688 1.304-1.383.221-.696.092-1.66 0-2.056v-1.067l-.513-3.636-.475-1.067m-39.436 92.452l-.895-35.202m24.801 23.469l-24.16.359m24.039-1.12l-24.063.292m22.018-.62v.37l-.511-23.383m-20.96 23.508l-.547-22.925m21.822 17.817l-21.412.319m28.61-18.638l-124.629 2.18m210.297-12.301a1.67 1.67 0 113.34 0 1.67 1.67 0 01-3.34 0z" stroke="#fff" stroke-width=".5"/><path d="M319.067 516.854a2.684 2.684 0 115.367 0 2.684 2.684 0 11-5.367 0zm1.016-6.179a1.67 1.67 0 113.34-.001 1.67 1.67 0 01-3.34.001z" stroke="#fff" stroke-width=".5"/><path d="M319.068 510.675a2.685 2.685 0 115.37 0 2.685 2.685 0 01-5.37 0zm-59.691 44.378l-1.473.669-27.659 3.795m32.569-3.492l-.375-1.559m-1.819 1.911l-.404-1.56" stroke="#fff" stroke-width=".5"/><path d="M261.782 555.613v-.941h-.729c.038.119.113.493.113 1.038.26.286.519.054.616-.097z" fill="#fff"/><path d="M259.361 555.049l4.053-.801 6.501-.715 8.726-1.603 22.046-4.878 7.59-2.066m10.79-3.899c.632.633 1.014 0 1.126-.395 0-.059-.051-.3-.257-.79-.205-.49-.665-.349-.869-.218-.073.092-.174.502 0 1.403zm-2.409.555c.632.632 1.014 0 1.126-.395 0-.06-.051-.301-.257-.791-.205-.49-.665-.349-.869-.217-.072.092-.174.502 0 1.403zm2.311-.55l-1.107.178m-1.421.278l-1.303.276c-.395 0-1.043-.182-.474-.909a39.412 39.412 0 011.777-.296m2.37-.516l-1.304.237" stroke="#fff" stroke-width=".5"/><path d="M320.293 540.715l1.52-.316.237-.158c.099-.231.17-.712-.336-.791a7.03 7.03 0 00-1.303.336l-.494.119m-12.623 5.285l2.466-.938c.652-.518 2.005-1.625 2.198-1.904.241-.348 2.198-2.359 3.082-5.658.708-2.638 1.367-6.712 1.608-8.419.277-3.433.81-10.565.724-11.638v-7.508l-.965-8.285-1.983-9.439c-.385-1.43-1.357-4.462-2.171-5.148-1.046-1.153-2.252-2.977-4.155-3.701m11.995 2.539c.331-.114.879-.502.425-1.148m-1.997 4.038l1.671.382c.245-.042.663-.243.368-.708-.759-.352-1.718-.614-2.039-.666m-1.332.656l-.978-.142m1.134-.78l-1.006-.199m-1.318.75c.261.805.902.467 1.191.198 0-.066.028-.363.141-1.02-.09-.658-.718-.52-1.02-.369-.052.033-.187.318-.312 1.191zm-.097-.114l-1.388-.283c-.264-.203-.635-.678 0-.95.759.102 1.383.241 1.6.298m-85.609 63.352c1.47.7 4.766 2.216 6.193 2.678 1.428.462 5.58 1.75 7.478 2.336.894.284 3.207.862 5.317.9 2.637.047 7.835-.047 10.733-.473 2.318-.341 2.602-.465 2.454-.484" stroke="#fff" stroke-width=".5"/><path d="M229.5 548.818l5.604 2.329 7.241 2.304c.727.313 2.77.971 5.128 1.1 2.358.13 3.661.162 4.017.162 1.986-.055 6.175-.218 7.037-.43.862-.212 5.253-.798 7.34-1.064l10.007-1.656 12.615-2.602 7.18-1.578 10.711-2.823c.525-.081 1.862-.495 3.008-1.499 1.146-1.005 2.065-2.072 2.382-2.48.498-.747 1.574-2.491 1.893-3.488.318-.997.744-2.69.917-3.411l.988-5.737.562-5.921.361-7.165m-.017-.007v-6.297l-1.102-8.955-2.787-10.742c-.6-1.097-2.269-3.413-3.795-4.446-1.705-1.153-1.994-1.634-5.14-2.258l-9.296-1.514-10.305-1.947-11.656-1.703-11.611-1.44-9.148-.544c-1.536.022-4.798.218-5.566.832m71.276 12.042c.284.624.893.345 1.162.128v-1.077c-.249-.76-.878-.392-1.162-.114v1.063z" stroke="#fff" stroke-width=".5"/><path d="M248.573 478.388a2.39 2.39 0 114.778 0 2.39 2.39 0 11-4.778 0zm1.136 72.966a2.39 2.39 0 114.78-.002 2.39 2.39 0 01-4.78.002zm8.82-1.718l3.94-.577c.792-.689.131-.901-.298-.921-.904.089-2.954.316-3.921.519-.723.51-.115.865.279.979zm2.792-.446l-.093-.957m-1.344 1.09v-.851m-29.985-4.219c.753.352 2.821 1.14 5.076 1.47 2.254.329 4.232.475 4.94.506l5.953-.253 7.687-.253 7.879-.693 7.349-.738 9.202-.909 12.224-1.556 10.616-1.656 7.126-1.224c.985-.173 3.076-1.158 3.56-3.712.485-2.553 1.134-5.91 1.398-7.27l.559-7.363c.015-4.8-.014-14.661-.256-15.705-.299-1.621-.948-5.615-1.235-7.409l-1.141-5.359c-.171-.816-1.239-2.517-4.146-2.797-3.056-.503-7.018-1.297-8.617-1.631l-10.016-1.677-11.604-1.104-19.356-.789h-12.786" stroke="#fff" stroke-width=".5"/><path d="M276.621 541.309h.871l-.193-2.742h-.678v2.742zm-19.628 1.75h.774v-2.774h-.774v2.774zm5.705-17.319l-20.95.355v1.888h-3.254l-.411-26.138h3.227v1.46h4.132c1.295.02 3.98.049 4.358 0 .378-.05.487-.418.493-.597l-.201-9.134c-.021-1.472-.05-4.62 0-5.443.051-.822.833-1.017 1.218-1.012h4.475v-1.614h1.075v1.709l3.369.158 5.708.174 9.473.269v-1.171h1.154v1.266c1.107.01 3.511.041 4.27.079.759.038.936.719.929 1.055l.285 8.769c-.017 1.26-.04 3.896 0 4.368.04.472.326.581.464.576h10.366c.67-.19.806-.722.79-.964l-.111-4.015c-.052-1.027-.126-3.186 0-3.604.158-.521.743-.679 1.422-.679.872-.089 1.217.542 1.28.869v7.303c-.038.657.171.804.281.795h12.131c1.618-.16 2.022.401 2.022.701l.1 3.525h.601v-.22h.32v1.242h-.42v-.361h-.601l.24 4.867.109 7.931h.799v.994l-.799-.166v2.979c-.111.927-.8 1.131-1.131 1.117h-8.75c-.792.008-2.613.019-3.564 0-.95-.019-1.045.578-.974.879l.119 3.114v4.92c-.047.293-.38.855-1.33.76-.95-.095-1.156-.547-1.141-.76v-1.712c-.039-1.56-.123-4.939-.142-5.965-.019-1.027-1.258-1.042-1.876-.921h-8.573l-20.982.354z" stroke="#fff" stroke-width=".5"/><path d="M251.683 526.057l.198 15.232c-.074.137-.003.391.867.318.87-.072 3.166-.242 4.206-.318l9.408-.824 8.194-.472 6.479-.556c.275-.009.831-.137.853-.573.023-.437.01-4.22 0-6.057l-.195-6.701c.009-.205-.056-.618-.392-.629" stroke="#fff" stroke-width=".5"/><path d="M282.84 525.436a.627.627 0 00-.518.587c-.033.415.098 3.931.168 5.638l.14 7.428c.014.289-.132.884-.825.951-.694.067-3.16.317-4.307.434l-10.556.657-9.341.895-5.509.406c-.335.019-1.02-.112-1.076-.783-.056-.672-.098-5.381-.112-7.652l-.224-7.638-.098-.419m-8.855.136l-.381-22.755m68.239 21.031l-12.552.178c-.436-.045-.573-.572-.587-.83v-4.062l-.171-9.503v-6.292c0-.432.379-.635.569-.683h12.108c.501-.07.773.196.846.338v3.105h-.731v-.292h-.267v1.23h.389v-.195h.681v2.25l.181 7.764v2.867h-.728l-.264-.282v1.523l.413-.447h.579l.133.298c-.006.734-.013 2.265 0 2.516.013.252-.394.45-.599.517zm-53.122-44.574h5.022l-.341.977h-4.26l-.421-.977zm3.221.938v-.865m-1.77.88v-.926m-11.771-5.243c1.741-.091 5.481-.267 6.509-.241 1.029.025 4.886.171 6.686.241l7.788.688 20.977 3.133 13.425 2.723" stroke="#fff" stroke-width=".5"/><path d="M229.952 546.569c1.384.458 4.712 1.429 6.959 1.649 2.808.275 7.623.491 11.419 0 2.768-.169 6.921-.491 8.651-.631l10.444-1.04c3.512-.326 10.861-1.044 12.167-1.309 1.305-.266 6.29-.929 8.619-1.227l8.479-1.03 6.382-1.287c1.779-.391 5.547-1.292 6.376-1.768 1.038-.596 2.445-1.517 3.048-2.641.483-.899.772-2.376.856-3.003l1.023-5.352.687-6.878.352-7.97-.268-7.029c-.223-1.724-.69-5.297-.773-5.796-.083-.499-.878-4.504-1.264-6.445l-.797-3.656c-.294-.912-1.406-2.883-3.498-3.465-2.093-.582-5.675-1.167-7.205-1.386l-11.073-2.047-9.091-1.157-11.947-.93-10.405-.521-11.199-.227h-3.061" stroke="#fff" stroke-width=".5"/><path d="M294.67 533.755h1.512l-.672-39.598-1.471.253.631 39.345z" fill="#fff"/><path d="M291.707 525.296c.352 0 1.07-.226 1.13-1.131.059-.904.024-6.257 0-8.821.302-.099.918-.452.963-1.075.044-.622-.624-.939-.963-1.019l-.186-10.415" stroke="#fff" stroke-width=".5"/><path d="M292.466 503.74l-6.909.111c-.358.049-1.06.415-1.001 1.482.06 1.068.099 8.995.112 12.824v5.041c-.05.303.029.919.74.964.712.044 5.187.018 7.336 0m-3.445.15v.945m-45.096.094l39.139-.58c.828-.012.967-.966.934-1.441l-.188-6.96v-4.867a1625.28 1625.28 0 01-.235-6.725c-.019-.696-.4-.901-.588-.917l-2.985.165-20.447.401h-8.666c-1.988.027-6.196.087-7.121.103-.925.017-1.225.833-1.259 1.239l.124 11.336c.021 2.175.07 6.69.103 7.351.033.661.806.872 1.189.895z" stroke="#fff" stroke-width=".5"/><path d="M287.076 514.487c.052 1.145 1.504 1.505 2.223 1.542.318.032 2.465-.243 2.377-1.806-.088-1.564-1.871-1.498-2.51-1.498-.638 0-2.156.331-2.09 1.762z" fill="#333" stroke="#fff" stroke-width=".5"/><path d="M282.394 502.78l-32.319.378m31.139-.557l-.241-13.518c.008-.2-.144-.587-.817-.529-.673.057-7.975-.153-11.541-.265l-16.902-.529c-.232-.048-.697.029-.697.722v9.092l.144 5.436" stroke="#fff" stroke-width=".5"/><path d="M275.485 490.566h1.028v-3.854h-1.028v3.854zm-19.801-.718h1.208v-4.343h-1.054l-.154 4.343zm60.404 54.523c-.443-.215-1.152-.808-.449-1.464m-5.794 3.221c.37-.391.835-1.23-.274-1.464m-6.262 3.355c-.54-.105-1.441-.54-.722-1.445m-71.137-5.101h-2.974v-11.778h5.493m-2.272-3.509l-.372-22.233m-.288 22.233l-.538-22.109m-8.013 22.359l-.372-22.274m-5.824 22.352l-.413-22.191m-1.445 22.238l-.331-22.233m22.554-.415l-20.819.331-10.492.206-20.116.29-28.089.661-25.61.413v-.776h13.336l22.599-.48 24.295-.516 34.285-.664h10.611m1.075-3.209l-12.282.181c-.311.031-.944-.137-.98-1.049-.037-.913-.015-4.395 0-6.022l-.342-10.699a1.318 1.318 0 011.186-1.026c.802-.073 5.122-.031 7.182 0h5.199c.251.03.761.241.798.844.036.602.243 8.828.342 12.865v.411m2.381-5.186l-.46-20.271" stroke="#fff" stroke-width=".5"/><path d="M240.939 479.865l-30.885.492h-5.526l.399 23.465" stroke="#fff" stroke-width=".5"/><path d="M204.251 503.791l-.399-23.895 17.745-.308 19.372-.399m17.659-4.73l.238-1.905-2.38-.453-.119 2.358c-.785-.421-2.532-1.291-3.237-1.405-.704-.114-5.196-.588-7.354-.81" stroke="#fff" stroke-width=".5"/><path d="M258 473.526l-.067.87h-.656v-.87c-.062 0-.19-.072-.201-.361-.013-.362.375-.482.857-.375.386.085.206.526.067.736z" fill="#fff"/><path d="M209.797 467.886l.213 11.917m-.122-2.035l-20.086.243-23.459.335-24.979.395-11.334.304v-.517l14.373-.304 20.39-.334 17.26-.365 14.92-.213h12.915m-79.966-6.029l.619 33.914m.619-.148l-.472-25.864m-.724 6.378l-20.952.333m21.026-.816l-20.989.222m9.553-12.103l.222 11.993m10.549.445l.293 16.122.803.134m.939 3.171l-22.162.344-.364-30.438m-.03 6.722l-12.411 2.841c-4.858 1.295-14.606 3.913-14.734 4.02-.13.107-11.426 4.153-17.058 6.163l-13.656 5.751-4.75 2.466-9.028 4.825-1.626 1.203m73.445-4.089l-20.387 5.695.31 15.736 20.646 3.054" stroke="#fff" stroke-width=".5"/><path d="M109.465 474.894l.355 10.337m100.624 18.294l-.45-23.057" stroke="#fff" stroke-width=".5" stroke-dasharray="10 10"/><path d="M241.452 497.917h6.363l1.387-5.335-1.387-5.726h-6.683l.32 11.061zM88.765 526.214l-10.722.265c-.584.032-1.79-.153-1.944-1.147-.153-.995-.36-9.083-.446-13.003-.053-.553.172-1.619 1.498-1.466 1.758 0 8.272-.149 11.309-.223" stroke="#fff" stroke-width=".5" stroke-dasharray="3 3"/><circle cx="229.9" cy="535.349" r=".32" transform="rotate(180 229.9 535.349)" stroke="#fff" stroke-width=".5"/><circle cx="198.133" cy="516.108" r=".25" transform="rotate(180 198.133 516.108)" stroke="#fff" stroke-width=".268"/><circle cx="186.519" cy="516.35" r=".25" transform="rotate(180 186.519 516.35)" stroke="#fff" stroke-width=".268"/><path d="M105.226 526.359l25.738 1.733 2.163-.482-.679-21.305h-2.474l-24.748 3.136-15.508 3.466v11.223l15.508 2.229z" stroke="#fff" stroke-width=".5"/><circle cx="130.92" cy="517.2" r=".488" transform="rotate(180 130.92 517.2)" fill="#333" stroke="#fff" stroke-width=".5"/><path d="M129.136 506.729l-10.556 9.021c-2.162-1.484-6.804-4.91-8.078-6.737m115.236-17.561a.67.67 0 111.34 0 .67.67 0 01-1.34 0zm-12.502 7.931h7.891c.59 0 .748-.497.754-.746-.063-3.744-.185-11.425-.168-12.198.017-.773-.581-.981-.882-.988l-5.146.127c.105.392.306 1.26.273 1.596-.034.337-.364.141-.525 0l-.63-1.596h-1.072c.07.364.223 1.193.273 1.596.051.404-.455.323-.714.232-.077-.435-.301-1.382-.582-1.698-.249 0-.539.394-.653.59.073 3.751.218 11.469.218 12.339.149.746.704.808.963.746z" stroke="#fff" stroke-width=".5"/><path d="M215.664 485.494l-1.008-3.258h-.652l.799 3.363h-1.072l-1.092-3.363h-.651l.819 3.363" stroke="#fff" stroke-width=".5"/><circle cx="214.201" cy="481.49" r=".492" transform="rotate(180 214.201 481.49)" stroke="#fff" stroke-width=".5"/><circle cx="212.267" cy="481.685" r=".492" transform="rotate(180 212.267 481.685)" stroke="#fff" stroke-width=".5"/><circle cx="277.884" cy="519.141" r=".499" transform="rotate(180 277.884 519.141)" fill="#333"/><circle cx="249.7" cy="519.602" r=".499" transform="rotate(180 249.7 519.602)" fill="#333"/><path d="M185.392 520.132h3.071v-7.9h-15.749v7.9h9.826m60.474-14.724h40.477m1.061-.047h8.192m3.476-.039h13.352m7.023-12.935h6.386m-3.399 29.057h8.204m-84.772-14.037h40.477m1.061-.047h8.192m3.476-.039h13.352m7.612-12.935h6.668m-4.881 29.058h8.641m-84.598-14.037h40.477m1.061-.047h8.192m3.476 0h13.352m8.186-12.935h6.596m-5.383 29.058h8.37m-8.37 1.999h7.677m-7.677 2h7.09m-7.902 2h7.587m-7.884 1.999h6.823m-6.901 2h5.901m-5.533-37.056h6.91m-6.479 1.999h7.1m-7.1 2h7.762m-7.534 2h7.838m-7.678 1.999h8.019m-30.77 4.937h13.352m-13.352 1.999h13.352m-13.352 2h13.352m-13.352 1.999h13.352m-13.352 2h13.352m-13.352 2h13.352m-13.352 2h13.352m-25.02-11.998h8.192m-8.192 1.999h2.767m-2.767 2h2.767m-2.767 1.999h8.192m-8.192 2h8.192m-8.192 2h8.192m-8.192 2h8.192m-49.73-11.951h40.477m-40.477 1.999h40.477m-40.477 2h40.477m-40.477 2h40.477m-40.477 1.999h40.477m-150.413-11.998h80.953m-111.453-.679h22.43m8.07-1.32h80.953m28.983 15.997h40.477m-150.413-11.998h80.953m-116.506-1.109h15.327m-21.378 1.539h12.268m-11.765 16.942h17.759m-8.117 1.289h26.187m-39.158-16.825h8.379m-7.877 14.131h9.975m143.889-1.969h40.477m-150.413-11.998h80.953m-80.953 1.999h39.635m15.75 0h7.397m-106.143 2.101l3.514-3.372m39.847 3.271h39.635m15.75 0h7.397m-106.041 2.821l6.818-6.579m36.441 5.758h39.635m15.75 0h7.397m-106.041 3.382l10.203-10.147m-10.203 12.764l13.404-13.164m-11.47 13.93l14.989-14.85m-12.476 15.385l15.328-15.671m-12.474 16.06l15.327-16.495m-12.372 16.823l15.38-17.125m-12.933 17.581l16.212-18.026m-13.705 18.41l16.214-18.796m-13.448 18.992l16.601-19.246m-13.705 19.44l16.858-19.891m-13.702 20.079l16.983-20.472m-13.384 20.473l15.123-18.544m-12.613 18.862l12.611-15.191m-9.716 15.321l9.908-11.137m-6.562 11.46l6.692-8.175m-3.795 8.367l3.924-5.023m.06-3.377h39.635m15.75 0h7.397m-62.782 2h80.953m-80.953 2h80.953m-80.953 2h80.953m-80.953 1.999h80.953" stroke="#fff" stroke-width=".5"/></svg>