<svg width="66" height="66" fill="none" xmlns="http://www.w3.org/2000/svg"><circle cx="32.557" cy="32.984" r="32.5" fill="#FF8A00"/><path d="M53.078 46.61a1.865 1.865 0 01-1.864 1.864H28.839a1.864 1.864 0 01-1.865-1.865 11.188 11.188 0 0111.187-11.187h3.73a11.188 11.188 0 0111.187 11.187zM40.026 18.64a7.458 7.458 0 100 14.916 7.458 7.458 0 000-14.915zm-16.781 0a7.458 7.458 0 100 14.916 7.458 7.458 0 000-14.915zm0 27.97a14.805 14.805 0 014.382-10.536 10.124 10.124 0 00-3.562-.652h-1.64a10.385 10.385 0 00-10.368 10.367v.82a1.865 1.865 0 001.865 1.865h9.659a5.595 5.595 0 01-.336-1.865z" fill="#fff"/></svg>