<svg width="66" height="66" fill="none" xmlns="http://www.w3.org/2000/svg"><circle cx="32.691" cy="32.828" r="32.5" fill="#FF8A00"/><path d="M53.51 18.328H12.073a1.072 1.072 0 000 2.143h6.769v5.986h-1.41a4.65 4.65 0 00-4.645 4.644v12.157a4.65 4.65 0 004.644 4.644h30.722a4.65 4.65 0 004.644-4.644V31.101a4.65 4.65 0 00-4.644-4.644h-1.41v-5.986h6.769a1.071 1.071 0 100-2.143zm-32.526 2.143h23.614v5.986H20.985v-5.986zm.105 9.976a1.072 1.072 0 011.37.65l2.602 7.313 1.962-7.234a1.071 1.071 0 012.07 0l1.96 7.234 2.604-7.313a1.072 1.072 0 112.019.719l-3.751 10.537a1.072 1.072 0 01-1.01.713h-.04a1.072 1.072 0 01-.994-.791l-1.823-6.724-1.824 6.724a1.072 1.072 0 01-.993.79 1.098 1.098 0 01-1.05-.711l-3.752-10.538a1.07 1.07 0 01.65-1.37zM44.62 42.46c-.9.46-1.898.698-2.91.695a6.438 6.438 0 01-6.43-6.43 6.438 6.438 0 016.43-6.43c.923 0 1.815.192 2.65.57a1.07 1.07 0 11-.884 1.953 4.292 4.292 0 00-6.053 3.907 4.291 4.291 0 006.227 3.824 1.073 1.073 0 011.504 1.288 1.073 1.073 0 01-.534.623z" fill="#fff"/></svg>