<svg width="66" height="66" fill="none" xmlns="http://www.w3.org/2000/svg"><circle cx="32.559" cy="32.828" r="32.5" fill="#FF8A00"/><path fill-rule="evenodd" clip-rule="evenodd" d="M15.093 12.66a.882.882 0 10-.768-.162v2.694c-.104 1.224 1.261 1.45 1.957 1.412h16.626c-1.087 11.651-3.255 35.302-3.225 36.691.03 1.39.994 1.712 1.472 1.699 2.63.038 8.237.09 9.626 0 1.363-.089 1.493-.527 1.961-2.099.128-.43.282-.946.493-1.563.981-2.868 1.245-6.983 1.094-9.588-.12-2.084-2.416-6.052-3.548-7.776-.817-1.289-2.609-4.09-3.239-4.987-.63-.896-.96-1.989-1.046-2.423l.59-12.714h-4.178v1.823c-5.347-.018-16.201-.043-16.84 0-.637.042-.92-.479-.983-.745.026-.678.061-2.036.008-2.262z" fill="#fff"/></svg>